<?xml version="1.0" encoding="utf-8" standalone="no"?>
<!DOCTYPE svg PUBLIC "-//W3C//DTD SVG 1.1//EN"
  "http://www.w3.org/Graphics/SVG/1.1/DTD/svg11.dtd">
<!-- Created with matplotlib (https://matplotlib.org/) -->
<svg height="345.6pt" version="1.1" viewBox="0 0 460.8 345.6" width="460.8pt" xmlns="http://www.w3.org/2000/svg" xmlns:xlink="http://www.w3.org/1999/xlink">
 <defs>
  <style type="text/css">
*{stroke-linecap:butt;stroke-linejoin:round;}
  </style>
 </defs>
 <g id="figure_1">
  <g id="patch_1">
   <path d="M 0 345.6 
L 460.8 345.6 
L 460.8 0 
L 0 0 
z
" style="fill:#ffffff;"/>
  </g>
  <g id="axes_1">
   <g id="patch_2">
    <path clip-path="url(#p5970cafc48)" d="M 271.135681 178.781005 
Q 181.415377 198.152586 94.973625 216.816292 
" style="fill:none;stroke:#feedb0;stroke-linecap:round;stroke-opacity:0.5;stroke-width:3;"/>
    <path clip-path="url(#p5970cafc48)" d="M 99.305624 217.927053 
L 94.973625 216.816292 
L 98.461433 214.01715 
L 99.305624 217.927053 
z
" style="fill:#feedb0;fill-opacity:0.5;stroke:#feedb0;stroke-linecap:round;stroke-opacity:0.5;stroke-width:3;"/>
   </g>
   <g id="patch_3">
    <path clip-path="url(#p5970cafc48)" d="M 83.228106 219.352276 
Q 105.916903 226.752665 125.416933 233.112976 
" style="fill:none;stroke:#feedb0;stroke-linecap:round;stroke-opacity:0.5;stroke-width:3;"/>
    <path clip-path="url(#p5970cafc48)" d="M 122.234288 229.971197 
L 125.416933 233.112976 
L 120.993923 233.774024 
L 122.234288 229.971197 
z
" style="fill:#feedb0;fill-opacity:0.5;stroke:#feedb0;stroke-linecap:round;stroke-opacity:0.5;stroke-width:3;"/>
   </g>
   <g id="patch_4">
    <path clip-path="url(#p5970cafc48)" d="M 136.84219 236.839544 
Q 200.015622 209.52804 260.110349 183.547541 
" style="fill:none;stroke:#feedb0;stroke-linecap:round;stroke-opacity:0.5;stroke-width:3;"/>
    <path clip-path="url(#p5970cafc48)" d="M 255.64512 183.29907 
L 260.110349 183.547541 
L 257.232435 186.970641 
L 255.64512 183.29907 
z
" style="fill:#feedb0;fill-opacity:0.5;stroke:#feedb0;stroke-linecap:round;stroke-opacity:0.5;stroke-width:3;"/>
   </g>
   <g id="patch_5">
    <path clip-path="url(#p5970cafc48)" d="M 163.441829 195.328713 
Q 127.482983 206.098187 94.73723 215.905358 
" style="fill:none;stroke:#fbd094;stroke-linecap:round;stroke-opacity:0.5;stroke-width:3;"/>
    <path clip-path="url(#p5970cafc48)" d="M 99.142875 216.673663 
L 94.73723 215.905358 
L 97.995261 212.841825 
L 99.142875 216.673663 
z
" style="fill:#fbd094;fill-opacity:0.5;stroke:#fbd094;stroke-linecap:round;stroke-opacity:0.5;stroke-width:3;"/>
   </g>
   <g id="patch_6">
    <path clip-path="url(#p5970cafc48)" d="M 83.228106 219.352276 
Q 105.916903 226.752665 125.416933 233.112976 
" style="fill:none;stroke:#fbd094;stroke-linecap:round;stroke-opacity:0.5;stroke-width:3;"/>
    <path clip-path="url(#p5970cafc48)" d="M 122.234288 229.971197 
L 125.416933 233.112976 
L 120.993923 233.774024 
L 122.234288 229.971197 
z
" style="fill:#fbd094;fill-opacity:0.5;stroke:#fbd094;stroke-linecap:round;stroke-opacity:0.5;stroke-width:3;"/>
   </g>
   <g id="patch_7">
    <path clip-path="url(#p5970cafc48)" d="M 136.84219 236.839544 
Q 147.806586 219.728741 156.961363 205.441992 
" style="fill:none;stroke:#fbd094;stroke-linecap:round;stroke-opacity:0.5;stroke-width:3;"/>
    <path clip-path="url(#p5970cafc48)" d="M 153.119325 207.730823 
L 156.961363 205.441992 
L 156.487206 209.88892 
L 153.119325 207.730823 
z
" style="fill:#fbd094;fill-opacity:0.5;stroke:#fbd094;stroke-linecap:round;stroke-opacity:0.5;stroke-width:3;"/>
   </g>
   <g id="patch_8">
    <path clip-path="url(#p5970cafc48)" d="M 320.041415 292.391895 
Q 320.174024 280.137927 320.270339 271.237865 
" style="fill:none;stroke:#f7b37c;stroke-linecap:round;stroke-opacity:0.5;stroke-width:3;"/>
    <path clip-path="url(#p5970cafc48)" d="M 318.227171 275.215988 
L 320.270339 271.237865 
L 322.226937 275.259273 
L 318.227171 275.215988 
z
" style="fill:#f7b37c;fill-opacity:0.5;stroke:#f7b37c;stroke-linecap:round;stroke-opacity:0.5;stroke-width:3;"/>
   </g>
   <g id="patch_9">
    <path clip-path="url(#p5970cafc48)" d="M 320.400357 259.223381 
Q 306.638692 247.636131 295.442757 238.209212 
" style="fill:none;stroke:#f7b37c;stroke-linecap:round;stroke-opacity:0.5;stroke-width:3;"/>
    <path clip-path="url(#p5970cafc48)" d="M 297.214396 242.315463 
L 295.442757 238.209212 
L 299.790741 239.255652 
L 297.214396 242.315463 
z
" style="fill:#f7b37c;fill-opacity:0.5;stroke:#f7b37c;stroke-linecap:round;stroke-opacity:0.5;stroke-width:3;"/>
   </g>
   <g id="patch_10">
    <path clip-path="url(#p5970cafc48)" d="M 286.251002 230.469802 
Q 301.072462 257.630637 314.287264 281.847216 
" style="fill:none;stroke:#f7b37c;stroke-linecap:round;stroke-opacity:0.5;stroke-width:3;"/>
    <path clip-path="url(#p5970cafc48)" d="M 314.126827 277.377958 
L 314.287264 281.847216 
L 310.615596 279.29401 
L 314.126827 277.377958 
z
" style="fill:#f7b37c;fill-opacity:0.5;stroke:#f7b37c;stroke-linecap:round;stroke-opacity:0.5;stroke-width:3;"/>
   </g>
   <g id="patch_11">
    <path clip-path="url(#p5970cafc48)" d="M 323.721546 238.151463 
Q 322.73496 244.411047 322.270574 247.35743 
" style="fill:none;stroke:#f29567;stroke-linecap:round;stroke-opacity:0.5;stroke-width:3;"/>
    <path clip-path="url(#p5970cafc48)" d="M 324.868947 243.717586 
L 322.270574 247.35743 
L 320.917723 243.094826 
L 324.868947 243.717586 
z
" style="fill:#f29567;fill-opacity:0.5;stroke:#f29567;stroke-linecap:round;stroke-opacity:0.5;stroke-width:3;"/>
   </g>
   <g id="patch_12">
    <path clip-path="url(#p5970cafc48)" d="M 320.400357 259.223381 
Q 306.638692 247.636131 295.442757 238.209212 
" style="fill:none;stroke:#f29567;stroke-linecap:round;stroke-opacity:0.5;stroke-width:3;"/>
    <path clip-path="url(#p5970cafc48)" d="M 297.214396 242.315463 
L 295.442757 238.209212 
L 299.790741 239.255652 
L 297.214396 242.315463 
z
" style="fill:#f29567;fill-opacity:0.5;stroke:#f29567;stroke-linecap:round;stroke-opacity:0.5;stroke-width:3;"/>
   </g>
   <g id="patch_13">
    <path clip-path="url(#p5970cafc48)" d="M 286.251002 230.469802 
Q 300.743851 233.440914 311.950933 235.738425 
" style="fill:none;stroke:#f29567;stroke-linecap:round;stroke-opacity:0.5;stroke-width:3;"/>
    <path clip-path="url(#p5970cafc48)" d="M 308.434085 232.975858 
L 311.950933 235.738425 
L 307.63077 236.894363 
L 308.434085 232.975858 
z
" style="fill:#f29567;fill-opacity:0.5;stroke:#f29567;stroke-linecap:round;stroke-opacity:0.5;stroke-width:3;"/>
   </g>
   <g id="patch_14">
    <path clip-path="url(#p5970cafc48)" d="M 163.441829 195.328713 
Q 213.008017 187.712616 259.25901 180.605916 
" style="fill:none;stroke:#eb7858;stroke-linecap:round;stroke-opacity:0.5;stroke-width:3;"/>
    <path clip-path="url(#p5970cafc48)" d="M 255.001664 179.236607 
L 259.25901 180.605916 
L 255.609155 183.190207 
L 255.001664 179.236607 
z
" style="fill:#eb7858;fill-opacity:0.5;stroke:#eb7858;stroke-linecap:round;stroke-opacity:0.5;stroke-width:3;"/>
   </g>
   <g id="patch_15">
    <path clip-path="url(#p5970cafc48)" d="M 271.135681 178.781005 
Q 265.555581 156.566019 260.792602 137.60408 
" style="fill:none;stroke:#eb7858;stroke-linecap:round;stroke-opacity:0.5;stroke-width:3;"/>
    <path clip-path="url(#p5970cafc48)" d="M 259.827333 141.970802 
L 260.792602 137.60408 
L 263.706818 140.996328 
L 259.827333 141.970802 
z
" style="fill:#eb7858;fill-opacity:0.5;stroke:#eb7858;stroke-linecap:round;stroke-opacity:0.5;stroke-width:3;"/>
   </g>
   <g id="patch_16">
    <path clip-path="url(#p5970cafc48)" d="M 257.865581 125.951289 
Q 214.141863 158.077093 173.121088 188.216922 
" style="fill:none;stroke:#eb7858;stroke-linecap:round;stroke-opacity:0.5;stroke-width:3;"/>
    <path clip-path="url(#p5970cafc48)" d="M 177.528742 187.460232 
L 173.121088 188.216922 
L 175.160329 184.236784 
L 177.528742 187.460232 
z
" style="fill:#eb7858;fill-opacity:0.5;stroke:#eb7858;stroke-linecap:round;stroke-opacity:0.5;stroke-width:3;"/>
   </g>
   <g id="patch_17">
    <path clip-path="url(#p5970cafc48)" d="M 368.977807 146.120332 
Q 324.163856 161.079674 282.531431 174.976991 
" style="fill:none;stroke:#e05d53;stroke-linecap:round;stroke-opacity:0.5;stroke-width:3;"/>
    <path clip-path="url(#p5970cafc48)" d="M 286.95889 175.607547 
L 282.531431 174.976991 
L 285.692352 171.813357 
L 286.95889 175.607547 
z
" style="fill:#e05d53;fill-opacity:0.5;stroke:#e05d53;stroke-linecap:round;stroke-opacity:0.5;stroke-width:3;"/>
   </g>
   <g id="patch_18">
    <path clip-path="url(#p5970cafc48)" d="M 271.135681 178.781005 
Q 221.569494 186.397102 175.318501 193.503802 
" style="fill:none;stroke:#e05d53;stroke-linecap:round;stroke-opacity:0.5;stroke-width:3;"/>
    <path clip-path="url(#p5970cafc48)" d="M 179.575847 194.873112 
L 175.318501 193.503802 
L 178.968356 190.919511 
L 179.575847 194.873112 
z
" style="fill:#e05d53;fill-opacity:0.5;stroke:#e05d53;stroke-linecap:round;stroke-opacity:0.5;stroke-width:3;"/>
   </g>
   <g id="patch_19">
    <path clip-path="url(#p5970cafc48)" d="M 163.441829 195.328713 
Q 220.684441 211.708334 274.702369 227.165232 
" style="fill:none;stroke:#e05d53;stroke-linecap:round;stroke-opacity:0.5;stroke-width:3;"/>
    <path clip-path="url(#p5970cafc48)" d="M 271.406916 224.141991 
L 274.702369 227.165232 
L 270.306504 227.98765 
L 271.406916 224.141991 
z
" style="fill:#e05d53;fill-opacity:0.5;stroke:#e05d53;stroke-linecap:round;stroke-opacity:0.5;stroke-width:3;"/>
   </g>
   <g id="patch_20">
    <path clip-path="url(#p5970cafc48)" d="M 286.251002 230.469802 
Q 300.012667 242.057052 311.208602 251.483971 
" style="fill:none;stroke:#e05d53;stroke-linecap:round;stroke-opacity:0.5;stroke-width:3;"/>
    <path clip-path="url(#p5970cafc48)" d="M 309.436963 247.377721 
L 311.208602 251.483971 
L 306.860618 250.437532 
L 309.436963 247.377721 
z
" style="fill:#e05d53;fill-opacity:0.5;stroke:#e05d53;stroke-linecap:round;stroke-opacity:0.5;stroke-width:3;"/>
   </g>
   <g id="patch_21">
    <path clip-path="url(#p5970cafc48)" d="M 320.400357 259.223381 
Q 245.931516 228.90861 174.569238 199.858458 
" style="fill:none;stroke:#e05d53;stroke-linecap:round;stroke-opacity:0.5;stroke-width:3;"/>
    <path clip-path="url(#p5970cafc48)" d="M 177.519958 203.219002 
L 174.569238 199.858458 
L 179.028105 199.514209 
L 177.519958 203.219002 
z
" style="fill:#e05d53;fill-opacity:0.5;stroke:#e05d53;stroke-linecap:round;stroke-opacity:0.5;stroke-width:3;"/>
   </g>
   <g id="patch_22">
    <path clip-path="url(#p5970cafc48)" d="M 163.441829 195.328713 
Q 235.19399 170.320791 303.778906 146.416755 
" style="fill:none;stroke:#e05d53;stroke-linecap:round;stroke-opacity:0.5;stroke-width:3;"/>
    <path clip-path="url(#p5970cafc48)" d="M 299.343516 145.844636 
L 303.778906 146.416755 
L 300.659977 149.621795 
L 299.343516 145.844636 
z
" style="fill:#e05d53;fill-opacity:0.5;stroke:#e05d53;stroke-linecap:round;stroke-opacity:0.5;stroke-width:3;"/>
   </g>
   <g id="patch_23">
    <path clip-path="url(#p5970cafc48)" d="M 315.125632 142.462058 
Q 254.296113 155.240695 196.74905 167.329777 
" style="fill:none;stroke:#e05d53;stroke-linecap:round;stroke-opacity:0.5;stroke-width:3;"/>
    <path clip-path="url(#p5970cafc48)" d="M 201.074777 168.464713 
L 196.74905 167.329777 
L 200.252435 164.550156 
L 201.074777 168.464713 
z
" style="fill:#e05d53;fill-opacity:0.5;stroke:#e05d53;stroke-linecap:round;stroke-opacity:0.5;stroke-width:3;"/>
   </g>
   <g id="patch_24">
    <path clip-path="url(#p5970cafc48)" d="M 184.987436 169.800574 
Q 272.688596 158.51311 357.063092 147.6538 
" style="fill:none;stroke:#e05d53;stroke-linecap:round;stroke-opacity:0.5;stroke-width:3;"/>
    <path clip-path="url(#p5970cafc48)" d="M 352.840514 146.180765 
L 357.063092 147.6538 
L 353.351117 150.148042 
L 352.840514 146.180765 
z
" style="fill:#e05d53;fill-opacity:0.5;stroke:#e05d53;stroke-linecap:round;stroke-opacity:0.5;stroke-width:3;"/>
   </g>
   <g id="patch_25">
    <path clip-path="url(#p5970cafc48)" d="M 315.125632 142.462058 
Q 337.731121 143.997689 356.99022 145.305994 
" style="fill:none;stroke:#ce4356;stroke-linecap:round;stroke-opacity:0.5;stroke-width:3;"/>
    <path clip-path="url(#p5970cafc48)" d="M 353.134969 143.039491 
L 356.99022 145.305994 
L 352.863867 147.030293 
L 353.134969 143.039491 
z
" style="fill:#ce4356;fill-opacity:0.5;stroke:#ce4356;stroke-linecap:round;stroke-opacity:0.5;stroke-width:3;"/>
   </g>
   <g id="patch_26">
    <path clip-path="url(#p5970cafc48)" d="M 368.977807 146.120332 
Q 312.10727 105.906445 257.975339 67.629061 
" style="fill:none;stroke:#ce4356;stroke-linecap:round;stroke-opacity:0.5;stroke-width:3;"/>
    <path clip-path="url(#p5970cafc48)" d="M 260.086609 71.571464 
L 257.975339 67.629061 
L 262.396023 68.305487 
L 260.086609 71.571464 
z
" style="fill:#ce4356;fill-opacity:0.5;stroke:#ce4356;stroke-linecap:round;stroke-opacity:0.5;stroke-width:3;"/>
   </g>
   <g id="patch_27">
    <path clip-path="url(#p5970cafc48)" d="M 248.169163 60.694988 
Q 277.163454 60.685999 302.803644 60.678051 
" style="fill:none;stroke:#ce4356;stroke-linecap:round;stroke-opacity:0.5;stroke-width:3;"/>
    <path clip-path="url(#p5970cafc48)" d="M 298.803024 58.679291 
L 302.803644 60.678051 
L 298.804264 62.679291 
L 298.803024 58.679291 
z
" style="fill:#ce4356;fill-opacity:0.5;stroke:#ce4356;stroke-linecap:round;stroke-opacity:0.5;stroke-width:3;"/>
   </g>
   <g id="patch_28">
    <path clip-path="url(#p5970cafc48)" d="M 314.818405 60.674326 
Q 348.854624 68.4489 379.620962 75.476565 
" style="fill:none;stroke:#ce4356;stroke-linecap:round;stroke-opacity:0.5;stroke-width:3;"/>
    <path clip-path="url(#p5970cafc48)" d="M 376.166771 72.636044 
L 379.620962 75.476565 
L 375.27603 76.535606 
L 376.166771 72.636044 
z
" style="fill:#ce4356;fill-opacity:0.5;stroke:#ce4356;stroke-linecap:round;stroke-opacity:0.5;stroke-width:3;"/>
   </g>
   <g id="patch_29">
    <path clip-path="url(#p5970cafc48)" d="M 391.329267 78.150983 
Q 356.535545 107.514696 324.305098 134.715166 
" style="fill:none;stroke:#ce4356;stroke-linecap:round;stroke-opacity:0.5;stroke-width:3;"/>
    <path clip-path="url(#p5970cafc48)" d="M 328.651891 133.66379 
L 324.305098 134.715166 
L 326.072074 130.606906 
L 328.651891 133.66379 
z
" style="fill:#ce4356;fill-opacity:0.5;stroke:#ce4356;stroke-linecap:round;stroke-opacity:0.5;stroke-width:3;"/>
   </g>
   <g id="patch_30">
    <path clip-path="url(#p5970cafc48)" d="M 368.977807 146.120332 
Q 344.216177 107.054496 321.250198 70.821614 
" style="fill:none;stroke:#b8315d;stroke-linecap:round;stroke-opacity:0.5;stroke-width:3;"/>
    <path clip-path="url(#p5970cafc48)" d="M 321.702388 75.270831 
L 321.250198 70.821614 
L 325.080885 73.129392 
L 321.702388 75.270831 
z
" style="fill:#b8315d;fill-opacity:0.5;stroke:#b8315d;stroke-linecap:round;stroke-opacity:0.5;stroke-width:3;"/>
   </g>
   <g id="patch_31">
    <path clip-path="url(#p5970cafc48)" d="M 314.818405 60.674326 
Q 252.346558 76.029171 193.131871 90.583444 
" style="fill:none;stroke:#b8315d;stroke-linecap:round;stroke-opacity:0.5;stroke-width:3;"/>
    <path clip-path="url(#p5970cafc48)" d="M 197.493629 91.570902 
L 193.131871 90.583444 
L 196.538892 87.686513 
L 197.493629 91.570902 
z
" style="fill:#b8315d;fill-opacity:0.5;stroke:#b8315d;stroke-linecap:round;stroke-opacity:0.5;stroke-width:3;"/>
   </g>
   <g id="patch_32">
    <path clip-path="url(#p5970cafc48)" d="M 181.462653 93.451601 
Q 244.229349 116.466384 303.846963 138.326487 
" style="fill:none;stroke:#b8315d;stroke-linecap:round;stroke-opacity:0.5;stroke-width:3;"/>
    <path clip-path="url(#p5970cafc48)" d="M 300.779983 135.071702 
L 303.846963 138.326487 
L 299.402947 138.8272 
L 300.779983 135.071702 
z
" style="fill:#b8315d;fill-opacity:0.5;stroke:#b8315d;stroke-linecap:round;stroke-opacity:0.5;stroke-width:3;"/>
   </g>
   <g id="patch_33">
    <path clip-path="url(#p5970cafc48)" d="M 315.125632 142.462058 
Q 337.731121 143.997689 356.99022 145.305994 
" style="fill:none;stroke:#b8315d;stroke-linecap:round;stroke-opacity:0.5;stroke-width:3;"/>
    <path clip-path="url(#p5970cafc48)" d="M 353.134969 143.039491 
L 356.99022 145.305994 
L 352.863867 147.030293 
L 353.134969 143.039491 
z
" style="fill:#b8315d;fill-opacity:0.5;stroke:#b8315d;stroke-linecap:round;stroke-opacity:0.5;stroke-width:3;"/>
   </g>
   <g id="patch_34">
    <path clip-path="url(#p5970cafc48)" d="M 271.135681 178.781005 
Q 236.602465 157.850869 204.937636 138.659225 
" style="fill:none;stroke:#9f2462;stroke-linecap:round;stroke-opacity:0.5;stroke-width:3;"/>
    <path clip-path="url(#p5970cafc48)" d="M 207.321751 142.442873 
L 204.937636 138.659225 
L 209.395024 139.022122 
L 207.321751 142.442873 
z
" style="fill:#9f2462;fill-opacity:0.5;stroke:#9f2462;stroke-linecap:round;stroke-opacity:0.5;stroke-width:3;"/>
   </g>
   <g id="patch_35">
    <path clip-path="url(#p5970cafc48)" d="M 194.664357 132.432723 
Q 189.452246 117.042745 185.31604 104.829627 
" style="fill:none;stroke:#9f2462;stroke-linecap:round;stroke-opacity:0.5;stroke-width:3;"/>
    <path clip-path="url(#p5970cafc48)" d="M 184.704818 109.259797 
L 185.31604 104.829627 
L 188.493443 107.976706 
L 184.704818 109.259797 
z
" style="fill:#9f2462;fill-opacity:0.5;stroke:#9f2462;stroke-linecap:round;stroke-opacity:0.5;stroke-width:3;"/>
   </g>
   <g id="patch_36">
    <path clip-path="url(#p5970cafc48)" d="M 181.462653 93.451601 
Q 183.025291 127.299304 184.433246 157.796474 
" style="fill:none;stroke:#9f2462;stroke-linecap:round;stroke-opacity:0.5;stroke-width:3;"/>
    <path clip-path="url(#p5970cafc48)" d="M 186.246648 153.708495 
L 184.433246 157.796474 
L 182.250904 153.892965 
L 186.246648 153.708495 
z
" style="fill:#9f2462;fill-opacity:0.5;stroke:#9f2462;stroke-linecap:round;stroke-opacity:0.5;stroke-width:3;"/>
   </g>
   <g id="patch_37">
    <path clip-path="url(#p5970cafc48)" d="M 184.987436 169.800574 
Q 223.753884 173.841741 259.184306 177.535147 
" style="fill:none;stroke:#9f2462;stroke-linecap:round;stroke-opacity:0.5;stroke-width:3;"/>
    <path clip-path="url(#p5970cafc48)" d="M 255.413228 175.131197 
L 259.184306 177.535147 
L 254.9985 179.109639 
L 255.413228 175.131197 
z
" style="fill:#9f2462;fill-opacity:0.5;stroke:#9f2462;stroke-linecap:round;stroke-opacity:0.5;stroke-width:3;"/>
   </g>
   <g id="patch_38">
    <path clip-path="url(#p5970cafc48)" d="M 163.441829 195.328713 
Q 213.008017 187.712616 259.25901 180.605916 
" style="fill:none;stroke:#841c63;stroke-linecap:round;stroke-opacity:0.5;stroke-width:3;"/>
    <path clip-path="url(#p5970cafc48)" d="M 255.001664 179.236607 
L 259.25901 180.605916 
L 255.609155 183.190207 
L 255.001664 179.236607 
z
" style="fill:#841c63;fill-opacity:0.5;stroke:#841c63;stroke-linecap:round;stroke-opacity:0.5;stroke-width:3;"/>
   </g>
   <g id="patch_39">
    <path clip-path="url(#p5970cafc48)" d="M 271.135681 178.781005 
Q 315.949632 163.821663 357.582057 149.924347 
" style="fill:none;stroke:#841c63;stroke-linecap:round;stroke-opacity:0.5;stroke-width:3;"/>
    <path clip-path="url(#p5970cafc48)" d="M 353.154598 149.29379 
L 357.582057 149.924347 
L 354.421136 153.08798 
L 353.154598 149.29379 
z
" style="fill:#841c63;fill-opacity:0.5;stroke:#841c63;stroke-linecap:round;stroke-opacity:0.5;stroke-width:3;"/>
   </g>
   <g id="patch_40">
    <path clip-path="url(#p5970cafc48)" d="M 368.977807 146.120332 
Q 281.276647 157.407796 196.90215 168.267106 
" style="fill:none;stroke:#841c63;stroke-linecap:round;stroke-opacity:0.5;stroke-width:3;"/>
    <path clip-path="url(#p5970cafc48)" d="M 201.124729 169.740142 
L 196.90215 168.267106 
L 200.614125 165.772865 
L 201.124729 169.740142 
z
" style="fill:#841c63;fill-opacity:0.5;stroke:#841c63;stroke-linecap:round;stroke-opacity:0.5;stroke-width:3;"/>
   </g>
   <g id="patch_41">
    <path clip-path="url(#p5970cafc48)" d="M 184.987436 169.800574 
Q 183.424798 135.952871 182.016844 105.455701 
" style="fill:none;stroke:#841c63;stroke-linecap:round;stroke-opacity:0.5;stroke-width:3;"/>
    <path clip-path="url(#p5970cafc48)" d="M 180.203442 109.54368 
L 182.016844 105.455701 
L 184.199186 109.35921 
L 180.203442 109.54368 
z
" style="fill:#841c63;fill-opacity:0.5;stroke:#841c63;stroke-linecap:round;stroke-opacity:0.5;stroke-width:3;"/>
   </g>
   <g id="patch_42">
    <path clip-path="url(#p5970cafc48)" d="M 181.462653 93.451601 
Q 186.674764 108.841578 190.81097 121.054697 
" style="fill:none;stroke:#841c63;stroke-linecap:round;stroke-opacity:0.5;stroke-width:3;"/>
    <path clip-path="url(#p5970cafc48)" d="M 191.422193 116.624527 
L 190.81097 121.054697 
L 187.633568 117.907617 
L 191.422193 116.624527 
z
" style="fill:#841c63;fill-opacity:0.5;stroke:#841c63;stroke-linecap:round;stroke-opacity:0.5;stroke-width:3;"/>
   </g>
   <g id="patch_43">
    <path clip-path="url(#p5970cafc48)" d="M 194.664357 132.432723 
Q 250.58099 137.088216 303.155086 141.465417 
" style="fill:none;stroke:#841c63;stroke-linecap:round;stroke-opacity:0.5;stroke-width:3;"/>
    <path clip-path="url(#p5970cafc48)" d="M 299.334819 139.14043 
L 303.155086 141.465417 
L 299.002937 143.126638 
L 299.334819 139.14043 
z
" style="fill:#841c63;fill-opacity:0.5;stroke:#841c63;stroke-linecap:round;stroke-opacity:0.5;stroke-width:3;"/>
   </g>
   <g id="patch_44">
    <path clip-path="url(#p5970cafc48)" d="M 315.125632 142.462058 
Q 337.731121 143.997689 356.99022 145.305994 
" style="fill:none;stroke:#841c63;stroke-linecap:round;stroke-opacity:0.5;stroke-width:3;"/>
    <path clip-path="url(#p5970cafc48)" d="M 353.134969 143.039491 
L 356.99022 145.305994 
L 352.863867 147.030293 
L 353.134969 143.039491 
z
" style="fill:#841c63;fill-opacity:0.5;stroke:#841c63;stroke-linecap:round;stroke-opacity:0.5;stroke-width:3;"/>
   </g>
   <g id="patch_45">
    <path clip-path="url(#p5970cafc48)" d="M 368.977807 146.120332 
Q 270.420207 169.716493 175.124526 192.531701 
" style="fill:none;stroke:#841c63;stroke-linecap:round;stroke-opacity:0.5;stroke-width:3;"/>
    <path clip-path="url(#p5970cafc48)" d="M 179.480261 193.545394 
L 175.124526 192.531701 
L 178.548921 189.655329 
L 179.480261 193.545394 
z
" style="fill:#841c63;fill-opacity:0.5;stroke:#841c63;stroke-linecap:round;stroke-opacity:0.5;stroke-width:3;"/>
   </g>
   <g id="patch_46">
    <path clip-path="url(#p5970cafc48)" d="M 315.125632 142.462058 
Q 337.731121 143.997689 356.99022 145.305994 
" style="fill:none;stroke:#67195d;stroke-linecap:round;stroke-opacity:0.5;stroke-width:3;"/>
    <path clip-path="url(#p5970cafc48)" d="M 353.134969 143.039491 
L 356.99022 145.305994 
L 352.863867 147.030293 
L 353.134969 143.039491 
z
" style="fill:#67195d;fill-opacity:0.5;stroke:#67195d;stroke-linecap:round;stroke-opacity:0.5;stroke-width:3;"/>
   </g>
   <g id="patch_47">
    <path clip-path="url(#p5970cafc48)" d="M 368.977807 146.120332 
Q 324.163856 161.079674 282.531431 174.976991 
" style="fill:none;stroke:#67195d;stroke-linecap:round;stroke-opacity:0.5;stroke-width:3;"/>
    <path clip-path="url(#p5970cafc48)" d="M 286.95889 175.607547 
L 282.531431 174.976991 
L 285.692352 171.813357 
L 286.95889 175.607547 
z
" style="fill:#67195d;fill-opacity:0.5;stroke:#67195d;stroke-linecap:round;stroke-opacity:0.5;stroke-width:3;"/>
   </g>
   <g id="patch_48">
    <path clip-path="url(#p5970cafc48)" d="M 271.135681 178.781005 
Q 221.569494 186.397102 175.318501 193.503802 
" style="fill:none;stroke:#67195d;stroke-linecap:round;stroke-opacity:0.5;stroke-width:3;"/>
    <path clip-path="url(#p5970cafc48)" d="M 179.575847 194.873112 
L 175.318501 193.503802 
L 178.968356 190.919511 
L 179.575847 194.873112 
z
" style="fill:#67195d;fill-opacity:0.5;stroke:#67195d;stroke-linecap:round;stroke-opacity:0.5;stroke-width:3;"/>
   </g>
   <g id="patch_49">
    <path clip-path="url(#p5970cafc48)" d="M 163.441829 195.328713 
Q 159.325192 173.636863 155.833928 155.240298 
" style="fill:none;stroke:#67195d;stroke-linecap:round;stroke-opacity:0.5;stroke-width:3;"/>
    <path clip-path="url(#p5970cafc48)" d="M 154.6148 159.543056 
L 155.833928 155.240298 
L 158.544658 158.797255 
L 154.6148 159.543056 
z
" style="fill:#67195d;fill-opacity:0.5;stroke:#67195d;stroke-linecap:round;stroke-opacity:0.5;stroke-width:3;"/>
   </g>
   <g id="patch_50">
    <path clip-path="url(#p5970cafc48)" d="M 153.593398 143.434243 
Q 208.219639 159.861189 259.633866 175.322233 
" style="fill:none;stroke:#67195d;stroke-linecap:round;stroke-opacity:0.5;stroke-width:3;"/>
    <path clip-path="url(#p5970cafc48)" d="M 256.379268 172.255053 
L 259.633866 175.322233 
L 255.227363 176.085603 
L 256.379268 172.255053 
z
" style="fill:#67195d;fill-opacity:0.5;stroke:#67195d;stroke-linecap:round;stroke-opacity:0.5;stroke-width:3;"/>
   </g>
   <g id="patch_51">
    <path clip-path="url(#p5970cafc48)" d="M 271.135681 178.781005 
Q 289.791942 163.378038 305.861724 150.110518 
" style="fill:none;stroke:#67195d;stroke-linecap:round;stroke-opacity:0.5;stroke-width:3;"/>
    <path clip-path="url(#p5970cafc48)" d="M 301.503835 151.114908 
L 305.861724 150.110518 
L 304.050503 154.199464 
L 301.503835 151.114908 
z
" style="fill:#67195d;fill-opacity:0.5;stroke:#67195d;stroke-linecap:round;stroke-opacity:0.5;stroke-width:3;"/>
   </g>
   <g id="patch_52">
    <path clip-path="url(#p5970cafc48)" d="M 315.125632 142.462058 
Q 337.731121 143.997689 356.99022 145.305994 
" style="fill:none;stroke:#4a154f;stroke-linecap:round;stroke-opacity:0.5;stroke-width:3;"/>
    <path clip-path="url(#p5970cafc48)" d="M 353.134969 143.039491 
L 356.99022 145.305994 
L 352.863867 147.030293 
L 353.134969 143.039491 
z
" style="fill:#4a154f;fill-opacity:0.5;stroke:#4a154f;stroke-linecap:round;stroke-opacity:0.5;stroke-width:3;"/>
   </g>
   <g id="patch_53">
    <path clip-path="url(#p5970cafc48)" d="M 368.977807 146.120332 
Q 324.163856 161.079674 282.531431 174.976991 
" style="fill:none;stroke:#4a154f;stroke-linecap:round;stroke-opacity:0.5;stroke-width:3;"/>
    <path clip-path="url(#p5970cafc48)" d="M 286.95889 175.607547 
L 282.531431 174.976991 
L 285.692352 171.813357 
L 286.95889 175.607547 
z
" style="fill:#4a154f;fill-opacity:0.5;stroke:#4a154f;stroke-linecap:round;stroke-opacity:0.5;stroke-width:3;"/>
   </g>
   <g id="patch_54">
    <path clip-path="url(#p5970cafc48)" d="M 271.135681 178.781005 
Q 221.569494 186.397102 175.318501 193.503802 
" style="fill:none;stroke:#4a154f;stroke-linecap:round;stroke-opacity:0.5;stroke-width:3;"/>
    <path clip-path="url(#p5970cafc48)" d="M 179.575847 194.873112 
L 175.318501 193.503802 
L 178.968356 190.919511 
L 179.575847 194.873112 
z
" style="fill:#4a154f;fill-opacity:0.5;stroke:#4a154f;stroke-linecap:round;stroke-opacity:0.5;stroke-width:3;"/>
   </g>
   <g id="patch_55">
    <path clip-path="url(#p5970cafc48)" d="M 163.441829 195.328713 
Q 150.104093 181.862746 139.126691 170.779806 
" style="fill:none;stroke:#4a154f;stroke-linecap:round;stroke-opacity:0.5;stroke-width:3;"/>
    <path clip-path="url(#p5970cafc48)" d="M 140.520591 175.029164 
L 139.126691 170.779806 
L 143.362517 172.2143 
L 140.520591 175.029164 
z
" style="fill:#4a154f;fill-opacity:0.5;stroke:#4a154f;stroke-linecap:round;stroke-opacity:0.5;stroke-width:3;"/>
   </g>
   <g id="patch_56">
    <path clip-path="url(#p5970cafc48)" d="M 130.67202 162.24385 
Q 174.433759 171.481001 214.913709 180.025438 
" style="fill:none;stroke:#4a154f;stroke-linecap:round;stroke-opacity:0.5;stroke-width:3;"/>
    <path clip-path="url(#p5970cafc48)" d="M 211.413001 177.242446 
L 214.913709 180.025438 
L 210.586891 181.156209 
L 211.413001 177.242446 
z
" style="fill:#4a154f;fill-opacity:0.5;stroke:#4a154f;stroke-linecap:round;stroke-opacity:0.5;stroke-width:3;"/>
   </g>
   <g id="patch_57">
    <path clip-path="url(#p5970cafc48)" d="M 226.670995 182.507145 
Q 199.299605 188.057497 175.215413 192.941274 
" style="fill:none;stroke:#4a154f;stroke-linecap:round;stroke-opacity:0.5;stroke-width:3;"/>
    <path clip-path="url(#p5970cafc48)" d="M 179.533096 194.106442 
L 175.215413 192.941274 
L 178.738157 190.186229 
L 179.533096 194.106442 
z
" style="fill:#4a154f;fill-opacity:0.5;stroke:#4a154f;stroke-linecap:round;stroke-opacity:0.5;stroke-width:3;"/>
   </g>
   <g id="patch_58">
    <path clip-path="url(#p5970cafc48)" d="M 163.441829 195.328713 
Q 213.008017 187.712616 259.25901 180.605916 
" style="fill:none;stroke:#4a154f;stroke-linecap:round;stroke-opacity:0.5;stroke-width:3;"/>
    <path clip-path="url(#p5970cafc48)" d="M 255.001664 179.236607 
L 259.25901 180.605916 
L 255.609155 183.190207 
L 255.001664 179.236607 
z
" style="fill:#4a154f;fill-opacity:0.5;stroke:#4a154f;stroke-linecap:round;stroke-opacity:0.5;stroke-width:3;"/>
   </g>
   <g id="patch_59">
    <path clip-path="url(#p5970cafc48)" d="M 271.135681 178.781005 
Q 315.949632 163.821663 357.582057 149.924347 
" style="fill:none;stroke:#4a154f;stroke-linecap:round;stroke-opacity:0.5;stroke-width:3;"/>
    <path clip-path="url(#p5970cafc48)" d="M 353.154598 149.29379 
L 357.582057 149.924347 
L 354.421136 153.08798 
L 353.154598 149.29379 
z
" style="fill:#4a154f;fill-opacity:0.5;stroke:#4a154f;stroke-linecap:round;stroke-opacity:0.5;stroke-width:3;"/>
   </g>
   <g id="patch_60">
    <path clip-path="url(#p5970cafc48)" d="M 368.977807 146.120332 
Q 346.372318 144.584701 327.113219 143.276396 
" style="fill:none;stroke:#4a154f;stroke-linecap:round;stroke-opacity:0.5;stroke-width:3;"/>
    <path clip-path="url(#p5970cafc48)" d="M 330.96847 145.542899 
L 327.113219 143.276396 
L 331.239572 141.552097 
L 330.96847 145.542899 
z
" style="fill:#4a154f;fill-opacity:0.5;stroke:#4a154f;stroke-linecap:round;stroke-opacity:0.5;stroke-width:3;"/>
   </g>
   <g id="patch_61">
    <path clip-path="url(#p5970cafc48)" d="M 271.135681 178.781005 
Q 315.949632 163.821663 357.582057 149.924347 
" style="fill:none;stroke:#2f0f3e;stroke-linecap:round;stroke-opacity:0.5;stroke-width:3;"/>
    <path clip-path="url(#p5970cafc48)" d="M 353.154598 149.29379 
L 357.582057 149.924347 
L 354.421136 153.08798 
L 353.154598 149.29379 
z
" style="fill:#2f0f3e;fill-opacity:0.5;stroke:#2f0f3e;stroke-linecap:round;stroke-opacity:0.5;stroke-width:3;"/>
   </g>
   <g id="patch_62">
    <path clip-path="url(#p5970cafc48)" d="M 368.977807 146.120332 
Q 346.372318 144.584701 327.113219 143.276396 
" style="fill:none;stroke:#2f0f3e;stroke-linecap:round;stroke-opacity:0.5;stroke-width:3;"/>
    <path clip-path="url(#p5970cafc48)" d="M 330.96847 145.542899 
L 327.113219 143.276396 
L 331.239572 141.552097 
L 330.96847 145.542899 
z
" style="fill:#2f0f3e;fill-opacity:0.5;stroke:#2f0f3e;stroke-linecap:round;stroke-opacity:0.5;stroke-width:3;"/>
   </g>
   <g id="patch_63">
    <path clip-path="url(#p5970cafc48)" d="M 315.125632 142.462058 
Q 254.296113 155.240695 196.74905 167.329777 
" style="fill:none;stroke:#2f0f3e;stroke-linecap:round;stroke-opacity:0.5;stroke-width:3;"/>
    <path clip-path="url(#p5970cafc48)" d="M 201.074777 168.464713 
L 196.74905 167.329777 
L 200.252435 164.550156 
L 201.074777 168.464713 
z
" style="fill:#2f0f3e;fill-opacity:0.5;stroke:#2f0f3e;stroke-linecap:round;stroke-opacity:0.5;stroke-width:3;"/>
   </g>
   <g id="patch_64">
    <path clip-path="url(#p5970cafc48)" d="M 184.987436 169.800574 
Q 222.151145 136.925316 256.802631 106.272386 
" style="fill:none;stroke:#2f0f3e;stroke-linecap:round;stroke-opacity:0.5;stroke-width:3;"/>
    <path clip-path="url(#p5970cafc48)" d="M 252.481491 107.424667 
L 256.802631 106.272386 
L 255.131772 110.420666 
L 252.481491 107.424667 
z
" style="fill:#2f0f3e;fill-opacity:0.5;stroke:#2f0f3e;stroke-linecap:round;stroke-opacity:0.5;stroke-width:3;"/>
   </g>
   <g id="patch_65">
    <path clip-path="url(#p5970cafc48)" d="M 265.803735 98.309951 
Q 219.636943 105.023666 176.789339 111.254695 
" style="fill:none;stroke:#2f0f3e;stroke-linecap:round;stroke-opacity:0.5;stroke-width:3;"/>
    <path clip-path="url(#p5970cafc48)" d="M 181.035522 112.658239 
L 176.789339 111.254695 
L 180.459884 108.699876 
L 181.035522 112.658239 
z
" style="fill:#2f0f3e;fill-opacity:0.5;stroke:#2f0f3e;stroke-linecap:round;stroke-opacity:0.5;stroke-width:3;"/>
   </g>
   <g id="patch_66">
    <path clip-path="url(#p5970cafc48)" d="M 164.900387 112.983622 
Q 211.067179 106.269907 253.914782 100.038879 
" style="fill:none;stroke:#2f0f3e;stroke-linecap:round;stroke-opacity:0.5;stroke-width:3;"/>
    <path clip-path="url(#p5970cafc48)" d="M 249.6686 98.635334 
L 253.914782 100.038879 
L 250.244237 102.593698 
L 249.6686 98.635334 
z
" style="fill:#2f0f3e;fill-opacity:0.5;stroke:#2f0f3e;stroke-linecap:round;stroke-opacity:0.5;stroke-width:3;"/>
   </g>
   <g id="patch_67">
    <path clip-path="url(#p5970cafc48)" d="M 265.803735 98.309951 
Q 263.029935 107.968561 261.181958 114.403376 
" style="fill:none;stroke:#2f0f3e;stroke-linecap:round;stroke-opacity:0.5;stroke-width:3;"/>
    <path clip-path="url(#p5970cafc48)" d="M 264.208366 111.11083 
L 261.181958 114.403376 
L 260.363767 110.006722 
L 264.208366 111.11083 
z
" style="fill:#2f0f3e;fill-opacity:0.5;stroke:#2f0f3e;stroke-linecap:round;stroke-opacity:0.5;stroke-width:3;"/>
   </g>
   <g id="patch_68">
    <path clip-path="url(#p5970cafc48)" d="M 257.865581 125.951289 
Q 309.161058 135.262422 357.156362 143.974509 
" style="fill:none;stroke:#2f0f3e;stroke-linecap:round;stroke-opacity:0.5;stroke-width:3;"/>
    <path clip-path="url(#p5970cafc48)" d="M 353.577877 141.292262 
L 357.156362 143.974509 
L 352.863473 145.227948 
L 353.577877 141.292262 
z
" style="fill:#2f0f3e;fill-opacity:0.5;stroke:#2f0f3e;stroke-linecap:round;stroke-opacity:0.5;stroke-width:3;"/>
   </g>
   <g id="patch_69">
    <path clip-path="url(#p5970cafc48)" d="M 368.977807 146.120332 
Q 324.163856 161.079674 282.531431 174.976991 
" style="fill:none;stroke:#2f0f3e;stroke-linecap:round;stroke-opacity:0.5;stroke-width:3;"/>
    <path clip-path="url(#p5970cafc48)" d="M 286.95889 175.607547 
L 282.531431 174.976991 
L 285.692352 171.813357 
L 286.95889 175.607547 
z
" style="fill:#2f0f3e;fill-opacity:0.5;stroke:#2f0f3e;stroke-linecap:round;stroke-opacity:0.5;stroke-width:3;"/>
   </g>
   <g id="PathCollection_1">
    <defs>
     <path d="M 0 10 
C 2.652031 10 5.195799 8.946337 7.071068 7.071068 
C 8.946337 5.195799 10 2.652031 10 0 
C 10 -2.652031 8.946337 -5.195799 7.071068 -7.071068 
C 5.195799 -8.946337 2.652031 -10 0 -10 
C -2.652031 -10 -5.195799 -8.946337 -7.071068 -7.071068 
C -8.946337 -5.195799 -10 -2.652031 -10 0 
C -10 2.652031 -8.946337 5.195799 -7.071068 7.071068 
C -5.195799 8.946337 -2.652031 10 0 10 
z
" id="mdd3a70cc84" style="stroke:#feedb0;"/>
    </defs>
    <g clip-path="url(#p5970cafc48)">
     <use style="fill:#feedb0;stroke:#feedb0;" x="271.135681" xlink:href="#mdd3a70cc84" y="178.781005"/>
     <use style="fill:#feedb0;stroke:#feedb0;" x="83.228106" xlink:href="#mdd3a70cc84" y="219.352276"/>
     <use style="fill:#feedb0;stroke:#feedb0;" x="136.84219" xlink:href="#mdd3a70cc84" y="236.839544"/>
    </g>
   </g>
   <g id="PathCollection_2">
    <defs>
     <path d="M 0 10 
C 2.652031 10 5.195799 8.946337 7.071068 7.071068 
C 8.946337 5.195799 10 2.652031 10 0 
C 10 -2.652031 8.946337 -5.195799 7.071068 -7.071068 
C 5.195799 -8.946337 2.652031 -10 0 -10 
C -2.652031 -10 -5.195799 -8.946337 -7.071068 -7.071068 
C -8.946337 -5.195799 -10 -2.652031 -10 0 
C -10 2.652031 -8.946337 5.195799 -7.071068 7.071068 
C -5.195799 8.946337 -2.652031 10 0 10 
z
" id="md54ab09a00" style="stroke:#fbd094;"/>
    </defs>
    <g clip-path="url(#p5970cafc48)">
     <use style="fill:#fbd094;stroke:#fbd094;" x="163.441829" xlink:href="#md54ab09a00" y="195.328713"/>
     <use style="fill:#fbd094;stroke:#fbd094;" x="83.228106" xlink:href="#md54ab09a00" y="219.352276"/>
     <use style="fill:#fbd094;stroke:#fbd094;" x="136.84219" xlink:href="#md54ab09a00" y="236.839544"/>
    </g>
   </g>
   <g id="PathCollection_3">
    <defs>
     <path d="M 0 10 
C 2.652031 10 5.195799 8.946337 7.071068 7.071068 
C 8.946337 5.195799 10 2.652031 10 0 
C 10 -2.652031 8.946337 -5.195799 7.071068 -7.071068 
C 5.195799 -8.946337 2.652031 -10 0 -10 
C -2.652031 -10 -5.195799 -8.946337 -7.071068 -7.071068 
C -8.946337 -5.195799 -10 -2.652031 -10 0 
C -10 2.652031 -8.946337 5.195799 -7.071068 7.071068 
C -5.195799 8.946337 -2.652031 10 0 10 
z
" id="m8a75a0ecb0" style="stroke:#f7b37c;"/>
    </defs>
    <g clip-path="url(#p5970cafc48)">
     <use style="fill:#f7b37c;stroke:#f7b37c;" x="320.041415" xlink:href="#m8a75a0ecb0" y="292.391895"/>
     <use style="fill:#f7b37c;stroke:#f7b37c;" x="320.400357" xlink:href="#m8a75a0ecb0" y="259.223381"/>
     <use style="fill:#f7b37c;stroke:#f7b37c;" x="286.251002" xlink:href="#m8a75a0ecb0" y="230.469802"/>
    </g>
   </g>
   <g id="PathCollection_4">
    <defs>
     <path d="M 0 10 
C 2.652031 10 5.195799 8.946337 7.071068 7.071068 
C 8.946337 5.195799 10 2.652031 10 0 
C 10 -2.652031 8.946337 -5.195799 7.071068 -7.071068 
C 5.195799 -8.946337 2.652031 -10 0 -10 
C -2.652031 -10 -5.195799 -8.946337 -7.071068 -7.071068 
C -8.946337 -5.195799 -10 -2.652031 -10 0 
C -10 2.652031 -8.946337 5.195799 -7.071068 7.071068 
C -5.195799 8.946337 -2.652031 10 0 10 
z
" id="m15b9b4a998" style="stroke:#f29567;"/>
    </defs>
    <g clip-path="url(#p5970cafc48)">
     <use style="fill:#f29567;stroke:#f29567;" x="323.721546" xlink:href="#m15b9b4a998" y="238.151463"/>
     <use style="fill:#f29567;stroke:#f29567;" x="320.400357" xlink:href="#m15b9b4a998" y="259.223381"/>
     <use style="fill:#f29567;stroke:#f29567;" x="286.251002" xlink:href="#m15b9b4a998" y="230.469802"/>
    </g>
   </g>
   <g id="PathCollection_5">
    <defs>
     <path d="M 0 10 
C 2.652031 10 5.195799 8.946337 7.071068 7.071068 
C 8.946337 5.195799 10 2.652031 10 0 
C 10 -2.652031 8.946337 -5.195799 7.071068 -7.071068 
C 5.195799 -8.946337 2.652031 -10 0 -10 
C -2.652031 -10 -5.195799 -8.946337 -7.071068 -7.071068 
C -8.946337 -5.195799 -10 -2.652031 -10 0 
C -10 2.652031 -8.946337 5.195799 -7.071068 7.071068 
C -5.195799 8.946337 -2.652031 10 0 10 
z
" id="m35f1f618d0" style="stroke:#eb7858;"/>
    </defs>
    <g clip-path="url(#p5970cafc48)">
     <use style="fill:#eb7858;stroke:#eb7858;" x="163.441829" xlink:href="#m35f1f618d0" y="195.328713"/>
     <use style="fill:#eb7858;stroke:#eb7858;" x="271.135681" xlink:href="#m35f1f618d0" y="178.781005"/>
     <use style="fill:#eb7858;stroke:#eb7858;" x="257.865581" xlink:href="#m35f1f618d0" y="125.951289"/>
    </g>
   </g>
   <g id="PathCollection_6">
    <defs>
     <path d="M 0 10 
C 2.652031 10 5.195799 8.946337 7.071068 7.071068 
C 8.946337 5.195799 10 2.652031 10 0 
C 10 -2.652031 8.946337 -5.195799 7.071068 -7.071068 
C 5.195799 -8.946337 2.652031 -10 0 -10 
C -2.652031 -10 -5.195799 -8.946337 -7.071068 -7.071068 
C -8.946337 -5.195799 -10 -2.652031 -10 0 
C -10 2.652031 -8.946337 5.195799 -7.071068 7.071068 
C -5.195799 8.946337 -2.652031 10 0 10 
z
" id="m474711cc8a" style="stroke:#e05d53;"/>
    </defs>
    <g clip-path="url(#p5970cafc48)">
     <use style="fill:#e05d53;stroke:#e05d53;" x="368.977807" xlink:href="#m474711cc8a" y="146.120332"/>
     <use style="fill:#e05d53;stroke:#e05d53;" x="271.135681" xlink:href="#m474711cc8a" y="178.781005"/>
     <use style="fill:#e05d53;stroke:#e05d53;" x="163.441829" xlink:href="#m474711cc8a" y="195.328713"/>
     <use style="fill:#e05d53;stroke:#e05d53;" x="286.251002" xlink:href="#m474711cc8a" y="230.469802"/>
     <use style="fill:#e05d53;stroke:#e05d53;" x="320.400357" xlink:href="#m474711cc8a" y="259.223381"/>
     <use style="fill:#e05d53;stroke:#e05d53;" x="163.441829" xlink:href="#m474711cc8a" y="195.328713"/>
     <use style="fill:#e05d53;stroke:#e05d53;" x="315.125632" xlink:href="#m474711cc8a" y="142.462058"/>
     <use style="fill:#e05d53;stroke:#e05d53;" x="184.987436" xlink:href="#m474711cc8a" y="169.800574"/>
    </g>
   </g>
   <g id="PathCollection_7">
    <defs>
     <path d="M 0 10 
C 2.652031 10 5.195799 8.946337 7.071068 7.071068 
C 8.946337 5.195799 10 2.652031 10 0 
C 10 -2.652031 8.946337 -5.195799 7.071068 -7.071068 
C 5.195799 -8.946337 2.652031 -10 0 -10 
C -2.652031 -10 -5.195799 -8.946337 -7.071068 -7.071068 
C -8.946337 -5.195799 -10 -2.652031 -10 0 
C -10 2.652031 -8.946337 5.195799 -7.071068 7.071068 
C -5.195799 8.946337 -2.652031 10 0 10 
z
" id="mef2cbccd33" style="stroke:#ce4356;"/>
    </defs>
    <g clip-path="url(#p5970cafc48)">
     <use style="fill:#ce4356;stroke:#ce4356;" x="315.125632" xlink:href="#mef2cbccd33" y="142.462058"/>
     <use style="fill:#ce4356;stroke:#ce4356;" x="368.977807" xlink:href="#mef2cbccd33" y="146.120332"/>
     <use style="fill:#ce4356;stroke:#ce4356;" x="248.169163" xlink:href="#mef2cbccd33" y="60.694988"/>
     <use style="fill:#ce4356;stroke:#ce4356;" x="314.818405" xlink:href="#mef2cbccd33" y="60.674326"/>
     <use style="fill:#ce4356;stroke:#ce4356;" x="391.329267" xlink:href="#mef2cbccd33" y="78.150983"/>
    </g>
   </g>
   <g id="PathCollection_8">
    <defs>
     <path d="M 0 10 
C 2.652031 10 5.195799 8.946337 7.071068 7.071068 
C 8.946337 5.195799 10 2.652031 10 0 
C 10 -2.652031 8.946337 -5.195799 7.071068 -7.071068 
C 5.195799 -8.946337 2.652031 -10 0 -10 
C -2.652031 -10 -5.195799 -8.946337 -7.071068 -7.071068 
C -8.946337 -5.195799 -10 -2.652031 -10 0 
C -10 2.652031 -8.946337 5.195799 -7.071068 7.071068 
C -5.195799 8.946337 -2.652031 10 0 10 
z
" id="mbd41846ae0" style="stroke:#b8315d;"/>
    </defs>
    <g clip-path="url(#p5970cafc48)">
     <use style="fill:#b8315d;stroke:#b8315d;" x="368.977807" xlink:href="#mbd41846ae0" y="146.120332"/>
     <use style="fill:#b8315d;stroke:#b8315d;" x="314.818405" xlink:href="#mbd41846ae0" y="60.674326"/>
     <use style="fill:#b8315d;stroke:#b8315d;" x="181.462653" xlink:href="#mbd41846ae0" y="93.451601"/>
     <use style="fill:#b8315d;stroke:#b8315d;" x="315.125632" xlink:href="#mbd41846ae0" y="142.462058"/>
    </g>
   </g>
   <g id="PathCollection_9">
    <defs>
     <path d="M 0 10 
C 2.652031 10 5.195799 8.946337 7.071068 7.071068 
C 8.946337 5.195799 10 2.652031 10 0 
C 10 -2.652031 8.946337 -5.195799 7.071068 -7.071068 
C 5.195799 -8.946337 2.652031 -10 0 -10 
C -2.652031 -10 -5.195799 -8.946337 -7.071068 -7.071068 
C -8.946337 -5.195799 -10 -2.652031 -10 0 
C -10 2.652031 -8.946337 5.195799 -7.071068 7.071068 
C -5.195799 8.946337 -2.652031 10 0 10 
z
" id="m3335eceb46" style="stroke:#9f2462;"/>
    </defs>
    <g clip-path="url(#p5970cafc48)">
     <use style="fill:#9f2462;stroke:#9f2462;" x="271.135681" xlink:href="#m3335eceb46" y="178.781005"/>
     <use style="fill:#9f2462;stroke:#9f2462;" x="194.664357" xlink:href="#m3335eceb46" y="132.432723"/>
     <use style="fill:#9f2462;stroke:#9f2462;" x="181.462653" xlink:href="#m3335eceb46" y="93.451601"/>
     <use style="fill:#9f2462;stroke:#9f2462;" x="184.987436" xlink:href="#m3335eceb46" y="169.800574"/>
    </g>
   </g>
   <g id="PathCollection_10">
    <defs>
     <path d="M 0 10 
C 2.652031 10 5.195799 8.946337 7.071068 7.071068 
C 8.946337 5.195799 10 2.652031 10 0 
C 10 -2.652031 8.946337 -5.195799 7.071068 -7.071068 
C 5.195799 -8.946337 2.652031 -10 0 -10 
C -2.652031 -10 -5.195799 -8.946337 -7.071068 -7.071068 
C -8.946337 -5.195799 -10 -2.652031 -10 0 
C -10 2.652031 -8.946337 5.195799 -7.071068 7.071068 
C -5.195799 8.946337 -2.652031 10 0 10 
z
" id="mcc261c1851" style="stroke:#841c63;"/>
    </defs>
    <g clip-path="url(#p5970cafc48)">
     <use style="fill:#841c63;stroke:#841c63;" x="163.441829" xlink:href="#mcc261c1851" y="195.328713"/>
     <use style="fill:#841c63;stroke:#841c63;" x="271.135681" xlink:href="#mcc261c1851" y="178.781005"/>
     <use style="fill:#841c63;stroke:#841c63;" x="368.977807" xlink:href="#mcc261c1851" y="146.120332"/>
     <use style="fill:#841c63;stroke:#841c63;" x="184.987436" xlink:href="#mcc261c1851" y="169.800574"/>
     <use style="fill:#841c63;stroke:#841c63;" x="181.462653" xlink:href="#mcc261c1851" y="93.451601"/>
     <use style="fill:#841c63;stroke:#841c63;" x="194.664357" xlink:href="#mcc261c1851" y="132.432723"/>
     <use style="fill:#841c63;stroke:#841c63;" x="315.125632" xlink:href="#mcc261c1851" y="142.462058"/>
     <use style="fill:#841c63;stroke:#841c63;" x="368.977807" xlink:href="#mcc261c1851" y="146.120332"/>
    </g>
   </g>
   <g id="PathCollection_11">
    <defs>
     <path d="M 0 10 
C 2.652031 10 5.195799 8.946337 7.071068 7.071068 
C 8.946337 5.195799 10 2.652031 10 0 
C 10 -2.652031 8.946337 -5.195799 7.071068 -7.071068 
C 5.195799 -8.946337 2.652031 -10 0 -10 
C -2.652031 -10 -5.195799 -8.946337 -7.071068 -7.071068 
C -8.946337 -5.195799 -10 -2.652031 -10 0 
C -10 2.652031 -8.946337 5.195799 -7.071068 7.071068 
C -5.195799 8.946337 -2.652031 10 0 10 
z
" id="mcc66131f5d" style="stroke:#67195d;"/>
    </defs>
    <g clip-path="url(#p5970cafc48)">
     <use style="fill:#67195d;stroke:#67195d;" x="315.125632" xlink:href="#mcc66131f5d" y="142.462058"/>
     <use style="fill:#67195d;stroke:#67195d;" x="368.977807" xlink:href="#mcc66131f5d" y="146.120332"/>
     <use style="fill:#67195d;stroke:#67195d;" x="271.135681" xlink:href="#mcc66131f5d" y="178.781005"/>
     <use style="fill:#67195d;stroke:#67195d;" x="163.441829" xlink:href="#mcc66131f5d" y="195.328713"/>
     <use style="fill:#67195d;stroke:#67195d;" x="153.593398" xlink:href="#mcc66131f5d" y="143.434243"/>
     <use style="fill:#67195d;stroke:#67195d;" x="271.135681" xlink:href="#mcc66131f5d" y="178.781005"/>
    </g>
   </g>
   <g id="PathCollection_12">
    <defs>
     <path d="M 0 10 
C 2.652031 10 5.195799 8.946337 7.071068 7.071068 
C 8.946337 5.195799 10 2.652031 10 0 
C 10 -2.652031 8.946337 -5.195799 7.071068 -7.071068 
C 5.195799 -8.946337 2.652031 -10 0 -10 
C -2.652031 -10 -5.195799 -8.946337 -7.071068 -7.071068 
C -8.946337 -5.195799 -10 -2.652031 -10 0 
C -10 2.652031 -8.946337 5.195799 -7.071068 7.071068 
C -5.195799 8.946337 -2.652031 10 0 10 
z
" id="m73986ce9bd" style="stroke:#4a154f;"/>
    </defs>
    <g clip-path="url(#p5970cafc48)">
     <use style="fill:#4a154f;stroke:#4a154f;" x="315.125632" xlink:href="#m73986ce9bd" y="142.462058"/>
     <use style="fill:#4a154f;stroke:#4a154f;" x="368.977807" xlink:href="#m73986ce9bd" y="146.120332"/>
     <use style="fill:#4a154f;stroke:#4a154f;" x="271.135681" xlink:href="#m73986ce9bd" y="178.781005"/>
     <use style="fill:#4a154f;stroke:#4a154f;" x="163.441829" xlink:href="#m73986ce9bd" y="195.328713"/>
     <use style="fill:#4a154f;stroke:#4a154f;" x="130.67202" xlink:href="#m73986ce9bd" y="162.24385"/>
     <use style="fill:#4a154f;stroke:#4a154f;" x="226.670995" xlink:href="#m73986ce9bd" y="182.507145"/>
     <use style="fill:#4a154f;stroke:#4a154f;" x="163.441829" xlink:href="#m73986ce9bd" y="195.328713"/>
     <use style="fill:#4a154f;stroke:#4a154f;" x="271.135681" xlink:href="#m73986ce9bd" y="178.781005"/>
     <use style="fill:#4a154f;stroke:#4a154f;" x="368.977807" xlink:href="#m73986ce9bd" y="146.120332"/>
    </g>
   </g>
   <g id="PathCollection_13">
    <defs>
     <path d="M 0 10 
C 2.652031 10 5.195799 8.946337 7.071068 7.071068 
C 8.946337 5.195799 10 2.652031 10 0 
C 10 -2.652031 8.946337 -5.195799 7.071068 -7.071068 
C 5.195799 -8.946337 2.652031 -10 0 -10 
C -2.652031 -10 -5.195799 -8.946337 -7.071068 -7.071068 
C -8.946337 -5.195799 -10 -2.652031 -10 0 
C -10 2.652031 -8.946337 5.195799 -7.071068 7.071068 
C -5.195799 8.946337 -2.652031 10 0 10 
z
" id="m1797654171" style="stroke:#2f0f3e;"/>
    </defs>
    <g clip-path="url(#p5970cafc48)">
     <use style="fill:#2f0f3e;stroke:#2f0f3e;" x="271.135681" xlink:href="#m1797654171" y="178.781005"/>
     <use style="fill:#2f0f3e;stroke:#2f0f3e;" x="368.977807" xlink:href="#m1797654171" y="146.120332"/>
     <use style="fill:#2f0f3e;stroke:#2f0f3e;" x="315.125632" xlink:href="#m1797654171" y="142.462058"/>
     <use style="fill:#2f0f3e;stroke:#2f0f3e;" x="184.987436" xlink:href="#m1797654171" y="169.800574"/>
     <use style="fill:#2f0f3e;stroke:#2f0f3e;" x="265.803735" xlink:href="#m1797654171" y="98.309951"/>
     <use style="fill:#2f0f3e;stroke:#2f0f3e;" x="164.900387" xlink:href="#m1797654171" y="112.983622"/>
     <use style="fill:#2f0f3e;stroke:#2f0f3e;" x="265.803735" xlink:href="#m1797654171" y="98.309951"/>
     <use style="fill:#2f0f3e;stroke:#2f0f3e;" x="257.865581" xlink:href="#m1797654171" y="125.951289"/>
     <use style="fill:#2f0f3e;stroke:#2f0f3e;" x="368.977807" xlink:href="#m1797654171" y="146.120332"/>
    </g>
   </g>
   <g id="text_1">
    <g clip-path="url(#p5970cafc48)">
     <!-- yantian_chn -->
     <defs>
      <path d="M 32.171875 -5.078125 
Q 28.375 -14.84375 24.75 -17.8125 
Q 21.140625 -20.796875 15.09375 -20.796875 
L 7.90625 -20.796875 
L 7.90625 -13.28125 
L 13.1875 -13.28125 
Q 16.890625 -13.28125 18.9375 -11.515625 
Q 21 -9.765625 23.484375 -3.21875 
L 25.09375 0.875 
L 2.984375 54.6875 
L 12.5 54.6875 
L 29.59375 11.921875 
L 46.6875 54.6875 
L 56.203125 54.6875 
z
" id="DejaVuSans-121"/>
      <path d="M 34.28125 27.484375 
Q 23.390625 27.484375 19.1875 25 
Q 14.984375 22.515625 14.984375 16.5 
Q 14.984375 11.71875 18.140625 8.90625 
Q 21.296875 6.109375 26.703125 6.109375 
Q 34.1875 6.109375 38.703125 11.40625 
Q 43.21875 16.703125 43.21875 25.484375 
L 43.21875 27.484375 
z
M 52.203125 31.203125 
L 52.203125 0 
L 43.21875 0 
L 43.21875 8.296875 
Q 40.140625 3.328125 35.546875 0.953125 
Q 30.953125 -1.421875 24.3125 -1.421875 
Q 15.921875 -1.421875 10.953125 3.296875 
Q 6 8.015625 6 15.921875 
Q 6 25.140625 12.171875 29.828125 
Q 18.359375 34.515625 30.609375 34.515625 
L 43.21875 34.515625 
L 43.21875 35.40625 
Q 43.21875 41.609375 39.140625 45 
Q 35.0625 48.390625 27.6875 48.390625 
Q 23 48.390625 18.546875 47.265625 
Q 14.109375 46.140625 10.015625 43.890625 
L 10.015625 52.203125 
Q 14.9375 54.109375 19.578125 55.046875 
Q 24.21875 56 28.609375 56 
Q 40.484375 56 46.34375 49.84375 
Q 52.203125 43.703125 52.203125 31.203125 
z
" id="DejaVuSans-97"/>
      <path d="M 54.890625 33.015625 
L 54.890625 0 
L 45.90625 0 
L 45.90625 32.71875 
Q 45.90625 40.484375 42.875 44.328125 
Q 39.84375 48.1875 33.796875 48.1875 
Q 26.515625 48.1875 22.3125 43.546875 
Q 18.109375 38.921875 18.109375 30.90625 
L 18.109375 0 
L 9.078125 0 
L 9.078125 54.6875 
L 18.109375 54.6875 
L 18.109375 46.1875 
Q 21.34375 51.125 25.703125 53.5625 
Q 30.078125 56 35.796875 56 
Q 45.21875 56 50.046875 50.171875 
Q 54.890625 44.34375 54.890625 33.015625 
z
" id="DejaVuSans-110"/>
      <path d="M 18.3125 70.21875 
L 18.3125 54.6875 
L 36.8125 54.6875 
L 36.8125 47.703125 
L 18.3125 47.703125 
L 18.3125 18.015625 
Q 18.3125 11.328125 20.140625 9.421875 
Q 21.96875 7.515625 27.59375 7.515625 
L 36.8125 7.515625 
L 36.8125 0 
L 27.59375 0 
Q 17.1875 0 13.234375 3.875 
Q 9.28125 7.765625 9.28125 18.015625 
L 9.28125 47.703125 
L 2.6875 47.703125 
L 2.6875 54.6875 
L 9.28125 54.6875 
L 9.28125 70.21875 
z
" id="DejaVuSans-116"/>
      <path d="M 9.421875 54.6875 
L 18.40625 54.6875 
L 18.40625 0 
L 9.421875 0 
z
M 9.421875 75.984375 
L 18.40625 75.984375 
L 18.40625 64.59375 
L 9.421875 64.59375 
z
" id="DejaVuSans-105"/>
      <path d="M 50.984375 -16.609375 
L 50.984375 -23.578125 
L -0.984375 -23.578125 
L -0.984375 -16.609375 
z
" id="DejaVuSans-95"/>
      <path d="M 48.78125 52.59375 
L 48.78125 44.1875 
Q 44.96875 46.296875 41.140625 47.34375 
Q 37.3125 48.390625 33.40625 48.390625 
Q 24.65625 48.390625 19.8125 42.84375 
Q 14.984375 37.3125 14.984375 27.296875 
Q 14.984375 17.28125 19.8125 11.734375 
Q 24.65625 6.203125 33.40625 6.203125 
Q 37.3125 6.203125 41.140625 7.25 
Q 44.96875 8.296875 48.78125 10.40625 
L 48.78125 2.09375 
Q 45.015625 0.34375 40.984375 -0.53125 
Q 36.96875 -1.421875 32.421875 -1.421875 
Q 20.0625 -1.421875 12.78125 6.34375 
Q 5.515625 14.109375 5.515625 27.296875 
Q 5.515625 40.671875 12.859375 48.328125 
Q 20.21875 56 33.015625 56 
Q 37.15625 56 41.109375 55.140625 
Q 45.0625 54.296875 48.78125 52.59375 
z
" id="DejaVuSans-99"/>
      <path d="M 54.890625 33.015625 
L 54.890625 0 
L 45.90625 0 
L 45.90625 32.71875 
Q 45.90625 40.484375 42.875 44.328125 
Q 39.84375 48.1875 33.796875 48.1875 
Q 26.515625 48.1875 22.3125 43.546875 
Q 18.109375 38.921875 18.109375 30.90625 
L 18.109375 0 
L 9.078125 0 
L 9.078125 75.984375 
L 18.109375 75.984375 
L 18.109375 46.1875 
Q 21.34375 51.125 25.703125 53.5625 
Q 30.078125 56 35.796875 56 
Q 45.21875 56 50.046875 50.171875 
Q 54.890625 44.34375 54.890625 33.015625 
z
" id="DejaVuSans-104"/>
     </defs>
     <g transform="translate(246.846931 173.042166)scale(0.08 -0.08)">
      <use xlink:href="#DejaVuSans-121"/>
      <use x="59.179688" xlink:href="#DejaVuSans-97"/>
      <use x="120.458984" xlink:href="#DejaVuSans-110"/>
      <use x="183.837891" xlink:href="#DejaVuSans-116"/>
      <use x="223.046875" xlink:href="#DejaVuSans-105"/>
      <use x="250.830078" xlink:href="#DejaVuSans-97"/>
      <use x="312.109375" xlink:href="#DejaVuSans-110"/>
      <use x="375.488281" xlink:href="#DejaVuSans-95"/>
      <use x="425.488281" xlink:href="#DejaVuSans-99"/>
      <use x="480.46875" xlink:href="#DejaVuSans-104"/>
      <use x="543.847656" xlink:href="#DejaVuSans-110"/>
     </g>
    </g>
   </g>
   <g id="text_2">
    <g clip-path="url(#p5970cafc48)">
     <!-- sydney_aus -->
     <defs>
      <path d="M 44.28125 53.078125 
L 44.28125 44.578125 
Q 40.484375 46.53125 36.375 47.5 
Q 32.28125 48.484375 27.875 48.484375 
Q 21.1875 48.484375 17.84375 46.4375 
Q 14.5 44.390625 14.5 40.28125 
Q 14.5 37.15625 16.890625 35.375 
Q 19.28125 33.59375 26.515625 31.984375 
L 29.59375 31.296875 
Q 39.15625 29.25 43.1875 25.515625 
Q 47.21875 21.78125 47.21875 15.09375 
Q 47.21875 7.46875 41.1875 3.015625 
Q 35.15625 -1.421875 24.609375 -1.421875 
Q 20.21875 -1.421875 15.453125 -0.5625 
Q 10.6875 0.296875 5.421875 2 
L 5.421875 11.28125 
Q 10.40625 8.6875 15.234375 7.390625 
Q 20.0625 6.109375 24.8125 6.109375 
Q 31.15625 6.109375 34.5625 8.28125 
Q 37.984375 10.453125 37.984375 14.40625 
Q 37.984375 18.0625 35.515625 20.015625 
Q 33.0625 21.96875 24.703125 23.78125 
L 21.578125 24.515625 
Q 13.234375 26.265625 9.515625 29.90625 
Q 5.8125 33.546875 5.8125 39.890625 
Q 5.8125 47.609375 11.28125 51.796875 
Q 16.75 56 26.8125 56 
Q 31.78125 56 36.171875 55.265625 
Q 40.578125 54.546875 44.28125 53.078125 
z
" id="DejaVuSans-115"/>
      <path d="M 45.40625 46.390625 
L 45.40625 75.984375 
L 54.390625 75.984375 
L 54.390625 0 
L 45.40625 0 
L 45.40625 8.203125 
Q 42.578125 3.328125 38.25 0.953125 
Q 33.9375 -1.421875 27.875 -1.421875 
Q 17.96875 -1.421875 11.734375 6.484375 
Q 5.515625 14.40625 5.515625 27.296875 
Q 5.515625 40.1875 11.734375 48.09375 
Q 17.96875 56 27.875 56 
Q 33.9375 56 38.25 53.625 
Q 42.578125 51.265625 45.40625 46.390625 
z
M 14.796875 27.296875 
Q 14.796875 17.390625 18.875 11.75 
Q 22.953125 6.109375 30.078125 6.109375 
Q 37.203125 6.109375 41.296875 11.75 
Q 45.40625 17.390625 45.40625 27.296875 
Q 45.40625 37.203125 41.296875 42.84375 
Q 37.203125 48.484375 30.078125 48.484375 
Q 22.953125 48.484375 18.875 42.84375 
Q 14.796875 37.203125 14.796875 27.296875 
z
" id="DejaVuSans-100"/>
      <path d="M 56.203125 29.59375 
L 56.203125 25.203125 
L 14.890625 25.203125 
Q 15.484375 15.921875 20.484375 11.0625 
Q 25.484375 6.203125 34.421875 6.203125 
Q 39.59375 6.203125 44.453125 7.46875 
Q 49.3125 8.734375 54.109375 11.28125 
L 54.109375 2.78125 
Q 49.265625 0.734375 44.1875 -0.34375 
Q 39.109375 -1.421875 33.890625 -1.421875 
Q 20.796875 -1.421875 13.15625 6.1875 
Q 5.515625 13.8125 5.515625 26.8125 
Q 5.515625 40.234375 12.765625 48.109375 
Q 20.015625 56 32.328125 56 
Q 43.359375 56 49.78125 48.890625 
Q 56.203125 41.796875 56.203125 29.59375 
z
M 47.21875 32.234375 
Q 47.125 39.59375 43.09375 43.984375 
Q 39.0625 48.390625 32.421875 48.390625 
Q 24.90625 48.390625 20.390625 44.140625 
Q 15.875 39.890625 15.1875 32.171875 
z
" id="DejaVuSans-101"/>
      <path d="M 8.5 21.578125 
L 8.5 54.6875 
L 17.484375 54.6875 
L 17.484375 21.921875 
Q 17.484375 14.15625 20.5 10.265625 
Q 23.53125 6.390625 29.59375 6.390625 
Q 36.859375 6.390625 41.078125 11.03125 
Q 45.3125 15.671875 45.3125 23.6875 
L 45.3125 54.6875 
L 54.296875 54.6875 
L 54.296875 0 
L 45.3125 0 
L 45.3125 8.40625 
Q 42.046875 3.421875 37.71875 1 
Q 33.40625 -1.421875 27.6875 -1.421875 
Q 18.265625 -1.421875 13.375 4.4375 
Q 8.5 10.296875 8.5 21.578125 
z
M 31.109375 56 
z
" id="DejaVuSans-117"/>
     </defs>
     <g transform="translate(59.803731 213.613437)scale(0.08 -0.08)">
      <use xlink:href="#DejaVuSans-115"/>
      <use x="52.099609" xlink:href="#DejaVuSans-121"/>
      <use x="111.279297" xlink:href="#DejaVuSans-100"/>
      <use x="174.755859" xlink:href="#DejaVuSans-110"/>
      <use x="238.134766" xlink:href="#DejaVuSans-101"/>
      <use x="299.658203" xlink:href="#DejaVuSans-121"/>
      <use x="358.837891" xlink:href="#DejaVuSans-95"/>
      <use x="408.837891" xlink:href="#DejaVuSans-97"/>
      <use x="470.117188" xlink:href="#DejaVuSans-117"/>
      <use x="533.496094" xlink:href="#DejaVuSans-115"/>
     </g>
    </g>
   </g>
   <g id="text_3">
    <g clip-path="url(#p5970cafc48)">
     <!-- melbourne_aus -->
     <defs>
      <path d="M 52 44.1875 
Q 55.375 50.25 60.0625 53.125 
Q 64.75 56 71.09375 56 
Q 79.640625 56 84.28125 50.015625 
Q 88.921875 44.046875 88.921875 33.015625 
L 88.921875 0 
L 79.890625 0 
L 79.890625 32.71875 
Q 79.890625 40.578125 77.09375 44.375 
Q 74.3125 48.1875 68.609375 48.1875 
Q 61.625 48.1875 57.5625 43.546875 
Q 53.515625 38.921875 53.515625 30.90625 
L 53.515625 0 
L 44.484375 0 
L 44.484375 32.71875 
Q 44.484375 40.625 41.703125 44.40625 
Q 38.921875 48.1875 33.109375 48.1875 
Q 26.21875 48.1875 22.15625 43.53125 
Q 18.109375 38.875 18.109375 30.90625 
L 18.109375 0 
L 9.078125 0 
L 9.078125 54.6875 
L 18.109375 54.6875 
L 18.109375 46.1875 
Q 21.1875 51.21875 25.484375 53.609375 
Q 29.78125 56 35.6875 56 
Q 41.65625 56 45.828125 52.96875 
Q 50 49.953125 52 44.1875 
z
" id="DejaVuSans-109"/>
      <path d="M 9.421875 75.984375 
L 18.40625 75.984375 
L 18.40625 0 
L 9.421875 0 
z
" id="DejaVuSans-108"/>
      <path d="M 48.6875 27.296875 
Q 48.6875 37.203125 44.609375 42.84375 
Q 40.53125 48.484375 33.40625 48.484375 
Q 26.265625 48.484375 22.1875 42.84375 
Q 18.109375 37.203125 18.109375 27.296875 
Q 18.109375 17.390625 22.1875 11.75 
Q 26.265625 6.109375 33.40625 6.109375 
Q 40.53125 6.109375 44.609375 11.75 
Q 48.6875 17.390625 48.6875 27.296875 
z
M 18.109375 46.390625 
Q 20.953125 51.265625 25.265625 53.625 
Q 29.59375 56 35.59375 56 
Q 45.5625 56 51.78125 48.09375 
Q 58.015625 40.1875 58.015625 27.296875 
Q 58.015625 14.40625 51.78125 6.484375 
Q 45.5625 -1.421875 35.59375 -1.421875 
Q 29.59375 -1.421875 25.265625 0.953125 
Q 20.953125 3.328125 18.109375 8.203125 
L 18.109375 0 
L 9.078125 0 
L 9.078125 75.984375 
L 18.109375 75.984375 
z
" id="DejaVuSans-98"/>
      <path d="M 30.609375 48.390625 
Q 23.390625 48.390625 19.1875 42.75 
Q 14.984375 37.109375 14.984375 27.296875 
Q 14.984375 17.484375 19.15625 11.84375 
Q 23.34375 6.203125 30.609375 6.203125 
Q 37.796875 6.203125 41.984375 11.859375 
Q 46.1875 17.53125 46.1875 27.296875 
Q 46.1875 37.015625 41.984375 42.703125 
Q 37.796875 48.390625 30.609375 48.390625 
z
M 30.609375 56 
Q 42.328125 56 49.015625 48.375 
Q 55.71875 40.765625 55.71875 27.296875 
Q 55.71875 13.875 49.015625 6.21875 
Q 42.328125 -1.421875 30.609375 -1.421875 
Q 18.84375 -1.421875 12.171875 6.21875 
Q 5.515625 13.875 5.515625 27.296875 
Q 5.515625 40.765625 12.171875 48.375 
Q 18.84375 56 30.609375 56 
z
" id="DejaVuSans-111"/>
      <path d="M 41.109375 46.296875 
Q 39.59375 47.171875 37.8125 47.578125 
Q 36.03125 48 33.890625 48 
Q 26.265625 48 22.1875 43.046875 
Q 18.109375 38.09375 18.109375 28.8125 
L 18.109375 0 
L 9.078125 0 
L 9.078125 54.6875 
L 18.109375 54.6875 
L 18.109375 46.1875 
Q 20.953125 51.171875 25.484375 53.578125 
Q 30.03125 56 36.53125 56 
Q 37.453125 56 38.578125 55.875 
Q 39.703125 55.765625 41.0625 55.515625 
z
" id="DejaVuSans-114"/>
     </defs>
     <g transform="translate(106.141565 231.100705)scale(0.08 -0.08)">
      <use xlink:href="#DejaVuSans-109"/>
      <use x="97.412109" xlink:href="#DejaVuSans-101"/>
      <use x="158.935547" xlink:href="#DejaVuSans-108"/>
      <use x="186.71875" xlink:href="#DejaVuSans-98"/>
      <use x="250.195312" xlink:href="#DejaVuSans-111"/>
      <use x="311.376953" xlink:href="#DejaVuSans-117"/>
      <use x="374.755859" xlink:href="#DejaVuSans-114"/>
      <use x="415.853516" xlink:href="#DejaVuSans-110"/>
      <use x="479.232422" xlink:href="#DejaVuSans-101"/>
      <use x="540.755859" xlink:href="#DejaVuSans-95"/>
      <use x="590.755859" xlink:href="#DejaVuSans-97"/>
      <use x="652.035156" xlink:href="#DejaVuSans-117"/>
      <use x="715.414062" xlink:href="#DejaVuSans-115"/>
     </g>
    </g>
   </g>
   <g id="text_4">
    <g clip-path="url(#p5970cafc48)">
     <!-- singapore_sgp -->
     <defs>
      <path d="M 45.40625 27.984375 
Q 45.40625 37.75 41.375 43.109375 
Q 37.359375 48.484375 30.078125 48.484375 
Q 22.859375 48.484375 18.828125 43.109375 
Q 14.796875 37.75 14.796875 27.984375 
Q 14.796875 18.265625 18.828125 12.890625 
Q 22.859375 7.515625 30.078125 7.515625 
Q 37.359375 7.515625 41.375 12.890625 
Q 45.40625 18.265625 45.40625 27.984375 
z
M 54.390625 6.78125 
Q 54.390625 -7.171875 48.1875 -13.984375 
Q 42 -20.796875 29.203125 -20.796875 
Q 24.46875 -20.796875 20.265625 -20.09375 
Q 16.0625 -19.390625 12.109375 -17.921875 
L 12.109375 -9.1875 
Q 16.0625 -11.328125 19.921875 -12.34375 
Q 23.78125 -13.375 27.78125 -13.375 
Q 36.625 -13.375 41.015625 -8.765625 
Q 45.40625 -4.15625 45.40625 5.171875 
L 45.40625 9.625 
Q 42.625 4.78125 38.28125 2.390625 
Q 33.9375 0 27.875 0 
Q 17.828125 0 11.671875 7.65625 
Q 5.515625 15.328125 5.515625 27.984375 
Q 5.515625 40.671875 11.671875 48.328125 
Q 17.828125 56 27.875 56 
Q 33.9375 56 38.28125 53.609375 
Q 42.625 51.21875 45.40625 46.390625 
L 45.40625 54.6875 
L 54.390625 54.6875 
z
" id="DejaVuSans-103"/>
      <path d="M 18.109375 8.203125 
L 18.109375 -20.796875 
L 9.078125 -20.796875 
L 9.078125 54.6875 
L 18.109375 54.6875 
L 18.109375 46.390625 
Q 20.953125 51.265625 25.265625 53.625 
Q 29.59375 56 35.59375 56 
Q 45.5625 56 51.78125 48.09375 
Q 58.015625 40.1875 58.015625 27.296875 
Q 58.015625 14.40625 51.78125 6.484375 
Q 45.5625 -1.421875 35.59375 -1.421875 
Q 29.59375 -1.421875 25.265625 0.953125 
Q 20.953125 3.328125 18.109375 8.203125 
z
M 48.6875 27.296875 
Q 48.6875 37.203125 44.609375 42.84375 
Q 40.53125 48.484375 33.40625 48.484375 
Q 26.265625 48.484375 22.1875 42.84375 
Q 18.109375 37.203125 18.109375 27.296875 
Q 18.109375 17.390625 22.1875 11.75 
Q 26.265625 6.109375 33.40625 6.109375 
Q 40.53125 6.109375 44.609375 11.75 
Q 48.6875 17.390625 48.6875 27.296875 
z
" id="DejaVuSans-112"/>
     </defs>
     <g transform="translate(134.467454 189.589874)scale(0.08 -0.08)">
      <use xlink:href="#DejaVuSans-115"/>
      <use x="52.099609" xlink:href="#DejaVuSans-105"/>
      <use x="79.882812" xlink:href="#DejaVuSans-110"/>
      <use x="143.261719" xlink:href="#DejaVuSans-103"/>
      <use x="206.738281" xlink:href="#DejaVuSans-97"/>
      <use x="268.017578" xlink:href="#DejaVuSans-112"/>
      <use x="331.494141" xlink:href="#DejaVuSans-111"/>
      <use x="392.675781" xlink:href="#DejaVuSans-114"/>
      <use x="433.757812" xlink:href="#DejaVuSans-101"/>
      <use x="495.28125" xlink:href="#DejaVuSans-95"/>
      <use x="545.28125" xlink:href="#DejaVuSans-115"/>
      <use x="597.380859" xlink:href="#DejaVuSans-103"/>
      <use x="660.857422" xlink:href="#DejaVuSans-112"/>
     </g>
    </g>
   </g>
   <g id="text_5">
    <g clip-path="url(#p5970cafc48)">
     <!-- newYork_usa -->
     <defs>
      <path d="M 4.203125 54.6875 
L 13.1875 54.6875 
L 24.421875 12.015625 
L 35.59375 54.6875 
L 46.1875 54.6875 
L 57.421875 12.015625 
L 68.609375 54.6875 
L 77.59375 54.6875 
L 63.28125 0 
L 52.6875 0 
L 40.921875 44.828125 
L 29.109375 0 
L 18.5 0 
z
" id="DejaVuSans-119"/>
      <path d="M -0.203125 72.90625 
L 10.40625 72.90625 
L 30.609375 42.921875 
L 50.6875 72.90625 
L 61.28125 72.90625 
L 35.5 34.71875 
L 35.5 0 
L 25.59375 0 
L 25.59375 34.71875 
z
" id="DejaVuSans-89"/>
      <path d="M 9.078125 75.984375 
L 18.109375 75.984375 
L 18.109375 31.109375 
L 44.921875 54.6875 
L 56.390625 54.6875 
L 27.390625 29.109375 
L 57.625 0 
L 45.90625 0 
L 18.109375 26.703125 
L 18.109375 0 
L 9.078125 0 
z
" id="DejaVuSans-107"/>
     </defs>
     <g transform="translate(293.86079 286.653056)scale(0.08 -0.08)">
      <use xlink:href="#DejaVuSans-110"/>
      <use x="63.378906" xlink:href="#DejaVuSans-101"/>
      <use x="124.902344" xlink:href="#DejaVuSans-119"/>
      <use x="206.689453" xlink:href="#DejaVuSans-89"/>
      <use x="267.570312" xlink:href="#DejaVuSans-111"/>
      <use x="328.751953" xlink:href="#DejaVuSans-114"/>
      <use x="369.865234" xlink:href="#DejaVuSans-107"/>
      <use x="427.775391" xlink:href="#DejaVuSans-95"/>
      <use x="477.775391" xlink:href="#DejaVuSans-117"/>
      <use x="541.154297" xlink:href="#DejaVuSans-115"/>
      <use x="593.253906" xlink:href="#DejaVuSans-97"/>
     </g>
    </g>
   </g>
   <g id="text_6">
    <g clip-path="url(#p5970cafc48)">
     <!-- bremerhaven_ger -->
     <defs>
      <path d="M 2.984375 54.6875 
L 12.5 54.6875 
L 29.59375 8.796875 
L 46.6875 54.6875 
L 56.203125 54.6875 
L 35.6875 0 
L 23.484375 0 
z
" id="DejaVuSans-118"/>
     </defs>
     <g transform="translate(284.760357 253.484543)scale(0.08 -0.08)">
      <use xlink:href="#DejaVuSans-98"/>
      <use x="63.476562" xlink:href="#DejaVuSans-114"/>
      <use x="104.558594" xlink:href="#DejaVuSans-101"/>
      <use x="166.082031" xlink:href="#DejaVuSans-109"/>
      <use x="263.494141" xlink:href="#DejaVuSans-101"/>
      <use x="325.017578" xlink:href="#DejaVuSans-114"/>
      <use x="366.115234" xlink:href="#DejaVuSans-104"/>
      <use x="429.494141" xlink:href="#DejaVuSans-97"/>
      <use x="490.773438" xlink:href="#DejaVuSans-118"/>
      <use x="549.953125" xlink:href="#DejaVuSans-101"/>
      <use x="611.476562" xlink:href="#DejaVuSans-110"/>
      <use x="674.855469" xlink:href="#DejaVuSans-95"/>
      <use x="724.855469" xlink:href="#DejaVuSans-103"/>
      <use x="788.332031" xlink:href="#DejaVuSans-101"/>
      <use x="849.855469" xlink:href="#DejaVuSans-114"/>
     </g>
    </g>
   </g>
   <g id="text_7">
    <g clip-path="url(#p5970cafc48)">
     <!-- leHavre_fra -->
     <defs>
      <path d="M 9.8125 72.90625 
L 19.671875 72.90625 
L 19.671875 43.015625 
L 55.515625 43.015625 
L 55.515625 72.90625 
L 65.375 72.90625 
L 65.375 0 
L 55.515625 0 
L 55.515625 34.71875 
L 19.671875 34.71875 
L 19.671875 0 
L 9.8125 0 
z
" id="DejaVuSans-72"/>
      <path d="M 37.109375 75.984375 
L 37.109375 68.5 
L 28.515625 68.5 
Q 23.6875 68.5 21.796875 66.546875 
Q 19.921875 64.59375 19.921875 59.515625 
L 19.921875 54.6875 
L 34.71875 54.6875 
L 34.71875 47.703125 
L 19.921875 47.703125 
L 19.921875 0 
L 10.890625 0 
L 10.890625 47.703125 
L 2.296875 47.703125 
L 2.296875 54.6875 
L 10.890625 54.6875 
L 10.890625 58.5 
Q 10.890625 67.625 15.140625 71.796875 
Q 19.390625 75.984375 28.609375 75.984375 
z
" id="DejaVuSans-102"/>
     </defs>
     <g transform="translate(263.243502 224.730963)scale(0.08 -0.08)">
      <use xlink:href="#DejaVuSans-108"/>
      <use x="27.783203" xlink:href="#DejaVuSans-101"/>
      <use x="89.306641" xlink:href="#DejaVuSans-72"/>
      <use x="164.501953" xlink:href="#DejaVuSans-97"/>
      <use x="225.78125" xlink:href="#DejaVuSans-118"/>
      <use x="284.960938" xlink:href="#DejaVuSans-114"/>
      <use x="326.042969" xlink:href="#DejaVuSans-101"/>
      <use x="387.566406" xlink:href="#DejaVuSans-95"/>
      <use x="437.566406" xlink:href="#DejaVuSans-102"/>
      <use x="472.771484" xlink:href="#DejaVuSans-114"/>
      <use x="513.884766" xlink:href="#DejaVuSans-97"/>
     </g>
    </g>
   </g>
   <g id="text_8">
    <g clip-path="url(#p5970cafc48)">
     <!-- montreal_can -->
     <g transform="translate(296.422171 232.412625)scale(0.08 -0.08)">
      <use xlink:href="#DejaVuSans-109"/>
      <use x="97.412109" xlink:href="#DejaVuSans-111"/>
      <use x="158.59375" xlink:href="#DejaVuSans-110"/>
      <use x="221.972656" xlink:href="#DejaVuSans-116"/>
      <use x="261.181641" xlink:href="#DejaVuSans-114"/>
      <use x="302.263672" xlink:href="#DejaVuSans-101"/>
      <use x="363.787109" xlink:href="#DejaVuSans-97"/>
      <use x="425.066406" xlink:href="#DejaVuSans-108"/>
      <use x="452.849609" xlink:href="#DejaVuSans-95"/>
      <use x="502.849609" xlink:href="#DejaVuSans-99"/>
      <use x="557.830078" xlink:href="#DejaVuSans-97"/>
      <use x="619.109375" xlink:href="#DejaVuSans-110"/>
     </g>
    </g>
   </g>
   <g id="text_9">
    <g clip-path="url(#p5970cafc48)">
     <!-- yokohama_jpn -->
     <defs>
      <path d="M 9.421875 54.6875 
L 18.40625 54.6875 
L 18.40625 -0.984375 
Q 18.40625 -11.421875 14.421875 -16.109375 
Q 10.453125 -20.796875 1.609375 -20.796875 
L -1.8125 -20.796875 
L -1.8125 -13.1875 
L 0.59375 -13.1875 
Q 5.71875 -13.1875 7.5625 -10.8125 
Q 9.421875 -8.453125 9.421875 -0.984375 
z
M 9.421875 75.984375 
L 18.40625 75.984375 
L 18.40625 64.59375 
L 9.421875 64.59375 
z
" id="DejaVuSans-106"/>
     </defs>
     <g transform="translate(228.769331 120.21245)scale(0.08 -0.08)">
      <use xlink:href="#DejaVuSans-121"/>
      <use x="59.179688" xlink:href="#DejaVuSans-111"/>
      <use x="120.361328" xlink:href="#DejaVuSans-107"/>
      <use x="178.224609" xlink:href="#DejaVuSans-111"/>
      <use x="239.40625" xlink:href="#DejaVuSans-104"/>
      <use x="302.785156" xlink:href="#DejaVuSans-97"/>
      <use x="364.064453" xlink:href="#DejaVuSans-109"/>
      <use x="461.476562" xlink:href="#DejaVuSans-97"/>
      <use x="522.755859" xlink:href="#DejaVuSans-95"/>
      <use x="572.755859" xlink:href="#DejaVuSans-106"/>
      <use x="600.539062" xlink:href="#DejaVuSans-112"/>
      <use x="664.015625" xlink:href="#DejaVuSans-110"/>
     </g>
    </g>
   </g>
   <g id="text_10">
    <g clip-path="url(#p5970cafc48)">
     <!-- shanghai_chn -->
     <g transform="translate(341.466557 140.381493)scale(0.08 -0.08)">
      <use xlink:href="#DejaVuSans-115"/>
      <use x="52.099609" xlink:href="#DejaVuSans-104"/>
      <use x="115.478516" xlink:href="#DejaVuSans-97"/>
      <use x="176.757812" xlink:href="#DejaVuSans-110"/>
      <use x="240.136719" xlink:href="#DejaVuSans-103"/>
      <use x="303.613281" xlink:href="#DejaVuSans-104"/>
      <use x="366.992188" xlink:href="#DejaVuSans-97"/>
      <use x="428.271484" xlink:href="#DejaVuSans-105"/>
      <use x="456.054688" xlink:href="#DejaVuSans-95"/>
      <use x="506.054688" xlink:href="#DejaVuSans-99"/>
      <use x="561.035156" xlink:href="#DejaVuSans-104"/>
      <use x="624.414062" xlink:href="#DejaVuSans-110"/>
     </g>
    </g>
   </g>
   <g id="text_11">
    <g clip-path="url(#p5970cafc48)">
     <!-- qingdao_chn -->
     <defs>
      <path d="M 14.796875 27.296875 
Q 14.796875 17.390625 18.875 11.75 
Q 22.953125 6.109375 30.078125 6.109375 
Q 37.203125 6.109375 41.296875 11.75 
Q 45.40625 17.390625 45.40625 27.296875 
Q 45.40625 37.203125 41.296875 42.84375 
Q 37.203125 48.484375 30.078125 48.484375 
Q 22.953125 48.484375 18.875 42.84375 
Q 14.796875 37.203125 14.796875 27.296875 
z
M 45.40625 8.203125 
Q 42.578125 3.328125 38.25 0.953125 
Q 33.9375 -1.421875 27.875 -1.421875 
Q 17.96875 -1.421875 11.734375 6.484375 
Q 5.515625 14.40625 5.515625 27.296875 
Q 5.515625 40.1875 11.734375 48.09375 
Q 17.96875 56 27.875 56 
Q 33.9375 56 38.25 53.625 
Q 42.578125 51.265625 45.40625 46.390625 
L 45.40625 54.6875 
L 54.390625 54.6875 
L 54.390625 -20.796875 
L 45.40625 -20.796875 
z
" id="DejaVuSans-113"/>
     </defs>
     <g transform="translate(289.693132 136.723219)scale(0.08 -0.08)">
      <use xlink:href="#DejaVuSans-113"/>
      <use x="63.476562" xlink:href="#DejaVuSans-105"/>
      <use x="91.259766" xlink:href="#DejaVuSans-110"/>
      <use x="154.638672" xlink:href="#DejaVuSans-103"/>
      <use x="218.115234" xlink:href="#DejaVuSans-100"/>
      <use x="281.591797" xlink:href="#DejaVuSans-97"/>
      <use x="342.871094" xlink:href="#DejaVuSans-111"/>
      <use x="404.052734" xlink:href="#DejaVuSans-95"/>
      <use x="454.052734" xlink:href="#DejaVuSans-99"/>
      <use x="509.033203" xlink:href="#DejaVuSans-104"/>
      <use x="572.412109" xlink:href="#DejaVuSans-110"/>
     </g>
    </g>
   </g>
   <g id="text_12">
    <g clip-path="url(#p5970cafc48)">
     <!-- pusan_kor -->
     <g transform="translate(164.436811 164.061735)scale(0.08 -0.08)">
      <use xlink:href="#DejaVuSans-112"/>
      <use x="63.476562" xlink:href="#DejaVuSans-117"/>
      <use x="126.855469" xlink:href="#DejaVuSans-115"/>
      <use x="178.955078" xlink:href="#DejaVuSans-97"/>
      <use x="240.234375" xlink:href="#DejaVuSans-110"/>
      <use x="303.613281" xlink:href="#DejaVuSans-95"/>
      <use x="353.613281" xlink:href="#DejaVuSans-107"/>
      <use x="411.476562" xlink:href="#DejaVuSans-111"/>
      <use x="472.658203" xlink:href="#DejaVuSans-114"/>
     </g>
    </g>
   </g>
   <g id="text_13">
    <g clip-path="url(#p5970cafc48)">
     <!-- princeRupert_can -->
     <defs>
      <path d="M 44.390625 34.1875 
Q 47.5625 33.109375 50.5625 29.59375 
Q 53.5625 26.078125 56.59375 19.921875 
L 66.609375 0 
L 56 0 
L 46.6875 18.703125 
Q 43.0625 26.03125 39.671875 28.421875 
Q 36.28125 30.8125 30.421875 30.8125 
L 19.671875 30.8125 
L 19.671875 0 
L 9.8125 0 
L 9.8125 72.90625 
L 32.078125 72.90625 
Q 44.578125 72.90625 50.734375 67.671875 
Q 56.890625 62.453125 56.890625 51.90625 
Q 56.890625 45.015625 53.6875 40.46875 
Q 50.484375 35.9375 44.390625 34.1875 
z
M 19.671875 64.796875 
L 19.671875 38.921875 
L 32.078125 38.921875 
Q 39.203125 38.921875 42.84375 42.21875 
Q 46.484375 45.515625 46.484375 51.90625 
Q 46.484375 58.296875 42.84375 61.546875 
Q 39.203125 64.796875 32.078125 64.796875 
z
" id="DejaVuSans-82"/>
     </defs>
     <g transform="translate(212.967913 54.956149)scale(0.08 -0.08)">
      <use xlink:href="#DejaVuSans-112"/>
      <use x="63.476562" xlink:href="#DejaVuSans-114"/>
      <use x="104.589844" xlink:href="#DejaVuSans-105"/>
      <use x="132.373047" xlink:href="#DejaVuSans-110"/>
      <use x="195.751953" xlink:href="#DejaVuSans-99"/>
      <use x="250.732422" xlink:href="#DejaVuSans-101"/>
      <use x="312.255859" xlink:href="#DejaVuSans-82"/>
      <use x="381.675781" xlink:href="#DejaVuSans-117"/>
      <use x="445.054688" xlink:href="#DejaVuSans-112"/>
      <use x="508.53125" xlink:href="#DejaVuSans-101"/>
      <use x="570.054688" xlink:href="#DejaVuSans-114"/>
      <use x="611.167969" xlink:href="#DejaVuSans-116"/>
      <use x="650.376953" xlink:href="#DejaVuSans-95"/>
      <use x="700.376953" xlink:href="#DejaVuSans-99"/>
      <use x="755.357422" xlink:href="#DejaVuSans-97"/>
      <use x="816.636719" xlink:href="#DejaVuSans-110"/>
     </g>
    </g>
   </g>
   <g id="text_14">
    <g clip-path="url(#p5970cafc48)">
     <!-- losAngeles_usa -->
     <defs>
      <path d="M 34.1875 63.1875 
L 20.796875 26.90625 
L 47.609375 26.90625 
z
M 28.609375 72.90625 
L 39.796875 72.90625 
L 67.578125 0 
L 57.328125 0 
L 50.6875 18.703125 
L 17.828125 18.703125 
L 11.1875 0 
L 0.78125 0 
z
" id="DejaVuSans-65"/>
     </defs>
     <g transform="translate(284.17778 54.935487)scale(0.08 -0.08)">
      <use xlink:href="#DejaVuSans-108"/>
      <use x="27.783203" xlink:href="#DejaVuSans-111"/>
      <use x="88.964844" xlink:href="#DejaVuSans-115"/>
      <use x="141.064453" xlink:href="#DejaVuSans-65"/>
      <use x="209.472656" xlink:href="#DejaVuSans-110"/>
      <use x="272.851562" xlink:href="#DejaVuSans-103"/>
      <use x="336.328125" xlink:href="#DejaVuSans-101"/>
      <use x="397.851562" xlink:href="#DejaVuSans-108"/>
      <use x="425.634766" xlink:href="#DejaVuSans-101"/>
      <use x="487.158203" xlink:href="#DejaVuSans-115"/>
      <use x="539.257812" xlink:href="#DejaVuSans-95"/>
      <use x="589.257812" xlink:href="#DejaVuSans-117"/>
      <use x="652.636719" xlink:href="#DejaVuSans-115"/>
      <use x="704.736328" xlink:href="#DejaVuSans-97"/>
     </g>
    </g>
   </g>
   <g id="text_15">
    <g clip-path="url(#p5970cafc48)">
     <!-- oakland_usa -->
     <g transform="translate(366.407392 72.412144)scale(0.08 -0.08)">
      <use xlink:href="#DejaVuSans-111"/>
      <use x="61.181641" xlink:href="#DejaVuSans-97"/>
      <use x="122.460938" xlink:href="#DejaVuSans-107"/>
      <use x="180.371094" xlink:href="#DejaVuSans-108"/>
      <use x="208.154297" xlink:href="#DejaVuSans-97"/>
      <use x="269.433594" xlink:href="#DejaVuSans-110"/>
      <use x="332.8125" xlink:href="#DejaVuSans-100"/>
      <use x="396.289062" xlink:href="#DejaVuSans-95"/>
      <use x="446.289062" xlink:href="#DejaVuSans-117"/>
      <use x="509.667969" xlink:href="#DejaVuSans-115"/>
      <use x="561.767578" xlink:href="#DejaVuSans-97"/>
     </g>
    </g>
   </g>
   <g id="text_16">
    <g clip-path="url(#p5970cafc48)">
     <!-- seattle_usa -->
     <g transform="translate(158.687653 87.712762)scale(0.08 -0.08)">
      <use xlink:href="#DejaVuSans-115"/>
      <use x="52.099609" xlink:href="#DejaVuSans-101"/>
      <use x="113.623047" xlink:href="#DejaVuSans-97"/>
      <use x="174.902344" xlink:href="#DejaVuSans-116"/>
      <use x="214.111328" xlink:href="#DejaVuSans-116"/>
      <use x="253.320312" xlink:href="#DejaVuSans-108"/>
      <use x="281.103516" xlink:href="#DejaVuSans-101"/>
      <use x="342.626953" xlink:href="#DejaVuSans-95"/>
      <use x="392.626953" xlink:href="#DejaVuSans-117"/>
      <use x="456.005859" xlink:href="#DejaVuSans-115"/>
      <use x="508.105469" xlink:href="#DejaVuSans-97"/>
     </g>
    </g>
   </g>
   <g id="text_17">
    <g clip-path="url(#p5970cafc48)">
     <!-- vancouver_can -->
     <g transform="translate(164.469982 126.582634)scale(0.08 -0.08)">
      <use xlink:href="#DejaVuSans-118"/>
      <use x="59.179688" xlink:href="#DejaVuSans-97"/>
      <use x="120.458984" xlink:href="#DejaVuSans-110"/>
      <use x="183.837891" xlink:href="#DejaVuSans-99"/>
      <use x="238.818359" xlink:href="#DejaVuSans-111"/>
      <use x="300" xlink:href="#DejaVuSans-117"/>
      <use x="363.378906" xlink:href="#DejaVuSans-118"/>
      <use x="422.558594" xlink:href="#DejaVuSans-101"/>
      <use x="484.082031" xlink:href="#DejaVuSans-114"/>
      <use x="525.195312" xlink:href="#DejaVuSans-95"/>
      <use x="575.195312" xlink:href="#DejaVuSans-99"/>
      <use x="630.175781" xlink:href="#DejaVuSans-97"/>
      <use x="691.455078" xlink:href="#DejaVuSans-110"/>
     </g>
    </g>
   </g>
   <g id="text_18">
    <g clip-path="url(#p5970cafc48)">
     <!-- durban_sau -->
     <g transform="translate(130.279023 137.695404)scale(0.08 -0.08)">
      <use xlink:href="#DejaVuSans-100"/>
      <use x="63.476562" xlink:href="#DejaVuSans-117"/>
      <use x="126.855469" xlink:href="#DejaVuSans-114"/>
      <use x="167.96875" xlink:href="#DejaVuSans-98"/>
      <use x="231.445312" xlink:href="#DejaVuSans-97"/>
      <use x="292.724609" xlink:href="#DejaVuSans-110"/>
      <use x="356.103516" xlink:href="#DejaVuSans-95"/>
      <use x="406.103516" xlink:href="#DejaVuSans-115"/>
      <use x="458.203125" xlink:href="#DejaVuSans-97"/>
      <use x="519.482422" xlink:href="#DejaVuSans-117"/>
     </g>
    </g>
   </g>
   <g id="text_19">
    <g clip-path="url(#p5970cafc48)">
     <!-- itagual_bra -->
     <g transform="translate(108.26952 156.505011)scale(0.08 -0.08)">
      <use xlink:href="#DejaVuSans-105"/>
      <use x="27.783203" xlink:href="#DejaVuSans-116"/>
      <use x="66.992188" xlink:href="#DejaVuSans-97"/>
      <use x="128.271484" xlink:href="#DejaVuSans-103"/>
      <use x="191.748047" xlink:href="#DejaVuSans-117"/>
      <use x="255.126953" xlink:href="#DejaVuSans-97"/>
      <use x="316.40625" xlink:href="#DejaVuSans-108"/>
      <use x="344.189453" xlink:href="#DejaVuSans-95"/>
      <use x="394.189453" xlink:href="#DejaVuSans-98"/>
      <use x="457.666016" xlink:href="#DejaVuSans-114"/>
      <use x="498.779297" xlink:href="#DejaVuSans-97"/>
     </g>
    </g>
   </g>
   <g id="text_20">
    <g clip-path="url(#p5970cafc48)">
     <!-- santos_bra -->
     <g transform="translate(204.86662 176.768306)scale(0.08 -0.08)">
      <use xlink:href="#DejaVuSans-115"/>
      <use x="52.099609" xlink:href="#DejaVuSans-97"/>
      <use x="113.378906" xlink:href="#DejaVuSans-110"/>
      <use x="176.757812" xlink:href="#DejaVuSans-116"/>
      <use x="215.966797" xlink:href="#DejaVuSans-111"/>
      <use x="277.148438" xlink:href="#DejaVuSans-115"/>
      <use x="329.248047" xlink:href="#DejaVuSans-95"/>
      <use x="379.248047" xlink:href="#DejaVuSans-98"/>
      <use x="442.724609" xlink:href="#DejaVuSans-114"/>
      <use x="483.837891" xlink:href="#DejaVuSans-97"/>
     </g>
    </g>
   </g>
   <g id="text_21">
    <g clip-path="url(#p5970cafc48)">
     <!-- manzanillo_mex -->
     <defs>
      <path d="M 5.515625 54.6875 
L 48.1875 54.6875 
L 48.1875 46.484375 
L 14.40625 7.171875 
L 48.1875 7.171875 
L 48.1875 0 
L 4.296875 0 
L 4.296875 8.203125 
L 38.09375 47.515625 
L 5.515625 47.515625 
z
" id="DejaVuSans-122"/>
      <path d="M 54.890625 54.6875 
L 35.109375 28.078125 
L 55.90625 0 
L 45.3125 0 
L 29.390625 21.484375 
L 13.484375 0 
L 2.875 0 
L 24.125 28.609375 
L 4.6875 54.6875 
L 15.28125 54.6875 
L 29.78125 35.203125 
L 44.28125 54.6875 
z
" id="DejaVuSans-120"/>
     </defs>
     <g transform="translate(233.329985 92.571112)scale(0.08 -0.08)">
      <use xlink:href="#DejaVuSans-109"/>
      <use x="97.412109" xlink:href="#DejaVuSans-97"/>
      <use x="158.691406" xlink:href="#DejaVuSans-110"/>
      <use x="222.070312" xlink:href="#DejaVuSans-122"/>
      <use x="274.560547" xlink:href="#DejaVuSans-97"/>
      <use x="335.839844" xlink:href="#DejaVuSans-110"/>
      <use x="399.21875" xlink:href="#DejaVuSans-105"/>
      <use x="427.001953" xlink:href="#DejaVuSans-108"/>
      <use x="454.785156" xlink:href="#DejaVuSans-108"/>
      <use x="482.568359" xlink:href="#DejaVuSans-111"/>
      <use x="543.75" xlink:href="#DejaVuSans-95"/>
      <use x="593.75" xlink:href="#DejaVuSans-109"/>
      <use x="691.162109" xlink:href="#DejaVuSans-101"/>
      <use x="752.669922" xlink:href="#DejaVuSans-120"/>
     </g>
    </g>
   </g>
   <g id="text_22">
    <g clip-path="url(#p5970cafc48)">
     <!-- sanAntonio_par -->
     <g transform="translate(133.814762 107.244783)scale(0.08 -0.08)">
      <use xlink:href="#DejaVuSans-115"/>
      <use x="52.099609" xlink:href="#DejaVuSans-97"/>
      <use x="113.378906" xlink:href="#DejaVuSans-110"/>
      <use x="176.757812" xlink:href="#DejaVuSans-65"/>
      <use x="245.166016" xlink:href="#DejaVuSans-110"/>
      <use x="308.544922" xlink:href="#DejaVuSans-116"/>
      <use x="347.753906" xlink:href="#DejaVuSans-111"/>
      <use x="408.935547" xlink:href="#DejaVuSans-110"/>
      <use x="472.314453" xlink:href="#DejaVuSans-105"/>
      <use x="500.097656" xlink:href="#DejaVuSans-111"/>
      <use x="561.279297" xlink:href="#DejaVuSans-95"/>
      <use x="611.279297" xlink:href="#DejaVuSans-112"/>
      <use x="674.755859" xlink:href="#DejaVuSans-97"/>
      <use x="736.035156" xlink:href="#DejaVuSans-114"/>
     </g>
    </g>
   </g>
  </g>
 </g>
 <defs>
  <clipPath id="p5970cafc48">
   <rect height="266.112" width="357.12" x="57.6" y="41.472"/>
  </clipPath>
 </defs>
</svg>
