<?xml version="1.0" encoding="utf-8" standalone="no"?>
<!DOCTYPE svg PUBLIC "-//W3C//DTD SVG 1.1//EN"
  "http://www.w3.org/Graphics/SVG/1.1/DTD/svg11.dtd">
<!-- Created with matplotlib (https://matplotlib.org/) -->
<svg height="345.6pt" version="1.1" viewBox="0 0 460.8 345.6" width="460.8pt" xmlns="http://www.w3.org/2000/svg" xmlns:xlink="http://www.w3.org/1999/xlink">
 <defs>
  <style type="text/css">
*{stroke-linecap:butt;stroke-linejoin:round;}
  </style>
 </defs>
 <g id="figure_1">
  <g id="patch_1">
   <path d="M 0 345.6 
L 460.8 345.6 
L 460.8 0 
L 0 0 
z
" style="fill:#ffffff;"/>
  </g>
  <g id="axes_1">
   <g id="patch_2">
    <path clip-path="url(#p5e45f6c3f5)" d="M 208.851437 105.806793 
Q 178.269003 103.449148 151.030749 101.349311 
" style="fill:none;stroke:#feedb0;stroke-linecap:round;stroke-opacity:0.5;stroke-width:3;"/>
    <path clip-path="url(#p5e45f6c3f5)" d="M 154.865189 103.650848 
L 151.030749 101.349311 
L 155.172642 99.662682 
L 154.865189 103.650848 
z
" style="fill:#feedb0;fill-opacity:0.5;stroke:#feedb0;stroke-linecap:round;stroke-opacity:0.5;stroke-width:3;"/>
   </g>
   <g id="patch_3">
    <path clip-path="url(#p5e45f6c3f5)" d="M 139.050978 100.425773 
Q 147.802931 84.988771 154.900651 72.469562 
" style="fill:none;stroke:#feedb0;stroke-linecap:round;stroke-opacity:0.5;stroke-width:3;"/>
    <path clip-path="url(#p5e45f6c3f5)" d="M 151.188028 74.96284 
L 154.900651 72.469562 
L 154.6677 76.935627 
L 151.188028 74.96284 
z
" style="fill:#feedb0;fill-opacity:0.5;stroke:#feedb0;stroke-linecap:round;stroke-opacity:0.5;stroke-width:3;"/>
   </g>
   <g id="patch_4">
    <path clip-path="url(#p5e45f6c3f5)" d="M 160.824874 62.020209 
Q 181.638632 80.996445 199.973796 97.712907 
" style="fill:none;stroke:#feedb0;stroke-linecap:round;stroke-opacity:0.5;stroke-width:3;"/>
    <path clip-path="url(#p5e45f6c3f5)" d="M 198.365369 93.540023 
L 199.973796 97.712907 
L 195.670433 96.495918 
L 198.365369 93.540023 
z
" style="fill:#feedb0;fill-opacity:0.5;stroke:#feedb0;stroke-linecap:round;stroke-opacity:0.5;stroke-width:3;"/>
   </g>
   <g id="patch_5">
    <path clip-path="url(#p5e45f6c3f5)" d="M 200.476316 231.064398 
Q 171.605395 169.662092 144.161658 111.295102 
" style="fill:none;stroke:#fbd094;stroke-linecap:round;stroke-opacity:0.5;stroke-width:3;"/>
    <path clip-path="url(#p5e45f6c3f5)" d="M 144.053761 115.765936 
L 144.161658 111.295102 
L 147.673587 114.06392 
L 144.053761 115.765936 
z
" style="fill:#fbd094;fill-opacity:0.5;stroke:#fbd094;stroke-linecap:round;stroke-opacity:0.5;stroke-width:3;"/>
   </g>
   <g id="patch_6">
    <path clip-path="url(#p5e45f6c3f5)" d="M 139.050978 100.425773 
Q 147.802931 84.988771 154.900651 72.469562 
" style="fill:none;stroke:#fbd094;stroke-linecap:round;stroke-opacity:0.5;stroke-width:3;"/>
    <path clip-path="url(#p5e45f6c3f5)" d="M 151.188028 74.96284 
L 154.900651 72.469562 
L 154.6677 76.935627 
L 151.188028 74.96284 
z
" style="fill:#fbd094;fill-opacity:0.5;stroke:#fbd094;stroke-linecap:round;stroke-opacity:0.5;stroke-width:3;"/>
   </g>
   <g id="patch_7">
    <path clip-path="url(#p5e45f6c3f5)" d="M 160.824874 62.020209 
Q 179.661668 142.326259 197.732505 219.366836 
" style="fill:none;stroke:#fbd094;stroke-linecap:round;stroke-opacity:0.5;stroke-width:3;"/>
    <path clip-path="url(#p5e45f6c3f5)" d="M 198.766199 215.015804 
L 197.732505 219.366836 
L 194.871896 215.929262 
L 198.766199 215.015804 
z
" style="fill:#fbd094;fill-opacity:0.5;stroke:#fbd094;stroke-linecap:round;stroke-opacity:0.5;stroke-width:3;"/>
   </g>
   <g id="patch_8">
    <path clip-path="url(#p5e45f6c3f5)" d="M 77.519967 248.482423 
Q 98.131688 249.582927 115.394077 250.504604 
" style="fill:none;stroke:#f7b37c;stroke-linecap:round;stroke-opacity:0.5;stroke-width:3;"/>
    <path clip-path="url(#p5e45f6c3f5)" d="M 111.506399 248.294184 
L 115.394077 250.504604 
L 111.293134 252.288494 
L 111.506399 248.294184 
z
" style="fill:#f7b37c;fill-opacity:0.5;stroke:#f7b37c;stroke-linecap:round;stroke-opacity:0.5;stroke-width:3;"/>
   </g>
   <g id="patch_9">
    <path clip-path="url(#p5e45f6c3f5)" d="M 127.391108 251.145152 
Q 137.969163 219.127043 147.495035 190.293727 
" style="fill:none;stroke:#f7b37c;stroke-linecap:round;stroke-opacity:0.5;stroke-width:3;"/>
    <path clip-path="url(#p5e45f6c3f5)" d="M 144.341189 193.464415 
L 147.495035 190.293727 
L 148.139277 194.719216 
L 144.341189 193.464415 
z
" style="fill:#f7b37c;fill-opacity:0.5;stroke:#f7b37c;stroke-linecap:round;stroke-opacity:0.5;stroke-width:3;"/>
   </g>
   <g id="patch_10">
    <path clip-path="url(#p5e45f6c3f5)" d="M 151.26477 178.88333 
Q 117.541962 210.710344 86.258434 240.235206 
" style="fill:none;stroke:#f7b37c;stroke-linecap:round;stroke-opacity:0.5;stroke-width:3;"/>
    <path clip-path="url(#p5e45f6c3f5)" d="M 90.540186 238.944235 
L 86.258434 240.235206 
L 87.794709 236.035223 
L 90.540186 238.944235 
z
" style="fill:#f7b37c;fill-opacity:0.5;stroke:#f7b37c;stroke-linecap:round;stroke-opacity:0.5;stroke-width:3;"/>
   </g>
   <g id="patch_11">
    <path clip-path="url(#p5e45f6c3f5)" d="M 82.085769 166.016727 
Q 102.703929 204.75811 121.746301 240.538599 
" style="fill:none;stroke:#f29567;stroke-linecap:round;stroke-opacity:0.5;stroke-width:3;"/>
    <path clip-path="url(#p5e45f6c3f5)" d="M 121.632601 236.067908 
L 121.746301 240.538599 
L 118.101529 237.947144 
L 121.632601 236.067908 
z
" style="fill:#f29567;fill-opacity:0.5;stroke:#f29567;stroke-linecap:round;stroke-opacity:0.5;stroke-width:3;"/>
   </g>
   <g id="patch_12">
    <path clip-path="url(#p5e45f6c3f5)" d="M 127.391108 251.145152 
Q 137.969163 219.127043 147.495035 190.293727 
" style="fill:none;stroke:#f29567;stroke-linecap:round;stroke-opacity:0.5;stroke-width:3;"/>
    <path clip-path="url(#p5e45f6c3f5)" d="M 144.341189 193.464415 
L 147.495035 190.293727 
L 148.139277 194.719216 
L 144.341189 193.464415 
z
" style="fill:#f29567;fill-opacity:0.5;stroke:#f29567;stroke-linecap:round;stroke-opacity:0.5;stroke-width:3;"/>
   </g>
   <g id="patch_13">
    <path clip-path="url(#p5e45f6c3f5)" d="M 151.26477 178.88333 
Q 120.933511 173.242019 93.899803 168.214019 
" style="fill:none;stroke:#f29567;stroke-linecap:round;stroke-opacity:0.5;stroke-width:3;"/>
    <path clip-path="url(#p5e45f6c3f5)" d="M 97.466655 170.911716 
L 93.899803 168.214019 
L 98.198072 166.979156 
L 97.466655 170.911716 
z
" style="fill:#f29567;fill-opacity:0.5;stroke:#f29567;stroke-linecap:round;stroke-opacity:0.5;stroke-width:3;"/>
   </g>
   <g id="patch_14">
    <path clip-path="url(#p5e45f6c3f5)" d="M 200.476316 231.064398 
Q 204.374933 172.756998 208.049785 117.796228 
" style="fill:none;stroke:#eb7858;stroke-linecap:round;stroke-opacity:0.5;stroke-width:3;"/>
    <path clip-path="url(#p5e45f6c3f5)" d="M 205.787384 121.653888 
L 208.049785 117.796228 
L 209.778472 121.920745 
L 205.787384 121.653888 
z
" style="fill:#eb7858;fill-opacity:0.5;stroke:#eb7858;stroke-linecap:round;stroke-opacity:0.5;stroke-width:3;"/>
   </g>
   <g id="patch_15">
    <path clip-path="url(#p5e45f6c3f5)" d="M 208.851437 105.806793 
Q 247.414714 128.33813 283.08197 149.17741 
" style="fill:none;stroke:#eb7858;stroke-linecap:round;stroke-opacity:0.5;stroke-width:3;"/>
    <path clip-path="url(#p5e45f6c3f5)" d="M 280.63721 145.43266 
L 283.08197 149.17741 
L 278.619314 148.886368 
L 280.63721 145.43266 
z
" style="fill:#eb7858;fill-opacity:0.5;stroke:#eb7858;stroke-linecap:round;stroke-opacity:0.5;stroke-width:3;"/>
   </g>
   <g id="patch_16">
    <path clip-path="url(#p5e45f6c3f5)" d="M 293.458011 155.239811 
Q 250.322597 190.41582 209.786555 223.472097 
" style="fill:none;stroke:#eb7858;stroke-linecap:round;stroke-opacity:0.5;stroke-width:3;"/>
    <path clip-path="url(#p5e45f6c3f5)" d="M 214.150451 222.494134 
L 209.786555 223.472097 
L 211.622523 219.394202 
L 214.150451 222.494134 
z
" style="fill:#eb7858;fill-opacity:0.5;stroke:#eb7858;stroke-linecap:round;stroke-opacity:0.5;stroke-width:3;"/>
   </g>
   <g id="patch_17">
    <path clip-path="url(#p5e45f6c3f5)" d="M 286.568039 254.13791 
Q 249.71918 183.807604 214.426951 116.448307 
" style="fill:none;stroke:#e05d53;stroke-linecap:round;stroke-opacity:0.5;stroke-width:3;"/>
    <path clip-path="url(#p5e45f6c3f5)" d="M 214.511774 120.919639 
L 214.426951 116.448307 
L 218.05491 119.063248 
L 214.511774 120.919639 
z
" style="fill:#e05d53;fill-opacity:0.5;stroke:#e05d53;stroke-linecap:round;stroke-opacity:0.5;stroke-width:3;"/>
   </g>
   <g id="patch_18">
    <path clip-path="url(#p5e45f6c3f5)" d="M 208.851437 105.806793 
Q 204.952819 164.114193 201.277967 219.074964 
" style="fill:none;stroke:#e05d53;stroke-linecap:round;stroke-opacity:0.5;stroke-width:3;"/>
    <path clip-path="url(#p5e45f6c3f5)" d="M 203.540368 215.217303 
L 201.277967 219.074964 
L 199.54928 214.950447 
L 203.540368 215.217303 
z
" style="fill:#e05d53;fill-opacity:0.5;stroke:#e05d53;stroke-linecap:round;stroke-opacity:0.5;stroke-width:3;"/>
   </g>
   <g id="patch_19">
    <path clip-path="url(#p5e45f6c3f5)" d="M 200.476316 231.064398 
Q 178.842639 208.125302 159.510223 187.62633 
" style="fill:none;stroke:#e05d53;stroke-linecap:round;stroke-opacity:0.5;stroke-width:3;"/>
    <path clip-path="url(#p5e45f6c3f5)" d="M 160.799628 191.908553 
L 159.510223 187.62633 
L 163.709645 189.16414 
L 160.799628 191.908553 
z
" style="fill:#e05d53;fill-opacity:0.5;stroke:#e05d53;stroke-linecap:round;stroke-opacity:0.5;stroke-width:3;"/>
   </g>
   <g id="patch_20">
    <path clip-path="url(#p5e45f6c3f5)" d="M 151.26477 178.88333 
Q 140.686715 210.901439 131.160844 239.734754 
" style="fill:none;stroke:#e05d53;stroke-linecap:round;stroke-opacity:0.5;stroke-width:3;"/>
    <path clip-path="url(#p5e45f6c3f5)" d="M 134.31469 236.564067 
L 131.160844 239.734754 
L 130.516602 235.309265 
L 134.31469 236.564067 
z
" style="fill:#e05d53;fill-opacity:0.5;stroke:#e05d53;stroke-linecap:round;stroke-opacity:0.5;stroke-width:3;"/>
   </g>
   <g id="patch_21">
    <path clip-path="url(#p5e45f6c3f5)" d="M 127.391108 251.145152 
Q 159.756203 242.252579 188.887056 234.248641 
" style="fill:none;stroke:#e05d53;stroke-linecap:round;stroke-opacity:0.5;stroke-width:3;"/>
    <path clip-path="url(#p5e45f6c3f5)" d="M 184.500116 233.37987 
L 188.887056 234.248641 
L 185.559875 237.23693 
L 184.500116 233.37987 
z
" style="fill:#e05d53;fill-opacity:0.5;stroke:#e05d53;stroke-linecap:round;stroke-opacity:0.5;stroke-width:3;"/>
   </g>
   <g id="patch_22">
    <path clip-path="url(#p5e45f6c3f5)" d="M 200.476316 231.064398 
Q 235.149227 255.38392 267.076156 277.777415 
" style="fill:none;stroke:#e05d53;stroke-linecap:round;stroke-opacity:0.5;stroke-width:3;"/>
    <path clip-path="url(#p5e45f6c3f5)" d="M 264.949842 273.843106 
L 267.076156 277.777415 
L 262.652921 277.117881 
L 264.949842 273.843106 
z
" style="fill:#e05d53;fill-opacity:0.5;stroke:#e05d53;stroke-linecap:round;stroke-opacity:0.5;stroke-width:3;"/>
   </g>
   <g id="patch_23">
    <path clip-path="url(#p5e45f6c3f5)" d="M 276.910906 284.675492 
Q 247.872892 230.218172 220.41303 178.720488 
" style="fill:none;stroke:#e05d53;stroke-linecap:round;stroke-opacity:0.5;stroke-width:3;"/>
    <path clip-path="url(#p5e45f6c3f5)" d="M 220.530301 183.191086 
L 220.41303 178.720488 
L 224.059871 181.30903 
L 220.530301 183.191086 
z
" style="fill:#e05d53;fill-opacity:0.5;stroke:#e05d53;stroke-linecap:round;stroke-opacity:0.5;stroke-width:3;"/>
   </g>
   <g id="patch_24">
    <path clip-path="url(#p5e45f6c3f5)" d="M 214.758802 168.116659 
Q 247.887957 207.802519 278.867663 244.913526 
" style="fill:none;stroke:#e05d53;stroke-linecap:round;stroke-opacity:0.5;stroke-width:3;"/>
    <path clip-path="url(#p5e45f6c3f5)" d="M 277.839642 240.56115 
L 278.867663 244.913526 
L 274.76895 243.124517 
L 277.839642 240.56115 
z
" style="fill:#e05d53;fill-opacity:0.5;stroke:#e05d53;stroke-linecap:round;stroke-opacity:0.5;stroke-width:3;"/>
   </g>
   <g id="patch_25">
    <path clip-path="url(#p5e45f6c3f5)" d="M 276.910906 284.675492 
Q 280.433897 273.535164 282.945559 265.592838 
" style="fill:none;stroke:#ce4356;stroke-linecap:round;stroke-opacity:0.5;stroke-width:3;"/>
    <path clip-path="url(#p5e45f6c3f5)" d="M 279.83256 268.803638 
L 282.945559 265.592838 
L 283.6464 270.009718 
L 279.83256 268.803638 
z
" style="fill:#ce4356;fill-opacity:0.5;stroke:#ce4356;stroke-linecap:round;stroke-opacity:0.5;stroke-width:3;"/>
   </g>
   <g id="patch_26">
    <path clip-path="url(#p5e45f6c3f5)" d="M 286.568039 254.13791 
Q 333.690845 205.18387 378.487571 158.646305 
" style="fill:none;stroke:#ce4356;stroke-linecap:round;stroke-opacity:0.5;stroke-width:3;"/>
    <path clip-path="url(#p5e45f6c3f5)" d="M 374.27265 160.141112 
L 378.487571 158.646305 
L 377.154464 162.915126 
L 374.27265 160.141112 
z
" style="fill:#ce4356;fill-opacity:0.5;stroke:#ce4356;stroke-linecap:round;stroke-opacity:0.5;stroke-width:3;"/>
   </g>
   <g id="patch_27">
    <path clip-path="url(#p5e45f6c3f5)" d="M 386.819304 149.990793 
Q 383.429841 184.531738 380.36794 215.734614 
" style="fill:none;stroke:#ce4356;stroke-linecap:round;stroke-opacity:0.5;stroke-width:3;"/>
    <path clip-path="url(#p5e45f6c3f5)" d="M 382.749018 211.949054 
L 380.36794 215.734614 
L 378.768139 211.558415 
L 382.749018 211.949054 
z
" style="fill:#ce4356;fill-opacity:0.5;stroke:#ce4356;stroke-linecap:round;stroke-opacity:0.5;stroke-width:3;"/>
   </g>
   <g id="patch_28">
    <path clip-path="url(#p5e45f6c3f5)" d="M 379.194816 227.689542 
Q 384.112604 238.205503 387.609538 245.683179 
" style="fill:none;stroke:#ce4356;stroke-linecap:round;stroke-opacity:0.5;stroke-width:3;"/>
    <path clip-path="url(#p5e45f6c3f5)" d="M 387.726754 241.21258 
L 387.609538 245.683179 
L 384.103388 242.907047 
L 387.726754 241.21258 
z
" style="fill:#ce4356;fill-opacity:0.5;stroke:#ce4356;stroke-linecap:round;stroke-opacity:0.5;stroke-width:3;"/>
   </g>
   <g id="patch_29">
    <path clip-path="url(#p5e45f6c3f5)" d="M 392.697922 256.563936 
Q 339.011092 269.598388 288.583676 281.841498 
" style="fill:none;stroke:#ce4356;stroke-linecap:round;stroke-opacity:0.5;stroke-width:3;"/>
    <path clip-path="url(#p5e45f6c3f5)" d="M 292.942619 282.841305 
L 288.583676 281.841498 
L 291.998888 278.954228 
L 292.942619 282.841305 
z
" style="fill:#ce4356;fill-opacity:0.5;stroke:#ce4356;stroke-linecap:round;stroke-opacity:0.5;stroke-width:3;"/>
   </g>
   <g id="patch_30">
    <path clip-path="url(#p5e45f6c3f5)" d="M 286.568039 254.13791 
Q 328.719046 242.10224 367.644852 230.987484 
" style="fill:none;stroke:#b8315d;stroke-linecap:round;stroke-opacity:0.5;stroke-width:3;"/>
    <path clip-path="url(#p5e45f6c3f5)" d="M 363.249449 230.1626 
L 367.644852 230.987484 
L 364.347703 234.008876 
L 363.249449 230.1626 
z
" style="fill:#b8315d;fill-opacity:0.5;stroke:#b8315d;stroke-linecap:round;stroke-opacity:0.5;stroke-width:3;"/>
   </g>
   <g id="patch_31">
    <path clip-path="url(#p5e45f6c3f5)" d="M 379.194816 227.689542 
Q 353.586673 214.576734 330.963995 202.992652 
" style="fill:none;stroke:#b8315d;stroke-linecap:round;stroke-opacity:0.5;stroke-width:3;"/>
    <path clip-path="url(#p5e45f6c3f5)" d="M 333.612813 206.595951 
L 330.963995 202.992652 
L 335.435925 203.035577 
L 333.612813 206.595951 
z
" style="fill:#b8315d;fill-opacity:0.5;stroke:#b8315d;stroke-linecap:round;stroke-opacity:0.5;stroke-width:3;"/>
   </g>
   <g id="patch_32">
    <path clip-path="url(#p5e45f6c3f5)" d="M 320.271452 197.51747 
Q 300.519829 237.219747 282.262181 273.919019 
" style="fill:none;stroke:#b8315d;stroke-linecap:round;stroke-opacity:0.5;stroke-width:3;"/>
    <path clip-path="url(#p5e45f6c3f5)" d="M 285.834496 271.228562 
L 282.262181 273.919019 
L 282.253204 269.446892 
L 285.834496 271.228562 
z
" style="fill:#b8315d;fill-opacity:0.5;stroke:#b8315d;stroke-linecap:round;stroke-opacity:0.5;stroke-width:3;"/>
   </g>
   <g id="patch_33">
    <path clip-path="url(#p5e45f6c3f5)" d="M 276.910906 284.675492 
Q 280.433897 273.535164 282.945559 265.592838 
" style="fill:none;stroke:#b8315d;stroke-linecap:round;stroke-opacity:0.5;stroke-width:3;"/>
    <path clip-path="url(#p5e45f6c3f5)" d="M 279.83256 268.803638 
L 282.945559 265.592838 
L 283.6464 270.009718 
L 279.83256 268.803638 
z
" style="fill:#b8315d;fill-opacity:0.5;stroke:#b8315d;stroke-linecap:round;stroke-opacity:0.5;stroke-width:3;"/>
   </g>
   <g id="patch_34">
    <path clip-path="url(#p5e45f6c3f5)" d="M 208.851437 105.806793 
Q 225.550543 173.419663 241.445415 237.776275 
" style="fill:none;stroke:#9f2462;stroke-linecap:round;stroke-opacity:0.5;stroke-width:3;"/>
    <path clip-path="url(#p5e45f6c3f5)" d="M 242.427966 233.41341 
L 241.445415 237.776275 
L 238.544653 234.372515 
L 242.427966 233.41341 
z
" style="fill:#9f2462;fill-opacity:0.5;stroke:#9f2462;stroke-linecap:round;stroke-opacity:0.5;stroke-width:3;"/>
   </g>
   <g id="patch_35">
    <path clip-path="url(#p5e45f6c3f5)" d="M 244.327226 249.444415 
Q 278.724389 225.925319 310.352794 204.299362 
" style="fill:none;stroke:#9f2462;stroke-linecap:round;stroke-opacity:0.5;stroke-width:3;"/>
    <path clip-path="url(#p5e45f6c3f5)" d="M 305.922007 204.906097 
L 310.352794 204.299362 
L 308.17971 208.208033 
L 305.922007 204.906097 
z
" style="fill:#9f2462;fill-opacity:0.5;stroke:#9f2462;stroke-linecap:round;stroke-opacity:0.5;stroke-width:3;"/>
   </g>
   <g id="patch_36">
    <path clip-path="url(#p5e45f6c3f5)" d="M 320.271452 197.51747 
Q 271.686625 183.979441 226.332809 171.341725 
" style="fill:none;stroke:#9f2462;stroke-linecap:round;stroke-opacity:0.5;stroke-width:3;"/>
    <path clip-path="url(#p5e45f6c3f5)" d="M 229.649173 174.342013 
L 226.332809 171.341725 
L 230.722858 170.488807 
L 229.649173 174.342013 
z
" style="fill:#9f2462;fill-opacity:0.5;stroke:#9f2462;stroke-linecap:round;stroke-opacity:0.5;stroke-width:3;"/>
   </g>
   <g id="patch_37">
    <path clip-path="url(#p5e45f6c3f5)" d="M 214.758802 168.116659 
Q 212.213811 141.272532 209.98539 117.767533 
" style="fill:none;stroke:#9f2462;stroke-linecap:round;stroke-opacity:0.5;stroke-width:3;"/>
    <path clip-path="url(#p5e45f6c3f5)" d="M 208.37185 121.938443 
L 209.98539 117.767533 
L 212.353994 121.560911 
L 208.37185 121.938443 
z
" style="fill:#9f2462;fill-opacity:0.5;stroke:#9f2462;stroke-linecap:round;stroke-opacity:0.5;stroke-width:3;"/>
   </g>
   <g id="patch_38">
    <path clip-path="url(#p5e45f6c3f5)" d="M 200.476316 231.064398 
Q 204.374933 172.756998 208.049785 117.796228 
" style="fill:none;stroke:#841c63;stroke-linecap:round;stroke-opacity:0.5;stroke-width:3;"/>
    <path clip-path="url(#p5e45f6c3f5)" d="M 205.787384 121.653888 
L 208.049785 117.796228 
L 209.778472 121.920745 
L 205.787384 121.653888 
z
" style="fill:#841c63;fill-opacity:0.5;stroke:#841c63;stroke-linecap:round;stroke-opacity:0.5;stroke-width:3;"/>
   </g>
   <g id="patch_39">
    <path clip-path="url(#p5e45f6c3f5)" d="M 208.851437 105.806793 
Q 245.700296 176.1371 280.992525 243.496396 
" style="fill:none;stroke:#841c63;stroke-linecap:round;stroke-opacity:0.5;stroke-width:3;"/>
    <path clip-path="url(#p5e45f6c3f5)" d="M 280.907702 239.025064 
L 280.992525 243.496396 
L 277.364566 240.881455 
L 280.907702 239.025064 
z
" style="fill:#841c63;fill-opacity:0.5;stroke:#841c63;stroke-linecap:round;stroke-opacity:0.5;stroke-width:3;"/>
   </g>
   <g id="patch_40">
    <path clip-path="url(#p5e45f6c3f5)" d="M 286.568039 254.13791 
Q 253.438884 214.45205 222.459178 177.341044 
" style="fill:none;stroke:#841c63;stroke-linecap:round;stroke-opacity:0.5;stroke-width:3;"/>
    <path clip-path="url(#p5e45f6c3f5)" d="M 223.4872 181.693419 
L 222.459178 177.341044 
L 226.557892 179.130052 
L 223.4872 181.693419 
z
" style="fill:#841c63;fill-opacity:0.5;stroke:#841c63;stroke-linecap:round;stroke-opacity:0.5;stroke-width:3;"/>
   </g>
   <g id="patch_41">
    <path clip-path="url(#p5e45f6c3f5)" d="M 214.758802 168.116659 
Q 263.343629 181.654688 308.697445 194.292404 
" style="fill:none;stroke:#841c63;stroke-linecap:round;stroke-opacity:0.5;stroke-width:3;"/>
    <path clip-path="url(#p5e45f6c3f5)" d="M 305.381081 191.292116 
L 308.697445 194.292404 
L 304.307396 195.145322 
L 305.381081 191.292116 
z
" style="fill:#841c63;fill-opacity:0.5;stroke:#841c63;stroke-linecap:round;stroke-opacity:0.5;stroke-width:3;"/>
   </g>
   <g id="patch_42">
    <path clip-path="url(#p5e45f6c3f5)" d="M 320.271452 197.51747 
Q 285.874289 221.036566 254.245884 242.662523 
" style="fill:none;stroke:#841c63;stroke-linecap:round;stroke-opacity:0.5;stroke-width:3;"/>
    <path clip-path="url(#p5e45f6c3f5)" d="M 258.676671 242.055788 
L 254.245884 242.662523 
L 256.418968 238.753852 
L 258.676671 242.055788 
z
" style="fill:#841c63;fill-opacity:0.5;stroke:#841c63;stroke-linecap:round;stroke-opacity:0.5;stroke-width:3;"/>
   </g>
   <g id="patch_43">
    <path clip-path="url(#p5e45f6c3f5)" d="M 244.327226 249.444415 
Q 257.678699 263.880684 268.752787 275.854533 
" style="fill:none;stroke:#841c63;stroke-linecap:round;stroke-opacity:0.5;stroke-width:3;"/>
    <path clip-path="url(#p5e45f6c3f5)" d="M 267.50515 271.559954 
L 268.752787 275.854533 
L 264.568542 274.275895 
L 267.50515 271.559954 
z
" style="fill:#841c63;fill-opacity:0.5;stroke:#841c63;stroke-linecap:round;stroke-opacity:0.5;stroke-width:3;"/>
   </g>
   <g id="patch_44">
    <path clip-path="url(#p5e45f6c3f5)" d="M 276.910906 284.675492 
Q 280.433897 273.535164 282.945559 265.592838 
" style="fill:none;stroke:#841c63;stroke-linecap:round;stroke-opacity:0.5;stroke-width:3;"/>
    <path clip-path="url(#p5e45f6c3f5)" d="M 279.83256 268.803638 
L 282.945559 265.592838 
L 283.6464 270.009718 
L 279.83256 268.803638 
z
" style="fill:#841c63;fill-opacity:0.5;stroke:#841c63;stroke-linecap:round;stroke-opacity:0.5;stroke-width:3;"/>
   </g>
   <g id="patch_45">
    <path clip-path="url(#p5e45f6c3f5)" d="M 286.568039 254.13791 
Q 247.703543 243.721805 212.07881 234.173992 
" style="fill:none;stroke:#841c63;stroke-linecap:round;stroke-opacity:0.5;stroke-width:3;"/>
    <path clip-path="url(#p5e45f6c3f5)" d="M 215.424705 237.141312 
L 212.07881 234.173992 
L 216.460203 233.277668 
L 215.424705 237.141312 
z
" style="fill:#841c63;fill-opacity:0.5;stroke:#841c63;stroke-linecap:round;stroke-opacity:0.5;stroke-width:3;"/>
   </g>
   <g id="patch_46">
    <path clip-path="url(#p5e45f6c3f5)" d="M 276.910906 284.675492 
Q 280.433897 273.535164 282.945559 265.592838 
" style="fill:none;stroke:#67195d;stroke-linecap:round;stroke-opacity:0.5;stroke-width:3;"/>
    <path clip-path="url(#p5e45f6c3f5)" d="M 279.83256 268.803638 
L 282.945559 265.592838 
L 283.6464 270.009718 
L 279.83256 268.803638 
z
" style="fill:#67195d;fill-opacity:0.5;stroke:#67195d;stroke-linecap:round;stroke-opacity:0.5;stroke-width:3;"/>
   </g>
   <g id="patch_47">
    <path clip-path="url(#p5e45f6c3f5)" d="M 286.568039 254.13791 
Q 249.71918 183.807604 214.426951 116.448307 
" style="fill:none;stroke:#67195d;stroke-linecap:round;stroke-opacity:0.5;stroke-width:3;"/>
    <path clip-path="url(#p5e45f6c3f5)" d="M 214.511774 120.919639 
L 214.426951 116.448307 
L 218.05491 119.063248 
L 214.511774 120.919639 
z
" style="fill:#67195d;fill-opacity:0.5;stroke:#67195d;stroke-linecap:round;stroke-opacity:0.5;stroke-width:3;"/>
   </g>
   <g id="patch_48">
    <path clip-path="url(#p5e45f6c3f5)" d="M 208.851437 105.806793 
Q 204.952819 164.114193 201.277967 219.074964 
" style="fill:none;stroke:#67195d;stroke-linecap:round;stroke-opacity:0.5;stroke-width:3;"/>
    <path clip-path="url(#p5e45f6c3f5)" d="M 203.540368 215.217303 
L 201.277967 219.074964 
L 199.54928 214.950447 
L 203.540368 215.217303 
z
" style="fill:#67195d;fill-opacity:0.5;stroke:#67195d;stroke-linecap:round;stroke-opacity:0.5;stroke-width:3;"/>
   </g>
   <g id="patch_49">
    <path clip-path="url(#p5e45f6c3f5)" d="M 200.476316 231.064398 
Q 226.764393 211.676969 250.353078 194.280338 
" style="fill:none;stroke:#67195d;stroke-linecap:round;stroke-opacity:0.5;stroke-width:3;"/>
    <path clip-path="url(#p5e45f6c3f5)" d="M 245.946782 195.044898 
L 250.353078 194.280338 
L 248.320948 198.264111 
L 245.946782 195.044898 
z
" style="fill:#67195d;fill-opacity:0.5;stroke:#67195d;stroke-linecap:round;stroke-opacity:0.5;stroke-width:3;"/>
   </g>
   <g id="patch_50">
    <path clip-path="url(#p5e45f6c3f5)" d="M 260.019257 187.151542 
Q 236.740928 150.144497 215.248478 115.976578 
" style="fill:none;stroke:#67195d;stroke-linecap:round;stroke-opacity:0.5;stroke-width:3;"/>
    <path clip-path="url(#p5e45f6c3f5)" d="M 215.685336 120.427326 
L 215.248478 115.976578 
L 219.071191 118.297541 
L 215.685336 120.427326 
z
" style="fill:#67195d;fill-opacity:0.5;stroke:#67195d;stroke-linecap:round;stroke-opacity:0.5;stroke-width:3;"/>
   </g>
   <g id="patch_51">
    <path clip-path="url(#p5e45f6c3f5)" d="M 208.851437 105.806793 
Q 241.341587 191.194926 272.638933 273.44822 
" style="fill:none;stroke:#67195d;stroke-linecap:round;stroke-opacity:0.5;stroke-width:3;"/>
    <path clip-path="url(#p5e45f6c3f5)" d="M 273.085687 268.998455 
L 272.638933 273.44822 
L 269.347173 270.420958 
L 273.085687 268.998455 
z
" style="fill:#67195d;fill-opacity:0.5;stroke:#67195d;stroke-linecap:round;stroke-opacity:0.5;stroke-width:3;"/>
   </g>
   <g id="patch_52">
    <path clip-path="url(#p5e45f6c3f5)" d="M 276.910906 284.675492 
Q 280.433897 273.535164 282.945559 265.592838 
" style="fill:none;stroke:#4a154f;stroke-linecap:round;stroke-opacity:0.5;stroke-width:3;"/>
    <path clip-path="url(#p5e45f6c3f5)" d="M 279.83256 268.803638 
L 282.945559 265.592838 
L 283.6464 270.009718 
L 279.83256 268.803638 
z
" style="fill:#4a154f;fill-opacity:0.5;stroke:#4a154f;stroke-linecap:round;stroke-opacity:0.5;stroke-width:3;"/>
   </g>
   <g id="patch_53">
    <path clip-path="url(#p5e45f6c3f5)" d="M 286.568039 254.13791 
Q 249.71918 183.807604 214.426951 116.448307 
" style="fill:none;stroke:#4a154f;stroke-linecap:round;stroke-opacity:0.5;stroke-width:3;"/>
    <path clip-path="url(#p5e45f6c3f5)" d="M 214.511774 120.919639 
L 214.426951 116.448307 
L 218.05491 119.063248 
L 214.511774 120.919639 
z
" style="fill:#4a154f;fill-opacity:0.5;stroke:#4a154f;stroke-linecap:round;stroke-opacity:0.5;stroke-width:3;"/>
   </g>
   <g id="patch_54">
    <path clip-path="url(#p5e45f6c3f5)" d="M 208.851437 105.806793 
Q 204.952819 164.114193 201.277967 219.074964 
" style="fill:none;stroke:#4a154f;stroke-linecap:round;stroke-opacity:0.5;stroke-width:3;"/>
    <path clip-path="url(#p5e45f6c3f5)" d="M 203.540368 215.217303 
L 201.277967 219.074964 
L 199.54928 214.950447 
L 203.540368 215.217303 
z
" style="fill:#4a154f;fill-opacity:0.5;stroke:#4a154f;stroke-linecap:round;stroke-opacity:0.5;stroke-width:3;"/>
   </g>
   <g id="patch_55">
    <path clip-path="url(#p5e45f6c3f5)" d="M 200.476316 231.064398 
Q 231.265334 185.226256 260.18416 142.172423 
" style="fill:none;stroke:#4a154f;stroke-linecap:round;stroke-opacity:0.5;stroke-width:3;"/>
    <path clip-path="url(#p5e45f6c3f5)" d="M 256.293583 144.377739 
L 260.18416 142.172423 
L 259.614066 146.608074 
L 256.293583 144.377739 
z
" style="fill:#4a154f;fill-opacity:0.5;stroke:#4a154f;stroke-linecap:round;stroke-opacity:0.5;stroke-width:3;"/>
   </g>
   <g id="patch_56">
    <path clip-path="url(#p5e45f6c3f5)" d="M 266.883724 132.198231 
Q 258.479747 134.167122 253.341446 135.370928 
" style="fill:none;stroke:#4a154f;stroke-linecap:round;stroke-opacity:0.5;stroke-width:3;"/>
    <path clip-path="url(#p5e45f6c3f5)" d="M 257.692201 136.405783 
L 253.341446 135.370928 
L 256.779783 132.511237 
L 257.692201 136.405783 
z
" style="fill:#4a154f;fill-opacity:0.5;stroke:#4a154f;stroke-linecap:round;stroke-opacity:0.5;stroke-width:3;"/>
   </g>
   <g id="patch_57">
    <path clip-path="url(#p5e45f6c3f5)" d="M 241.64252 138.111762 
Q 222.812574 180.62948 205.340833 220.080395 
" style="fill:none;stroke:#4a154f;stroke-linecap:round;stroke-opacity:0.5;stroke-width:3;"/>
    <path clip-path="url(#p5e45f6c3f5)" d="M 208.789274 217.232895 
L 205.340833 220.080395 
L 205.131898 215.613143 
L 208.789274 217.232895 
z
" style="fill:#4a154f;fill-opacity:0.5;stroke:#4a154f;stroke-linecap:round;stroke-opacity:0.5;stroke-width:3;"/>
   </g>
   <g id="patch_58">
    <path clip-path="url(#p5e45f6c3f5)" d="M 200.476316 231.064398 
Q 204.374933 172.756998 208.049785 117.796228 
" style="fill:none;stroke:#4a154f;stroke-linecap:round;stroke-opacity:0.5;stroke-width:3;"/>
    <path clip-path="url(#p5e45f6c3f5)" d="M 205.787384 121.653888 
L 208.049785 117.796228 
L 209.778472 121.920745 
L 205.787384 121.653888 
z
" style="fill:#4a154f;fill-opacity:0.5;stroke:#4a154f;stroke-linecap:round;stroke-opacity:0.5;stroke-width:3;"/>
   </g>
   <g id="patch_59">
    <path clip-path="url(#p5e45f6c3f5)" d="M 208.851437 105.806793 
Q 245.700296 176.1371 280.992525 243.496396 
" style="fill:none;stroke:#4a154f;stroke-linecap:round;stroke-opacity:0.5;stroke-width:3;"/>
    <path clip-path="url(#p5e45f6c3f5)" d="M 280.907702 239.025064 
L 280.992525 243.496396 
L 277.364566 240.881455 
L 280.907702 239.025064 
z
" style="fill:#4a154f;fill-opacity:0.5;stroke:#4a154f;stroke-linecap:round;stroke-opacity:0.5;stroke-width:3;"/>
   </g>
   <g id="patch_60">
    <path clip-path="url(#p5e45f6c3f5)" d="M 286.568039 254.13791 
Q 283.045048 265.278238 280.533385 273.220564 
" style="fill:none;stroke:#4a154f;stroke-linecap:round;stroke-opacity:0.5;stroke-width:3;"/>
    <path clip-path="url(#p5e45f6c3f5)" d="M 283.646385 270.009764 
L 280.533385 273.220564 
L 279.832545 268.803684 
L 283.646385 270.009764 
z
" style="fill:#4a154f;fill-opacity:0.5;stroke:#4a154f;stroke-linecap:round;stroke-opacity:0.5;stroke-width:3;"/>
   </g>
   <g id="patch_61">
    <path clip-path="url(#p5e45f6c3f5)" d="M 208.851437 105.806793 
Q 245.700296 176.1371 280.992525 243.496396 
" style="fill:none;stroke:#2f0f3e;stroke-linecap:round;stroke-opacity:0.5;stroke-width:3;"/>
    <path clip-path="url(#p5e45f6c3f5)" d="M 280.907702 239.025064 
L 280.992525 243.496396 
L 277.364566 240.881455 
L 280.907702 239.025064 
z
" style="fill:#2f0f3e;fill-opacity:0.5;stroke:#2f0f3e;stroke-linecap:round;stroke-opacity:0.5;stroke-width:3;"/>
   </g>
   <g id="patch_62">
    <path clip-path="url(#p5e45f6c3f5)" d="M 286.568039 254.13791 
Q 283.045048 265.278238 280.533385 273.220564 
" style="fill:none;stroke:#2f0f3e;stroke-linecap:round;stroke-opacity:0.5;stroke-width:3;"/>
    <path clip-path="url(#p5e45f6c3f5)" d="M 283.646385 270.009764 
L 280.533385 273.220564 
L 279.832545 268.803684 
L 283.646385 270.009764 
z
" style="fill:#2f0f3e;fill-opacity:0.5;stroke:#2f0f3e;stroke-linecap:round;stroke-opacity:0.5;stroke-width:3;"/>
   </g>
   <g id="patch_63">
    <path clip-path="url(#p5e45f6c3f5)" d="M 276.910906 284.675492 
Q 247.872892 230.218172 220.41303 178.720488 
" style="fill:none;stroke:#2f0f3e;stroke-linecap:round;stroke-opacity:0.5;stroke-width:3;"/>
    <path clip-path="url(#p5e45f6c3f5)" d="M 220.530301 183.191086 
L 220.41303 178.720488 
L 224.059871 181.30903 
L 220.530301 183.191086 
z
" style="fill:#2f0f3e;fill-opacity:0.5;stroke:#2f0f3e;stroke-linecap:round;stroke-opacity:0.5;stroke-width:3;"/>
   </g>
   <g id="patch_64">
    <path clip-path="url(#p5e45f6c3f5)" d="M 214.758802 168.116659 
Q 249.140655 121.749908 281.5247 78.077366 
" style="fill:none;stroke:#2f0f3e;stroke-linecap:round;stroke-opacity:0.5;stroke-width:3;"/>
    <path clip-path="url(#p5e45f6c3f5)" d="M 277.535658 80.099135 
L 281.5247 78.077366 
L 280.74869 82.48166 
L 277.535658 80.099135 
z
" style="fill:#2f0f3e;fill-opacity:0.5;stroke:#2f0f3e;stroke-linecap:round;stroke-opacity:0.5;stroke-width:3;"/>
   </g>
   <g id="patch_65">
    <path clip-path="url(#p5e45f6c3f5)" d="M 288.681873 68.42533 
Q 298.220871 87.058315 306.231415 102.705696 
" style="fill:none;stroke:#2f0f3e;stroke-linecap:round;stroke-opacity:0.5;stroke-width:3;"/>
    <path clip-path="url(#p5e45f6c3f5)" d="M 306.188897 98.233762 
L 306.231415 102.705696 
L 302.628357 100.05655 
L 306.188897 98.233762 
z
" style="fill:#2f0f3e;fill-opacity:0.5;stroke:#2f0f3e;stroke-linecap:round;stroke-opacity:0.5;stroke-width:3;"/>
   </g>
   <g id="patch_66">
    <path clip-path="url(#p5e45f6c3f5)" d="M 311.707574 113.402541 
Q 302.168576 94.769557 294.158032 79.122176 
" style="fill:none;stroke:#2f0f3e;stroke-linecap:round;stroke-opacity:0.5;stroke-width:3;"/>
    <path clip-path="url(#p5e45f6c3f5)" d="M 294.20055 83.594109 
L 294.158032 79.122176 
L 297.76109 81.771321 
L 294.20055 83.594109 
z
" style="fill:#2f0f3e;fill-opacity:0.5;stroke:#2f0f3e;stroke-linecap:round;stroke-opacity:0.5;stroke-width:3;"/>
   </g>
   <g id="patch_67">
    <path clip-path="url(#p5e45f6c3f5)" d="M 288.681873 68.42533 
Q 290.832141 107.510127 292.798159 143.245887 
" style="fill:none;stroke:#2f0f3e;stroke-linecap:round;stroke-opacity:0.5;stroke-width:3;"/>
    <path clip-path="url(#p5e45f6c3f5)" d="M 294.57541 139.142061 
L 292.798159 143.245887 
L 290.58145 139.361791 
L 294.57541 139.142061 
z
" style="fill:#2f0f3e;fill-opacity:0.5;stroke:#2f0f3e;stroke-linecap:round;stroke-opacity:0.5;stroke-width:3;"/>
   </g>
   <g id="patch_68">
    <path clip-path="url(#p5e45f6c3f5)" d="M 293.458011 155.239811 
Q 290.31402 200.368407 287.403135 242.151011 
" style="fill:none;stroke:#2f0f3e;stroke-linecap:round;stroke-opacity:0.5;stroke-width:3;"/>
    <path clip-path="url(#p5e45f6c3f5)" d="M 289.676295 238.29968 
L 287.403135 242.151011 
L 285.685967 238.021685 
L 289.676295 238.29968 
z
" style="fill:#2f0f3e;fill-opacity:0.5;stroke:#2f0f3e;stroke-linecap:round;stroke-opacity:0.5;stroke-width:3;"/>
   </g>
   <g id="patch_69">
    <path clip-path="url(#p5e45f6c3f5)" d="M 286.568039 254.13791 
Q 249.71918 183.807604 214.426951 116.448307 
" style="fill:none;stroke:#2f0f3e;stroke-linecap:round;stroke-opacity:0.5;stroke-width:3;"/>
    <path clip-path="url(#p5e45f6c3f5)" d="M 214.511774 120.919639 
L 214.426951 116.448307 
L 218.05491 119.063248 
L 214.511774 120.919639 
z
" style="fill:#2f0f3e;fill-opacity:0.5;stroke:#2f0f3e;stroke-linecap:round;stroke-opacity:0.5;stroke-width:3;"/>
   </g>
   <g id="PathCollection_1">
    <defs>
     <path d="M 0 10 
C 2.652031 10 5.195799 8.946337 7.071068 7.071068 
C 8.946337 5.195799 10 2.652031 10 0 
C 10 -2.652031 8.946337 -5.195799 7.071068 -7.071068 
C 5.195799 -8.946337 2.652031 -10 0 -10 
C -2.652031 -10 -5.195799 -8.946337 -7.071068 -7.071068 
C -8.946337 -5.195799 -10 -2.652031 -10 0 
C -10 2.652031 -8.946337 5.195799 -7.071068 7.071068 
C -5.195799 8.946337 -2.652031 10 0 10 
z
" id="mfad40a9d0e" style="stroke:#feedb0;"/>
    </defs>
    <g clip-path="url(#p5e45f6c3f5)">
     <use style="fill:#feedb0;stroke:#feedb0;" x="208.851437" xlink:href="#mfad40a9d0e" y="105.806793"/>
     <use style="fill:#feedb0;stroke:#feedb0;" x="139.050978" xlink:href="#mfad40a9d0e" y="100.425773"/>
     <use style="fill:#feedb0;stroke:#feedb0;" x="160.824874" xlink:href="#mfad40a9d0e" y="62.020209"/>
    </g>
   </g>
   <g id="PathCollection_2">
    <defs>
     <path d="M 0 10 
C 2.652031 10 5.195799 8.946337 7.071068 7.071068 
C 8.946337 5.195799 10 2.652031 10 0 
C 10 -2.652031 8.946337 -5.195799 7.071068 -7.071068 
C 5.195799 -8.946337 2.652031 -10 0 -10 
C -2.652031 -10 -5.195799 -8.946337 -7.071068 -7.071068 
C -8.946337 -5.195799 -10 -2.652031 -10 0 
C -10 2.652031 -8.946337 5.195799 -7.071068 7.071068 
C -5.195799 8.946337 -2.652031 10 0 10 
z
" id="mf051194c2c" style="stroke:#fbd094;"/>
    </defs>
    <g clip-path="url(#p5e45f6c3f5)">
     <use style="fill:#fbd094;stroke:#fbd094;" x="200.476316" xlink:href="#mf051194c2c" y="231.064398"/>
     <use style="fill:#fbd094;stroke:#fbd094;" x="139.050978" xlink:href="#mf051194c2c" y="100.425773"/>
     <use style="fill:#fbd094;stroke:#fbd094;" x="160.824874" xlink:href="#mf051194c2c" y="62.020209"/>
    </g>
   </g>
   <g id="PathCollection_3">
    <defs>
     <path d="M 0 10 
C 2.652031 10 5.195799 8.946337 7.071068 7.071068 
C 8.946337 5.195799 10 2.652031 10 0 
C 10 -2.652031 8.946337 -5.195799 7.071068 -7.071068 
C 5.195799 -8.946337 2.652031 -10 0 -10 
C -2.652031 -10 -5.195799 -8.946337 -7.071068 -7.071068 
C -8.946337 -5.195799 -10 -2.652031 -10 0 
C -10 2.652031 -8.946337 5.195799 -7.071068 7.071068 
C -5.195799 8.946337 -2.652031 10 0 10 
z
" id="m719e80e8ba" style="stroke:#f7b37c;"/>
    </defs>
    <g clip-path="url(#p5e45f6c3f5)">
     <use style="fill:#f7b37c;stroke:#f7b37c;" x="77.519967" xlink:href="#m719e80e8ba" y="248.482423"/>
     <use style="fill:#f7b37c;stroke:#f7b37c;" x="127.391108" xlink:href="#m719e80e8ba" y="251.145152"/>
     <use style="fill:#f7b37c;stroke:#f7b37c;" x="151.26477" xlink:href="#m719e80e8ba" y="178.88333"/>
    </g>
   </g>
   <g id="PathCollection_4">
    <defs>
     <path d="M 0 10 
C 2.652031 10 5.195799 8.946337 7.071068 7.071068 
C 8.946337 5.195799 10 2.652031 10 0 
C 10 -2.652031 8.946337 -5.195799 7.071068 -7.071068 
C 5.195799 -8.946337 2.652031 -10 0 -10 
C -2.652031 -10 -5.195799 -8.946337 -7.071068 -7.071068 
C -8.946337 -5.195799 -10 -2.652031 -10 0 
C -10 2.652031 -8.946337 5.195799 -7.071068 7.071068 
C -5.195799 8.946337 -2.652031 10 0 10 
z
" id="mb8258b8976" style="stroke:#f29567;"/>
    </defs>
    <g clip-path="url(#p5e45f6c3f5)">
     <use style="fill:#f29567;stroke:#f29567;" x="82.085769" xlink:href="#mb8258b8976" y="166.016727"/>
     <use style="fill:#f29567;stroke:#f29567;" x="127.391108" xlink:href="#mb8258b8976" y="251.145152"/>
     <use style="fill:#f29567;stroke:#f29567;" x="151.26477" xlink:href="#mb8258b8976" y="178.88333"/>
    </g>
   </g>
   <g id="PathCollection_5">
    <defs>
     <path d="M 0 10 
C 2.652031 10 5.195799 8.946337 7.071068 7.071068 
C 8.946337 5.195799 10 2.652031 10 0 
C 10 -2.652031 8.946337 -5.195799 7.071068 -7.071068 
C 5.195799 -8.946337 2.652031 -10 0 -10 
C -2.652031 -10 -5.195799 -8.946337 -7.071068 -7.071068 
C -8.946337 -5.195799 -10 -2.652031 -10 0 
C -10 2.652031 -8.946337 5.195799 -7.071068 7.071068 
C -5.195799 8.946337 -2.652031 10 0 10 
z
" id="m4754fd487f" style="stroke:#eb7858;"/>
    </defs>
    <g clip-path="url(#p5e45f6c3f5)">
     <use style="fill:#eb7858;stroke:#eb7858;" x="200.476316" xlink:href="#m4754fd487f" y="231.064398"/>
     <use style="fill:#eb7858;stroke:#eb7858;" x="208.851437" xlink:href="#m4754fd487f" y="105.806793"/>
     <use style="fill:#eb7858;stroke:#eb7858;" x="293.458011" xlink:href="#m4754fd487f" y="155.239811"/>
    </g>
   </g>
   <g id="PathCollection_6">
    <defs>
     <path d="M 0 10 
C 2.652031 10 5.195799 8.946337 7.071068 7.071068 
C 8.946337 5.195799 10 2.652031 10 0 
C 10 -2.652031 8.946337 -5.195799 7.071068 -7.071068 
C 5.195799 -8.946337 2.652031 -10 0 -10 
C -2.652031 -10 -5.195799 -8.946337 -7.071068 -7.071068 
C -8.946337 -5.195799 -10 -2.652031 -10 0 
C -10 2.652031 -8.946337 5.195799 -7.071068 7.071068 
C -5.195799 8.946337 -2.652031 10 0 10 
z
" id="m0a1b404d2e" style="stroke:#e05d53;"/>
    </defs>
    <g clip-path="url(#p5e45f6c3f5)">
     <use style="fill:#e05d53;stroke:#e05d53;" x="286.568039" xlink:href="#m0a1b404d2e" y="254.13791"/>
     <use style="fill:#e05d53;stroke:#e05d53;" x="208.851437" xlink:href="#m0a1b404d2e" y="105.806793"/>
     <use style="fill:#e05d53;stroke:#e05d53;" x="200.476316" xlink:href="#m0a1b404d2e" y="231.064398"/>
     <use style="fill:#e05d53;stroke:#e05d53;" x="151.26477" xlink:href="#m0a1b404d2e" y="178.88333"/>
     <use style="fill:#e05d53;stroke:#e05d53;" x="127.391108" xlink:href="#m0a1b404d2e" y="251.145152"/>
     <use style="fill:#e05d53;stroke:#e05d53;" x="200.476316" xlink:href="#m0a1b404d2e" y="231.064398"/>
     <use style="fill:#e05d53;stroke:#e05d53;" x="276.910906" xlink:href="#m0a1b404d2e" y="284.675492"/>
     <use style="fill:#e05d53;stroke:#e05d53;" x="214.758802" xlink:href="#m0a1b404d2e" y="168.116659"/>
    </g>
   </g>
   <g id="PathCollection_7">
    <defs>
     <path d="M 0 10 
C 2.652031 10 5.195799 8.946337 7.071068 7.071068 
C 8.946337 5.195799 10 2.652031 10 0 
C 10 -2.652031 8.946337 -5.195799 7.071068 -7.071068 
C 5.195799 -8.946337 2.652031 -10 0 -10 
C -2.652031 -10 -5.195799 -8.946337 -7.071068 -7.071068 
C -8.946337 -5.195799 -10 -2.652031 -10 0 
C -10 2.652031 -8.946337 5.195799 -7.071068 7.071068 
C -5.195799 8.946337 -2.652031 10 0 10 
z
" id="maa57d5fe52" style="stroke:#ce4356;"/>
    </defs>
    <g clip-path="url(#p5e45f6c3f5)">
     <use style="fill:#ce4356;stroke:#ce4356;" x="276.910906" xlink:href="#maa57d5fe52" y="284.675492"/>
     <use style="fill:#ce4356;stroke:#ce4356;" x="286.568039" xlink:href="#maa57d5fe52" y="254.13791"/>
     <use style="fill:#ce4356;stroke:#ce4356;" x="386.819304" xlink:href="#maa57d5fe52" y="149.990793"/>
     <use style="fill:#ce4356;stroke:#ce4356;" x="379.194816" xlink:href="#maa57d5fe52" y="227.689542"/>
     <use style="fill:#ce4356;stroke:#ce4356;" x="392.697922" xlink:href="#maa57d5fe52" y="256.563936"/>
    </g>
   </g>
   <g id="PathCollection_8">
    <defs>
     <path d="M 0 10 
C 2.652031 10 5.195799 8.946337 7.071068 7.071068 
C 8.946337 5.195799 10 2.652031 10 0 
C 10 -2.652031 8.946337 -5.195799 7.071068 -7.071068 
C 5.195799 -8.946337 2.652031 -10 0 -10 
C -2.652031 -10 -5.195799 -8.946337 -7.071068 -7.071068 
C -8.946337 -5.195799 -10 -2.652031 -10 0 
C -10 2.652031 -8.946337 5.195799 -7.071068 7.071068 
C -5.195799 8.946337 -2.652031 10 0 10 
z
" id="mc93f2e20b0" style="stroke:#b8315d;"/>
    </defs>
    <g clip-path="url(#p5e45f6c3f5)">
     <use style="fill:#b8315d;stroke:#b8315d;" x="286.568039" xlink:href="#mc93f2e20b0" y="254.13791"/>
     <use style="fill:#b8315d;stroke:#b8315d;" x="379.194816" xlink:href="#mc93f2e20b0" y="227.689542"/>
     <use style="fill:#b8315d;stroke:#b8315d;" x="320.271452" xlink:href="#mc93f2e20b0" y="197.51747"/>
     <use style="fill:#b8315d;stroke:#b8315d;" x="276.910906" xlink:href="#mc93f2e20b0" y="284.675492"/>
    </g>
   </g>
   <g id="PathCollection_9">
    <defs>
     <path d="M 0 10 
C 2.652031 10 5.195799 8.946337 7.071068 7.071068 
C 8.946337 5.195799 10 2.652031 10 0 
C 10 -2.652031 8.946337 -5.195799 7.071068 -7.071068 
C 5.195799 -8.946337 2.652031 -10 0 -10 
C -2.652031 -10 -5.195799 -8.946337 -7.071068 -7.071068 
C -8.946337 -5.195799 -10 -2.652031 -10 0 
C -10 2.652031 -8.946337 5.195799 -7.071068 7.071068 
C -5.195799 8.946337 -2.652031 10 0 10 
z
" id="mee1ae64d45" style="stroke:#9f2462;"/>
    </defs>
    <g clip-path="url(#p5e45f6c3f5)">
     <use style="fill:#9f2462;stroke:#9f2462;" x="208.851437" xlink:href="#mee1ae64d45" y="105.806793"/>
     <use style="fill:#9f2462;stroke:#9f2462;" x="244.327226" xlink:href="#mee1ae64d45" y="249.444415"/>
     <use style="fill:#9f2462;stroke:#9f2462;" x="320.271452" xlink:href="#mee1ae64d45" y="197.51747"/>
     <use style="fill:#9f2462;stroke:#9f2462;" x="214.758802" xlink:href="#mee1ae64d45" y="168.116659"/>
    </g>
   </g>
   <g id="PathCollection_10">
    <defs>
     <path d="M 0 10 
C 2.652031 10 5.195799 8.946337 7.071068 7.071068 
C 8.946337 5.195799 10 2.652031 10 0 
C 10 -2.652031 8.946337 -5.195799 7.071068 -7.071068 
C 5.195799 -8.946337 2.652031 -10 0 -10 
C -2.652031 -10 -5.195799 -8.946337 -7.071068 -7.071068 
C -8.946337 -5.195799 -10 -2.652031 -10 0 
C -10 2.652031 -8.946337 5.195799 -7.071068 7.071068 
C -5.195799 8.946337 -2.652031 10 0 10 
z
" id="ma7291ae1e2" style="stroke:#841c63;"/>
    </defs>
    <g clip-path="url(#p5e45f6c3f5)">
     <use style="fill:#841c63;stroke:#841c63;" x="200.476316" xlink:href="#ma7291ae1e2" y="231.064398"/>
     <use style="fill:#841c63;stroke:#841c63;" x="208.851437" xlink:href="#ma7291ae1e2" y="105.806793"/>
     <use style="fill:#841c63;stroke:#841c63;" x="286.568039" xlink:href="#ma7291ae1e2" y="254.13791"/>
     <use style="fill:#841c63;stroke:#841c63;" x="214.758802" xlink:href="#ma7291ae1e2" y="168.116659"/>
     <use style="fill:#841c63;stroke:#841c63;" x="320.271452" xlink:href="#ma7291ae1e2" y="197.51747"/>
     <use style="fill:#841c63;stroke:#841c63;" x="244.327226" xlink:href="#ma7291ae1e2" y="249.444415"/>
     <use style="fill:#841c63;stroke:#841c63;" x="276.910906" xlink:href="#ma7291ae1e2" y="284.675492"/>
     <use style="fill:#841c63;stroke:#841c63;" x="286.568039" xlink:href="#ma7291ae1e2" y="254.13791"/>
    </g>
   </g>
   <g id="PathCollection_11">
    <defs>
     <path d="M 0 10 
C 2.652031 10 5.195799 8.946337 7.071068 7.071068 
C 8.946337 5.195799 10 2.652031 10 0 
C 10 -2.652031 8.946337 -5.195799 7.071068 -7.071068 
C 5.195799 -8.946337 2.652031 -10 0 -10 
C -2.652031 -10 -5.195799 -8.946337 -7.071068 -7.071068 
C -8.946337 -5.195799 -10 -2.652031 -10 0 
C -10 2.652031 -8.946337 5.195799 -7.071068 7.071068 
C -5.195799 8.946337 -2.652031 10 0 10 
z
" id="m2bdcbb6732" style="stroke:#67195d;"/>
    </defs>
    <g clip-path="url(#p5e45f6c3f5)">
     <use style="fill:#67195d;stroke:#67195d;" x="276.910906" xlink:href="#m2bdcbb6732" y="284.675492"/>
     <use style="fill:#67195d;stroke:#67195d;" x="286.568039" xlink:href="#m2bdcbb6732" y="254.13791"/>
     <use style="fill:#67195d;stroke:#67195d;" x="208.851437" xlink:href="#m2bdcbb6732" y="105.806793"/>
     <use style="fill:#67195d;stroke:#67195d;" x="200.476316" xlink:href="#m2bdcbb6732" y="231.064398"/>
     <use style="fill:#67195d;stroke:#67195d;" x="260.019257" xlink:href="#m2bdcbb6732" y="187.151542"/>
     <use style="fill:#67195d;stroke:#67195d;" x="208.851437" xlink:href="#m2bdcbb6732" y="105.806793"/>
    </g>
   </g>
   <g id="PathCollection_12">
    <defs>
     <path d="M 0 10 
C 2.652031 10 5.195799 8.946337 7.071068 7.071068 
C 8.946337 5.195799 10 2.652031 10 0 
C 10 -2.652031 8.946337 -5.195799 7.071068 -7.071068 
C 5.195799 -8.946337 2.652031 -10 0 -10 
C -2.652031 -10 -5.195799 -8.946337 -7.071068 -7.071068 
C -8.946337 -5.195799 -10 -2.652031 -10 0 
C -10 2.652031 -8.946337 5.195799 -7.071068 7.071068 
C -5.195799 8.946337 -2.652031 10 0 10 
z
" id="m24a5014d7b" style="stroke:#4a154f;"/>
    </defs>
    <g clip-path="url(#p5e45f6c3f5)">
     <use style="fill:#4a154f;stroke:#4a154f;" x="276.910906" xlink:href="#m24a5014d7b" y="284.675492"/>
     <use style="fill:#4a154f;stroke:#4a154f;" x="286.568039" xlink:href="#m24a5014d7b" y="254.13791"/>
     <use style="fill:#4a154f;stroke:#4a154f;" x="208.851437" xlink:href="#m24a5014d7b" y="105.806793"/>
     <use style="fill:#4a154f;stroke:#4a154f;" x="200.476316" xlink:href="#m24a5014d7b" y="231.064398"/>
     <use style="fill:#4a154f;stroke:#4a154f;" x="266.883724" xlink:href="#m24a5014d7b" y="132.198231"/>
     <use style="fill:#4a154f;stroke:#4a154f;" x="241.64252" xlink:href="#m24a5014d7b" y="138.111762"/>
     <use style="fill:#4a154f;stroke:#4a154f;" x="200.476316" xlink:href="#m24a5014d7b" y="231.064398"/>
     <use style="fill:#4a154f;stroke:#4a154f;" x="208.851437" xlink:href="#m24a5014d7b" y="105.806793"/>
     <use style="fill:#4a154f;stroke:#4a154f;" x="286.568039" xlink:href="#m24a5014d7b" y="254.13791"/>
    </g>
   </g>
   <g id="PathCollection_13">
    <defs>
     <path d="M 0 10 
C 2.652031 10 5.195799 8.946337 7.071068 7.071068 
C 8.946337 5.195799 10 2.652031 10 0 
C 10 -2.652031 8.946337 -5.195799 7.071068 -7.071068 
C 5.195799 -8.946337 2.652031 -10 0 -10 
C -2.652031 -10 -5.195799 -8.946337 -7.071068 -7.071068 
C -8.946337 -5.195799 -10 -2.652031 -10 0 
C -10 2.652031 -8.946337 5.195799 -7.071068 7.071068 
C -5.195799 8.946337 -2.652031 10 0 10 
z
" id="me07e9a5913" style="stroke:#2f0f3e;"/>
    </defs>
    <g clip-path="url(#p5e45f6c3f5)">
     <use style="fill:#2f0f3e;stroke:#2f0f3e;" x="208.851437" xlink:href="#me07e9a5913" y="105.806793"/>
     <use style="fill:#2f0f3e;stroke:#2f0f3e;" x="286.568039" xlink:href="#me07e9a5913" y="254.13791"/>
     <use style="fill:#2f0f3e;stroke:#2f0f3e;" x="276.910906" xlink:href="#me07e9a5913" y="284.675492"/>
     <use style="fill:#2f0f3e;stroke:#2f0f3e;" x="214.758802" xlink:href="#me07e9a5913" y="168.116659"/>
     <use style="fill:#2f0f3e;stroke:#2f0f3e;" x="288.681873" xlink:href="#me07e9a5913" y="68.42533"/>
     <use style="fill:#2f0f3e;stroke:#2f0f3e;" x="311.707574" xlink:href="#me07e9a5913" y="113.402541"/>
     <use style="fill:#2f0f3e;stroke:#2f0f3e;" x="288.681873" xlink:href="#me07e9a5913" y="68.42533"/>
     <use style="fill:#2f0f3e;stroke:#2f0f3e;" x="293.458011" xlink:href="#me07e9a5913" y="155.239811"/>
     <use style="fill:#2f0f3e;stroke:#2f0f3e;" x="286.568039" xlink:href="#me07e9a5913" y="254.13791"/>
    </g>
   </g>
   <g id="text_1">
    <g clip-path="url(#p5e45f6c3f5)">
     <!-- yantian_chn -->
     <defs>
      <path d="M 32.171875 -5.078125 
Q 28.375 -14.84375 24.75 -17.8125 
Q 21.140625 -20.796875 15.09375 -20.796875 
L 7.90625 -20.796875 
L 7.90625 -13.28125 
L 13.1875 -13.28125 
Q 16.890625 -13.28125 18.9375 -11.515625 
Q 21 -9.765625 23.484375 -3.21875 
L 25.09375 0.875 
L 2.984375 54.6875 
L 12.5 54.6875 
L 29.59375 11.921875 
L 46.6875 54.6875 
L 56.203125 54.6875 
z
" id="DejaVuSans-121"/>
      <path d="M 34.28125 27.484375 
Q 23.390625 27.484375 19.1875 25 
Q 14.984375 22.515625 14.984375 16.5 
Q 14.984375 11.71875 18.140625 8.90625 
Q 21.296875 6.109375 26.703125 6.109375 
Q 34.1875 6.109375 38.703125 11.40625 
Q 43.21875 16.703125 43.21875 25.484375 
L 43.21875 27.484375 
z
M 52.203125 31.203125 
L 52.203125 0 
L 43.21875 0 
L 43.21875 8.296875 
Q 40.140625 3.328125 35.546875 0.953125 
Q 30.953125 -1.421875 24.3125 -1.421875 
Q 15.921875 -1.421875 10.953125 3.296875 
Q 6 8.015625 6 15.921875 
Q 6 25.140625 12.171875 29.828125 
Q 18.359375 34.515625 30.609375 34.515625 
L 43.21875 34.515625 
L 43.21875 35.40625 
Q 43.21875 41.609375 39.140625 45 
Q 35.0625 48.390625 27.6875 48.390625 
Q 23 48.390625 18.546875 47.265625 
Q 14.109375 46.140625 10.015625 43.890625 
L 10.015625 52.203125 
Q 14.9375 54.109375 19.578125 55.046875 
Q 24.21875 56 28.609375 56 
Q 40.484375 56 46.34375 49.84375 
Q 52.203125 43.703125 52.203125 31.203125 
z
" id="DejaVuSans-97"/>
      <path d="M 54.890625 33.015625 
L 54.890625 0 
L 45.90625 0 
L 45.90625 32.71875 
Q 45.90625 40.484375 42.875 44.328125 
Q 39.84375 48.1875 33.796875 48.1875 
Q 26.515625 48.1875 22.3125 43.546875 
Q 18.109375 38.921875 18.109375 30.90625 
L 18.109375 0 
L 9.078125 0 
L 9.078125 54.6875 
L 18.109375 54.6875 
L 18.109375 46.1875 
Q 21.34375 51.125 25.703125 53.5625 
Q 30.078125 56 35.796875 56 
Q 45.21875 56 50.046875 50.171875 
Q 54.890625 44.34375 54.890625 33.015625 
z
" id="DejaVuSans-110"/>
      <path d="M 18.3125 70.21875 
L 18.3125 54.6875 
L 36.8125 54.6875 
L 36.8125 47.703125 
L 18.3125 47.703125 
L 18.3125 18.015625 
Q 18.3125 11.328125 20.140625 9.421875 
Q 21.96875 7.515625 27.59375 7.515625 
L 36.8125 7.515625 
L 36.8125 0 
L 27.59375 0 
Q 17.1875 0 13.234375 3.875 
Q 9.28125 7.765625 9.28125 18.015625 
L 9.28125 47.703125 
L 2.6875 47.703125 
L 2.6875 54.6875 
L 9.28125 54.6875 
L 9.28125 70.21875 
z
" id="DejaVuSans-116"/>
      <path d="M 9.421875 54.6875 
L 18.40625 54.6875 
L 18.40625 0 
L 9.421875 0 
z
M 9.421875 75.984375 
L 18.40625 75.984375 
L 18.40625 64.59375 
L 9.421875 64.59375 
z
" id="DejaVuSans-105"/>
      <path d="M 50.984375 -16.609375 
L 50.984375 -23.578125 
L -0.984375 -23.578125 
L -0.984375 -16.609375 
z
" id="DejaVuSans-95"/>
      <path d="M 48.78125 52.59375 
L 48.78125 44.1875 
Q 44.96875 46.296875 41.140625 47.34375 
Q 37.3125 48.390625 33.40625 48.390625 
Q 24.65625 48.390625 19.8125 42.84375 
Q 14.984375 37.3125 14.984375 27.296875 
Q 14.984375 17.28125 19.8125 11.734375 
Q 24.65625 6.203125 33.40625 6.203125 
Q 37.3125 6.203125 41.140625 7.25 
Q 44.96875 8.296875 48.78125 10.40625 
L 48.78125 2.09375 
Q 45.015625 0.34375 40.984375 -0.53125 
Q 36.96875 -1.421875 32.421875 -1.421875 
Q 20.0625 -1.421875 12.78125 6.34375 
Q 5.515625 14.109375 5.515625 27.296875 
Q 5.515625 40.671875 12.859375 48.328125 
Q 20.21875 56 33.015625 56 
Q 37.15625 56 41.109375 55.140625 
Q 45.0625 54.296875 48.78125 52.59375 
z
" id="DejaVuSans-99"/>
      <path d="M 54.890625 33.015625 
L 54.890625 0 
L 45.90625 0 
L 45.90625 32.71875 
Q 45.90625 40.484375 42.875 44.328125 
Q 39.84375 48.1875 33.796875 48.1875 
Q 26.515625 48.1875 22.3125 43.546875 
Q 18.109375 38.921875 18.109375 30.90625 
L 18.109375 0 
L 9.078125 0 
L 9.078125 75.984375 
L 18.109375 75.984375 
L 18.109375 46.1875 
Q 21.34375 51.125 25.703125 53.5625 
Q 30.078125 56 35.796875 56 
Q 45.21875 56 50.046875 50.171875 
Q 54.890625 44.34375 54.890625 33.015625 
z
" id="DejaVuSans-104"/>
     </defs>
     <g transform="translate(184.562687 92.786939)scale(0.08 -0.08)">
      <use xlink:href="#DejaVuSans-121"/>
      <use x="59.179688" xlink:href="#DejaVuSans-97"/>
      <use x="120.458984" xlink:href="#DejaVuSans-110"/>
      <use x="183.837891" xlink:href="#DejaVuSans-116"/>
      <use x="223.046875" xlink:href="#DejaVuSans-105"/>
      <use x="250.830078" xlink:href="#DejaVuSans-97"/>
      <use x="312.109375" xlink:href="#DejaVuSans-110"/>
      <use x="375.488281" xlink:href="#DejaVuSans-95"/>
      <use x="425.488281" xlink:href="#DejaVuSans-99"/>
      <use x="480.46875" xlink:href="#DejaVuSans-104"/>
      <use x="543.847656" xlink:href="#DejaVuSans-110"/>
     </g>
    </g>
   </g>
   <g id="text_2">
    <g clip-path="url(#p5e45f6c3f5)">
     <!-- sydney_aus -->
     <defs>
      <path d="M 44.28125 53.078125 
L 44.28125 44.578125 
Q 40.484375 46.53125 36.375 47.5 
Q 32.28125 48.484375 27.875 48.484375 
Q 21.1875 48.484375 17.84375 46.4375 
Q 14.5 44.390625 14.5 40.28125 
Q 14.5 37.15625 16.890625 35.375 
Q 19.28125 33.59375 26.515625 31.984375 
L 29.59375 31.296875 
Q 39.15625 29.25 43.1875 25.515625 
Q 47.21875 21.78125 47.21875 15.09375 
Q 47.21875 7.46875 41.1875 3.015625 
Q 35.15625 -1.421875 24.609375 -1.421875 
Q 20.21875 -1.421875 15.453125 -0.5625 
Q 10.6875 0.296875 5.421875 2 
L 5.421875 11.28125 
Q 10.40625 8.6875 15.234375 7.390625 
Q 20.0625 6.109375 24.8125 6.109375 
Q 31.15625 6.109375 34.5625 8.28125 
Q 37.984375 10.453125 37.984375 14.40625 
Q 37.984375 18.0625 35.515625 20.015625 
Q 33.0625 21.96875 24.703125 23.78125 
L 21.578125 24.515625 
Q 13.234375 26.265625 9.515625 29.90625 
Q 5.8125 33.546875 5.8125 39.890625 
Q 5.8125 47.609375 11.28125 51.796875 
Q 16.75 56 26.8125 56 
Q 31.78125 56 36.171875 55.265625 
Q 40.578125 54.546875 44.28125 53.078125 
z
" id="DejaVuSans-115"/>
      <path d="M 45.40625 46.390625 
L 45.40625 75.984375 
L 54.390625 75.984375 
L 54.390625 0 
L 45.40625 0 
L 45.40625 8.203125 
Q 42.578125 3.328125 38.25 0.953125 
Q 33.9375 -1.421875 27.875 -1.421875 
Q 17.96875 -1.421875 11.734375 6.484375 
Q 5.515625 14.40625 5.515625 27.296875 
Q 5.515625 40.1875 11.734375 48.09375 
Q 17.96875 56 27.875 56 
Q 33.9375 56 38.25 53.625 
Q 42.578125 51.265625 45.40625 46.390625 
z
M 14.796875 27.296875 
Q 14.796875 17.390625 18.875 11.75 
Q 22.953125 6.109375 30.078125 6.109375 
Q 37.203125 6.109375 41.296875 11.75 
Q 45.40625 17.390625 45.40625 27.296875 
Q 45.40625 37.203125 41.296875 42.84375 
Q 37.203125 48.484375 30.078125 48.484375 
Q 22.953125 48.484375 18.875 42.84375 
Q 14.796875 37.203125 14.796875 27.296875 
z
" id="DejaVuSans-100"/>
      <path d="M 56.203125 29.59375 
L 56.203125 25.203125 
L 14.890625 25.203125 
Q 15.484375 15.921875 20.484375 11.0625 
Q 25.484375 6.203125 34.421875 6.203125 
Q 39.59375 6.203125 44.453125 7.46875 
Q 49.3125 8.734375 54.109375 11.28125 
L 54.109375 2.78125 
Q 49.265625 0.734375 44.1875 -0.34375 
Q 39.109375 -1.421875 33.890625 -1.421875 
Q 20.796875 -1.421875 13.15625 6.1875 
Q 5.515625 13.8125 5.515625 26.8125 
Q 5.515625 40.234375 12.765625 48.109375 
Q 20.015625 56 32.328125 56 
Q 43.359375 56 49.78125 48.890625 
Q 56.203125 41.796875 56.203125 29.59375 
z
M 47.21875 32.234375 
Q 47.125 39.59375 43.09375 43.984375 
Q 39.0625 48.390625 32.421875 48.390625 
Q 24.90625 48.390625 20.390625 44.140625 
Q 15.875 39.890625 15.1875 32.171875 
z
" id="DejaVuSans-101"/>
      <path d="M 8.5 21.578125 
L 8.5 54.6875 
L 17.484375 54.6875 
L 17.484375 21.921875 
Q 17.484375 14.15625 20.5 10.265625 
Q 23.53125 6.390625 29.59375 6.390625 
Q 36.859375 6.390625 41.078125 11.03125 
Q 45.3125 15.671875 45.3125 23.6875 
L 45.3125 54.6875 
L 54.296875 54.6875 
L 54.296875 0 
L 45.3125 0 
L 45.3125 8.40625 
Q 42.046875 3.421875 37.71875 1 
Q 33.40625 -1.421875 27.6875 -1.421875 
Q 18.265625 -1.421875 13.375 4.4375 
Q 8.5 10.296875 8.5 21.578125 
z
M 31.109375 56 
z
" id="DejaVuSans-117"/>
     </defs>
     <g transform="translate(115.626603 87.405919)scale(0.08 -0.08)">
      <use xlink:href="#DejaVuSans-115"/>
      <use x="52.099609" xlink:href="#DejaVuSans-121"/>
      <use x="111.279297" xlink:href="#DejaVuSans-100"/>
      <use x="174.755859" xlink:href="#DejaVuSans-110"/>
      <use x="238.134766" xlink:href="#DejaVuSans-101"/>
      <use x="299.658203" xlink:href="#DejaVuSans-121"/>
      <use x="358.837891" xlink:href="#DejaVuSans-95"/>
      <use x="408.837891" xlink:href="#DejaVuSans-97"/>
      <use x="470.117188" xlink:href="#DejaVuSans-117"/>
      <use x="533.496094" xlink:href="#DejaVuSans-115"/>
     </g>
    </g>
   </g>
   <g id="text_3">
    <g clip-path="url(#p5e45f6c3f5)">
     <!-- melbourne_aus -->
     <defs>
      <path d="M 52 44.1875 
Q 55.375 50.25 60.0625 53.125 
Q 64.75 56 71.09375 56 
Q 79.640625 56 84.28125 50.015625 
Q 88.921875 44.046875 88.921875 33.015625 
L 88.921875 0 
L 79.890625 0 
L 79.890625 32.71875 
Q 79.890625 40.578125 77.09375 44.375 
Q 74.3125 48.1875 68.609375 48.1875 
Q 61.625 48.1875 57.5625 43.546875 
Q 53.515625 38.921875 53.515625 30.90625 
L 53.515625 0 
L 44.484375 0 
L 44.484375 32.71875 
Q 44.484375 40.625 41.703125 44.40625 
Q 38.921875 48.1875 33.109375 48.1875 
Q 26.21875 48.1875 22.15625 43.53125 
Q 18.109375 38.875 18.109375 30.90625 
L 18.109375 0 
L 9.078125 0 
L 9.078125 54.6875 
L 18.109375 54.6875 
L 18.109375 46.1875 
Q 21.1875 51.21875 25.484375 53.609375 
Q 29.78125 56 35.6875 56 
Q 41.65625 56 45.828125 52.96875 
Q 50 49.953125 52 44.1875 
z
" id="DejaVuSans-109"/>
      <path d="M 9.421875 75.984375 
L 18.40625 75.984375 
L 18.40625 0 
L 9.421875 0 
z
" id="DejaVuSans-108"/>
      <path d="M 48.6875 27.296875 
Q 48.6875 37.203125 44.609375 42.84375 
Q 40.53125 48.484375 33.40625 48.484375 
Q 26.265625 48.484375 22.1875 42.84375 
Q 18.109375 37.203125 18.109375 27.296875 
Q 18.109375 17.390625 22.1875 11.75 
Q 26.265625 6.109375 33.40625 6.109375 
Q 40.53125 6.109375 44.609375 11.75 
Q 48.6875 17.390625 48.6875 27.296875 
z
M 18.109375 46.390625 
Q 20.953125 51.265625 25.265625 53.625 
Q 29.59375 56 35.59375 56 
Q 45.5625 56 51.78125 48.09375 
Q 58.015625 40.1875 58.015625 27.296875 
Q 58.015625 14.40625 51.78125 6.484375 
Q 45.5625 -1.421875 35.59375 -1.421875 
Q 29.59375 -1.421875 25.265625 0.953125 
Q 20.953125 3.328125 18.109375 8.203125 
L 18.109375 0 
L 9.078125 0 
L 9.078125 75.984375 
L 18.109375 75.984375 
z
" id="DejaVuSans-98"/>
      <path d="M 30.609375 48.390625 
Q 23.390625 48.390625 19.1875 42.75 
Q 14.984375 37.109375 14.984375 27.296875 
Q 14.984375 17.484375 19.15625 11.84375 
Q 23.34375 6.203125 30.609375 6.203125 
Q 37.796875 6.203125 41.984375 11.859375 
Q 46.1875 17.53125 46.1875 27.296875 
Q 46.1875 37.015625 41.984375 42.703125 
Q 37.796875 48.390625 30.609375 48.390625 
z
M 30.609375 56 
Q 42.328125 56 49.015625 48.375 
Q 55.71875 40.765625 55.71875 27.296875 
Q 55.71875 13.875 49.015625 6.21875 
Q 42.328125 -1.421875 30.609375 -1.421875 
Q 18.84375 -1.421875 12.171875 6.21875 
Q 5.515625 13.875 5.515625 27.296875 
Q 5.515625 40.765625 12.171875 48.375 
Q 18.84375 56 30.609375 56 
z
" id="DejaVuSans-111"/>
      <path d="M 41.109375 46.296875 
Q 39.59375 47.171875 37.8125 47.578125 
Q 36.03125 48 33.890625 48 
Q 26.265625 48 22.1875 43.046875 
Q 18.109375 38.09375 18.109375 28.8125 
L 18.109375 0 
L 9.078125 0 
L 9.078125 54.6875 
L 18.109375 54.6875 
L 18.109375 46.1875 
Q 20.953125 51.171875 25.484375 53.578125 
Q 30.03125 56 36.53125 56 
Q 37.453125 56 38.578125 55.875 
Q 39.703125 55.765625 41.0625 55.515625 
z
" id="DejaVuSans-114"/>
     </defs>
     <g transform="translate(130.124249 49.000355)scale(0.08 -0.08)">
      <use xlink:href="#DejaVuSans-109"/>
      <use x="97.412109" xlink:href="#DejaVuSans-101"/>
      <use x="158.935547" xlink:href="#DejaVuSans-108"/>
      <use x="186.71875" xlink:href="#DejaVuSans-98"/>
      <use x="250.195312" xlink:href="#DejaVuSans-111"/>
      <use x="311.376953" xlink:href="#DejaVuSans-117"/>
      <use x="374.755859" xlink:href="#DejaVuSans-114"/>
      <use x="415.853516" xlink:href="#DejaVuSans-110"/>
      <use x="479.232422" xlink:href="#DejaVuSans-101"/>
      <use x="540.755859" xlink:href="#DejaVuSans-95"/>
      <use x="590.755859" xlink:href="#DejaVuSans-97"/>
      <use x="652.035156" xlink:href="#DejaVuSans-117"/>
      <use x="715.414062" xlink:href="#DejaVuSans-115"/>
     </g>
    </g>
   </g>
   <g id="text_4">
    <g clip-path="url(#p5e45f6c3f5)">
     <!-- singapore_sgp -->
     <defs>
      <path d="M 45.40625 27.984375 
Q 45.40625 37.75 41.375 43.109375 
Q 37.359375 48.484375 30.078125 48.484375 
Q 22.859375 48.484375 18.828125 43.109375 
Q 14.796875 37.75 14.796875 27.984375 
Q 14.796875 18.265625 18.828125 12.890625 
Q 22.859375 7.515625 30.078125 7.515625 
Q 37.359375 7.515625 41.375 12.890625 
Q 45.40625 18.265625 45.40625 27.984375 
z
M 54.390625 6.78125 
Q 54.390625 -7.171875 48.1875 -13.984375 
Q 42 -20.796875 29.203125 -20.796875 
Q 24.46875 -20.796875 20.265625 -20.09375 
Q 16.0625 -19.390625 12.109375 -17.921875 
L 12.109375 -9.1875 
Q 16.0625 -11.328125 19.921875 -12.34375 
Q 23.78125 -13.375 27.78125 -13.375 
Q 36.625 -13.375 41.015625 -8.765625 
Q 45.40625 -4.15625 45.40625 5.171875 
L 45.40625 9.625 
Q 42.625 4.78125 38.28125 2.390625 
Q 33.9375 0 27.875 0 
Q 17.828125 0 11.671875 7.65625 
Q 5.515625 15.328125 5.515625 27.984375 
Q 5.515625 40.671875 11.671875 48.328125 
Q 17.828125 56 27.875 56 
Q 33.9375 56 38.28125 53.609375 
Q 42.625 51.21875 45.40625 46.390625 
L 45.40625 54.6875 
L 54.390625 54.6875 
z
" id="DejaVuSans-103"/>
      <path d="M 18.109375 8.203125 
L 18.109375 -20.796875 
L 9.078125 -20.796875 
L 9.078125 54.6875 
L 18.109375 54.6875 
L 18.109375 46.390625 
Q 20.953125 51.265625 25.265625 53.625 
Q 29.59375 56 35.59375 56 
Q 45.5625 56 51.78125 48.09375 
Q 58.015625 40.1875 58.015625 27.296875 
Q 58.015625 14.40625 51.78125 6.484375 
Q 45.5625 -1.421875 35.59375 -1.421875 
Q 29.59375 -1.421875 25.265625 0.953125 
Q 20.953125 3.328125 18.109375 8.203125 
z
M 48.6875 27.296875 
Q 48.6875 37.203125 44.609375 42.84375 
Q 40.53125 48.484375 33.40625 48.484375 
Q 26.265625 48.484375 22.1875 42.84375 
Q 18.109375 37.203125 18.109375 27.296875 
Q 18.109375 17.390625 22.1875 11.75 
Q 26.265625 6.109375 33.40625 6.109375 
Q 40.53125 6.109375 44.609375 11.75 
Q 48.6875 17.390625 48.6875 27.296875 
z
" id="DejaVuSans-112"/>
     </defs>
     <g transform="translate(171.501941 218.044544)scale(0.08 -0.08)">
      <use xlink:href="#DejaVuSans-115"/>
      <use x="52.099609" xlink:href="#DejaVuSans-105"/>
      <use x="79.882812" xlink:href="#DejaVuSans-110"/>
      <use x="143.261719" xlink:href="#DejaVuSans-103"/>
      <use x="206.738281" xlink:href="#DejaVuSans-97"/>
      <use x="268.017578" xlink:href="#DejaVuSans-112"/>
      <use x="331.494141" xlink:href="#DejaVuSans-111"/>
      <use x="392.675781" xlink:href="#DejaVuSans-114"/>
      <use x="433.757812" xlink:href="#DejaVuSans-101"/>
      <use x="495.28125" xlink:href="#DejaVuSans-95"/>
      <use x="545.28125" xlink:href="#DejaVuSans-115"/>
      <use x="597.380859" xlink:href="#DejaVuSans-103"/>
      <use x="660.857422" xlink:href="#DejaVuSans-112"/>
     </g>
    </g>
   </g>
   <g id="text_5">
    <g clip-path="url(#p5e45f6c3f5)">
     <!-- newYork_usa -->
     <defs>
      <path d="M 4.203125 54.6875 
L 13.1875 54.6875 
L 24.421875 12.015625 
L 35.59375 54.6875 
L 46.1875 54.6875 
L 57.421875 12.015625 
L 68.609375 54.6875 
L 77.59375 54.6875 
L 63.28125 0 
L 52.6875 0 
L 40.921875 44.828125 
L 29.109375 0 
L 18.5 0 
z
" id="DejaVuSans-119"/>
      <path d="M -0.203125 72.90625 
L 10.40625 72.90625 
L 30.609375 42.921875 
L 50.6875 72.90625 
L 61.28125 72.90625 
L 35.5 34.71875 
L 35.5 0 
L 25.59375 0 
L 25.59375 34.71875 
z
" id="DejaVuSans-89"/>
      <path d="M 9.078125 75.984375 
L 18.109375 75.984375 
L 18.109375 31.109375 
L 44.921875 54.6875 
L 56.390625 54.6875 
L 27.390625 29.109375 
L 57.625 0 
L 45.90625 0 
L 18.109375 26.703125 
L 18.109375 0 
L 9.078125 0 
z
" id="DejaVuSans-107"/>
     </defs>
     <g transform="translate(51.339342 235.462568)scale(0.08 -0.08)">
      <use xlink:href="#DejaVuSans-110"/>
      <use x="63.378906" xlink:href="#DejaVuSans-101"/>
      <use x="124.902344" xlink:href="#DejaVuSans-119"/>
      <use x="206.689453" xlink:href="#DejaVuSans-89"/>
      <use x="267.570312" xlink:href="#DejaVuSans-111"/>
      <use x="328.751953" xlink:href="#DejaVuSans-114"/>
      <use x="369.865234" xlink:href="#DejaVuSans-107"/>
      <use x="427.775391" xlink:href="#DejaVuSans-95"/>
      <use x="477.775391" xlink:href="#DejaVuSans-117"/>
      <use x="541.154297" xlink:href="#DejaVuSans-115"/>
      <use x="593.253906" xlink:href="#DejaVuSans-97"/>
     </g>
    </g>
   </g>
   <g id="text_6">
    <g clip-path="url(#p5e45f6c3f5)">
     <!-- bremerhaven_ger -->
     <defs>
      <path d="M 2.984375 54.6875 
L 12.5 54.6875 
L 29.59375 8.796875 
L 46.6875 54.6875 
L 56.203125 54.6875 
L 35.6875 0 
L 23.484375 0 
z
" id="DejaVuSans-118"/>
     </defs>
     <g transform="translate(91.751108 238.125297)scale(0.08 -0.08)">
      <use xlink:href="#DejaVuSans-98"/>
      <use x="63.476562" xlink:href="#DejaVuSans-114"/>
      <use x="104.558594" xlink:href="#DejaVuSans-101"/>
      <use x="166.082031" xlink:href="#DejaVuSans-109"/>
      <use x="263.494141" xlink:href="#DejaVuSans-101"/>
      <use x="325.017578" xlink:href="#DejaVuSans-114"/>
      <use x="366.115234" xlink:href="#DejaVuSans-104"/>
      <use x="429.494141" xlink:href="#DejaVuSans-97"/>
      <use x="490.773438" xlink:href="#DejaVuSans-118"/>
      <use x="549.953125" xlink:href="#DejaVuSans-101"/>
      <use x="611.476562" xlink:href="#DejaVuSans-110"/>
      <use x="674.855469" xlink:href="#DejaVuSans-95"/>
      <use x="724.855469" xlink:href="#DejaVuSans-103"/>
      <use x="788.332031" xlink:href="#DejaVuSans-101"/>
      <use x="849.855469" xlink:href="#DejaVuSans-114"/>
     </g>
    </g>
   </g>
   <g id="text_7">
    <g clip-path="url(#p5e45f6c3f5)">
     <!-- leHavre_fra -->
     <defs>
      <path d="M 9.8125 72.90625 
L 19.671875 72.90625 
L 19.671875 43.015625 
L 55.515625 43.015625 
L 55.515625 72.90625 
L 65.375 72.90625 
L 65.375 0 
L 55.515625 0 
L 55.515625 34.71875 
L 19.671875 34.71875 
L 19.671875 0 
L 9.8125 0 
z
" id="DejaVuSans-72"/>
      <path d="M 37.109375 75.984375 
L 37.109375 68.5 
L 28.515625 68.5 
Q 23.6875 68.5 21.796875 66.546875 
Q 19.921875 64.59375 19.921875 59.515625 
L 19.921875 54.6875 
L 34.71875 54.6875 
L 34.71875 47.703125 
L 19.921875 47.703125 
L 19.921875 0 
L 10.890625 0 
L 10.890625 47.703125 
L 2.296875 47.703125 
L 2.296875 54.6875 
L 10.890625 54.6875 
L 10.890625 58.5 
Q 10.890625 67.625 15.140625 71.796875 
Q 19.390625 75.984375 28.609375 75.984375 
z
" id="DejaVuSans-102"/>
     </defs>
     <g transform="translate(128.25727 165.863475)scale(0.08 -0.08)">
      <use xlink:href="#DejaVuSans-108"/>
      <use x="27.783203" xlink:href="#DejaVuSans-101"/>
      <use x="89.306641" xlink:href="#DejaVuSans-72"/>
      <use x="164.501953" xlink:href="#DejaVuSans-97"/>
      <use x="225.78125" xlink:href="#DejaVuSans-118"/>
      <use x="284.960938" xlink:href="#DejaVuSans-114"/>
      <use x="326.042969" xlink:href="#DejaVuSans-101"/>
      <use x="387.566406" xlink:href="#DejaVuSans-95"/>
      <use x="437.566406" xlink:href="#DejaVuSans-102"/>
      <use x="472.771484" xlink:href="#DejaVuSans-114"/>
      <use x="513.884766" xlink:href="#DejaVuSans-97"/>
     </g>
    </g>
   </g>
   <g id="text_8">
    <g clip-path="url(#p5e45f6c3f5)">
     <!-- montreal_can -->
     <g transform="translate(54.786394 152.996873)scale(0.08 -0.08)">
      <use xlink:href="#DejaVuSans-109"/>
      <use x="97.412109" xlink:href="#DejaVuSans-111"/>
      <use x="158.59375" xlink:href="#DejaVuSans-110"/>
      <use x="221.972656" xlink:href="#DejaVuSans-116"/>
      <use x="261.181641" xlink:href="#DejaVuSans-114"/>
      <use x="302.263672" xlink:href="#DejaVuSans-101"/>
      <use x="363.787109" xlink:href="#DejaVuSans-97"/>
      <use x="425.066406" xlink:href="#DejaVuSans-108"/>
      <use x="452.849609" xlink:href="#DejaVuSans-95"/>
      <use x="502.849609" xlink:href="#DejaVuSans-99"/>
      <use x="557.830078" xlink:href="#DejaVuSans-97"/>
      <use x="619.109375" xlink:href="#DejaVuSans-110"/>
     </g>
    </g>
   </g>
   <g id="text_9">
    <g clip-path="url(#p5e45f6c3f5)">
     <!-- yokohama_jpn -->
     <defs>
      <path d="M 9.421875 54.6875 
L 18.40625 54.6875 
L 18.40625 -0.984375 
Q 18.40625 -11.421875 14.421875 -16.109375 
Q 10.453125 -20.796875 1.609375 -20.796875 
L -1.8125 -20.796875 
L -1.8125 -13.1875 
L 0.59375 -13.1875 
Q 5.71875 -13.1875 7.5625 -10.8125 
Q 9.421875 -8.453125 9.421875 -0.984375 
z
M 9.421875 75.984375 
L 18.40625 75.984375 
L 18.40625 64.59375 
L 9.421875 64.59375 
z
" id="DejaVuSans-106"/>
     </defs>
     <g transform="translate(264.361761 142.219956)scale(0.08 -0.08)">
      <use xlink:href="#DejaVuSans-121"/>
      <use x="59.179688" xlink:href="#DejaVuSans-111"/>
      <use x="120.361328" xlink:href="#DejaVuSans-107"/>
      <use x="178.224609" xlink:href="#DejaVuSans-111"/>
      <use x="239.40625" xlink:href="#DejaVuSans-104"/>
      <use x="302.785156" xlink:href="#DejaVuSans-97"/>
      <use x="364.064453" xlink:href="#DejaVuSans-109"/>
      <use x="461.476562" xlink:href="#DejaVuSans-97"/>
      <use x="522.755859" xlink:href="#DejaVuSans-95"/>
      <use x="572.755859" xlink:href="#DejaVuSans-106"/>
      <use x="600.539062" xlink:href="#DejaVuSans-112"/>
      <use x="664.015625" xlink:href="#DejaVuSans-110"/>
     </g>
    </g>
   </g>
   <g id="text_10">
    <g clip-path="url(#p5e45f6c3f5)">
     <!-- shanghai_chn -->
     <g transform="translate(259.056789 241.118055)scale(0.08 -0.08)">
      <use xlink:href="#DejaVuSans-115"/>
      <use x="52.099609" xlink:href="#DejaVuSans-104"/>
      <use x="115.478516" xlink:href="#DejaVuSans-97"/>
      <use x="176.757812" xlink:href="#DejaVuSans-110"/>
      <use x="240.136719" xlink:href="#DejaVuSans-103"/>
      <use x="303.613281" xlink:href="#DejaVuSans-104"/>
      <use x="366.992188" xlink:href="#DejaVuSans-97"/>
      <use x="428.271484" xlink:href="#DejaVuSans-105"/>
      <use x="456.054688" xlink:href="#DejaVuSans-95"/>
      <use x="506.054688" xlink:href="#DejaVuSans-99"/>
      <use x="561.035156" xlink:href="#DejaVuSans-104"/>
      <use x="624.414062" xlink:href="#DejaVuSans-110"/>
     </g>
    </g>
   </g>
   <g id="text_11">
    <g clip-path="url(#p5e45f6c3f5)">
     <!-- qingdao_chn -->
     <defs>
      <path d="M 14.796875 27.296875 
Q 14.796875 17.390625 18.875 11.75 
Q 22.953125 6.109375 30.078125 6.109375 
Q 37.203125 6.109375 41.296875 11.75 
Q 45.40625 17.390625 45.40625 27.296875 
Q 45.40625 37.203125 41.296875 42.84375 
Q 37.203125 48.484375 30.078125 48.484375 
Q 22.953125 48.484375 18.875 42.84375 
Q 14.796875 37.203125 14.796875 27.296875 
z
M 45.40625 8.203125 
Q 42.578125 3.328125 38.25 0.953125 
Q 33.9375 -1.421875 27.875 -1.421875 
Q 17.96875 -1.421875 11.734375 6.484375 
Q 5.515625 14.40625 5.515625 27.296875 
Q 5.515625 40.1875 11.734375 48.09375 
Q 17.96875 56 27.875 56 
Q 33.9375 56 38.25 53.625 
Q 42.578125 51.265625 45.40625 46.390625 
L 45.40625 54.6875 
L 54.390625 54.6875 
L 54.390625 -20.796875 
L 45.40625 -20.796875 
z
" id="DejaVuSans-113"/>
     </defs>
     <g transform="translate(251.478406 271.655637)scale(0.08 -0.08)">
      <use xlink:href="#DejaVuSans-113"/>
      <use x="63.476562" xlink:href="#DejaVuSans-105"/>
      <use x="91.259766" xlink:href="#DejaVuSans-110"/>
      <use x="154.638672" xlink:href="#DejaVuSans-103"/>
      <use x="218.115234" xlink:href="#DejaVuSans-100"/>
      <use x="281.591797" xlink:href="#DejaVuSans-97"/>
      <use x="342.871094" xlink:href="#DejaVuSans-111"/>
      <use x="404.052734" xlink:href="#DejaVuSans-95"/>
      <use x="454.052734" xlink:href="#DejaVuSans-99"/>
      <use x="509.033203" xlink:href="#DejaVuSans-104"/>
      <use x="572.412109" xlink:href="#DejaVuSans-110"/>
     </g>
    </g>
   </g>
   <g id="text_12">
    <g clip-path="url(#p5e45f6c3f5)">
     <!-- pusan_kor -->
     <g transform="translate(194.208177 155.096805)scale(0.08 -0.08)">
      <use xlink:href="#DejaVuSans-112"/>
      <use x="63.476562" xlink:href="#DejaVuSans-117"/>
      <use x="126.855469" xlink:href="#DejaVuSans-115"/>
      <use x="178.955078" xlink:href="#DejaVuSans-97"/>
      <use x="240.234375" xlink:href="#DejaVuSans-110"/>
      <use x="303.613281" xlink:href="#DejaVuSans-95"/>
      <use x="353.613281" xlink:href="#DejaVuSans-107"/>
      <use x="411.476562" xlink:href="#DejaVuSans-111"/>
      <use x="472.658203" xlink:href="#DejaVuSans-114"/>
     </g>
    </g>
   </g>
   <g id="text_13">
    <g clip-path="url(#p5e45f6c3f5)">
     <!-- princeRupert_can -->
     <defs>
      <path d="M 44.390625 34.1875 
Q 47.5625 33.109375 50.5625 29.59375 
Q 53.5625 26.078125 56.59375 19.921875 
L 66.609375 0 
L 56 0 
L 46.6875 18.703125 
Q 43.0625 26.03125 39.671875 28.421875 
Q 36.28125 30.8125 30.421875 30.8125 
L 19.671875 30.8125 
L 19.671875 0 
L 9.8125 0 
L 9.8125 72.90625 
L 32.078125 72.90625 
Q 44.578125 72.90625 50.734375 67.671875 
Q 56.890625 62.453125 56.890625 51.90625 
Q 56.890625 45.015625 53.6875 40.46875 
Q 50.484375 35.9375 44.390625 34.1875 
z
M 19.671875 64.796875 
L 19.671875 38.921875 
L 32.078125 38.921875 
Q 39.203125 38.921875 42.84375 42.21875 
Q 46.484375 45.515625 46.484375 51.90625 
Q 46.484375 58.296875 42.84375 61.546875 
Q 39.203125 64.796875 32.078125 64.796875 
z
" id="DejaVuSans-82"/>
     </defs>
     <g transform="translate(351.618054 136.970939)scale(0.08 -0.08)">
      <use xlink:href="#DejaVuSans-112"/>
      <use x="63.476562" xlink:href="#DejaVuSans-114"/>
      <use x="104.589844" xlink:href="#DejaVuSans-105"/>
      <use x="132.373047" xlink:href="#DejaVuSans-110"/>
      <use x="195.751953" xlink:href="#DejaVuSans-99"/>
      <use x="250.732422" xlink:href="#DejaVuSans-101"/>
      <use x="312.255859" xlink:href="#DejaVuSans-82"/>
      <use x="381.675781" xlink:href="#DejaVuSans-117"/>
      <use x="445.054688" xlink:href="#DejaVuSans-112"/>
      <use x="508.53125" xlink:href="#DejaVuSans-101"/>
      <use x="570.054688" xlink:href="#DejaVuSans-114"/>
      <use x="611.167969" xlink:href="#DejaVuSans-116"/>
      <use x="650.376953" xlink:href="#DejaVuSans-95"/>
      <use x="700.376953" xlink:href="#DejaVuSans-99"/>
      <use x="755.357422" xlink:href="#DejaVuSans-97"/>
      <use x="816.636719" xlink:href="#DejaVuSans-110"/>
     </g>
    </g>
   </g>
   <g id="text_14">
    <g clip-path="url(#p5e45f6c3f5)">
     <!-- losAngeles_usa -->
     <defs>
      <path d="M 34.1875 63.1875 
L 20.796875 26.90625 
L 47.609375 26.90625 
z
M 28.609375 72.90625 
L 39.796875 72.90625 
L 67.578125 0 
L 57.328125 0 
L 50.6875 18.703125 
L 17.828125 18.703125 
L 11.1875 0 
L 0.78125 0 
z
" id="DejaVuSans-65"/>
     </defs>
     <g transform="translate(348.554191 214.669688)scale(0.08 -0.08)">
      <use xlink:href="#DejaVuSans-108"/>
      <use x="27.783203" xlink:href="#DejaVuSans-111"/>
      <use x="88.964844" xlink:href="#DejaVuSans-115"/>
      <use x="141.064453" xlink:href="#DejaVuSans-65"/>
      <use x="209.472656" xlink:href="#DejaVuSans-110"/>
      <use x="272.851562" xlink:href="#DejaVuSans-103"/>
      <use x="336.328125" xlink:href="#DejaVuSans-101"/>
      <use x="397.851562" xlink:href="#DejaVuSans-108"/>
      <use x="425.634766" xlink:href="#DejaVuSans-101"/>
      <use x="487.158203" xlink:href="#DejaVuSans-115"/>
      <use x="539.257812" xlink:href="#DejaVuSans-95"/>
      <use x="589.257812" xlink:href="#DejaVuSans-117"/>
      <use x="652.636719" xlink:href="#DejaVuSans-115"/>
      <use x="704.736328" xlink:href="#DejaVuSans-97"/>
     </g>
    </g>
   </g>
   <g id="text_15">
    <g clip-path="url(#p5e45f6c3f5)">
     <!-- oakland_usa -->
     <g transform="translate(367.776047 243.544081)scale(0.08 -0.08)">
      <use xlink:href="#DejaVuSans-111"/>
      <use x="61.181641" xlink:href="#DejaVuSans-97"/>
      <use x="122.460938" xlink:href="#DejaVuSans-107"/>
      <use x="180.371094" xlink:href="#DejaVuSans-108"/>
      <use x="208.154297" xlink:href="#DejaVuSans-97"/>
      <use x="269.433594" xlink:href="#DejaVuSans-110"/>
      <use x="332.8125" xlink:href="#DejaVuSans-100"/>
      <use x="396.289062" xlink:href="#DejaVuSans-95"/>
      <use x="446.289062" xlink:href="#DejaVuSans-117"/>
      <use x="509.667969" xlink:href="#DejaVuSans-115"/>
      <use x="561.767578" xlink:href="#DejaVuSans-97"/>
     </g>
    </g>
   </g>
   <g id="text_16">
    <g clip-path="url(#p5e45f6c3f5)">
     <!-- seattle_usa -->
     <g transform="translate(297.496452 184.497615)scale(0.08 -0.08)">
      <use xlink:href="#DejaVuSans-115"/>
      <use x="52.099609" xlink:href="#DejaVuSans-101"/>
      <use x="113.623047" xlink:href="#DejaVuSans-97"/>
      <use x="174.902344" xlink:href="#DejaVuSans-116"/>
      <use x="214.111328" xlink:href="#DejaVuSans-116"/>
      <use x="253.320312" xlink:href="#DejaVuSans-108"/>
      <use x="281.103516" xlink:href="#DejaVuSans-101"/>
      <use x="342.626953" xlink:href="#DejaVuSans-95"/>
      <use x="392.626953" xlink:href="#DejaVuSans-117"/>
      <use x="456.005859" xlink:href="#DejaVuSans-115"/>
      <use x="508.105469" xlink:href="#DejaVuSans-97"/>
     </g>
    </g>
   </g>
   <g id="text_17">
    <g clip-path="url(#p5e45f6c3f5)">
     <!-- vancouver_can -->
     <g transform="translate(214.132851 236.313311)scale(0.08 -0.08)">
      <use xlink:href="#DejaVuSans-118"/>
      <use x="59.179688" xlink:href="#DejaVuSans-97"/>
      <use x="120.458984" xlink:href="#DejaVuSans-110"/>
      <use x="183.837891" xlink:href="#DejaVuSans-99"/>
      <use x="238.818359" xlink:href="#DejaVuSans-111"/>
      <use x="300" xlink:href="#DejaVuSans-117"/>
      <use x="363.378906" xlink:href="#DejaVuSans-118"/>
      <use x="422.558594" xlink:href="#DejaVuSans-101"/>
      <use x="484.082031" xlink:href="#DejaVuSans-114"/>
      <use x="525.195312" xlink:href="#DejaVuSans-95"/>
      <use x="575.195312" xlink:href="#DejaVuSans-99"/>
      <use x="630.175781" xlink:href="#DejaVuSans-97"/>
      <use x="691.455078" xlink:href="#DejaVuSans-110"/>
     </g>
    </g>
   </g>
   <g id="text_18">
    <g clip-path="url(#p5e45f6c3f5)">
     <!-- durban_sau -->
     <g transform="translate(236.704882 174.131688)scale(0.08 -0.08)">
      <use xlink:href="#DejaVuSans-100"/>
      <use x="63.476562" xlink:href="#DejaVuSans-117"/>
      <use x="126.855469" xlink:href="#DejaVuSans-114"/>
      <use x="167.96875" xlink:href="#DejaVuSans-98"/>
      <use x="231.445312" xlink:href="#DejaVuSans-97"/>
      <use x="292.724609" xlink:href="#DejaVuSans-110"/>
      <use x="356.103516" xlink:href="#DejaVuSans-95"/>
      <use x="406.103516" xlink:href="#DejaVuSans-115"/>
      <use x="458.203125" xlink:href="#DejaVuSans-97"/>
      <use x="519.482422" xlink:href="#DejaVuSans-117"/>
     </g>
    </g>
   </g>
   <g id="text_19">
    <g clip-path="url(#p5e45f6c3f5)">
     <!-- itagual_bra -->
     <g transform="translate(244.481224 119.178377)scale(0.08 -0.08)">
      <use xlink:href="#DejaVuSans-105"/>
      <use x="27.783203" xlink:href="#DejaVuSans-116"/>
      <use x="66.992188" xlink:href="#DejaVuSans-97"/>
      <use x="128.271484" xlink:href="#DejaVuSans-103"/>
      <use x="191.748047" xlink:href="#DejaVuSans-117"/>
      <use x="255.126953" xlink:href="#DejaVuSans-97"/>
      <use x="316.40625" xlink:href="#DejaVuSans-108"/>
      <use x="344.189453" xlink:href="#DejaVuSans-95"/>
      <use x="394.189453" xlink:href="#DejaVuSans-98"/>
      <use x="457.666016" xlink:href="#DejaVuSans-114"/>
      <use x="498.779297" xlink:href="#DejaVuSans-97"/>
     </g>
    </g>
   </g>
   <g id="text_20">
    <g clip-path="url(#p5e45f6c3f5)">
     <!-- santos_bra -->
     <g transform="translate(219.838145 125.091908)scale(0.08 -0.08)">
      <use xlink:href="#DejaVuSans-115"/>
      <use x="52.099609" xlink:href="#DejaVuSans-97"/>
      <use x="113.378906" xlink:href="#DejaVuSans-110"/>
      <use x="176.757812" xlink:href="#DejaVuSans-116"/>
      <use x="215.966797" xlink:href="#DejaVuSans-111"/>
      <use x="277.148438" xlink:href="#DejaVuSans-115"/>
      <use x="329.248047" xlink:href="#DejaVuSans-95"/>
      <use x="379.248047" xlink:href="#DejaVuSans-98"/>
      <use x="442.724609" xlink:href="#DejaVuSans-114"/>
      <use x="483.837891" xlink:href="#DejaVuSans-97"/>
     </g>
    </g>
   </g>
   <g id="text_21">
    <g clip-path="url(#p5e45f6c3f5)">
     <!-- manzanillo_mex -->
     <defs>
      <path d="M 5.515625 54.6875 
L 48.1875 54.6875 
L 48.1875 46.484375 
L 14.40625 7.171875 
L 48.1875 7.171875 
L 48.1875 0 
L 4.296875 0 
L 4.296875 8.203125 
L 38.09375 47.515625 
L 5.515625 47.515625 
z
" id="DejaVuSans-122"/>
      <path d="M 54.890625 54.6875 
L 35.109375 28.078125 
L 55.90625 0 
L 45.3125 0 
L 29.390625 21.484375 
L 13.484375 0 
L 2.875 0 
L 24.125 28.609375 
L 4.6875 54.6875 
L 15.28125 54.6875 
L 29.78125 35.203125 
L 44.28125 54.6875 
z
" id="DejaVuSans-120"/>
     </defs>
     <g transform="translate(256.208123 55.405476)scale(0.08 -0.08)">
      <use xlink:href="#DejaVuSans-109"/>
      <use x="97.412109" xlink:href="#DejaVuSans-97"/>
      <use x="158.691406" xlink:href="#DejaVuSans-110"/>
      <use x="222.070312" xlink:href="#DejaVuSans-122"/>
      <use x="274.560547" xlink:href="#DejaVuSans-97"/>
      <use x="335.839844" xlink:href="#DejaVuSans-110"/>
      <use x="399.21875" xlink:href="#DejaVuSans-105"/>
      <use x="427.001953" xlink:href="#DejaVuSans-108"/>
      <use x="454.785156" xlink:href="#DejaVuSans-108"/>
      <use x="482.568359" xlink:href="#DejaVuSans-111"/>
      <use x="543.75" xlink:href="#DejaVuSans-95"/>
      <use x="593.75" xlink:href="#DejaVuSans-109"/>
      <use x="691.162109" xlink:href="#DejaVuSans-101"/>
      <use x="752.669922" xlink:href="#DejaVuSans-120"/>
     </g>
    </g>
   </g>
   <g id="text_22">
    <g clip-path="url(#p5e45f6c3f5)">
     <!-- sanAntonio_par -->
     <g transform="translate(280.621949 100.382687)scale(0.08 -0.08)">
      <use xlink:href="#DejaVuSans-115"/>
      <use x="52.099609" xlink:href="#DejaVuSans-97"/>
      <use x="113.378906" xlink:href="#DejaVuSans-110"/>
      <use x="176.757812" xlink:href="#DejaVuSans-65"/>
      <use x="245.166016" xlink:href="#DejaVuSans-110"/>
      <use x="308.544922" xlink:href="#DejaVuSans-116"/>
      <use x="347.753906" xlink:href="#DejaVuSans-111"/>
      <use x="408.935547" xlink:href="#DejaVuSans-110"/>
      <use x="472.314453" xlink:href="#DejaVuSans-105"/>
      <use x="500.097656" xlink:href="#DejaVuSans-111"/>
      <use x="561.279297" xlink:href="#DejaVuSans-95"/>
      <use x="611.279297" xlink:href="#DejaVuSans-112"/>
      <use x="674.755859" xlink:href="#DejaVuSans-97"/>
      <use x="736.035156" xlink:href="#DejaVuSans-114"/>
     </g>
    </g>
   </g>
  </g>
 </g>
 <defs>
  <clipPath id="p5e45f6c3f5">
   <rect height="266.112" width="357.12" x="57.6" y="41.472"/>
  </clipPath>
 </defs>
</svg>
