<?xml version="1.0" encoding="utf-8" standalone="no"?>
<!DOCTYPE svg PUBLIC "-//W3C//DTD SVG 1.1//EN"
  "http://www.w3.org/Graphics/SVG/1.1/DTD/svg11.dtd">
<!-- Created with matplotlib (https://matplotlib.org/) -->
<svg height="345.6pt" version="1.1" viewBox="0 0 460.8 345.6" width="460.8pt" xmlns="http://www.w3.org/2000/svg" xmlns:xlink="http://www.w3.org/1999/xlink">
 <defs>
  <style type="text/css">
*{stroke-linecap:butt;stroke-linejoin:round;}
  </style>
 </defs>
 <g id="figure_1">
  <g id="patch_1">
   <path d="M 0 345.6 
L 460.8 345.6 
L 460.8 0 
L 0 0 
z
" style="fill:#ffffff;"/>
  </g>
  <g id="axes_1">
   <g id="patch_2">
    <path clip-path="url(#p5c417a276e)" d="M 164.018257 174.528 
Q 123.737201 122.957377 86.897249 75.792296 
" style="fill:none;stroke:#feedb0;stroke-linecap:round;stroke-opacity:0.8;stroke-width:5;"/>
    <path clip-path="url(#p5c417a276e)" d="M 87.783328 80.175772 
L 86.897249 75.792296 
L 90.935678 77.713518 
L 87.783328 80.175772 
z
" style="fill:#feedb0;fill-opacity:0.8;stroke:#feedb0;stroke-linecap:round;stroke-opacity:0.8;stroke-width:5;"/>
   </g>
   <g id="patch_3">
    <path clip-path="url(#p5c417a276e)" d="M 164.018257 174.528 
Q 123.737201 226.098623 86.897249 273.263704 
" style="fill:none;stroke:#feedb0;stroke-linecap:round;stroke-opacity:0.8;stroke-width:5;"/>
    <path clip-path="url(#p5c417a276e)" d="M 90.935678 271.342482 
L 86.897249 273.263704 
L 87.783328 268.880228 
L 90.935678 271.342482 
z
" style="fill:#feedb0;fill-opacity:0.8;stroke:#feedb0;stroke-linecap:round;stroke-opacity:0.8;stroke-width:5;"/>
   </g>
   <g id="patch_4">
    <path clip-path="url(#p5c417a276e)" d="M 387.334807 284.491636 
Q 347.053751 232.921013 310.213799 185.755932 
" style="fill:none;stroke:#ce4356;stroke-linecap:round;stroke-opacity:0.8;stroke-width:5;"/>
    <path clip-path="url(#p5c417a276e)" d="M 311.099878 190.139408 
L 310.213799 185.755932 
L 314.252227 187.677155 
L 311.099878 190.139408 
z
" style="fill:#ce4356;fill-opacity:0.8;stroke:#ce4356;stroke-linecap:round;stroke-opacity:0.8;stroke-width:5;"/>
   </g>
   <g id="patch_5">
    <path clip-path="url(#p5c417a276e)" d="M 387.334807 64.564364 
Q 347.053751 116.134987 310.213799 163.300068 
" style="fill:none;stroke:#ce4356;stroke-linecap:round;stroke-opacity:0.8;stroke-width:5;"/>
    <path clip-path="url(#p5c417a276e)" d="M 314.252227 161.378845 
L 310.213799 163.300068 
L 311.099878 158.916592 
L 314.252227 161.378845 
z
" style="fill:#ce4356;fill-opacity:0.8;stroke:#ce4356;stroke-linecap:round;stroke-opacity:0.8;stroke-width:5;"/>
   </g>
   <g id="patch_6">
    <path clip-path="url(#p5c417a276e)" d="M 301.443826 174.528 
Q 237.061239 174.528 178.268821 174.528 
" style="fill:none;stroke:#2f0f3e;stroke-linecap:round;stroke-opacity:0.8;stroke-width:5;"/>
    <path clip-path="url(#p5c417a276e)" d="M 182.268821 176.528 
L 178.268821 174.528 
L 182.268821 172.528 
L 182.268821 176.528 
z
" style="fill:#2f0f3e;fill-opacity:0.8;stroke:#2f0f3e;stroke-linecap:round;stroke-opacity:0.8;stroke-width:5;"/>
   </g>
   <g id="text_1">
    <g id="patch_7">
     <path clip-path="url(#p5c417a276e)" d="M 337.066802 231.596322 
L 340.591672 236.109107 
Q 342.253694 238.236943 344.38153 236.574922 
L 351.246017 231.213172 
Q 353.373852 229.55115 351.711831 227.423314 
L 348.186961 222.910529 
Q 346.52494 220.782694 344.397104 222.444715 
L 337.532617 227.806465 
Q 335.404781 229.468486 337.066802 231.596322 
z
" style="fill:#ffffff;stroke:#ffffff;stroke-linejoin:miter;"/>
    </g>
    <g clip-path="url(#p5c417a276e)">
     <!-- 1 -->
     <defs>
      <path d="M 12.40625 8.296875 
L 28.515625 8.296875 
L 28.515625 63.921875 
L 10.984375 60.40625 
L 10.984375 69.390625 
L 28.421875 72.90625 
L 38.28125 72.90625 
L 38.28125 8.296875 
L 54.390625 8.296875 
L 54.390625 0 
L 12.40625 0 
z
" id="DejaVuSans-49"/>
     </defs>
     <g style="opacity:0.8;" transform="translate(340.669716 228.782139)rotate(-307.992872)scale(0.09 -0.09)">
      <use xlink:href="#DejaVuSans-49"/>
     </g>
    </g>
   </g>
   <g id="text_2">
    <g id="patch_8">
     <path clip-path="url(#p5c417a276e)" d="M 348.186961 126.145471 
L 351.711831 121.632686 
Q 353.373852 119.50485 351.246017 117.842828 
L 344.38153 112.481078 
Q 342.253694 110.819057 340.591672 112.946893 
L 337.066802 117.459678 
Q 335.404781 119.587514 337.532617 121.249535 
L 344.397104 126.611285 
Q 346.52494 128.273306 348.186961 126.145471 
z
" style="fill:#ffffff;stroke:#ffffff;stroke-linejoin:miter;"/>
    </g>
    <g clip-path="url(#p5c417a276e)">
     <!-- 1 -->
     <g style="opacity:0.8;" transform="translate(344.584047 123.331288)rotate(-52.007128)scale(0.09 -0.09)">
      <use xlink:href="#DejaVuSans-49"/>
     </g>
    </g>
   </g>
   <g id="text_3">
    <g id="patch_9">
     <path clip-path="url(#p5c417a276e)" d="M 229.867917 181.583156 
L 235.594167 181.583156 
Q 238.294167 181.583156 238.294167 178.883156 
L 238.294167 170.172844 
Q 238.294167 167.472844 235.594167 167.472844 
L 229.867917 167.472844 
Q 227.167917 167.472844 227.167917 170.172844 
L 227.167917 178.883156 
Q 227.167917 181.583156 229.867917 181.583156 
z
" style="fill:#ffffff;stroke:#ffffff;stroke-linejoin:miter;"/>
    </g>
    <g clip-path="url(#p5c417a276e)">
     <!-- 1 -->
     <g style="opacity:0.8;" transform="translate(229.867917 177.011437)scale(0.09 -0.09)">
      <use xlink:href="#DejaVuSans-49"/>
     </g>
    </g>
   </g>
   <g id="text_4">
    <g id="patch_10">
     <path clip-path="url(#p5c417a276e)" d="M 111.107465 118.249205 
L 119.917909 129.528951 
Q 121.579931 131.656787 123.707767 129.994766 
L 130.572254 124.633016 
Q 132.700089 122.970995 131.038068 120.843159 
L 122.227624 109.563412 
Q 120.565603 107.435577 118.437767 109.097598 
L 111.57328 114.459348 
Q 109.445444 116.121369 111.107465 118.249205 
z
" style="fill:#ffffff;stroke:#ffffff;stroke-linejoin:miter;"/>
    </g>
    <g clip-path="url(#p5c417a276e)">
     <!-- 0.5 -->
     <defs>
      <path d="M 31.78125 66.40625 
Q 24.171875 66.40625 20.328125 58.90625 
Q 16.5 51.421875 16.5 36.375 
Q 16.5 21.390625 20.328125 13.890625 
Q 24.171875 6.390625 31.78125 6.390625 
Q 39.453125 6.390625 43.28125 13.890625 
Q 47.125 21.390625 47.125 36.375 
Q 47.125 51.421875 43.28125 58.90625 
Q 39.453125 66.40625 31.78125 66.40625 
z
M 31.78125 74.21875 
Q 44.046875 74.21875 50.515625 64.515625 
Q 56.984375 54.828125 56.984375 36.375 
Q 56.984375 17.96875 50.515625 8.265625 
Q 44.046875 -1.421875 31.78125 -1.421875 
Q 19.53125 -1.421875 13.0625 8.265625 
Q 6.59375 17.96875 6.59375 36.375 
Q 6.59375 54.828125 13.0625 64.515625 
Q 19.53125 74.21875 31.78125 74.21875 
z
" id="DejaVuSans-48"/>
      <path d="M 10.6875 12.40625 
L 21 12.40625 
L 21 0 
L 10.6875 0 
z
" id="DejaVuSans-46"/>
      <path d="M 10.796875 72.90625 
L 49.515625 72.90625 
L 49.515625 64.59375 
L 19.828125 64.59375 
L 19.828125 46.734375 
Q 21.96875 47.46875 24.109375 47.828125 
Q 26.265625 48.1875 28.421875 48.1875 
Q 40.625 48.1875 47.75 41.5 
Q 54.890625 34.8125 54.890625 23.390625 
Q 54.890625 11.625 47.5625 5.09375 
Q 40.234375 -1.421875 26.90625 -1.421875 
Q 22.3125 -1.421875 17.546875 -0.640625 
Q 12.796875 0.140625 7.71875 1.703125 
L 7.71875 11.625 
Q 12.109375 9.234375 16.796875 8.0625 
Q 21.484375 6.890625 26.703125 6.890625 
Q 35.15625 6.890625 40.078125 11.328125 
Q 45.015625 15.765625 45.015625 23.390625 
Q 45.015625 31 40.078125 35.4375 
Q 35.15625 39.890625 26.703125 39.890625 
Q 22.75 39.890625 18.8125 39.015625 
Q 14.890625 38.140625 10.796875 36.28125 
z
" id="DejaVuSans-53"/>
     </defs>
     <g style="opacity:0.8;" transform="translate(114.710379 115.435022)rotate(-307.992872)scale(0.09 -0.09)">
      <use xlink:href="#DejaVuSans-48"/>
      <use x="63.623047" xlink:href="#DejaVuSans-46"/>
      <use x="95.410156" xlink:href="#DejaVuSans-53"/>
     </g>
    </g>
   </g>
   <g id="text_5">
    <g id="patch_11">
     <path clip-path="url(#p5c417a276e)" d="M 122.227624 239.492588 
L 131.038068 228.212841 
Q 132.700089 226.085005 130.572254 224.422984 
L 123.707767 219.061234 
Q 121.579931 217.399213 119.917909 219.527049 
L 111.107465 230.806795 
Q 109.445444 232.934631 111.57328 234.596652 
L 118.437767 239.958402 
Q 120.565603 241.620423 122.227624 239.492588 
z
" style="fill:#ffffff;stroke:#ffffff;stroke-linejoin:miter;"/>
    </g>
    <g clip-path="url(#p5c417a276e)">
     <!-- 0.5 -->
     <g style="opacity:0.8;" transform="translate(118.62471 236.678405)rotate(-52.007128)scale(0.09 -0.09)">
      <use xlink:href="#DejaVuSans-48"/>
      <use x="63.623047" xlink:href="#DejaVuSans-46"/>
      <use x="95.410156" xlink:href="#DejaVuSans-53"/>
     </g>
    </g>
   </g>
   <g id="PathCollection_1">
    <defs>
     <path d="M 0 12.247449 
C 3.248061 12.247449 6.363528 10.95698 8.660254 8.660254 
C 10.95698 6.363528 12.247449 3.248061 12.247449 0 
C 12.247449 -3.248061 10.95698 -6.363528 8.660254 -8.660254 
C 6.363528 -10.95698 3.248061 -12.247449 0 -12.247449 
C -3.248061 -12.247449 -6.363528 -10.95698 -8.660254 -8.660254 
C -10.95698 -6.363528 -12.247449 -3.248061 -12.247449 0 
C -12.247449 3.248061 -10.95698 6.363528 -8.660254 8.660254 
C -6.363528 10.95698 -3.248061 12.247449 0 12.247449 
z
" id="m2abf454bbb" style="stroke:#feedb0;"/>
    </defs>
    <g clip-path="url(#p5c417a276e)">
     <use style="fill:#feedb0;stroke:#feedb0;" x="172.607355" xlink:href="#m2abf454bbb" y="174.528"/>
     <use style="fill:#feedb0;stroke:#feedb0;" x="86.716374" xlink:href="#m2abf454bbb" y="64.564364"/>
     <use style="fill:#feedb0;stroke:#feedb0;" x="86.716374" xlink:href="#m2abf454bbb" y="284.491636"/>
    </g>
   </g>
   <g id="PathCollection_2">
    <defs>
     <path d="M 0 12.247449 
C 3.248061 12.247449 6.363528 10.95698 8.660254 8.660254 
C 10.95698 6.363528 12.247449 3.248061 12.247449 0 
C 12.247449 -3.248061 10.95698 -6.363528 8.660254 -8.660254 
C 6.363528 -10.95698 3.248061 -12.247449 0 -12.247449 
C -3.248061 -12.247449 -6.363528 -10.95698 -8.660254 -8.660254 
C -10.95698 -6.363528 -12.247449 -3.248061 -12.247449 0 
C -12.247449 3.248061 -10.95698 6.363528 -8.660254 8.660254 
C -6.363528 10.95698 -3.248061 12.247449 0 12.247449 
z
" id="m9dd537c927" style="stroke:#ce4356;"/>
    </defs>
    <g clip-path="url(#p5c417a276e)">
     <use style="fill:#ce4356;stroke:#ce4356;" x="310.032924" xlink:href="#m9dd537c927" y="174.528"/>
     <use style="fill:#ce4356;stroke:#ce4356;" x="395.923905" xlink:href="#m9dd537c927" y="284.491636"/>
     <use style="fill:#ce4356;stroke:#ce4356;" x="395.923905" xlink:href="#m9dd537c927" y="64.564364"/>
    </g>
   </g>
   <g id="PathCollection_3">
    <defs>
     <path d="M 0 12.247449 
C 3.248061 12.247449 6.363528 10.95698 8.660254 8.660254 
C 10.95698 6.363528 12.247449 3.248061 12.247449 0 
C 12.247449 -3.248061 10.95698 -6.363528 8.660254 -8.660254 
C 6.363528 -10.95698 3.248061 -12.247449 0 -12.247449 
C -3.248061 -12.247449 -6.363528 -10.95698 -8.660254 -8.660254 
C -10.95698 -6.363528 -12.247449 -3.248061 -12.247449 0 
C -12.247449 3.248061 -10.95698 6.363528 -8.660254 8.660254 
C -6.363528 10.95698 -3.248061 12.247449 0 12.247449 
z
" id="m7de62ef0c5" style="stroke:#2f0f3e;"/>
    </defs>
    <g clip-path="url(#p5c417a276e)">
     <use style="fill:#2f0f3e;stroke:#2f0f3e;" x="310.032924" xlink:href="#m7de62ef0c5" y="174.528"/>
     <use style="fill:#2f0f3e;stroke:#2f0f3e;" x="172.607355" xlink:href="#m7de62ef0c5" y="174.528"/>
    </g>
   </g>
   <g id="text_6">
    <g clip-path="url(#p5c417a276e)">
     <!-- demand_port_001 -->
     <defs>
      <path d="M 45.40625 46.390625 
L 45.40625 75.984375 
L 54.390625 75.984375 
L 54.390625 0 
L 45.40625 0 
L 45.40625 8.203125 
Q 42.578125 3.328125 38.25 0.953125 
Q 33.9375 -1.421875 27.875 -1.421875 
Q 17.96875 -1.421875 11.734375 6.484375 
Q 5.515625 14.40625 5.515625 27.296875 
Q 5.515625 40.1875 11.734375 48.09375 
Q 17.96875 56 27.875 56 
Q 33.9375 56 38.25 53.625 
Q 42.578125 51.265625 45.40625 46.390625 
z
M 14.796875 27.296875 
Q 14.796875 17.390625 18.875 11.75 
Q 22.953125 6.109375 30.078125 6.109375 
Q 37.203125 6.109375 41.296875 11.75 
Q 45.40625 17.390625 45.40625 27.296875 
Q 45.40625 37.203125 41.296875 42.84375 
Q 37.203125 48.484375 30.078125 48.484375 
Q 22.953125 48.484375 18.875 42.84375 
Q 14.796875 37.203125 14.796875 27.296875 
z
" id="DejaVuSans-100"/>
      <path d="M 56.203125 29.59375 
L 56.203125 25.203125 
L 14.890625 25.203125 
Q 15.484375 15.921875 20.484375 11.0625 
Q 25.484375 6.203125 34.421875 6.203125 
Q 39.59375 6.203125 44.453125 7.46875 
Q 49.3125 8.734375 54.109375 11.28125 
L 54.109375 2.78125 
Q 49.265625 0.734375 44.1875 -0.34375 
Q 39.109375 -1.421875 33.890625 -1.421875 
Q 20.796875 -1.421875 13.15625 6.1875 
Q 5.515625 13.8125 5.515625 26.8125 
Q 5.515625 40.234375 12.765625 48.109375 
Q 20.015625 56 32.328125 56 
Q 43.359375 56 49.78125 48.890625 
Q 56.203125 41.796875 56.203125 29.59375 
z
M 47.21875 32.234375 
Q 47.125 39.59375 43.09375 43.984375 
Q 39.0625 48.390625 32.421875 48.390625 
Q 24.90625 48.390625 20.390625 44.140625 
Q 15.875 39.890625 15.1875 32.171875 
z
" id="DejaVuSans-101"/>
      <path d="M 52 44.1875 
Q 55.375 50.25 60.0625 53.125 
Q 64.75 56 71.09375 56 
Q 79.640625 56 84.28125 50.015625 
Q 88.921875 44.046875 88.921875 33.015625 
L 88.921875 0 
L 79.890625 0 
L 79.890625 32.71875 
Q 79.890625 40.578125 77.09375 44.375 
Q 74.3125 48.1875 68.609375 48.1875 
Q 61.625 48.1875 57.5625 43.546875 
Q 53.515625 38.921875 53.515625 30.90625 
L 53.515625 0 
L 44.484375 0 
L 44.484375 32.71875 
Q 44.484375 40.625 41.703125 44.40625 
Q 38.921875 48.1875 33.109375 48.1875 
Q 26.21875 48.1875 22.15625 43.53125 
Q 18.109375 38.875 18.109375 30.90625 
L 18.109375 0 
L 9.078125 0 
L 9.078125 54.6875 
L 18.109375 54.6875 
L 18.109375 46.1875 
Q 21.1875 51.21875 25.484375 53.609375 
Q 29.78125 56 35.6875 56 
Q 41.65625 56 45.828125 52.96875 
Q 50 49.953125 52 44.1875 
z
" id="DejaVuSans-109"/>
      <path d="M 34.28125 27.484375 
Q 23.390625 27.484375 19.1875 25 
Q 14.984375 22.515625 14.984375 16.5 
Q 14.984375 11.71875 18.140625 8.90625 
Q 21.296875 6.109375 26.703125 6.109375 
Q 34.1875 6.109375 38.703125 11.40625 
Q 43.21875 16.703125 43.21875 25.484375 
L 43.21875 27.484375 
z
M 52.203125 31.203125 
L 52.203125 0 
L 43.21875 0 
L 43.21875 8.296875 
Q 40.140625 3.328125 35.546875 0.953125 
Q 30.953125 -1.421875 24.3125 -1.421875 
Q 15.921875 -1.421875 10.953125 3.296875 
Q 6 8.015625 6 15.921875 
Q 6 25.140625 12.171875 29.828125 
Q 18.359375 34.515625 30.609375 34.515625 
L 43.21875 34.515625 
L 43.21875 35.40625 
Q 43.21875 41.609375 39.140625 45 
Q 35.0625 48.390625 27.6875 48.390625 
Q 23 48.390625 18.546875 47.265625 
Q 14.109375 46.140625 10.015625 43.890625 
L 10.015625 52.203125 
Q 14.9375 54.109375 19.578125 55.046875 
Q 24.21875 56 28.609375 56 
Q 40.484375 56 46.34375 49.84375 
Q 52.203125 43.703125 52.203125 31.203125 
z
" id="DejaVuSans-97"/>
      <path d="M 54.890625 33.015625 
L 54.890625 0 
L 45.90625 0 
L 45.90625 32.71875 
Q 45.90625 40.484375 42.875 44.328125 
Q 39.84375 48.1875 33.796875 48.1875 
Q 26.515625 48.1875 22.3125 43.546875 
Q 18.109375 38.921875 18.109375 30.90625 
L 18.109375 0 
L 9.078125 0 
L 9.078125 54.6875 
L 18.109375 54.6875 
L 18.109375 46.1875 
Q 21.34375 51.125 25.703125 53.5625 
Q 30.078125 56 35.796875 56 
Q 45.21875 56 50.046875 50.171875 
Q 54.890625 44.34375 54.890625 33.015625 
z
" id="DejaVuSans-110"/>
      <path d="M 50.984375 -16.609375 
L 50.984375 -23.578125 
L -0.984375 -23.578125 
L -0.984375 -16.609375 
z
" id="DejaVuSans-95"/>
      <path d="M 18.109375 8.203125 
L 18.109375 -20.796875 
L 9.078125 -20.796875 
L 9.078125 54.6875 
L 18.109375 54.6875 
L 18.109375 46.390625 
Q 20.953125 51.265625 25.265625 53.625 
Q 29.59375 56 35.59375 56 
Q 45.5625 56 51.78125 48.09375 
Q 58.015625 40.1875 58.015625 27.296875 
Q 58.015625 14.40625 51.78125 6.484375 
Q 45.5625 -1.421875 35.59375 -1.421875 
Q 29.59375 -1.421875 25.265625 0.953125 
Q 20.953125 3.328125 18.109375 8.203125 
z
M 48.6875 27.296875 
Q 48.6875 37.203125 44.609375 42.84375 
Q 40.53125 48.484375 33.40625 48.484375 
Q 26.265625 48.484375 22.1875 42.84375 
Q 18.109375 37.203125 18.109375 27.296875 
Q 18.109375 17.390625 22.1875 11.75 
Q 26.265625 6.109375 33.40625 6.109375 
Q 40.53125 6.109375 44.609375 11.75 
Q 48.6875 17.390625 48.6875 27.296875 
z
" id="DejaVuSans-112"/>
      <path d="M 30.609375 48.390625 
Q 23.390625 48.390625 19.1875 42.75 
Q 14.984375 37.109375 14.984375 27.296875 
Q 14.984375 17.484375 19.15625 11.84375 
Q 23.34375 6.203125 30.609375 6.203125 
Q 37.796875 6.203125 41.984375 11.859375 
Q 46.1875 17.53125 46.1875 27.296875 
Q 46.1875 37.015625 41.984375 42.703125 
Q 37.796875 48.390625 30.609375 48.390625 
z
M 30.609375 56 
Q 42.328125 56 49.015625 48.375 
Q 55.71875 40.765625 55.71875 27.296875 
Q 55.71875 13.875 49.015625 6.21875 
Q 42.328125 -1.421875 30.609375 -1.421875 
Q 18.84375 -1.421875 12.171875 6.21875 
Q 5.515625 13.875 5.515625 27.296875 
Q 5.515625 40.765625 12.171875 48.375 
Q 18.84375 56 30.609375 56 
z
" id="DejaVuSans-111"/>
      <path d="M 41.109375 46.296875 
Q 39.59375 47.171875 37.8125 47.578125 
Q 36.03125 48 33.890625 48 
Q 26.265625 48 22.1875 43.046875 
Q 18.109375 38.09375 18.109375 28.8125 
L 18.109375 0 
L 9.078125 0 
L 9.078125 54.6875 
L 18.109375 54.6875 
L 18.109375 46.1875 
Q 20.953125 51.171875 25.484375 53.578125 
Q 30.03125 56 36.53125 56 
Q 37.453125 56 38.578125 55.875 
Q 39.703125 55.765625 41.0625 55.515625 
z
" id="DejaVuSans-114"/>
      <path d="M 18.3125 70.21875 
L 18.3125 54.6875 
L 36.8125 54.6875 
L 36.8125 47.703125 
L 18.3125 47.703125 
L 18.3125 18.015625 
Q 18.3125 11.328125 20.140625 9.421875 
Q 21.96875 7.515625 27.59375 7.515625 
L 36.8125 7.515625 
L 36.8125 0 
L 27.59375 0 
Q 17.1875 0 13.234375 3.875 
Q 9.28125 7.765625 9.28125 18.015625 
L 9.28125 47.703125 
L 2.6875 47.703125 
L 2.6875 54.6875 
L 9.28125 54.6875 
L 9.28125 70.21875 
z
" id="DejaVuSans-116"/>
     </defs>
     <g transform="translate(355.134921 269.255736)scale(0.09 -0.09)">
      <use xlink:href="#DejaVuSans-100"/>
      <use x="63.476562" xlink:href="#DejaVuSans-101"/>
      <use x="125" xlink:href="#DejaVuSans-109"/>
      <use x="222.412109" xlink:href="#DejaVuSans-97"/>
      <use x="283.691406" xlink:href="#DejaVuSans-110"/>
      <use x="347.070312" xlink:href="#DejaVuSans-100"/>
      <use x="410.546875" xlink:href="#DejaVuSans-95"/>
      <use x="460.546875" xlink:href="#DejaVuSans-112"/>
      <use x="524.023438" xlink:href="#DejaVuSans-111"/>
      <use x="585.205078" xlink:href="#DejaVuSans-114"/>
      <use x="626.318359" xlink:href="#DejaVuSans-116"/>
      <use x="665.527344" xlink:href="#DejaVuSans-95"/>
      <use x="715.527344" xlink:href="#DejaVuSans-48"/>
      <use x="779.150391" xlink:href="#DejaVuSans-48"/>
      <use x="842.773438" xlink:href="#DejaVuSans-49"/>
     </g>
    </g>
   </g>
   <g id="text_7">
    <g clip-path="url(#p5c417a276e)">
     <!-- demand_port_002 -->
     <defs>
      <path d="M 19.1875 8.296875 
L 53.609375 8.296875 
L 53.609375 0 
L 7.328125 0 
L 7.328125 8.296875 
Q 12.9375 14.109375 22.625 23.890625 
Q 32.328125 33.6875 34.8125 36.53125 
Q 39.546875 41.84375 41.421875 45.53125 
Q 43.3125 49.21875 43.3125 52.78125 
Q 43.3125 58.59375 39.234375 62.25 
Q 35.15625 65.921875 28.609375 65.921875 
Q 23.96875 65.921875 18.8125 64.3125 
Q 13.671875 62.703125 7.8125 59.421875 
L 7.8125 69.390625 
Q 13.765625 71.78125 18.9375 73 
Q 24.125 74.21875 28.421875 74.21875 
Q 39.75 74.21875 46.484375 68.546875 
Q 53.21875 62.890625 53.21875 53.421875 
Q 53.21875 48.921875 51.53125 44.890625 
Q 49.859375 40.875 45.40625 35.40625 
Q 44.1875 33.984375 37.640625 27.21875 
Q 31.109375 20.453125 19.1875 8.296875 
z
" id="DejaVuSans-50"/>
     </defs>
     <g transform="translate(355.134921 49.328463)scale(0.09 -0.09)">
      <use xlink:href="#DejaVuSans-100"/>
      <use x="63.476562" xlink:href="#DejaVuSans-101"/>
      <use x="125" xlink:href="#DejaVuSans-109"/>
      <use x="222.412109" xlink:href="#DejaVuSans-97"/>
      <use x="283.691406" xlink:href="#DejaVuSans-110"/>
      <use x="347.070312" xlink:href="#DejaVuSans-100"/>
      <use x="410.546875" xlink:href="#DejaVuSans-95"/>
      <use x="460.546875" xlink:href="#DejaVuSans-112"/>
      <use x="524.023438" xlink:href="#DejaVuSans-111"/>
      <use x="585.205078" xlink:href="#DejaVuSans-114"/>
      <use x="626.318359" xlink:href="#DejaVuSans-116"/>
      <use x="665.527344" xlink:href="#DejaVuSans-95"/>
      <use x="715.527344" xlink:href="#DejaVuSans-48"/>
      <use x="779.150391" xlink:href="#DejaVuSans-48"/>
      <use x="842.773438" xlink:href="#DejaVuSans-50"/>
     </g>
    </g>
   </g>
   <g id="text_8">
    <g clip-path="url(#p5c417a276e)">
     <!-- supply_port_001 -->
     <defs>
      <path d="M 44.28125 53.078125 
L 44.28125 44.578125 
Q 40.484375 46.53125 36.375 47.5 
Q 32.28125 48.484375 27.875 48.484375 
Q 21.1875 48.484375 17.84375 46.4375 
Q 14.5 44.390625 14.5 40.28125 
Q 14.5 37.15625 16.890625 35.375 
Q 19.28125 33.59375 26.515625 31.984375 
L 29.59375 31.296875 
Q 39.15625 29.25 43.1875 25.515625 
Q 47.21875 21.78125 47.21875 15.09375 
Q 47.21875 7.46875 41.1875 3.015625 
Q 35.15625 -1.421875 24.609375 -1.421875 
Q 20.21875 -1.421875 15.453125 -0.5625 
Q 10.6875 0.296875 5.421875 2 
L 5.421875 11.28125 
Q 10.40625 8.6875 15.234375 7.390625 
Q 20.0625 6.109375 24.8125 6.109375 
Q 31.15625 6.109375 34.5625 8.28125 
Q 37.984375 10.453125 37.984375 14.40625 
Q 37.984375 18.0625 35.515625 20.015625 
Q 33.0625 21.96875 24.703125 23.78125 
L 21.578125 24.515625 
Q 13.234375 26.265625 9.515625 29.90625 
Q 5.8125 33.546875 5.8125 39.890625 
Q 5.8125 47.609375 11.28125 51.796875 
Q 16.75 56 26.8125 56 
Q 31.78125 56 36.171875 55.265625 
Q 40.578125 54.546875 44.28125 53.078125 
z
" id="DejaVuSans-115"/>
      <path d="M 8.5 21.578125 
L 8.5 54.6875 
L 17.484375 54.6875 
L 17.484375 21.921875 
Q 17.484375 14.15625 20.5 10.265625 
Q 23.53125 6.390625 29.59375 6.390625 
Q 36.859375 6.390625 41.078125 11.03125 
Q 45.3125 15.671875 45.3125 23.6875 
L 45.3125 54.6875 
L 54.296875 54.6875 
L 54.296875 0 
L 45.3125 0 
L 45.3125 8.40625 
Q 42.046875 3.421875 37.71875 1 
Q 33.40625 -1.421875 27.6875 -1.421875 
Q 18.265625 -1.421875 13.375 4.4375 
Q 8.5 10.296875 8.5 21.578125 
z
M 31.109375 56 
z
" id="DejaVuSans-117"/>
      <path d="M 9.421875 75.984375 
L 18.40625 75.984375 
L 18.40625 0 
L 9.421875 0 
z
" id="DejaVuSans-108"/>
      <path d="M 32.171875 -5.078125 
Q 28.375 -14.84375 24.75 -17.8125 
Q 21.140625 -20.796875 15.09375 -20.796875 
L 7.90625 -20.796875 
L 7.90625 -13.28125 
L 13.1875 -13.28125 
Q 16.890625 -13.28125 18.9375 -11.515625 
Q 21 -9.765625 23.484375 -3.21875 
L 25.09375 0.875 
L 2.984375 54.6875 
L 12.5 54.6875 
L 29.59375 11.921875 
L 46.6875 54.6875 
L 56.203125 54.6875 
z
" id="DejaVuSans-121"/>
     </defs>
     <g transform="translate(49.579421 49.328463)scale(0.09 -0.09)">
      <use xlink:href="#DejaVuSans-115"/>
      <use x="52.099609" xlink:href="#DejaVuSans-117"/>
      <use x="115.478516" xlink:href="#DejaVuSans-112"/>
      <use x="178.955078" xlink:href="#DejaVuSans-112"/>
      <use x="242.431641" xlink:href="#DejaVuSans-108"/>
      <use x="270.214844" xlink:href="#DejaVuSans-121"/>
      <use x="329.394531" xlink:href="#DejaVuSans-95"/>
      <use x="379.394531" xlink:href="#DejaVuSans-112"/>
      <use x="442.871094" xlink:href="#DejaVuSans-111"/>
      <use x="504.052734" xlink:href="#DejaVuSans-114"/>
      <use x="545.166016" xlink:href="#DejaVuSans-116"/>
      <use x="584.375" xlink:href="#DejaVuSans-95"/>
      <use x="634.375" xlink:href="#DejaVuSans-48"/>
      <use x="697.998047" xlink:href="#DejaVuSans-48"/>
      <use x="761.621094" xlink:href="#DejaVuSans-49"/>
     </g>
    </g>
   </g>
   <g id="text_9">
    <g clip-path="url(#p5c417a276e)">
     <!-- supply_port_002 -->
     <g transform="translate(49.579421 269.255736)scale(0.09 -0.09)">
      <use xlink:href="#DejaVuSans-115"/>
      <use x="52.099609" xlink:href="#DejaVuSans-117"/>
      <use x="115.478516" xlink:href="#DejaVuSans-112"/>
      <use x="178.955078" xlink:href="#DejaVuSans-112"/>
      <use x="242.431641" xlink:href="#DejaVuSans-108"/>
      <use x="270.214844" xlink:href="#DejaVuSans-121"/>
      <use x="329.394531" xlink:href="#DejaVuSans-95"/>
      <use x="379.394531" xlink:href="#DejaVuSans-112"/>
      <use x="442.871094" xlink:href="#DejaVuSans-111"/>
      <use x="504.052734" xlink:href="#DejaVuSans-114"/>
      <use x="545.166016" xlink:href="#DejaVuSans-116"/>
      <use x="584.375" xlink:href="#DejaVuSans-95"/>
      <use x="634.375" xlink:href="#DejaVuSans-48"/>
      <use x="697.998047" xlink:href="#DejaVuSans-48"/>
      <use x="761.621094" xlink:href="#DejaVuSans-50"/>
     </g>
    </g>
   </g>
   <g id="text_10">
    <g clip-path="url(#p5c417a276e)">
     <!-- transfer_port_001 -->
     <defs>
      <path d="M 37.109375 75.984375 
L 37.109375 68.5 
L 28.515625 68.5 
Q 23.6875 68.5 21.796875 66.546875 
Q 19.921875 64.59375 19.921875 59.515625 
L 19.921875 54.6875 
L 34.71875 54.6875 
L 34.71875 47.703125 
L 19.921875 47.703125 
L 19.921875 0 
L 10.890625 0 
L 10.890625 47.703125 
L 2.296875 47.703125 
L 2.296875 54.6875 
L 10.890625 54.6875 
L 10.890625 58.5 
Q 10.890625 67.625 15.140625 71.796875 
Q 19.390625 75.984375 28.609375 75.984375 
z
" id="DejaVuSans-102"/>
     </defs>
     <g transform="translate(269.948471 159.292099)scale(0.09 -0.09)">
      <use xlink:href="#DejaVuSans-116"/>
      <use x="39.208984" xlink:href="#DejaVuSans-114"/>
      <use x="80.322266" xlink:href="#DejaVuSans-97"/>
      <use x="141.601562" xlink:href="#DejaVuSans-110"/>
      <use x="204.980469" xlink:href="#DejaVuSans-115"/>
      <use x="257.080078" xlink:href="#DejaVuSans-102"/>
      <use x="292.285156" xlink:href="#DejaVuSans-101"/>
      <use x="353.808594" xlink:href="#DejaVuSans-114"/>
      <use x="394.921875" xlink:href="#DejaVuSans-95"/>
      <use x="444.921875" xlink:href="#DejaVuSans-112"/>
      <use x="508.398438" xlink:href="#DejaVuSans-111"/>
      <use x="569.580078" xlink:href="#DejaVuSans-114"/>
      <use x="610.693359" xlink:href="#DejaVuSans-116"/>
      <use x="649.902344" xlink:href="#DejaVuSans-95"/>
      <use x="699.902344" xlink:href="#DejaVuSans-48"/>
      <use x="763.525391" xlink:href="#DejaVuSans-48"/>
      <use x="827.148438" xlink:href="#DejaVuSans-49"/>
     </g>
    </g>
   </g>
   <g id="text_11">
    <g clip-path="url(#p5c417a276e)">
     <!-- transfer_port_002 -->
     <g transform="translate(132.522902 159.292099)scale(0.09 -0.09)">
      <use xlink:href="#DejaVuSans-116"/>
      <use x="39.208984" xlink:href="#DejaVuSans-114"/>
      <use x="80.322266" xlink:href="#DejaVuSans-97"/>
      <use x="141.601562" xlink:href="#DejaVuSans-110"/>
      <use x="204.980469" xlink:href="#DejaVuSans-115"/>
      <use x="257.080078" xlink:href="#DejaVuSans-102"/>
      <use x="292.285156" xlink:href="#DejaVuSans-101"/>
      <use x="353.808594" xlink:href="#DejaVuSans-114"/>
      <use x="394.921875" xlink:href="#DejaVuSans-95"/>
      <use x="444.921875" xlink:href="#DejaVuSans-112"/>
      <use x="508.398438" xlink:href="#DejaVuSans-111"/>
      <use x="569.580078" xlink:href="#DejaVuSans-114"/>
      <use x="610.693359" xlink:href="#DejaVuSans-116"/>
      <use x="649.902344" xlink:href="#DejaVuSans-95"/>
      <use x="699.902344" xlink:href="#DejaVuSans-48"/>
      <use x="763.525391" xlink:href="#DejaVuSans-48"/>
      <use x="827.148438" xlink:href="#DejaVuSans-50"/>
     </g>
    </g>
   </g>
   <g id="text_12">
    <g clip-path="url(#p5c417a276e)">
     <!-- 0.17 -->
     <defs>
      <path d="M 8.203125 72.90625 
L 55.078125 72.90625 
L 55.078125 68.703125 
L 28.609375 0 
L 18.3125 0 
L 43.21875 64.59375 
L 8.203125 64.59375 
z
" id="DejaVuSans-55"/>
     </defs>
     <g transform="translate(385.904374 304.569256)scale(0.09 -0.09)">
      <use xlink:href="#DejaVuSans-48"/>
      <use x="63.623047" xlink:href="#DejaVuSans-46"/>
      <use x="95.410156" xlink:href="#DejaVuSans-49"/>
      <use x="159.033203" xlink:href="#DejaVuSans-55"/>
     </g>
    </g>
   </g>
   <g id="text_13">
    <g clip-path="url(#p5c417a276e)">
     <!-- 0.17 -->
     <g transform="translate(385.904374 84.641983)scale(0.09 -0.09)">
      <use xlink:href="#DejaVuSans-48"/>
      <use x="63.623047" xlink:href="#DejaVuSans-46"/>
      <use x="95.410156" xlink:href="#DejaVuSans-49"/>
      <use x="159.033203" xlink:href="#DejaVuSans-55"/>
     </g>
    </g>
   </g>
   <g id="text_14">
    <g clip-path="url(#p5c417a276e)">
     <!-- 0 -->
     <g transform="translate(83.853249 84.641983)scale(0.09 -0.09)">
      <use xlink:href="#DejaVuSans-48"/>
     </g>
    </g>
   </g>
   <g id="text_15">
    <g clip-path="url(#p5c417a276e)">
     <!-- 0 -->
     <g transform="translate(83.853249 304.569256)scale(0.09 -0.09)">
      <use xlink:href="#DejaVuSans-48"/>
     </g>
    </g>
   </g>
   <g id="text_16">
    <g clip-path="url(#p5c417a276e)">
     <!-- 0.34 -->
     <defs>
      <path d="M 40.578125 39.3125 
Q 47.65625 37.796875 51.625 33 
Q 55.609375 28.21875 55.609375 21.1875 
Q 55.609375 10.40625 48.1875 4.484375 
Q 40.765625 -1.421875 27.09375 -1.421875 
Q 22.515625 -1.421875 17.65625 -0.515625 
Q 12.796875 0.390625 7.625 2.203125 
L 7.625 11.71875 
Q 11.71875 9.328125 16.59375 8.109375 
Q 21.484375 6.890625 26.8125 6.890625 
Q 36.078125 6.890625 40.9375 10.546875 
Q 45.796875 14.203125 45.796875 21.1875 
Q 45.796875 27.640625 41.28125 31.265625 
Q 36.765625 34.90625 28.71875 34.90625 
L 20.21875 34.90625 
L 20.21875 43.015625 
L 29.109375 43.015625 
Q 36.375 43.015625 40.234375 45.921875 
Q 44.09375 48.828125 44.09375 54.296875 
Q 44.09375 59.90625 40.109375 62.90625 
Q 36.140625 65.921875 28.71875 65.921875 
Q 24.65625 65.921875 20.015625 65.03125 
Q 15.375 64.15625 9.8125 62.3125 
L 9.8125 71.09375 
Q 15.4375 72.65625 20.34375 73.4375 
Q 25.25 74.21875 29.59375 74.21875 
Q 40.828125 74.21875 47.359375 69.109375 
Q 53.90625 64.015625 53.90625 55.328125 
Q 53.90625 49.265625 50.4375 45.09375 
Q 46.96875 40.921875 40.578125 39.3125 
z
" id="DejaVuSans-51"/>
      <path d="M 37.796875 64.3125 
L 12.890625 25.390625 
L 37.796875 25.390625 
z
M 35.203125 72.90625 
L 47.609375 72.90625 
L 47.609375 25.390625 
L 58.015625 25.390625 
L 58.015625 17.1875 
L 47.609375 17.1875 
L 47.609375 0 
L 37.796875 0 
L 37.796875 17.1875 
L 4.890625 17.1875 
L 4.890625 26.703125 
z
" id="DejaVuSans-52"/>
     </defs>
     <g transform="translate(300.013393 194.605619)scale(0.09 -0.09)">
      <use xlink:href="#DejaVuSans-48"/>
      <use x="63.623047" xlink:href="#DejaVuSans-46"/>
      <use x="95.410156" xlink:href="#DejaVuSans-51"/>
      <use x="159.033203" xlink:href="#DejaVuSans-52"/>
     </g>
    </g>
   </g>
   <g id="text_17">
    <g clip-path="url(#p5c417a276e)">
     <!-- 0.32 -->
     <g transform="translate(162.587824 194.605619)scale(0.09 -0.09)">
      <use xlink:href="#DejaVuSans-48"/>
      <use x="63.623047" xlink:href="#DejaVuSans-46"/>
      <use x="95.410156" xlink:href="#DejaVuSans-51"/>
      <use x="159.033203" xlink:href="#DejaVuSans-50"/>
     </g>
    </g>
   </g>
  </g>
 </g>
 <defs>
  <clipPath id="p5c417a276e">
   <rect height="266.112" width="357.12" x="57.6" y="41.472"/>
  </clipPath>
 </defs>
</svg>
