<?xml version="1.0" encoding="utf-8"?>
<!-- Generator: Adobe Illustrator 22.0.0, SVG Export Plug-In . SVG Version: 6.00 Build 0)  -->
<svg version="1.1" id="图层_1" xmlns="http://www.w3.org/2000/svg" xmlns:xlink="http://www.w3.org/1999/xlink" x="0px" y="0px"
	 viewBox="0 0 400 110" enable-background="new 0 0 400 110" xml:space="preserve">
<g>
	<g>
		<linearGradient id="SVGID_1_" gradientUnits="userSpaceOnUse" x1="8.6555" y1="23.1322" x2="21.686" y2="45.7017">
			<stop  offset="0" style="stop-color:#7060FF"/>
			<stop  offset="1" style="stop-color:#0478FF"/>
		</linearGradient>
		<circle fill="url(#SVGID_1_)" cx="15.171" cy="34.417" r="13.028"/>
		<linearGradient id="SVGID_2_" gradientUnits="userSpaceOnUse" x1="26.1766" y1="13.1252" x2="74.5788" y2="96.9603">
			<stop  offset="0" style="stop-color:#7060FF"/>
			<stop  offset="1" style="stop-color:#0478FF"/>
		</linearGradient>
		<path fill="url(#SVGID_2_)" d="M93.007,64.574c-0.916-0.856-1.723-1.859-2.382-3.001c-3.259-5.644-1.814-12.712,3.117-16.668
			l-0.007-0.009c1.438-1.123,2.586-2.509,3.419-4.046c0.034-0.062,0.066-0.126,0.099-0.189c0.051-0.099,0.103-0.197,0.152-0.297
			c0.07-0.142,0.136-0.287,0.201-0.432c0.008-0.019,0.017-0.037,0.025-0.056c0.712-1.61,1.11-3.389,1.11-5.262
			c0-7.195-5.833-13.028-13.028-13.028c-1.589,0-3.112,0.286-4.52,0.807l-0.001-0.013c-1.523,0.625-3.19,0.971-4.938,0.971
			c-6.517,0-11.916-4.785-12.876-11.034l-0.011,0.002c-0.889-6.329-6.324-11.2-12.898-11.2c-7.195,0-13.028,5.833-13.028,13.028
			c0,7.195,5.833,13.028,13.028,13.028c1.694,0,3.31-0.327,4.795-0.915l0.005,0.013c1.45-0.557,3.023-0.865,4.668-0.865
			c6.422,0,11.754,4.647,12.827,10.762c0.201,1.707,0.743,3.402,1.657,4.985c0.847,1.467,1.938,2.703,3.19,3.695L77.6,44.86
			c1.207,0.977,2.26,2.185,3.083,3.61c3.315,5.743,1.759,12.957-3.382,16.87l0.005,0.01c-2.83,2.331-4.478,5.7-4.707,9.215
			c-1.363,5.738-6.519,10.007-12.674,10.007c-1.748,0-3.415-0.347-4.938-0.971l-0.001,0.013c-1.408-0.521-2.931-0.807-4.52-0.807
			c-0.479,0-0.952,0.028-1.418,0.078c-1.134,0.109-2.226,0.363-3.257,0.744l-0.001-0.013c-1.523,0.625-3.19,0.971-4.938,0.971
			c-5.872,0-10.835-3.886-12.462-9.225c1.663-5.28,6.594-9.11,12.423-9.11c1.646,0,3.219,0.308,4.668,0.865l0.005-0.013
			c1.484,0.588,3.101,0.915,4.795,0.915c7.195,0,13.028-5.833,13.028-13.028c0-7.195-5.833-13.028-13.028-13.028
			c-6.574,0-12.009,4.871-12.898,11.2l-0.011-0.002c-0.96,6.248-6.359,11.034-12.876,11.034c-1.338,0-2.628-0.205-3.843-0.58
			c-1.693-0.805-3.586-1.258-5.586-1.258c-5.409,0-10.048,3.297-12.018,7.991c-0.67,1.569-1.042,3.297-1.042,5.111
			c0,7.195,5.833,13.028,13.028,13.028c1.944,0,3.787-0.428,5.444-1.192c1.277-0.419,2.639-0.648,4.056-0.648
			c6.631,0,12.101,4.955,12.919,11.364l0.012,0.001c1.029,6.167,6.387,10.869,12.847,10.869c0.468,0,0.929-0.026,1.384-0.074
			c5.9-0.553,10.654-5.04,11.617-10.811l0.012-0.001c0.818-6.409,6.288-11.364,12.919-11.364c1.374,0,2.697,0.218,3.94,0.613
			c2.653,1.21,5.681,1.519,8.581,0.791c5.722-1.375,9.975-6.522,9.975-12.665C98.741,70.877,96.466,66.916,93.007,64.574z"/>
	</g>
	<path fill="#383838" d="M367.655,25.264c-16.755,0-30.338,13.583-30.338,30.338S350.9,85.94,367.655,85.94
		c16.755,0,30.338-13.583,30.338-30.338S384.41,25.264,367.655,25.264z M367.655,72.291c-9.217,0-16.689-7.472-16.689-16.689
		s7.472-16.689,16.689-16.689c9.217,0,16.689,7.472,16.689,16.689S376.872,72.291,367.655,72.291z"/>
	<path fill="#383838" d="M329.203,45.356c0-8.297-3.606-12.865-7.212-15.359c-2.835-1.961-6.247-2.913-9.694-2.913h-35.619v56.868
		h13.792V63.625h10.79l11.867,20.496l15.782-0.169l-12.706-22.02C316.203,61.931,329.203,59.938,329.203,45.356z M314.256,48.436
		c-0.859,0.84-2.121,1.4-3.96,1.4c-4.572,0-19.826,0-19.826,0v-8.961h20.485C314.883,40.875,317.065,45.69,314.256,48.436z"/>
	<g>
		<g>
			<polygon fill="#383838" points="216.663,83.871 234.666,52.689 252.657,83.871 268.592,83.871 234.66,25.264 200.728,83.871 			
				"/>
		</g>
		<circle fill="#383838" cx="240.089" cy="81.802" r="5.517"/>
		<line fill="#383838" x1="233.92" y1="70.725" x2="253.316" y2="70.725"/>
		<rect x="233.92" y="67.967" fill="#383838" width="19.396" height="4.138"/>
		<rect x="212.963" y="79.733" fill="#383838" width="23.265" height="4.138"/>
		<circle fill="#383838" cx="233.193" cy="70.036" r="5.517"/>
	</g>
	<polygon fill="#383838" points="179.259,27.083 164.412,38.057 149.565,27.083 135.869,27.083 135.869,83.951 149.654,83.951 
		149.654,43.652 164.412,54.579 179.17,43.652 179.17,83.951 192.954,83.951 192.954,27.083 	"/>
</g>
</svg>
