<?xml version="1.0" encoding="utf-8" standalone="no"?>
<!DOCTYPE svg PUBLIC "-//W3C//DTD SVG 1.1//EN"
  "http://www.w3.org/Graphics/SVG/1.1/DTD/svg11.dtd">
<!-- Created with matplotlib (https://matplotlib.org/) -->
<svg height="345.6pt" version="1.1" viewBox="0 0 460.8 345.6" width="460.8pt" xmlns="http://www.w3.org/2000/svg" xmlns:xlink="http://www.w3.org/1999/xlink">
 <defs>
  <style type="text/css">
*{stroke-linecap:butt;stroke-linejoin:round;}
  </style>
 </defs>
 <g id="figure_1">
  <g id="patch_1">
   <path d="M 0 345.6 
L 460.8 345.6 
L 460.8 0 
L 0 0 
z
" style="fill:#ffffff;"/>
  </g>
  <g id="axes_1">
   <g id="patch_2">
    <path clip-path="url(#p79ec185748)" d="M 295.176858 194.675763 
Q 292.850944 238.358311 290.70337 278.691502 
" style="fill:none;stroke:#feedb0;stroke-linecap:round;stroke-opacity:0.5;stroke-width:3;"/>
    <path clip-path="url(#p79ec185748)" d="M 292.913223 274.803502 
L 290.70337 278.691502 
L 288.918881 274.59082 
L 292.913223 274.803502 
z
" style="fill:#feedb0;fill-opacity:0.5;stroke:#feedb0;stroke-linecap:round;stroke-opacity:0.5;stroke-width:3;"/>
   </g>
   <g id="patch_3">
    <path clip-path="url(#p79ec185748)" d="M 290.064638 290.687417 
Q 307.476991 281.652062 321.912195 274.161564 
" style="fill:none;stroke:#feedb0;stroke-linecap:round;stroke-opacity:0.5;stroke-width:3;"/>
    <path clip-path="url(#p79ec185748)" d="M 317.440562 274.228685 
L 321.912195 274.161564 
L 319.282912 277.779143 
L 317.440562 274.228685 
z
" style="fill:#feedb0;fill-opacity:0.5;stroke:#feedb0;stroke-linecap:round;stroke-opacity:0.5;stroke-width:3;"/>
   </g>
   <g id="patch_4">
    <path clip-path="url(#p79ec185748)" d="M 332.577713 268.627175 
Q 315.831905 235.51627 300.599847 205.39845 
" style="fill:none;stroke:#feedb0;stroke-linecap:round;stroke-opacity:0.5;stroke-width:3;"/>
    <path clip-path="url(#p79ec185748)" d="M 300.620368 209.870539 
L 300.599847 205.39845 
L 304.18983 208.065286 
L 300.620368 209.870539 
z
" style="fill:#feedb0;fill-opacity:0.5;stroke:#feedb0;stroke-linecap:round;stroke-opacity:0.5;stroke-width:3;"/>
   </g>
   <g id="patch_5">
    <path clip-path="url(#p79ec185748)" d="M 266.468795 214.641182 
Q 276.9828 248.526408 286.502832 279.208195 
" style="fill:none;stroke:#fbd094;stroke-linecap:round;stroke-opacity:0.5;stroke-width:3;"/>
    <path clip-path="url(#p79ec185748)" d="M 287.227613 274.795181 
L 286.502832 279.208195 
L 283.407289 275.980562 
L 287.227613 274.795181 
z
" style="fill:#fbd094;fill-opacity:0.5;stroke:#fbd094;stroke-linecap:round;stroke-opacity:0.5;stroke-width:3;"/>
   </g>
   <g id="patch_6">
    <path clip-path="url(#p79ec185748)" d="M 290.064638 290.687417 
Q 307.476991 281.652062 321.912195 274.161564 
" style="fill:none;stroke:#fbd094;stroke-linecap:round;stroke-opacity:0.5;stroke-width:3;"/>
    <path clip-path="url(#p79ec185748)" d="M 317.440562 274.228685 
L 321.912195 274.161564 
L 319.282912 277.779143 
L 317.440562 274.228685 
z
" style="fill:#fbd094;fill-opacity:0.5;stroke:#fbd094;stroke-linecap:round;stroke-opacity:0.5;stroke-width:3;"/>
   </g>
   <g id="patch_7">
    <path clip-path="url(#p79ec185748)" d="M 332.577713 268.627175 
Q 302.877321 244.373183 275.774846 222.240708 
" style="fill:none;stroke:#fbd094;stroke-linecap:round;stroke-opacity:0.5;stroke-width:3;"/>
    <path clip-path="url(#p79ec185748)" d="M 277.608015 226.319861 
L 275.774846 222.240708 
L 280.13807 223.221665 
L 277.608015 226.319861 
z
" style="fill:#fbd094;fill-opacity:0.5;stroke:#fbd094;stroke-linecap:round;stroke-opacity:0.5;stroke-width:3;"/>
   </g>
   <g id="patch_8">
    <path clip-path="url(#p79ec185748)" d="M 394.342075 74.883645 
Q 380.357522 85.856449 369.011742 94.758774 
" style="fill:none;stroke:#f7b37c;stroke-linecap:round;stroke-opacity:0.5;stroke-width:3;"/>
    <path clip-path="url(#p79ec185748)" d="M 373.393256 93.863043 
L 369.011742 94.758774 
L 370.924065 90.716124 
L 373.393256 93.863043 
z
" style="fill:#f7b37c;fill-opacity:0.5;stroke:#f7b37c;stroke-linecap:round;stroke-opacity:0.5;stroke-width:3;"/>
   </g>
   <g id="patch_9">
    <path clip-path="url(#p79ec185748)" d="M 359.560609 102.174488 
Q 339.668665 107.755478 323.006125 112.430409 
" style="fill:none;stroke:#f7b37c;stroke-linecap:round;stroke-opacity:0.5;stroke-width:3;"/>
    <path clip-path="url(#p79ec185748)" d="M 327.397685 113.275515 
L 323.006125 112.430409 
L 326.317146 109.424225 
L 327.397685 113.275515 
z
" style="fill:#f7b37c;fill-opacity:0.5;stroke:#f7b37c;stroke-linecap:round;stroke-opacity:0.5;stroke-width:3;"/>
   </g>
   <g id="patch_10">
    <path clip-path="url(#p79ec185748)" d="M 311.438111 115.675992 
Q 349.005234 97.191337 383.562841 80.187495 
" style="fill:none;stroke:#f7b37c;stroke-linecap:round;stroke-opacity:0.5;stroke-width:3;"/>
    <path clip-path="url(#p79ec185748)" d="M 379.090796 80.158939 
L 383.562841 80.187495 
L 380.856769 83.747997 
L 379.090796 80.158939 
z
" style="fill:#f7b37c;fill-opacity:0.5;stroke:#f7b37c;stroke-linecap:round;stroke-opacity:0.5;stroke-width:3;"/>
   </g>
   <g id="patch_11">
    <path clip-path="url(#p79ec185748)" d="M 342.416461 60.180724 
Q 349.351449 77.167642 355.018689 91.049272 
" style="fill:none;stroke:#f29567;stroke-linecap:round;stroke-opacity:0.5;stroke-width:3;"/>
    <path clip-path="url(#p79ec185748)" d="M 355.358447 86.590061 
L 355.018689 91.049272 
L 351.655175 88.101939 
L 355.358447 86.590061 
z
" style="fill:#f29567;fill-opacity:0.5;stroke:#f29567;stroke-linecap:round;stroke-opacity:0.5;stroke-width:3;"/>
   </g>
   <g id="patch_12">
    <path clip-path="url(#p79ec185748)" d="M 359.560609 102.174488 
Q 339.668665 107.755478 323.006125 112.430409 
" style="fill:none;stroke:#f29567;stroke-linecap:round;stroke-opacity:0.5;stroke-width:3;"/>
    <path clip-path="url(#p79ec185748)" d="M 327.397685 113.275515 
L 323.006125 112.430409 
L 326.317146 109.424225 
L 327.397685 113.275515 
z
" style="fill:#f29567;fill-opacity:0.5;stroke:#f29567;stroke-linecap:round;stroke-opacity:0.5;stroke-width:3;"/>
   </g>
   <g id="patch_13">
    <path clip-path="url(#p79ec185748)" d="M 311.438111 115.675992 
Q 324.816243 91.710125 336.559529 70.672956 
" style="fill:none;stroke:#f29567;stroke-linecap:round;stroke-opacity:0.5;stroke-width:3;"/>
    <path clip-path="url(#p79ec185748)" d="M 332.863522 73.190799 
L 336.559529 70.672956 
L 336.356199 75.140468 
L 332.863522 73.190799 
z
" style="fill:#f29567;fill-opacity:0.5;stroke:#f29567;stroke-linecap:round;stroke-opacity:0.5;stroke-width:3;"/>
   </g>
   <g id="patch_14">
    <path clip-path="url(#p79ec185748)" d="M 266.468795 214.641182 
Q 277.267611 207.130996 285.312783 201.53587 
" style="fill:none;stroke:#eb7858;stroke-linecap:round;stroke-opacity:0.5;stroke-width:3;"/>
    <path clip-path="url(#p79ec185748)" d="M 280.886952 202.177756 
L 285.312783 201.53587 
L 283.170793 205.461666 
L 280.886952 202.177756 
z
" style="fill:#eb7858;fill-opacity:0.5;stroke:#eb7858;stroke-linecap:round;stroke-opacity:0.5;stroke-width:3;"/>
   </g>
   <g id="patch_15">
    <path clip-path="url(#p79ec185748)" d="M 295.176858 194.675763 
Q 296.594834 207.449869 297.642765 216.890348 
" style="fill:none;stroke:#eb7858;stroke-linecap:round;stroke-opacity:0.5;stroke-width:3;"/>
    <path clip-path="url(#p79ec185748)" d="M 299.18925 212.694114 
L 297.642765 216.890348 
L 295.213669 213.135419 
L 299.18925 212.694114 
z
" style="fill:#eb7858;fill-opacity:0.5;stroke:#eb7858;stroke-linecap:round;stroke-opacity:0.5;stroke-width:3;"/>
   </g>
   <g id="patch_16">
    <path clip-path="url(#p79ec185748)" d="M 298.96862 228.834561 
Q 286.687955 223.471328 277.481053 219.450474 
" style="fill:none;stroke:#eb7858;stroke-linecap:round;stroke-opacity:0.5;stroke-width:3;"/>
    <path clip-path="url(#p79ec185748)" d="M 280.346289 222.884192 
L 277.481053 219.450474 
L 281.947169 219.218516 
L 280.346289 222.884192 
z
" style="fill:#eb7858;fill-opacity:0.5;stroke:#eb7858;stroke-linecap:round;stroke-opacity:0.5;stroke-width:3;"/>
   </g>
   <g id="patch_17">
    <path clip-path="url(#p79ec185748)" d="M 210.086864 146.83024 
Q 248.857499 168.630703 284.704522 188.787239 
" style="fill:none;stroke:#e05d53;stroke-linecap:round;stroke-opacity:0.5;stroke-width:3;"/>
    <path clip-path="url(#p79ec185748)" d="M 282.19816 185.083437 
L 284.704522 188.787239 
L 280.237663 188.570047 
L 282.19816 185.083437 
z
" style="fill:#e05d53;fill-opacity:0.5;stroke:#e05d53;stroke-linecap:round;stroke-opacity:0.5;stroke-width:3;"/>
   </g>
   <g id="patch_18">
    <path clip-path="url(#p79ec185748)" d="M 295.176858 194.675763 
Q 284.378043 202.185948 276.33287 207.781075 
" style="fill:none;stroke:#e05d53;stroke-linecap:round;stroke-opacity:0.5;stroke-width:3;"/>
    <path clip-path="url(#p79ec185748)" d="M 280.758701 207.139189 
L 276.33287 207.781075 
L 278.47486 203.855278 
L 280.758701 207.139189 
z
" style="fill:#e05d53;fill-opacity:0.5;stroke:#e05d53;stroke-linecap:round;stroke-opacity:0.5;stroke-width:3;"/>
   </g>
   <g id="patch_19">
    <path clip-path="url(#p79ec185748)" d="M 266.468795 214.641182 
Q 287.161844 169.101429 306.467336 126.615312 
" style="fill:none;stroke:#e05d53;stroke-linecap:round;stroke-opacity:0.5;stroke-width:3;"/>
    <path clip-path="url(#p79ec185748)" d="M 302.991741 129.429604 
L 306.467336 126.615312 
L 306.633413 131.084363 
L 302.991741 129.429604 
z
" style="fill:#e05d53;fill-opacity:0.5;stroke:#e05d53;stroke-linecap:round;stroke-opacity:0.5;stroke-width:3;"/>
   </g>
   <g id="patch_20">
    <path clip-path="url(#p79ec185748)" d="M 311.438111 115.675992 
Q 331.330055 110.095002 347.992595 105.420071 
" style="fill:none;stroke:#e05d53;stroke-linecap:round;stroke-opacity:0.5;stroke-width:3;"/>
    <path clip-path="url(#p79ec185748)" d="M 343.601035 104.574965 
L 347.992595 105.420071 
L 344.681574 108.426255 
L 343.601035 104.574965 
z
" style="fill:#e05d53;fill-opacity:0.5;stroke:#e05d53;stroke-linecap:round;stroke-opacity:0.5;stroke-width:3;"/>
   </g>
   <g id="patch_21">
    <path clip-path="url(#p79ec185748)" d="M 359.560609 102.174488 
Q 315.774672 155.073442 274.127419 205.388594 
" style="fill:none;stroke:#e05d53;stroke-linecap:round;stroke-opacity:0.5;stroke-width:3;"/>
    <path clip-path="url(#p79ec185748)" d="M 278.218631 203.582496 
L 274.127419 205.388594 
L 275.137268 201.031967 
L 278.218631 203.582496 
z
" style="fill:#e05d53;fill-opacity:0.5;stroke:#e05d53;stroke-linecap:round;stroke-opacity:0.5;stroke-width:3;"/>
   </g>
   <g id="patch_22">
    <path clip-path="url(#p79ec185748)" d="M 266.468795 214.641182 
Q 239.50024 192.795349 215.137976 173.060736 
" style="fill:none;stroke:#e05d53;stroke-linecap:round;stroke-opacity:0.5;stroke-width:3;"/>
    <path clip-path="url(#p79ec185748)" d="M 216.987269 177.132605 
L 215.137976 173.060736 
L 219.505046 174.024423 
L 216.987269 177.132605 
z
" style="fill:#e05d53;fill-opacity:0.5;stroke:#e05d53;stroke-linecap:round;stroke-opacity:0.5;stroke-width:3;"/>
   </g>
   <g id="patch_23">
    <path clip-path="url(#p79ec185748)" d="M 205.803895 165.499679 
Q 235.747587 161.903935 262.361102 158.708091 
" style="fill:none;stroke:#e05d53;stroke-linecap:round;stroke-opacity:0.5;stroke-width:3;"/>
    <path clip-path="url(#p79ec185748)" d="M 258.15118 157.199265 
L 262.361102 158.708091 
L 258.628088 161.170733 
L 258.15118 157.199265 
z
" style="fill:#e05d53;fill-opacity:0.5;stroke:#e05d53;stroke-linecap:round;stroke-opacity:0.5;stroke-width:3;"/>
   </g>
   <g id="patch_24">
    <path clip-path="url(#p79ec185748)" d="M 274.289615 157.275673 
Q 246.4615 152.748193 221.943958 148.759324 
" style="fill:none;stroke:#e05d53;stroke-linecap:round;stroke-opacity:0.5;stroke-width:3;"/>
    <path clip-path="url(#p79ec185748)" d="M 225.570882 151.375701 
L 221.943958 148.759324 
L 226.213214 147.427612 
L 225.570882 151.375701 
z
" style="fill:#e05d53;fill-opacity:0.5;stroke:#e05d53;stroke-linecap:round;stroke-opacity:0.5;stroke-width:3;"/>
   </g>
   <g id="patch_25">
    <path clip-path="url(#p79ec185748)" d="M 205.803895 165.499679 
Q 206.977633 160.38336 207.401388 158.536218 
" style="fill:none;stroke:#ce4356;stroke-linecap:round;stroke-opacity:0.5;stroke-width:3;"/>
    <path clip-path="url(#p79ec185748)" d="M 204.557618 161.987736 
L 207.401388 158.536218 
L 208.45634 162.882144 
L 204.557618 161.987736 
z
" style="fill:#ce4356;fill-opacity:0.5;stroke:#ce4356;stroke-linecap:round;stroke-opacity:0.5;stroke-width:3;"/>
   </g>
   <g id="patch_26">
    <path clip-path="url(#p79ec185748)" d="M 210.086864 146.83024 
Q 160.104974 151.565764 113.462233 155.98492 
" style="fill:none;stroke:#ce4356;stroke-linecap:round;stroke-opacity:0.5;stroke-width:3;"/>
    <path clip-path="url(#p79ec185748)" d="M 117.633044 157.598714 
L 113.462233 155.98492 
L 117.255755 153.616547 
L 117.633044 157.598714 
z
" style="fill:#ce4356;fill-opacity:0.5;stroke:#ce4356;stroke-linecap:round;stroke-opacity:0.5;stroke-width:3;"/>
   </g>
   <g id="patch_27">
    <path clip-path="url(#p79ec185748)" d="M 101.504203 157.117881 
Q 94.437439 163.428908 89.872376 167.505772 
" style="fill:none;stroke:#ce4356;stroke-linecap:round;stroke-opacity:0.5;stroke-width:3;"/>
    <path clip-path="url(#p79ec185748)" d="M 94.188028 166.333103 
L 89.872376 167.505772 
L 91.523632 163.349649 
L 94.188028 166.333103 
z
" style="fill:#ce4356;fill-opacity:0.5;stroke:#ce4356;stroke-linecap:round;stroke-opacity:0.5;stroke-width:3;"/>
   </g>
   <g id="patch_28">
    <path clip-path="url(#p79ec185748)" d="M 80.913439 175.506618 
Q 90.129652 157.07064 97.846097 141.634776 
" style="fill:none;stroke:#ce4356;stroke-linecap:round;stroke-opacity:0.5;stroke-width:3;"/>
    <path clip-path="url(#p79ec185748)" d="M 94.268595 144.318334 
L 97.846097 141.634776 
L 97.846441 146.106912 
L 94.268595 144.318334 
z
" style="fill:#ce4356;fill-opacity:0.5;stroke:#ce4356;stroke-linecap:round;stroke-opacity:0.5;stroke-width:3;"/>
   </g>
   <g id="patch_29">
    <path clip-path="url(#p79ec185748)" d="M 103.219139 130.88662 
Q 150.408816 146.80886 194.420419 161.658788 
" style="fill:none;stroke:#ce4356;stroke-linecap:round;stroke-opacity:0.5;stroke-width:3;"/>
    <path clip-path="url(#p79ec185748)" d="M 191.269749 158.484945 
L 194.420419 161.658788 
L 189.990943 162.275018 
L 191.269749 158.484945 
z
" style="fill:#ce4356;fill-opacity:0.5;stroke:#ce4356;stroke-linecap:round;stroke-opacity:0.5;stroke-width:3;"/>
   </g>
   <g id="patch_30">
    <path clip-path="url(#p79ec185748)" d="M 210.086864 146.83024 
Q 149.728011 160.229849 92.643543 172.902546 
" style="fill:none;stroke:#b8315d;stroke-linecap:round;stroke-opacity:0.5;stroke-width:3;"/>
    <path clip-path="url(#p79ec185748)" d="M 96.981922 173.988121 
L 92.643543 172.902546 
L 96.11503 170.083188 
L 96.981922 173.988121 
z
" style="fill:#b8315d;fill-opacity:0.5;stroke:#b8315d;stroke-linecap:round;stroke-opacity:0.5;stroke-width:3;"/>
   </g>
   <g id="patch_31">
    <path clip-path="url(#p79ec185748)" d="M 80.913439 175.506618 
Q 110.844438 186.309068 137.620523 195.972872 
" style="fill:none;stroke:#b8315d;stroke-linecap:round;stroke-opacity:0.5;stroke-width:3;"/>
    <path clip-path="url(#p79ec185748)" d="M 134.537025 192.73373 
L 137.620523 195.972872 
L 133.179111 196.496185 
L 134.537025 192.73373 
z
" style="fill:#b8315d;fill-opacity:0.5;stroke:#b8315d;stroke-linecap:round;stroke-opacity:0.5;stroke-width:3;"/>
   </g>
   <g id="patch_32">
    <path clip-path="url(#p79ec185748)" d="M 148.923909 200.052397 
Q 173.664828 185.023103 195.539115 171.735195 
" style="fill:none;stroke:#b8315d;stroke-linecap:round;stroke-opacity:0.5;stroke-width:3;"/>
    <path clip-path="url(#p79ec185748)" d="M 191.082096 172.102588 
L 195.539115 171.735195 
L 193.158818 175.521246 
L 191.082096 172.102588 
z
" style="fill:#b8315d;fill-opacity:0.5;stroke:#b8315d;stroke-linecap:round;stroke-opacity:0.5;stroke-width:3;"/>
   </g>
   <g id="patch_33">
    <path clip-path="url(#p79ec185748)" d="M 205.803895 165.499679 
Q 206.977633 160.38336 207.401388 158.536218 
" style="fill:none;stroke:#b8315d;stroke-linecap:round;stroke-opacity:0.5;stroke-width:3;"/>
    <path clip-path="url(#p79ec185748)" d="M 204.557618 161.987736 
L 207.401388 158.536218 
L 208.45634 162.882144 
L 204.557618 161.987736 
z
" style="fill:#b8315d;fill-opacity:0.5;stroke:#b8315d;stroke-linecap:round;stroke-opacity:0.5;stroke-width:3;"/>
   </g>
   <g id="patch_34">
    <path clip-path="url(#p79ec185748)" d="M 295.176858 194.675763 
Q 245.09579 206.280291 198.282251 217.127684 
" style="fill:none;stroke:#9f2462;stroke-linecap:round;stroke-opacity:0.5;stroke-width:3;"/>
    <path clip-path="url(#p79ec185748)" d="M 202.630475 218.173126 
L 198.282251 217.127684 
L 201.727539 214.27637 
L 202.630475 218.173126 
z
" style="fill:#9f2462;fill-opacity:0.5;stroke:#9f2462;stroke-linecap:round;stroke-opacity:0.5;stroke-width:3;"/>
   </g>
   <g id="patch_35">
    <path clip-path="url(#p79ec185748)" d="M 186.58033 219.839193 
Q 171.584644 211.959618 159.558116 205.640205 
" style="fill:none;stroke:#9f2462;stroke-linecap:round;stroke-opacity:0.5;stroke-width:3;"/>
    <path clip-path="url(#p79ec185748)" d="M 162.168741 209.27127 
L 159.558116 205.640205 
L 164.029343 205.730344 
L 162.168741 209.27127 
z
" style="fill:#9f2462;fill-opacity:0.5;stroke:#9f2462;stroke-linecap:round;stroke-opacity:0.5;stroke-width:3;"/>
   </g>
   <g id="patch_36">
    <path clip-path="url(#p79ec185748)" d="M 148.923909 200.052397 
Q 207.507355 180.062816 262.916407 161.156388 
" style="fill:none;stroke:#9f2462;stroke-linecap:round;stroke-opacity:0.5;stroke-width:3;"/>
    <path clip-path="url(#p79ec185748)" d="M 258.484853 160.55528 
L 262.916407 161.156388 
L 259.776588 164.340966 
L 258.484853 160.55528 
z
" style="fill:#9f2462;fill-opacity:0.5;stroke:#9f2462;stroke-linecap:round;stroke-opacity:0.5;stroke-width:3;"/>
   </g>
   <g id="patch_37">
    <path clip-path="url(#p79ec185748)" d="M 274.289615 157.275673 
Q 282.621437 172.194392 289.317821 184.184742 
" style="fill:none;stroke:#9f2462;stroke-linecap:round;stroke-opacity:0.5;stroke-width:3;"/>
    <path clip-path="url(#p79ec185748)" d="M 289.113589 179.717272 
L 289.317821 184.184742 
L 285.621306 181.667646 
L 289.113589 179.717272 
z
" style="fill:#9f2462;fill-opacity:0.5;stroke:#9f2462;stroke-linecap:round;stroke-opacity:0.5;stroke-width:3;"/>
   </g>
   <g id="patch_38">
    <path clip-path="url(#p79ec185748)" d="M 266.468795 214.641182 
Q 277.267611 207.130996 285.312783 201.53587 
" style="fill:none;stroke:#841c63;stroke-linecap:round;stroke-opacity:0.5;stroke-width:3;"/>
    <path clip-path="url(#p79ec185748)" d="M 280.886952 202.177756 
L 285.312783 201.53587 
L 283.170793 205.461666 
L 280.886952 202.177756 
z
" style="fill:#841c63;fill-opacity:0.5;stroke:#841c63;stroke-linecap:round;stroke-opacity:0.5;stroke-width:3;"/>
   </g>
   <g id="patch_39">
    <path clip-path="url(#p79ec185748)" d="M 295.176858 194.675763 
Q 256.406223 172.8753 220.5592 152.718764 
" style="fill:none;stroke:#841c63;stroke-linecap:round;stroke-opacity:0.5;stroke-width:3;"/>
    <path clip-path="url(#p79ec185748)" d="M 223.065562 156.422566 
L 220.5592 152.718764 
L 225.026059 152.935956 
L 223.065562 156.422566 
z
" style="fill:#841c63;fill-opacity:0.5;stroke:#841c63;stroke-linecap:round;stroke-opacity:0.5;stroke-width:3;"/>
   </g>
   <g id="patch_40">
    <path clip-path="url(#p79ec185748)" d="M 210.086864 146.83024 
Q 237.914979 151.357721 262.43252 155.346589 
" style="fill:none;stroke:#841c63;stroke-linecap:round;stroke-opacity:0.5;stroke-width:3;"/>
    <path clip-path="url(#p79ec185748)" d="M 258.805597 152.730212 
L 262.43252 155.346589 
L 258.163265 156.678302 
L 258.805597 152.730212 
z
" style="fill:#841c63;fill-opacity:0.5;stroke:#841c63;stroke-linecap:round;stroke-opacity:0.5;stroke-width:3;"/>
   </g>
   <g id="patch_41">
    <path clip-path="url(#p79ec185748)" d="M 274.289615 157.275673 
Q 215.706169 177.265254 160.297117 196.171682 
" style="fill:none;stroke:#841c63;stroke-linecap:round;stroke-opacity:0.5;stroke-width:3;"/>
    <path clip-path="url(#p79ec185748)" d="M 164.728671 196.77279 
L 160.297117 196.171682 
L 163.436936 192.987104 
L 164.728671 196.77279 
z
" style="fill:#841c63;fill-opacity:0.5;stroke:#841c63;stroke-linecap:round;stroke-opacity:0.5;stroke-width:3;"/>
   </g>
   <g id="patch_42">
    <path clip-path="url(#p79ec185748)" d="M 148.923909 200.052397 
Q 163.919595 207.931971 175.946123 214.251384 
" style="fill:none;stroke:#841c63;stroke-linecap:round;stroke-opacity:0.5;stroke-width:3;"/>
    <path clip-path="url(#p79ec185748)" d="M 173.335498 210.62032 
L 175.946123 214.251384 
L 171.474896 214.161246 
L 173.335498 210.62032 
z
" style="fill:#841c63;fill-opacity:0.5;stroke:#841c63;stroke-linecap:round;stroke-opacity:0.5;stroke-width:3;"/>
   </g>
   <g id="patch_43">
    <path clip-path="url(#p79ec185748)" d="M 186.58033 219.839193 
Q 194.74835 196.750538 201.797735 176.823947 
" style="fill:none;stroke:#841c63;stroke-linecap:round;stroke-opacity:0.5;stroke-width:3;"/>
    <path clip-path="url(#p79ec185748)" d="M 198.578192 179.927904 
L 201.797735 176.823947 
L 202.349174 181.261955 
L 198.578192 179.927904 
z
" style="fill:#841c63;fill-opacity:0.5;stroke:#841c63;stroke-linecap:round;stroke-opacity:0.5;stroke-width:3;"/>
   </g>
   <g id="patch_44">
    <path clip-path="url(#p79ec185748)" d="M 205.803895 165.499679 
Q 206.977633 160.38336 207.401388 158.536218 
" style="fill:none;stroke:#841c63;stroke-linecap:round;stroke-opacity:0.5;stroke-width:3;"/>
    <path clip-path="url(#p79ec185748)" d="M 204.557618 161.987736 
L 207.401388 158.536218 
L 208.45634 162.882144 
L 204.557618 161.987736 
z
" style="fill:#841c63;fill-opacity:0.5;stroke:#841c63;stroke-linecap:round;stroke-opacity:0.5;stroke-width:3;"/>
   </g>
   <g id="patch_45">
    <path clip-path="url(#p79ec185748)" d="M 210.086864 146.83024 
Q 235.51018 177.40704 258.789109 205.40477 
" style="fill:none;stroke:#841c63;stroke-linecap:round;stroke-opacity:0.5;stroke-width:3;"/>
    <path clip-path="url(#p79ec185748)" d="M 257.769637 201.050383 
L 258.789109 205.40477 
L 254.693917 203.607715 
L 257.769637 201.050383 
z
" style="fill:#841c63;fill-opacity:0.5;stroke:#841c63;stroke-linecap:round;stroke-opacity:0.5;stroke-width:3;"/>
   </g>
   <g id="patch_46">
    <path clip-path="url(#p79ec185748)" d="M 205.803895 165.499679 
Q 206.977633 160.38336 207.401388 158.536218 
" style="fill:none;stroke:#67195d;stroke-linecap:round;stroke-opacity:0.5;stroke-width:3;"/>
    <path clip-path="url(#p79ec185748)" d="M 204.557618 161.987736 
L 207.401388 158.536218 
L 208.45634 162.882144 
L 204.557618 161.987736 
z
" style="fill:#67195d;fill-opacity:0.5;stroke:#67195d;stroke-linecap:round;stroke-opacity:0.5;stroke-width:3;"/>
   </g>
   <g id="patch_47">
    <path clip-path="url(#p79ec185748)" d="M 210.086864 146.83024 
Q 248.857499 168.630703 284.704522 188.787239 
" style="fill:none;stroke:#67195d;stroke-linecap:round;stroke-opacity:0.5;stroke-width:3;"/>
    <path clip-path="url(#p79ec185748)" d="M 282.19816 185.083437 
L 284.704522 188.787239 
L 280.237663 188.570047 
L 282.19816 185.083437 
z
" style="fill:#67195d;fill-opacity:0.5;stroke:#67195d;stroke-linecap:round;stroke-opacity:0.5;stroke-width:3;"/>
   </g>
   <g id="patch_48">
    <path clip-path="url(#p79ec185748)" d="M 295.176858 194.675763 
Q 284.378043 202.185948 276.33287 207.781075 
" style="fill:none;stroke:#67195d;stroke-linecap:round;stroke-opacity:0.5;stroke-width:3;"/>
    <path clip-path="url(#p79ec185748)" d="M 280.758701 207.139189 
L 276.33287 207.781075 
L 278.47486 203.855278 
L 280.758701 207.139189 
z
" style="fill:#67195d;fill-opacity:0.5;stroke:#67195d;stroke-linecap:round;stroke-opacity:0.5;stroke-width:3;"/>
   </g>
   <g id="patch_49">
    <path clip-path="url(#p79ec185748)" d="M 266.468795 214.641182 
Q 249.358468 204.247333 235.114782 195.594855 
" style="fill:none;stroke:#67195d;stroke-linecap:round;stroke-opacity:0.5;stroke-width:3;"/>
    <path clip-path="url(#p79ec185748)" d="M 237.495097 199.380896 
L 235.114782 195.594855 
L 239.571803 195.962227 
L 237.495097 199.380896 
z
" style="fill:#67195d;fill-opacity:0.5;stroke:#67195d;stroke-linecap:round;stroke-opacity:0.5;stroke-width:3;"/>
   </g>
   <g id="patch_50">
    <path clip-path="url(#p79ec185748)" d="M 224.848189 189.358305 
Q 255.696394 191.690697 283.200042 193.770211 
" style="fill:none;stroke:#67195d;stroke-linecap:round;stroke-opacity:0.5;stroke-width:3;"/>
    <path clip-path="url(#p79ec185748)" d="M 279.362214 191.47433 
L 283.200042 193.770211 
L 279.06064 195.462945 
L 279.362214 191.47433 
z
" style="fill:#67195d;fill-opacity:0.5;stroke:#67195d;stroke-linecap:round;stroke-opacity:0.5;stroke-width:3;"/>
   </g>
   <g id="patch_51">
    <path clip-path="url(#p79ec185748)" d="M 295.176858 194.675763 
Q 254.607457 181.431755 217.226556 169.228643 
" style="fill:none;stroke:#67195d;stroke-linecap:round;stroke-opacity:0.5;stroke-width:3;"/>
    <path clip-path="url(#p79ec185748)" d="M 220.408394 172.371238 
L 217.226556 169.228643 
L 221.649735 168.568729 
L 220.408394 172.371238 
z
" style="fill:#67195d;fill-opacity:0.5;stroke:#67195d;stroke-linecap:round;stroke-opacity:0.5;stroke-width:3;"/>
   </g>
   <g id="patch_52">
    <path clip-path="url(#p79ec185748)" d="M 205.803895 165.499679 
Q 206.977633 160.38336 207.401388 158.536218 
" style="fill:none;stroke:#4a154f;stroke-linecap:round;stroke-opacity:0.5;stroke-width:3;"/>
    <path clip-path="url(#p79ec185748)" d="M 204.557618 161.987736 
L 207.401388 158.536218 
L 208.45634 162.882144 
L 204.557618 161.987736 
z
" style="fill:#4a154f;fill-opacity:0.5;stroke:#4a154f;stroke-linecap:round;stroke-opacity:0.5;stroke-width:3;"/>
   </g>
   <g id="patch_53">
    <path clip-path="url(#p79ec185748)" d="M 210.086864 146.83024 
Q 248.857499 168.630703 284.704522 188.787239 
" style="fill:none;stroke:#4a154f;stroke-linecap:round;stroke-opacity:0.5;stroke-width:3;"/>
    <path clip-path="url(#p79ec185748)" d="M 282.19816 185.083437 
L 284.704522 188.787239 
L 280.237663 188.570047 
L 282.19816 185.083437 
z
" style="fill:#4a154f;fill-opacity:0.5;stroke:#4a154f;stroke-linecap:round;stroke-opacity:0.5;stroke-width:3;"/>
   </g>
   <g id="patch_54">
    <path clip-path="url(#p79ec185748)" d="M 295.176858 194.675763 
Q 284.378043 202.185948 276.33287 207.781075 
" style="fill:none;stroke:#4a154f;stroke-linecap:round;stroke-opacity:0.5;stroke-width:3;"/>
    <path clip-path="url(#p79ec185748)" d="M 280.758701 207.139189 
L 276.33287 207.781075 
L 278.47486 203.855278 
L 280.758701 207.139189 
z
" style="fill:#4a154f;fill-opacity:0.5;stroke:#4a154f;stroke-linecap:round;stroke-opacity:0.5;stroke-width:3;"/>
   </g>
   <g id="patch_55">
    <path clip-path="url(#p79ec185748)" d="M 266.468795 214.641182 
Q 246.203047 226.168221 228.852778 236.036953 
" style="fill:none;stroke:#4a154f;stroke-linecap:round;stroke-opacity:0.5;stroke-width:3;"/>
    <path clip-path="url(#p79ec185748)" d="M 233.318513 235.797762 
L 228.852778 236.036953 
L 231.340866 232.32085 
L 233.318513 235.797762 
z
" style="fill:#4a154f;fill-opacity:0.5;stroke:#4a154f;stroke-linecap:round;stroke-opacity:0.5;stroke-width:3;"/>
   </g>
   <g id="patch_56">
    <path clip-path="url(#p79ec185748)" d="M 218.40713 241.978377 
Q 209.54732 247.690166 203.506561 251.584554 
" style="fill:none;stroke:#4a154f;stroke-linecap:round;stroke-opacity:0.5;stroke-width:3;"/>
    <path clip-path="url(#p79ec185748)" d="M 207.952165 251.098135 
L 203.506561 251.584554 
L 205.784788 247.736219 
L 207.952165 251.098135 
z
" style="fill:#4a154f;fill-opacity:0.5;stroke:#4a154f;stroke-linecap:round;stroke-opacity:0.5;stroke-width:3;"/>
   </g>
   <g id="patch_57">
    <path clip-path="url(#p79ec185748)" d="M 193.409863 258.093747 
Q 226.217042 238.581334 256.141461 220.783472 
" style="fill:none;stroke:#4a154f;stroke-linecap:round;stroke-opacity:0.5;stroke-width:3;"/>
    <path clip-path="url(#p79ec185748)" d="M 251.681206 221.109249 
L 256.141461 220.783472 
L 253.725929 224.547142 
L 251.681206 221.109249 
z
" style="fill:#4a154f;fill-opacity:0.5;stroke:#4a154f;stroke-linecap:round;stroke-opacity:0.5;stroke-width:3;"/>
   </g>
   <g id="patch_58">
    <path clip-path="url(#p79ec185748)" d="M 266.468795 214.641182 
Q 277.267611 207.130996 285.312783 201.53587 
" style="fill:none;stroke:#4a154f;stroke-linecap:round;stroke-opacity:0.5;stroke-width:3;"/>
    <path clip-path="url(#p79ec185748)" d="M 280.886952 202.177756 
L 285.312783 201.53587 
L 283.170793 205.461666 
L 280.886952 202.177756 
z
" style="fill:#4a154f;fill-opacity:0.5;stroke:#4a154f;stroke-linecap:round;stroke-opacity:0.5;stroke-width:3;"/>
   </g>
   <g id="patch_59">
    <path clip-path="url(#p79ec185748)" d="M 295.176858 194.675763 
Q 256.406223 172.8753 220.5592 152.718764 
" style="fill:none;stroke:#4a154f;stroke-linecap:round;stroke-opacity:0.5;stroke-width:3;"/>
    <path clip-path="url(#p79ec185748)" d="M 223.065562 156.422566 
L 220.5592 152.718764 
L 225.026059 152.935956 
L 223.065562 156.422566 
z
" style="fill:#4a154f;fill-opacity:0.5;stroke:#4a154f;stroke-linecap:round;stroke-opacity:0.5;stroke-width:3;"/>
   </g>
   <g id="patch_60">
    <path clip-path="url(#p79ec185748)" d="M 210.086864 146.83024 
Q 208.913125 151.94656 208.489371 153.793702 
" style="fill:none;stroke:#4a154f;stroke-linecap:round;stroke-opacity:0.5;stroke-width:3;"/>
    <path clip-path="url(#p79ec185748)" d="M 211.333141 150.342184 
L 208.489371 153.793702 
L 207.434419 149.447775 
L 211.333141 150.342184 
z
" style="fill:#4a154f;fill-opacity:0.5;stroke:#4a154f;stroke-linecap:round;stroke-opacity:0.5;stroke-width:3;"/>
   </g>
   <g id="patch_61">
    <path clip-path="url(#p79ec185748)" d="M 295.176858 194.675763 
Q 256.406223 172.8753 220.5592 152.718764 
" style="fill:none;stroke:#2f0f3e;stroke-linecap:round;stroke-opacity:0.5;stroke-width:3;"/>
    <path clip-path="url(#p79ec185748)" d="M 223.065562 156.422566 
L 220.5592 152.718764 
L 225.026059 152.935956 
L 223.065562 156.422566 
z
" style="fill:#2f0f3e;fill-opacity:0.5;stroke:#2f0f3e;stroke-linecap:round;stroke-opacity:0.5;stroke-width:3;"/>
   </g>
   <g id="patch_62">
    <path clip-path="url(#p79ec185748)" d="M 210.086864 146.83024 
Q 208.913125 151.94656 208.489371 153.793702 
" style="fill:none;stroke:#2f0f3e;stroke-linecap:round;stroke-opacity:0.5;stroke-width:3;"/>
    <path clip-path="url(#p79ec185748)" d="M 211.333141 150.342184 
L 208.489371 153.793702 
L 207.434419 149.447775 
L 211.333141 150.342184 
z
" style="fill:#2f0f3e;fill-opacity:0.5;stroke:#2f0f3e;stroke-linecap:round;stroke-opacity:0.5;stroke-width:3;"/>
   </g>
   <g id="patch_63">
    <path clip-path="url(#p79ec185748)" d="M 205.803895 165.499679 
Q 235.747587 161.903935 262.361102 158.708091 
" style="fill:none;stroke:#2f0f3e;stroke-linecap:round;stroke-opacity:0.5;stroke-width:3;"/>
    <path clip-path="url(#p79ec185748)" d="M 258.15118 157.199265 
L 262.361102 158.708091 
L 258.628088 161.170733 
L 258.15118 157.199265 
z
" style="fill:#2f0f3e;fill-opacity:0.5;stroke:#2f0f3e;stroke-linecap:round;stroke-opacity:0.5;stroke-width:3;"/>
   </g>
   <g id="patch_64">
    <path clip-path="url(#p79ec185748)" d="M 274.289615 157.275673 
Q 305.489399 174.83426 333.766178 190.747841 
" style="fill:none;stroke:#2f0f3e;stroke-linecap:round;stroke-opacity:0.5;stroke-width:3;"/>
    <path clip-path="url(#p79ec185748)" d="M 331.261184 187.043114 
L 333.766178 190.747841 
L 329.2994 190.529 
L 331.261184 187.043114 
z
" style="fill:#2f0f3e;fill-opacity:0.5;stroke:#2f0f3e;stroke-linecap:round;stroke-opacity:0.5;stroke-width:3;"/>
   </g>
   <g id="patch_65">
    <path clip-path="url(#p79ec185748)" d="M 344.232457 196.638044 
Q 333.399764 185.811276 324.939428 177.355567 
" style="fill:none;stroke:#2f0f3e;stroke-linecap:round;stroke-opacity:0.5;stroke-width:3;"/>
    <path clip-path="url(#p79ec185748)" d="M 326.354802 181.597821 
L 324.939428 177.355567 
L 329.182456 178.76862 
L 326.354802 181.597821 
z
" style="fill:#2f0f3e;fill-opacity:0.5;stroke:#2f0f3e;stroke-linecap:round;stroke-opacity:0.5;stroke-width:3;"/>
   </g>
   <g id="patch_66">
    <path clip-path="url(#p79ec185748)" d="M 316.444319 168.865103 
Q 327.277012 179.691872 335.737347 188.147581 
" style="fill:none;stroke:#2f0f3e;stroke-linecap:round;stroke-opacity:0.5;stroke-width:3;"/>
    <path clip-path="url(#p79ec185748)" d="M 334.321973 183.905327 
L 335.737347 188.147581 
L 331.49432 186.734528 
L 334.321973 183.905327 
z
" style="fill:#2f0f3e;fill-opacity:0.5;stroke:#2f0f3e;stroke-linecap:round;stroke-opacity:0.5;stroke-width:3;"/>
   </g>
   <g id="patch_67">
    <path clip-path="url(#p79ec185748)" d="M 344.232457 196.638044 
Q 325.129869 210.225862 308.76047 221.869542 
" style="fill:none;stroke:#2f0f3e;stroke-linecap:round;stroke-opacity:0.5;stroke-width:3;"/>
    <path clip-path="url(#p79ec185748)" d="M 313.179249 221.18078 
L 308.76047 221.869542 
L 310.860729 217.921262 
L 313.179249 221.18078 
z
" style="fill:#2f0f3e;fill-opacity:0.5;stroke:#2f0f3e;stroke-linecap:round;stroke-opacity:0.5;stroke-width:3;"/>
   </g>
   <g id="patch_68">
    <path clip-path="url(#p79ec185748)" d="M 298.96862 228.834561 
Q 257.710809 190.76917 218.918162 154.978196 
" style="fill:none;stroke:#2f0f3e;stroke-linecap:round;stroke-opacity:0.5;stroke-width:3;"/>
    <path clip-path="url(#p79ec185748)" d="M 220.501841 159.160535 
L 218.918162 154.978196 
L 223.214241 156.220655 
L 220.501841 159.160535 
z
" style="fill:#2f0f3e;fill-opacity:0.5;stroke:#2f0f3e;stroke-linecap:round;stroke-opacity:0.5;stroke-width:3;"/>
   </g>
   <g id="patch_69">
    <path clip-path="url(#p79ec185748)" d="M 210.086864 146.83024 
Q 248.857499 168.630703 284.704522 188.787239 
" style="fill:none;stroke:#2f0f3e;stroke-linecap:round;stroke-opacity:0.5;stroke-width:3;"/>
    <path clip-path="url(#p79ec185748)" d="M 282.19816 185.083437 
L 284.704522 188.787239 
L 280.237663 188.570047 
L 282.19816 185.083437 
z
" style="fill:#2f0f3e;fill-opacity:0.5;stroke:#2f0f3e;stroke-linecap:round;stroke-opacity:0.5;stroke-width:3;"/>
   </g>
   <g id="PathCollection_1">
    <defs>
     <path d="M 0 10 
C 2.652031 10 5.195799 8.946337 7.071068 7.071068 
C 8.946337 5.195799 10 2.652031 10 0 
C 10 -2.652031 8.946337 -5.195799 7.071068 -7.071068 
C 5.195799 -8.946337 2.652031 -10 0 -10 
C -2.652031 -10 -5.195799 -8.946337 -7.071068 -7.071068 
C -8.946337 -5.195799 -10 -2.652031 -10 0 
C -10 2.652031 -8.946337 5.195799 -7.071068 7.071068 
C -5.195799 8.946337 -2.652031 10 0 10 
z
" id="m99fa03d521" style="stroke:#feedb0;"/>
    </defs>
    <g clip-path="url(#p79ec185748)">
     <use style="fill:#feedb0;stroke:#feedb0;" x="295.176858" xlink:href="#m99fa03d521" y="194.675763"/>
     <use style="fill:#feedb0;stroke:#feedb0;" x="290.064638" xlink:href="#m99fa03d521" y="290.687417"/>
     <use style="fill:#feedb0;stroke:#feedb0;" x="332.577713" xlink:href="#m99fa03d521" y="268.627175"/>
    </g>
   </g>
   <g id="PathCollection_2">
    <defs>
     <path d="M 0 10 
C 2.652031 10 5.195799 8.946337 7.071068 7.071068 
C 8.946337 5.195799 10 2.652031 10 0 
C 10 -2.652031 8.946337 -5.195799 7.071068 -7.071068 
C 5.195799 -8.946337 2.652031 -10 0 -10 
C -2.652031 -10 -5.195799 -8.946337 -7.071068 -7.071068 
C -8.946337 -5.195799 -10 -2.652031 -10 0 
C -10 2.652031 -8.946337 5.195799 -7.071068 7.071068 
C -5.195799 8.946337 -2.652031 10 0 10 
z
" id="me4b15e10fb" style="stroke:#fbd094;"/>
    </defs>
    <g clip-path="url(#p79ec185748)">
     <use style="fill:#fbd094;stroke:#fbd094;" x="266.468795" xlink:href="#me4b15e10fb" y="214.641182"/>
     <use style="fill:#fbd094;stroke:#fbd094;" x="290.064638" xlink:href="#me4b15e10fb" y="290.687417"/>
     <use style="fill:#fbd094;stroke:#fbd094;" x="332.577713" xlink:href="#me4b15e10fb" y="268.627175"/>
    </g>
   </g>
   <g id="PathCollection_3">
    <defs>
     <path d="M 0 10 
C 2.652031 10 5.195799 8.946337 7.071068 7.071068 
C 8.946337 5.195799 10 2.652031 10 0 
C 10 -2.652031 8.946337 -5.195799 7.071068 -7.071068 
C 5.195799 -8.946337 2.652031 -10 0 -10 
C -2.652031 -10 -5.195799 -8.946337 -7.071068 -7.071068 
C -8.946337 -5.195799 -10 -2.652031 -10 0 
C -10 2.652031 -8.946337 5.195799 -7.071068 7.071068 
C -5.195799 8.946337 -2.652031 10 0 10 
z
" id="mec0e1cbd3d" style="stroke:#f7b37c;"/>
    </defs>
    <g clip-path="url(#p79ec185748)">
     <use style="fill:#f7b37c;stroke:#f7b37c;" x="394.342075" xlink:href="#mec0e1cbd3d" y="74.883645"/>
     <use style="fill:#f7b37c;stroke:#f7b37c;" x="359.560609" xlink:href="#mec0e1cbd3d" y="102.174488"/>
     <use style="fill:#f7b37c;stroke:#f7b37c;" x="311.438111" xlink:href="#mec0e1cbd3d" y="115.675992"/>
    </g>
   </g>
   <g id="PathCollection_4">
    <defs>
     <path d="M 0 10 
C 2.652031 10 5.195799 8.946337 7.071068 7.071068 
C 8.946337 5.195799 10 2.652031 10 0 
C 10 -2.652031 8.946337 -5.195799 7.071068 -7.071068 
C 5.195799 -8.946337 2.652031 -10 0 -10 
C -2.652031 -10 -5.195799 -8.946337 -7.071068 -7.071068 
C -8.946337 -5.195799 -10 -2.652031 -10 0 
C -10 2.652031 -8.946337 5.195799 -7.071068 7.071068 
C -5.195799 8.946337 -2.652031 10 0 10 
z
" id="m8313d8ff42" style="stroke:#f29567;"/>
    </defs>
    <g clip-path="url(#p79ec185748)">
     <use style="fill:#f29567;stroke:#f29567;" x="342.416461" xlink:href="#m8313d8ff42" y="60.180724"/>
     <use style="fill:#f29567;stroke:#f29567;" x="359.560609" xlink:href="#m8313d8ff42" y="102.174488"/>
     <use style="fill:#f29567;stroke:#f29567;" x="311.438111" xlink:href="#m8313d8ff42" y="115.675992"/>
    </g>
   </g>
   <g id="PathCollection_5">
    <defs>
     <path d="M 0 10 
C 2.652031 10 5.195799 8.946337 7.071068 7.071068 
C 8.946337 5.195799 10 2.652031 10 0 
C 10 -2.652031 8.946337 -5.195799 7.071068 -7.071068 
C 5.195799 -8.946337 2.652031 -10 0 -10 
C -2.652031 -10 -5.195799 -8.946337 -7.071068 -7.071068 
C -8.946337 -5.195799 -10 -2.652031 -10 0 
C -10 2.652031 -8.946337 5.195799 -7.071068 7.071068 
C -5.195799 8.946337 -2.652031 10 0 10 
z
" id="m45a614be2c" style="stroke:#eb7858;"/>
    </defs>
    <g clip-path="url(#p79ec185748)">
     <use style="fill:#eb7858;stroke:#eb7858;" x="266.468795" xlink:href="#m45a614be2c" y="214.641182"/>
     <use style="fill:#eb7858;stroke:#eb7858;" x="295.176858" xlink:href="#m45a614be2c" y="194.675763"/>
     <use style="fill:#eb7858;stroke:#eb7858;" x="298.96862" xlink:href="#m45a614be2c" y="228.834561"/>
    </g>
   </g>
   <g id="PathCollection_6">
    <defs>
     <path d="M 0 10 
C 2.652031 10 5.195799 8.946337 7.071068 7.071068 
C 8.946337 5.195799 10 2.652031 10 0 
C 10 -2.652031 8.946337 -5.195799 7.071068 -7.071068 
C 5.195799 -8.946337 2.652031 -10 0 -10 
C -2.652031 -10 -5.195799 -8.946337 -7.071068 -7.071068 
C -8.946337 -5.195799 -10 -2.652031 -10 0 
C -10 2.652031 -8.946337 5.195799 -7.071068 7.071068 
C -5.195799 8.946337 -2.652031 10 0 10 
z
" id="mc259044831" style="stroke:#e05d53;"/>
    </defs>
    <g clip-path="url(#p79ec185748)">
     <use style="fill:#e05d53;stroke:#e05d53;" x="210.086864" xlink:href="#mc259044831" y="146.83024"/>
     <use style="fill:#e05d53;stroke:#e05d53;" x="295.176858" xlink:href="#mc259044831" y="194.675763"/>
     <use style="fill:#e05d53;stroke:#e05d53;" x="266.468795" xlink:href="#mc259044831" y="214.641182"/>
     <use style="fill:#e05d53;stroke:#e05d53;" x="311.438111" xlink:href="#mc259044831" y="115.675992"/>
     <use style="fill:#e05d53;stroke:#e05d53;" x="359.560609" xlink:href="#mc259044831" y="102.174488"/>
     <use style="fill:#e05d53;stroke:#e05d53;" x="266.468795" xlink:href="#mc259044831" y="214.641182"/>
     <use style="fill:#e05d53;stroke:#e05d53;" x="205.803895" xlink:href="#mc259044831" y="165.499679"/>
     <use style="fill:#e05d53;stroke:#e05d53;" x="274.289615" xlink:href="#mc259044831" y="157.275673"/>
    </g>
   </g>
   <g id="PathCollection_7">
    <defs>
     <path d="M 0 10 
C 2.652031 10 5.195799 8.946337 7.071068 7.071068 
C 8.946337 5.195799 10 2.652031 10 0 
C 10 -2.652031 8.946337 -5.195799 7.071068 -7.071068 
C 5.195799 -8.946337 2.652031 -10 0 -10 
C -2.652031 -10 -5.195799 -8.946337 -7.071068 -7.071068 
C -8.946337 -5.195799 -10 -2.652031 -10 0 
C -10 2.652031 -8.946337 5.195799 -7.071068 7.071068 
C -5.195799 8.946337 -2.652031 10 0 10 
z
" id="m3c03ea832b" style="stroke:#ce4356;"/>
    </defs>
    <g clip-path="url(#p79ec185748)">
     <use style="fill:#ce4356;stroke:#ce4356;" x="205.803895" xlink:href="#m3c03ea832b" y="165.499679"/>
     <use style="fill:#ce4356;stroke:#ce4356;" x="210.086864" xlink:href="#m3c03ea832b" y="146.83024"/>
     <use style="fill:#ce4356;stroke:#ce4356;" x="101.504203" xlink:href="#m3c03ea832b" y="157.117881"/>
     <use style="fill:#ce4356;stroke:#ce4356;" x="80.913439" xlink:href="#m3c03ea832b" y="175.506618"/>
     <use style="fill:#ce4356;stroke:#ce4356;" x="103.219139" xlink:href="#m3c03ea832b" y="130.88662"/>
    </g>
   </g>
   <g id="PathCollection_8">
    <defs>
     <path d="M 0 10 
C 2.652031 10 5.195799 8.946337 7.071068 7.071068 
C 8.946337 5.195799 10 2.652031 10 0 
C 10 -2.652031 8.946337 -5.195799 7.071068 -7.071068 
C 5.195799 -8.946337 2.652031 -10 0 -10 
C -2.652031 -10 -5.195799 -8.946337 -7.071068 -7.071068 
C -8.946337 -5.195799 -10 -2.652031 -10 0 
C -10 2.652031 -8.946337 5.195799 -7.071068 7.071068 
C -5.195799 8.946337 -2.652031 10 0 10 
z
" id="mf3610780bf" style="stroke:#b8315d;"/>
    </defs>
    <g clip-path="url(#p79ec185748)">
     <use style="fill:#b8315d;stroke:#b8315d;" x="210.086864" xlink:href="#mf3610780bf" y="146.83024"/>
     <use style="fill:#b8315d;stroke:#b8315d;" x="80.913439" xlink:href="#mf3610780bf" y="175.506618"/>
     <use style="fill:#b8315d;stroke:#b8315d;" x="148.923909" xlink:href="#mf3610780bf" y="200.052397"/>
     <use style="fill:#b8315d;stroke:#b8315d;" x="205.803895" xlink:href="#mf3610780bf" y="165.499679"/>
    </g>
   </g>
   <g id="PathCollection_9">
    <defs>
     <path d="M 0 10 
C 2.652031 10 5.195799 8.946337 7.071068 7.071068 
C 8.946337 5.195799 10 2.652031 10 0 
C 10 -2.652031 8.946337 -5.195799 7.071068 -7.071068 
C 5.195799 -8.946337 2.652031 -10 0 -10 
C -2.652031 -10 -5.195799 -8.946337 -7.071068 -7.071068 
C -8.946337 -5.195799 -10 -2.652031 -10 0 
C -10 2.652031 -8.946337 5.195799 -7.071068 7.071068 
C -5.195799 8.946337 -2.652031 10 0 10 
z
" id="mc176710496" style="stroke:#9f2462;"/>
    </defs>
    <g clip-path="url(#p79ec185748)">
     <use style="fill:#9f2462;stroke:#9f2462;" x="295.176858" xlink:href="#mc176710496" y="194.675763"/>
     <use style="fill:#9f2462;stroke:#9f2462;" x="186.58033" xlink:href="#mc176710496" y="219.839193"/>
     <use style="fill:#9f2462;stroke:#9f2462;" x="148.923909" xlink:href="#mc176710496" y="200.052397"/>
     <use style="fill:#9f2462;stroke:#9f2462;" x="274.289615" xlink:href="#mc176710496" y="157.275673"/>
    </g>
   </g>
   <g id="PathCollection_10">
    <defs>
     <path d="M 0 10 
C 2.652031 10 5.195799 8.946337 7.071068 7.071068 
C 8.946337 5.195799 10 2.652031 10 0 
C 10 -2.652031 8.946337 -5.195799 7.071068 -7.071068 
C 5.195799 -8.946337 2.652031 -10 0 -10 
C -2.652031 -10 -5.195799 -8.946337 -7.071068 -7.071068 
C -8.946337 -5.195799 -10 -2.652031 -10 0 
C -10 2.652031 -8.946337 5.195799 -7.071068 7.071068 
C -5.195799 8.946337 -2.652031 10 0 10 
z
" id="mb10bc9478e" style="stroke:#841c63;"/>
    </defs>
    <g clip-path="url(#p79ec185748)">
     <use style="fill:#841c63;stroke:#841c63;" x="266.468795" xlink:href="#mb10bc9478e" y="214.641182"/>
     <use style="fill:#841c63;stroke:#841c63;" x="295.176858" xlink:href="#mb10bc9478e" y="194.675763"/>
     <use style="fill:#841c63;stroke:#841c63;" x="210.086864" xlink:href="#mb10bc9478e" y="146.83024"/>
     <use style="fill:#841c63;stroke:#841c63;" x="274.289615" xlink:href="#mb10bc9478e" y="157.275673"/>
     <use style="fill:#841c63;stroke:#841c63;" x="148.923909" xlink:href="#mb10bc9478e" y="200.052397"/>
     <use style="fill:#841c63;stroke:#841c63;" x="186.58033" xlink:href="#mb10bc9478e" y="219.839193"/>
     <use style="fill:#841c63;stroke:#841c63;" x="205.803895" xlink:href="#mb10bc9478e" y="165.499679"/>
     <use style="fill:#841c63;stroke:#841c63;" x="210.086864" xlink:href="#mb10bc9478e" y="146.83024"/>
    </g>
   </g>
   <g id="PathCollection_11">
    <defs>
     <path d="M 0 10 
C 2.652031 10 5.195799 8.946337 7.071068 7.071068 
C 8.946337 5.195799 10 2.652031 10 0 
C 10 -2.652031 8.946337 -5.195799 7.071068 -7.071068 
C 5.195799 -8.946337 2.652031 -10 0 -10 
C -2.652031 -10 -5.195799 -8.946337 -7.071068 -7.071068 
C -8.946337 -5.195799 -10 -2.652031 -10 0 
C -10 2.652031 -8.946337 5.195799 -7.071068 7.071068 
C -5.195799 8.946337 -2.652031 10 0 10 
z
" id="m6ae8a57e04" style="stroke:#67195d;"/>
    </defs>
    <g clip-path="url(#p79ec185748)">
     <use style="fill:#67195d;stroke:#67195d;" x="205.803895" xlink:href="#m6ae8a57e04" y="165.499679"/>
     <use style="fill:#67195d;stroke:#67195d;" x="210.086864" xlink:href="#m6ae8a57e04" y="146.83024"/>
     <use style="fill:#67195d;stroke:#67195d;" x="295.176858" xlink:href="#m6ae8a57e04" y="194.675763"/>
     <use style="fill:#67195d;stroke:#67195d;" x="266.468795" xlink:href="#m6ae8a57e04" y="214.641182"/>
     <use style="fill:#67195d;stroke:#67195d;" x="224.848189" xlink:href="#m6ae8a57e04" y="189.358305"/>
     <use style="fill:#67195d;stroke:#67195d;" x="295.176858" xlink:href="#m6ae8a57e04" y="194.675763"/>
    </g>
   </g>
   <g id="PathCollection_12">
    <defs>
     <path d="M 0 10 
C 2.652031 10 5.195799 8.946337 7.071068 7.071068 
C 8.946337 5.195799 10 2.652031 10 0 
C 10 -2.652031 8.946337 -5.195799 7.071068 -7.071068 
C 5.195799 -8.946337 2.652031 -10 0 -10 
C -2.652031 -10 -5.195799 -8.946337 -7.071068 -7.071068 
C -8.946337 -5.195799 -10 -2.652031 -10 0 
C -10 2.652031 -8.946337 5.195799 -7.071068 7.071068 
C -5.195799 8.946337 -2.652031 10 0 10 
z
" id="mac71a34be8" style="stroke:#4a154f;"/>
    </defs>
    <g clip-path="url(#p79ec185748)">
     <use style="fill:#4a154f;stroke:#4a154f;" x="205.803895" xlink:href="#mac71a34be8" y="165.499679"/>
     <use style="fill:#4a154f;stroke:#4a154f;" x="210.086864" xlink:href="#mac71a34be8" y="146.83024"/>
     <use style="fill:#4a154f;stroke:#4a154f;" x="295.176858" xlink:href="#mac71a34be8" y="194.675763"/>
     <use style="fill:#4a154f;stroke:#4a154f;" x="266.468795" xlink:href="#mac71a34be8" y="214.641182"/>
     <use style="fill:#4a154f;stroke:#4a154f;" x="218.40713" xlink:href="#mac71a34be8" y="241.978377"/>
     <use style="fill:#4a154f;stroke:#4a154f;" x="193.409863" xlink:href="#mac71a34be8" y="258.093747"/>
     <use style="fill:#4a154f;stroke:#4a154f;" x="266.468795" xlink:href="#mac71a34be8" y="214.641182"/>
     <use style="fill:#4a154f;stroke:#4a154f;" x="295.176858" xlink:href="#mac71a34be8" y="194.675763"/>
     <use style="fill:#4a154f;stroke:#4a154f;" x="210.086864" xlink:href="#mac71a34be8" y="146.83024"/>
    </g>
   </g>
   <g id="PathCollection_13">
    <defs>
     <path d="M 0 10 
C 2.652031 10 5.195799 8.946337 7.071068 7.071068 
C 8.946337 5.195799 10 2.652031 10 0 
C 10 -2.652031 8.946337 -5.195799 7.071068 -7.071068 
C 5.195799 -8.946337 2.652031 -10 0 -10 
C -2.652031 -10 -5.195799 -8.946337 -7.071068 -7.071068 
C -8.946337 -5.195799 -10 -2.652031 -10 0 
C -10 2.652031 -8.946337 5.195799 -7.071068 7.071068 
C -5.195799 8.946337 -2.652031 10 0 10 
z
" id="m7d46093641" style="stroke:#2f0f3e;"/>
    </defs>
    <g clip-path="url(#p79ec185748)">
     <use style="fill:#2f0f3e;stroke:#2f0f3e;" x="295.176858" xlink:href="#m7d46093641" y="194.675763"/>
     <use style="fill:#2f0f3e;stroke:#2f0f3e;" x="210.086864" xlink:href="#m7d46093641" y="146.83024"/>
     <use style="fill:#2f0f3e;stroke:#2f0f3e;" x="205.803895" xlink:href="#m7d46093641" y="165.499679"/>
     <use style="fill:#2f0f3e;stroke:#2f0f3e;" x="274.289615" xlink:href="#m7d46093641" y="157.275673"/>
     <use style="fill:#2f0f3e;stroke:#2f0f3e;" x="344.232457" xlink:href="#m7d46093641" y="196.638044"/>
     <use style="fill:#2f0f3e;stroke:#2f0f3e;" x="316.444319" xlink:href="#m7d46093641" y="168.865103"/>
     <use style="fill:#2f0f3e;stroke:#2f0f3e;" x="344.232457" xlink:href="#m7d46093641" y="196.638044"/>
     <use style="fill:#2f0f3e;stroke:#2f0f3e;" x="298.96862" xlink:href="#m7d46093641" y="228.834561"/>
     <use style="fill:#2f0f3e;stroke:#2f0f3e;" x="210.086864" xlink:href="#m7d46093641" y="146.83024"/>
    </g>
   </g>
   <g id="text_1">
    <g clip-path="url(#p79ec185748)">
     <!-- yantian_chn -->
     <defs>
      <path d="M 32.171875 -5.078125 
Q 28.375 -14.84375 24.75 -17.8125 
Q 21.140625 -20.796875 15.09375 -20.796875 
L 7.90625 -20.796875 
L 7.90625 -13.28125 
L 13.1875 -13.28125 
Q 16.890625 -13.28125 18.9375 -11.515625 
Q 21 -9.765625 23.484375 -3.21875 
L 25.09375 0.875 
L 2.984375 54.6875 
L 12.5 54.6875 
L 29.59375 11.921875 
L 46.6875 54.6875 
L 56.203125 54.6875 
z
" id="DejaVuSans-121"/>
      <path d="M 34.28125 27.484375 
Q 23.390625 27.484375 19.1875 25 
Q 14.984375 22.515625 14.984375 16.5 
Q 14.984375 11.71875 18.140625 8.90625 
Q 21.296875 6.109375 26.703125 6.109375 
Q 34.1875 6.109375 38.703125 11.40625 
Q 43.21875 16.703125 43.21875 25.484375 
L 43.21875 27.484375 
z
M 52.203125 31.203125 
L 52.203125 0 
L 43.21875 0 
L 43.21875 8.296875 
Q 40.140625 3.328125 35.546875 0.953125 
Q 30.953125 -1.421875 24.3125 -1.421875 
Q 15.921875 -1.421875 10.953125 3.296875 
Q 6 8.015625 6 15.921875 
Q 6 25.140625 12.171875 29.828125 
Q 18.359375 34.515625 30.609375 34.515625 
L 43.21875 34.515625 
L 43.21875 35.40625 
Q 43.21875 41.609375 39.140625 45 
Q 35.0625 48.390625 27.6875 48.390625 
Q 23 48.390625 18.546875 47.265625 
Q 14.109375 46.140625 10.015625 43.890625 
L 10.015625 52.203125 
Q 14.9375 54.109375 19.578125 55.046875 
Q 24.21875 56 28.609375 56 
Q 40.484375 56 46.34375 49.84375 
Q 52.203125 43.703125 52.203125 31.203125 
z
" id="DejaVuSans-97"/>
      <path d="M 54.890625 33.015625 
L 54.890625 0 
L 45.90625 0 
L 45.90625 32.71875 
Q 45.90625 40.484375 42.875 44.328125 
Q 39.84375 48.1875 33.796875 48.1875 
Q 26.515625 48.1875 22.3125 43.546875 
Q 18.109375 38.921875 18.109375 30.90625 
L 18.109375 0 
L 9.078125 0 
L 9.078125 54.6875 
L 18.109375 54.6875 
L 18.109375 46.1875 
Q 21.34375 51.125 25.703125 53.5625 
Q 30.078125 56 35.796875 56 
Q 45.21875 56 50.046875 50.171875 
Q 54.890625 44.34375 54.890625 33.015625 
z
" id="DejaVuSans-110"/>
      <path d="M 18.3125 70.21875 
L 18.3125 54.6875 
L 36.8125 54.6875 
L 36.8125 47.703125 
L 18.3125 47.703125 
L 18.3125 18.015625 
Q 18.3125 11.328125 20.140625 9.421875 
Q 21.96875 7.515625 27.59375 7.515625 
L 36.8125 7.515625 
L 36.8125 0 
L 27.59375 0 
Q 17.1875 0 13.234375 3.875 
Q 9.28125 7.765625 9.28125 18.015625 
L 9.28125 47.703125 
L 2.6875 47.703125 
L 2.6875 54.6875 
L 9.28125 54.6875 
L 9.28125 70.21875 
z
" id="DejaVuSans-116"/>
      <path d="M 9.421875 54.6875 
L 18.40625 54.6875 
L 18.40625 0 
L 9.421875 0 
z
M 9.421875 75.984375 
L 18.40625 75.984375 
L 18.40625 64.59375 
L 9.421875 64.59375 
z
" id="DejaVuSans-105"/>
      <path d="M 50.984375 -16.609375 
L 50.984375 -23.578125 
L -0.984375 -23.578125 
L -0.984375 -16.609375 
z
" id="DejaVuSans-95"/>
      <path d="M 48.78125 52.59375 
L 48.78125 44.1875 
Q 44.96875 46.296875 41.140625 47.34375 
Q 37.3125 48.390625 33.40625 48.390625 
Q 24.65625 48.390625 19.8125 42.84375 
Q 14.984375 37.3125 14.984375 27.296875 
Q 14.984375 17.28125 19.8125 11.734375 
Q 24.65625 6.203125 33.40625 6.203125 
Q 37.3125 6.203125 41.140625 7.25 
Q 44.96875 8.296875 48.78125 10.40625 
L 48.78125 2.09375 
Q 45.015625 0.34375 40.984375 -0.53125 
Q 36.96875 -1.421875 32.421875 -1.421875 
Q 20.0625 -1.421875 12.78125 6.34375 
Q 5.515625 14.109375 5.515625 27.296875 
Q 5.515625 40.671875 12.859375 48.328125 
Q 20.21875 56 33.015625 56 
Q 37.15625 56 41.109375 55.140625 
Q 45.0625 54.296875 48.78125 52.59375 
z
" id="DejaVuSans-99"/>
      <path d="M 54.890625 33.015625 
L 54.890625 0 
L 45.90625 0 
L 45.90625 32.71875 
Q 45.90625 40.484375 42.875 44.328125 
Q 39.84375 48.1875 33.796875 48.1875 
Q 26.515625 48.1875 22.3125 43.546875 
Q 18.109375 38.921875 18.109375 30.90625 
L 18.109375 0 
L 9.078125 0 
L 9.078125 75.984375 
L 18.109375 75.984375 
L 18.109375 46.1875 
Q 21.34375 51.125 25.703125 53.5625 
Q 30.078125 56 35.796875 56 
Q 45.21875 56 50.046875 50.171875 
Q 54.890625 44.34375 54.890625 33.015625 
z
" id="DejaVuSans-104"/>
     </defs>
     <g transform="translate(270.888108 189.391486)scale(0.08 -0.08)">
      <use xlink:href="#DejaVuSans-121"/>
      <use x="59.179688" xlink:href="#DejaVuSans-97"/>
      <use x="120.458984" xlink:href="#DejaVuSans-110"/>
      <use x="183.837891" xlink:href="#DejaVuSans-116"/>
      <use x="223.046875" xlink:href="#DejaVuSans-105"/>
      <use x="250.830078" xlink:href="#DejaVuSans-97"/>
      <use x="312.109375" xlink:href="#DejaVuSans-110"/>
      <use x="375.488281" xlink:href="#DejaVuSans-95"/>
      <use x="425.488281" xlink:href="#DejaVuSans-99"/>
      <use x="480.46875" xlink:href="#DejaVuSans-104"/>
      <use x="543.847656" xlink:href="#DejaVuSans-110"/>
     </g>
    </g>
   </g>
   <g id="text_2">
    <g clip-path="url(#p79ec185748)">
     <!-- sydney_aus -->
     <defs>
      <path d="M 44.28125 53.078125 
L 44.28125 44.578125 
Q 40.484375 46.53125 36.375 47.5 
Q 32.28125 48.484375 27.875 48.484375 
Q 21.1875 48.484375 17.84375 46.4375 
Q 14.5 44.390625 14.5 40.28125 
Q 14.5 37.15625 16.890625 35.375 
Q 19.28125 33.59375 26.515625 31.984375 
L 29.59375 31.296875 
Q 39.15625 29.25 43.1875 25.515625 
Q 47.21875 21.78125 47.21875 15.09375 
Q 47.21875 7.46875 41.1875 3.015625 
Q 35.15625 -1.421875 24.609375 -1.421875 
Q 20.21875 -1.421875 15.453125 -0.5625 
Q 10.6875 0.296875 5.421875 2 
L 5.421875 11.28125 
Q 10.40625 8.6875 15.234375 7.390625 
Q 20.0625 6.109375 24.8125 6.109375 
Q 31.15625 6.109375 34.5625 8.28125 
Q 37.984375 10.453125 37.984375 14.40625 
Q 37.984375 18.0625 35.515625 20.015625 
Q 33.0625 21.96875 24.703125 23.78125 
L 21.578125 24.515625 
Q 13.234375 26.265625 9.515625 29.90625 
Q 5.8125 33.546875 5.8125 39.890625 
Q 5.8125 47.609375 11.28125 51.796875 
Q 16.75 56 26.8125 56 
Q 31.78125 56 36.171875 55.265625 
Q 40.578125 54.546875 44.28125 53.078125 
z
" id="DejaVuSans-115"/>
      <path d="M 45.40625 46.390625 
L 45.40625 75.984375 
L 54.390625 75.984375 
L 54.390625 0 
L 45.40625 0 
L 45.40625 8.203125 
Q 42.578125 3.328125 38.25 0.953125 
Q 33.9375 -1.421875 27.875 -1.421875 
Q 17.96875 -1.421875 11.734375 6.484375 
Q 5.515625 14.40625 5.515625 27.296875 
Q 5.515625 40.1875 11.734375 48.09375 
Q 17.96875 56 27.875 56 
Q 33.9375 56 38.25 53.625 
Q 42.578125 51.265625 45.40625 46.390625 
z
M 14.796875 27.296875 
Q 14.796875 17.390625 18.875 11.75 
Q 22.953125 6.109375 30.078125 6.109375 
Q 37.203125 6.109375 41.296875 11.75 
Q 45.40625 17.390625 45.40625 27.296875 
Q 45.40625 37.203125 41.296875 42.84375 
Q 37.203125 48.484375 30.078125 48.484375 
Q 22.953125 48.484375 18.875 42.84375 
Q 14.796875 37.203125 14.796875 27.296875 
z
" id="DejaVuSans-100"/>
      <path d="M 56.203125 29.59375 
L 56.203125 25.203125 
L 14.890625 25.203125 
Q 15.484375 15.921875 20.484375 11.0625 
Q 25.484375 6.203125 34.421875 6.203125 
Q 39.59375 6.203125 44.453125 7.46875 
Q 49.3125 8.734375 54.109375 11.28125 
L 54.109375 2.78125 
Q 49.265625 0.734375 44.1875 -0.34375 
Q 39.109375 -1.421875 33.890625 -1.421875 
Q 20.796875 -1.421875 13.15625 6.1875 
Q 5.515625 13.8125 5.515625 26.8125 
Q 5.515625 40.234375 12.765625 48.109375 
Q 20.015625 56 32.328125 56 
Q 43.359375 56 49.78125 48.890625 
Q 56.203125 41.796875 56.203125 29.59375 
z
M 47.21875 32.234375 
Q 47.125 39.59375 43.09375 43.984375 
Q 39.0625 48.390625 32.421875 48.390625 
Q 24.90625 48.390625 20.390625 44.140625 
Q 15.875 39.890625 15.1875 32.171875 
z
" id="DejaVuSans-101"/>
      <path d="M 8.5 21.578125 
L 8.5 54.6875 
L 17.484375 54.6875 
L 17.484375 21.921875 
Q 17.484375 14.15625 20.5 10.265625 
Q 23.53125 6.390625 29.59375 6.390625 
Q 36.859375 6.390625 41.078125 11.03125 
Q 45.3125 15.671875 45.3125 23.6875 
L 45.3125 54.6875 
L 54.296875 54.6875 
L 54.296875 0 
L 45.3125 0 
L 45.3125 8.40625 
Q 42.046875 3.421875 37.71875 1 
Q 33.40625 -1.421875 27.6875 -1.421875 
Q 18.265625 -1.421875 13.375 4.4375 
Q 8.5 10.296875 8.5 21.578125 
z
M 31.109375 56 
z
" id="DejaVuSans-117"/>
     </defs>
     <g transform="translate(266.640263 285.403141)scale(0.08 -0.08)">
      <use xlink:href="#DejaVuSans-115"/>
      <use x="52.099609" xlink:href="#DejaVuSans-121"/>
      <use x="111.279297" xlink:href="#DejaVuSans-100"/>
      <use x="174.755859" xlink:href="#DejaVuSans-110"/>
      <use x="238.134766" xlink:href="#DejaVuSans-101"/>
      <use x="299.658203" xlink:href="#DejaVuSans-121"/>
      <use x="358.837891" xlink:href="#DejaVuSans-95"/>
      <use x="408.837891" xlink:href="#DejaVuSans-97"/>
      <use x="470.117188" xlink:href="#DejaVuSans-117"/>
      <use x="533.496094" xlink:href="#DejaVuSans-115"/>
     </g>
    </g>
   </g>
   <g id="text_3">
    <g clip-path="url(#p79ec185748)">
     <!-- melbourne_aus -->
     <defs>
      <path d="M 52 44.1875 
Q 55.375 50.25 60.0625 53.125 
Q 64.75 56 71.09375 56 
Q 79.640625 56 84.28125 50.015625 
Q 88.921875 44.046875 88.921875 33.015625 
L 88.921875 0 
L 79.890625 0 
L 79.890625 32.71875 
Q 79.890625 40.578125 77.09375 44.375 
Q 74.3125 48.1875 68.609375 48.1875 
Q 61.625 48.1875 57.5625 43.546875 
Q 53.515625 38.921875 53.515625 30.90625 
L 53.515625 0 
L 44.484375 0 
L 44.484375 32.71875 
Q 44.484375 40.625 41.703125 44.40625 
Q 38.921875 48.1875 33.109375 48.1875 
Q 26.21875 48.1875 22.15625 43.53125 
Q 18.109375 38.875 18.109375 30.90625 
L 18.109375 0 
L 9.078125 0 
L 9.078125 54.6875 
L 18.109375 54.6875 
L 18.109375 46.1875 
Q 21.1875 51.21875 25.484375 53.609375 
Q 29.78125 56 35.6875 56 
Q 41.65625 56 45.828125 52.96875 
Q 50 49.953125 52 44.1875 
z
" id="DejaVuSans-109"/>
      <path d="M 9.421875 75.984375 
L 18.40625 75.984375 
L 18.40625 0 
L 9.421875 0 
z
" id="DejaVuSans-108"/>
      <path d="M 48.6875 27.296875 
Q 48.6875 37.203125 44.609375 42.84375 
Q 40.53125 48.484375 33.40625 48.484375 
Q 26.265625 48.484375 22.1875 42.84375 
Q 18.109375 37.203125 18.109375 27.296875 
Q 18.109375 17.390625 22.1875 11.75 
Q 26.265625 6.109375 33.40625 6.109375 
Q 40.53125 6.109375 44.609375 11.75 
Q 48.6875 17.390625 48.6875 27.296875 
z
M 18.109375 46.390625 
Q 20.953125 51.265625 25.265625 53.625 
Q 29.59375 56 35.59375 56 
Q 45.5625 56 51.78125 48.09375 
Q 58.015625 40.1875 58.015625 27.296875 
Q 58.015625 14.40625 51.78125 6.484375 
Q 45.5625 -1.421875 35.59375 -1.421875 
Q 29.59375 -1.421875 25.265625 0.953125 
Q 20.953125 3.328125 18.109375 8.203125 
L 18.109375 0 
L 9.078125 0 
L 9.078125 75.984375 
L 18.109375 75.984375 
z
" id="DejaVuSans-98"/>
      <path d="M 30.609375 48.390625 
Q 23.390625 48.390625 19.1875 42.75 
Q 14.984375 37.109375 14.984375 27.296875 
Q 14.984375 17.484375 19.15625 11.84375 
Q 23.34375 6.203125 30.609375 6.203125 
Q 37.796875 6.203125 41.984375 11.859375 
Q 46.1875 17.53125 46.1875 27.296875 
Q 46.1875 37.015625 41.984375 42.703125 
Q 37.796875 48.390625 30.609375 48.390625 
z
M 30.609375 56 
Q 42.328125 56 49.015625 48.375 
Q 55.71875 40.765625 55.71875 27.296875 
Q 55.71875 13.875 49.015625 6.21875 
Q 42.328125 -1.421875 30.609375 -1.421875 
Q 18.84375 -1.421875 12.171875 6.21875 
Q 5.515625 13.875 5.515625 27.296875 
Q 5.515625 40.765625 12.171875 48.375 
Q 18.84375 56 30.609375 56 
z
" id="DejaVuSans-111"/>
      <path d="M 41.109375 46.296875 
Q 39.59375 47.171875 37.8125 47.578125 
Q 36.03125 48 33.890625 48 
Q 26.265625 48 22.1875 43.046875 
Q 18.109375 38.09375 18.109375 28.8125 
L 18.109375 0 
L 9.078125 0 
L 9.078125 54.6875 
L 18.109375 54.6875 
L 18.109375 46.1875 
Q 20.953125 51.171875 25.484375 53.578125 
Q 30.03125 56 36.53125 56 
Q 37.453125 56 38.578125 55.875 
Q 39.703125 55.765625 41.0625 55.515625 
z
" id="DejaVuSans-114"/>
     </defs>
     <g transform="translate(301.877088 263.342899)scale(0.08 -0.08)">
      <use xlink:href="#DejaVuSans-109"/>
      <use x="97.412109" xlink:href="#DejaVuSans-101"/>
      <use x="158.935547" xlink:href="#DejaVuSans-108"/>
      <use x="186.71875" xlink:href="#DejaVuSans-98"/>
      <use x="250.195312" xlink:href="#DejaVuSans-111"/>
      <use x="311.376953" xlink:href="#DejaVuSans-117"/>
      <use x="374.755859" xlink:href="#DejaVuSans-114"/>
      <use x="415.853516" xlink:href="#DejaVuSans-110"/>
      <use x="479.232422" xlink:href="#DejaVuSans-101"/>
      <use x="540.755859" xlink:href="#DejaVuSans-95"/>
      <use x="590.755859" xlink:href="#DejaVuSans-97"/>
      <use x="652.035156" xlink:href="#DejaVuSans-117"/>
      <use x="715.414062" xlink:href="#DejaVuSans-115"/>
     </g>
    </g>
   </g>
   <g id="text_4">
    <g clip-path="url(#p79ec185748)">
     <!-- singapore_sgp -->
     <defs>
      <path d="M 45.40625 27.984375 
Q 45.40625 37.75 41.375 43.109375 
Q 37.359375 48.484375 30.078125 48.484375 
Q 22.859375 48.484375 18.828125 43.109375 
Q 14.796875 37.75 14.796875 27.984375 
Q 14.796875 18.265625 18.828125 12.890625 
Q 22.859375 7.515625 30.078125 7.515625 
Q 37.359375 7.515625 41.375 12.890625 
Q 45.40625 18.265625 45.40625 27.984375 
z
M 54.390625 6.78125 
Q 54.390625 -7.171875 48.1875 -13.984375 
Q 42 -20.796875 29.203125 -20.796875 
Q 24.46875 -20.796875 20.265625 -20.09375 
Q 16.0625 -19.390625 12.109375 -17.921875 
L 12.109375 -9.1875 
Q 16.0625 -11.328125 19.921875 -12.34375 
Q 23.78125 -13.375 27.78125 -13.375 
Q 36.625 -13.375 41.015625 -8.765625 
Q 45.40625 -4.15625 45.40625 5.171875 
L 45.40625 9.625 
Q 42.625 4.78125 38.28125 2.390625 
Q 33.9375 0 27.875 0 
Q 17.828125 0 11.671875 7.65625 
Q 5.515625 15.328125 5.515625 27.984375 
Q 5.515625 40.671875 11.671875 48.328125 
Q 17.828125 56 27.875 56 
Q 33.9375 56 38.28125 53.609375 
Q 42.625 51.21875 45.40625 46.390625 
L 45.40625 54.6875 
L 54.390625 54.6875 
z
" id="DejaVuSans-103"/>
      <path d="M 18.109375 8.203125 
L 18.109375 -20.796875 
L 9.078125 -20.796875 
L 9.078125 54.6875 
L 18.109375 54.6875 
L 18.109375 46.390625 
Q 20.953125 51.265625 25.265625 53.625 
Q 29.59375 56 35.59375 56 
Q 45.5625 56 51.78125 48.09375 
Q 58.015625 40.1875 58.015625 27.296875 
Q 58.015625 14.40625 51.78125 6.484375 
Q 45.5625 -1.421875 35.59375 -1.421875 
Q 29.59375 -1.421875 25.265625 0.953125 
Q 20.953125 3.328125 18.109375 8.203125 
z
M 48.6875 27.296875 
Q 48.6875 37.203125 44.609375 42.84375 
Q 40.53125 48.484375 33.40625 48.484375 
Q 26.265625 48.484375 22.1875 42.84375 
Q 18.109375 37.203125 18.109375 27.296875 
Q 18.109375 17.390625 22.1875 11.75 
Q 26.265625 6.109375 33.40625 6.109375 
Q 40.53125 6.109375 44.609375 11.75 
Q 48.6875 17.390625 48.6875 27.296875 
z
" id="DejaVuSans-112"/>
     </defs>
     <g transform="translate(237.49442 209.356906)scale(0.08 -0.08)">
      <use xlink:href="#DejaVuSans-115"/>
      <use x="52.099609" xlink:href="#DejaVuSans-105"/>
      <use x="79.882812" xlink:href="#DejaVuSans-110"/>
      <use x="143.261719" xlink:href="#DejaVuSans-103"/>
      <use x="206.738281" xlink:href="#DejaVuSans-97"/>
      <use x="268.017578" xlink:href="#DejaVuSans-112"/>
      <use x="331.494141" xlink:href="#DejaVuSans-111"/>
      <use x="392.675781" xlink:href="#DejaVuSans-114"/>
      <use x="433.757812" xlink:href="#DejaVuSans-101"/>
      <use x="495.28125" xlink:href="#DejaVuSans-95"/>
      <use x="545.28125" xlink:href="#DejaVuSans-115"/>
      <use x="597.380859" xlink:href="#DejaVuSans-103"/>
      <use x="660.857422" xlink:href="#DejaVuSans-112"/>
     </g>
    </g>
   </g>
   <g id="text_5">
    <g clip-path="url(#p79ec185748)">
     <!-- newYork_usa -->
     <defs>
      <path d="M 4.203125 54.6875 
L 13.1875 54.6875 
L 24.421875 12.015625 
L 35.59375 54.6875 
L 46.1875 54.6875 
L 57.421875 12.015625 
L 68.609375 54.6875 
L 77.59375 54.6875 
L 63.28125 0 
L 52.6875 0 
L 40.921875 44.828125 
L 29.109375 0 
L 18.5 0 
z
" id="DejaVuSans-119"/>
      <path d="M -0.203125 72.90625 
L 10.40625 72.90625 
L 30.609375 42.921875 
L 50.6875 72.90625 
L 61.28125 72.90625 
L 35.5 34.71875 
L 35.5 0 
L 25.59375 0 
L 25.59375 34.71875 
z
" id="DejaVuSans-89"/>
      <path d="M 9.078125 75.984375 
L 18.109375 75.984375 
L 18.109375 31.109375 
L 44.921875 54.6875 
L 56.390625 54.6875 
L 27.390625 29.109375 
L 57.625 0 
L 45.90625 0 
L 18.109375 26.703125 
L 18.109375 0 
L 9.078125 0 
z
" id="DejaVuSans-107"/>
     </defs>
     <g transform="translate(368.16145 69.599369)scale(0.08 -0.08)">
      <use xlink:href="#DejaVuSans-110"/>
      <use x="63.378906" xlink:href="#DejaVuSans-101"/>
      <use x="124.902344" xlink:href="#DejaVuSans-119"/>
      <use x="206.689453" xlink:href="#DejaVuSans-89"/>
      <use x="267.570312" xlink:href="#DejaVuSans-111"/>
      <use x="328.751953" xlink:href="#DejaVuSans-114"/>
      <use x="369.865234" xlink:href="#DejaVuSans-107"/>
      <use x="427.775391" xlink:href="#DejaVuSans-95"/>
      <use x="477.775391" xlink:href="#DejaVuSans-117"/>
      <use x="541.154297" xlink:href="#DejaVuSans-115"/>
      <use x="593.253906" xlink:href="#DejaVuSans-97"/>
     </g>
    </g>
   </g>
   <g id="text_6">
    <g clip-path="url(#p79ec185748)">
     <!-- bremerhaven_ger -->
     <defs>
      <path d="M 2.984375 54.6875 
L 12.5 54.6875 
L 29.59375 8.796875 
L 46.6875 54.6875 
L 56.203125 54.6875 
L 35.6875 0 
L 23.484375 0 
z
" id="DejaVuSans-118"/>
     </defs>
     <g transform="translate(323.920609 96.890211)scale(0.08 -0.08)">
      <use xlink:href="#DejaVuSans-98"/>
      <use x="63.476562" xlink:href="#DejaVuSans-114"/>
      <use x="104.558594" xlink:href="#DejaVuSans-101"/>
      <use x="166.082031" xlink:href="#DejaVuSans-109"/>
      <use x="263.494141" xlink:href="#DejaVuSans-101"/>
      <use x="325.017578" xlink:href="#DejaVuSans-114"/>
      <use x="366.115234" xlink:href="#DejaVuSans-104"/>
      <use x="429.494141" xlink:href="#DejaVuSans-97"/>
      <use x="490.773438" xlink:href="#DejaVuSans-118"/>
      <use x="549.953125" xlink:href="#DejaVuSans-101"/>
      <use x="611.476562" xlink:href="#DejaVuSans-110"/>
      <use x="674.855469" xlink:href="#DejaVuSans-95"/>
      <use x="724.855469" xlink:href="#DejaVuSans-103"/>
      <use x="788.332031" xlink:href="#DejaVuSans-101"/>
      <use x="849.855469" xlink:href="#DejaVuSans-114"/>
     </g>
    </g>
   </g>
   <g id="text_7">
    <g clip-path="url(#p79ec185748)">
     <!-- leHavre_fra -->
     <defs>
      <path d="M 9.8125 72.90625 
L 19.671875 72.90625 
L 19.671875 43.015625 
L 55.515625 43.015625 
L 55.515625 72.90625 
L 65.375 72.90625 
L 65.375 0 
L 55.515625 0 
L 55.515625 34.71875 
L 19.671875 34.71875 
L 19.671875 0 
L 9.8125 0 
z
" id="DejaVuSans-72"/>
      <path d="M 37.109375 75.984375 
L 37.109375 68.5 
L 28.515625 68.5 
Q 23.6875 68.5 21.796875 66.546875 
Q 19.921875 64.59375 19.921875 59.515625 
L 19.921875 54.6875 
L 34.71875 54.6875 
L 34.71875 47.703125 
L 19.921875 47.703125 
L 19.921875 0 
L 10.890625 0 
L 10.890625 47.703125 
L 2.296875 47.703125 
L 2.296875 54.6875 
L 10.890625 54.6875 
L 10.890625 58.5 
Q 10.890625 67.625 15.140625 71.796875 
Q 19.390625 75.984375 28.609375 75.984375 
z
" id="DejaVuSans-102"/>
     </defs>
     <g transform="translate(288.430611 110.391716)scale(0.08 -0.08)">
      <use xlink:href="#DejaVuSans-108"/>
      <use x="27.783203" xlink:href="#DejaVuSans-101"/>
      <use x="89.306641" xlink:href="#DejaVuSans-72"/>
      <use x="164.501953" xlink:href="#DejaVuSans-97"/>
      <use x="225.78125" xlink:href="#DejaVuSans-118"/>
      <use x="284.960938" xlink:href="#DejaVuSans-114"/>
      <use x="326.042969" xlink:href="#DejaVuSans-101"/>
      <use x="387.566406" xlink:href="#DejaVuSans-95"/>
      <use x="437.566406" xlink:href="#DejaVuSans-102"/>
      <use x="472.771484" xlink:href="#DejaVuSans-114"/>
      <use x="513.884766" xlink:href="#DejaVuSans-97"/>
     </g>
    </g>
   </g>
   <g id="text_8">
    <g clip-path="url(#p79ec185748)">
     <!-- montreal_can -->
     <g transform="translate(315.117086 54.896448)scale(0.08 -0.08)">
      <use xlink:href="#DejaVuSans-109"/>
      <use x="97.412109" xlink:href="#DejaVuSans-111"/>
      <use x="158.59375" xlink:href="#DejaVuSans-110"/>
      <use x="221.972656" xlink:href="#DejaVuSans-116"/>
      <use x="261.181641" xlink:href="#DejaVuSans-114"/>
      <use x="302.263672" xlink:href="#DejaVuSans-101"/>
      <use x="363.787109" xlink:href="#DejaVuSans-97"/>
      <use x="425.066406" xlink:href="#DejaVuSans-108"/>
      <use x="452.849609" xlink:href="#DejaVuSans-95"/>
      <use x="502.849609" xlink:href="#DejaVuSans-99"/>
      <use x="557.830078" xlink:href="#DejaVuSans-97"/>
      <use x="619.109375" xlink:href="#DejaVuSans-110"/>
     </g>
    </g>
   </g>
   <g id="text_9">
    <g clip-path="url(#p79ec185748)">
     <!-- yokohama_jpn -->
     <defs>
      <path d="M 9.421875 54.6875 
L 18.40625 54.6875 
L 18.40625 -0.984375 
Q 18.40625 -11.421875 14.421875 -16.109375 
Q 10.453125 -20.796875 1.609375 -20.796875 
L -1.8125 -20.796875 
L -1.8125 -13.1875 
L 0.59375 -13.1875 
Q 5.71875 -13.1875 7.5625 -10.8125 
Q 9.421875 -8.453125 9.421875 -0.984375 
z
M 9.421875 75.984375 
L 18.40625 75.984375 
L 18.40625 64.59375 
L 9.421875 64.59375 
z
" id="DejaVuSans-106"/>
     </defs>
     <g transform="translate(269.87237 223.550284)scale(0.08 -0.08)">
      <use xlink:href="#DejaVuSans-121"/>
      <use x="59.179688" xlink:href="#DejaVuSans-111"/>
      <use x="120.361328" xlink:href="#DejaVuSans-107"/>
      <use x="178.224609" xlink:href="#DejaVuSans-111"/>
      <use x="239.40625" xlink:href="#DejaVuSans-104"/>
      <use x="302.785156" xlink:href="#DejaVuSans-97"/>
      <use x="364.064453" xlink:href="#DejaVuSans-109"/>
      <use x="461.476562" xlink:href="#DejaVuSans-97"/>
      <use x="522.755859" xlink:href="#DejaVuSans-95"/>
      <use x="572.755859" xlink:href="#DejaVuSans-106"/>
      <use x="600.539062" xlink:href="#DejaVuSans-112"/>
      <use x="664.015625" xlink:href="#DejaVuSans-110"/>
     </g>
    </g>
   </g>
   <g id="text_10">
    <g clip-path="url(#p79ec185748)">
     <!-- shanghai_chn -->
     <g transform="translate(182.575614 141.545964)scale(0.08 -0.08)">
      <use xlink:href="#DejaVuSans-115"/>
      <use x="52.099609" xlink:href="#DejaVuSans-104"/>
      <use x="115.478516" xlink:href="#DejaVuSans-97"/>
      <use x="176.757812" xlink:href="#DejaVuSans-110"/>
      <use x="240.136719" xlink:href="#DejaVuSans-103"/>
      <use x="303.613281" xlink:href="#DejaVuSans-104"/>
      <use x="366.992188" xlink:href="#DejaVuSans-97"/>
      <use x="428.271484" xlink:href="#DejaVuSans-105"/>
      <use x="456.054688" xlink:href="#DejaVuSans-95"/>
      <use x="506.054688" xlink:href="#DejaVuSans-99"/>
      <use x="561.035156" xlink:href="#DejaVuSans-104"/>
      <use x="624.414062" xlink:href="#DejaVuSans-110"/>
     </g>
    </g>
   </g>
   <g id="text_11">
    <g clip-path="url(#p79ec185748)">
     <!-- qingdao_chn -->
     <defs>
      <path d="M 14.796875 27.296875 
Q 14.796875 17.390625 18.875 11.75 
Q 22.953125 6.109375 30.078125 6.109375 
Q 37.203125 6.109375 41.296875 11.75 
Q 45.40625 17.390625 45.40625 27.296875 
Q 45.40625 37.203125 41.296875 42.84375 
Q 37.203125 48.484375 30.078125 48.484375 
Q 22.953125 48.484375 18.875 42.84375 
Q 14.796875 37.203125 14.796875 27.296875 
z
M 45.40625 8.203125 
Q 42.578125 3.328125 38.25 0.953125 
Q 33.9375 -1.421875 27.875 -1.421875 
Q 17.96875 -1.421875 11.734375 6.484375 
Q 5.515625 14.40625 5.515625 27.296875 
Q 5.515625 40.1875 11.734375 48.09375 
Q 17.96875 56 27.875 56 
Q 33.9375 56 38.25 53.625 
Q 42.578125 51.265625 45.40625 46.390625 
L 45.40625 54.6875 
L 54.390625 54.6875 
L 54.390625 -20.796875 
L 45.40625 -20.796875 
z
" id="DejaVuSans-113"/>
     </defs>
     <g transform="translate(180.371395 160.215403)scale(0.08 -0.08)">
      <use xlink:href="#DejaVuSans-113"/>
      <use x="63.476562" xlink:href="#DejaVuSans-105"/>
      <use x="91.259766" xlink:href="#DejaVuSans-110"/>
      <use x="154.638672" xlink:href="#DejaVuSans-103"/>
      <use x="218.115234" xlink:href="#DejaVuSans-100"/>
      <use x="281.591797" xlink:href="#DejaVuSans-97"/>
      <use x="342.871094" xlink:href="#DejaVuSans-111"/>
      <use x="404.052734" xlink:href="#DejaVuSans-95"/>
      <use x="454.052734" xlink:href="#DejaVuSans-99"/>
      <use x="509.033203" xlink:href="#DejaVuSans-104"/>
      <use x="572.412109" xlink:href="#DejaVuSans-110"/>
     </g>
    </g>
   </g>
   <g id="text_12">
    <g clip-path="url(#p79ec185748)">
     <!-- pusan_kor -->
     <g transform="translate(253.73899 151.991397)scale(0.08 -0.08)">
      <use xlink:href="#DejaVuSans-112"/>
      <use x="63.476562" xlink:href="#DejaVuSans-117"/>
      <use x="126.855469" xlink:href="#DejaVuSans-115"/>
      <use x="178.955078" xlink:href="#DejaVuSans-97"/>
      <use x="240.234375" xlink:href="#DejaVuSans-110"/>
      <use x="303.613281" xlink:href="#DejaVuSans-95"/>
      <use x="353.613281" xlink:href="#DejaVuSans-107"/>
      <use x="411.476562" xlink:href="#DejaVuSans-111"/>
      <use x="472.658203" xlink:href="#DejaVuSans-114"/>
     </g>
    </g>
   </g>
   <g id="text_13">
    <g clip-path="url(#p79ec185748)">
     <!-- princeRupert_can -->
     <defs>
      <path d="M 44.390625 34.1875 
Q 47.5625 33.109375 50.5625 29.59375 
Q 53.5625 26.078125 56.59375 19.921875 
L 66.609375 0 
L 56 0 
L 46.6875 18.703125 
Q 43.0625 26.03125 39.671875 28.421875 
Q 36.28125 30.8125 30.421875 30.8125 
L 19.671875 30.8125 
L 19.671875 0 
L 9.8125 0 
L 9.8125 72.90625 
L 32.078125 72.90625 
Q 44.578125 72.90625 50.734375 67.671875 
Q 56.890625 62.453125 56.890625 51.90625 
Q 56.890625 45.015625 53.6875 40.46875 
Q 50.484375 35.9375 44.390625 34.1875 
z
M 19.671875 64.796875 
L 19.671875 38.921875 
L 32.078125 38.921875 
Q 39.203125 38.921875 42.84375 42.21875 
Q 46.484375 45.515625 46.484375 51.90625 
Q 46.484375 58.296875 42.84375 61.546875 
Q 39.203125 64.796875 32.078125 64.796875 
z
" id="DejaVuSans-82"/>
     </defs>
     <g transform="translate(66.302953 151.833605)scale(0.08 -0.08)">
      <use xlink:href="#DejaVuSans-112"/>
      <use x="63.476562" xlink:href="#DejaVuSans-114"/>
      <use x="104.589844" xlink:href="#DejaVuSans-105"/>
      <use x="132.373047" xlink:href="#DejaVuSans-110"/>
      <use x="195.751953" xlink:href="#DejaVuSans-99"/>
      <use x="250.732422" xlink:href="#DejaVuSans-101"/>
      <use x="312.255859" xlink:href="#DejaVuSans-82"/>
      <use x="381.675781" xlink:href="#DejaVuSans-117"/>
      <use x="445.054688" xlink:href="#DejaVuSans-112"/>
      <use x="508.53125" xlink:href="#DejaVuSans-101"/>
      <use x="570.054688" xlink:href="#DejaVuSans-114"/>
      <use x="611.167969" xlink:href="#DejaVuSans-116"/>
      <use x="650.376953" xlink:href="#DejaVuSans-95"/>
      <use x="700.376953" xlink:href="#DejaVuSans-99"/>
      <use x="755.357422" xlink:href="#DejaVuSans-97"/>
      <use x="816.636719" xlink:href="#DejaVuSans-110"/>
     </g>
    </g>
   </g>
   <g id="text_14">
    <g clip-path="url(#p79ec185748)">
     <!-- losAngeles_usa -->
     <defs>
      <path d="M 34.1875 63.1875 
L 20.796875 26.90625 
L 47.609375 26.90625 
z
M 28.609375 72.90625 
L 39.796875 72.90625 
L 67.578125 0 
L 57.328125 0 
L 50.6875 18.703125 
L 17.828125 18.703125 
L 11.1875 0 
L 0.78125 0 
z
" id="DejaVuSans-65"/>
     </defs>
     <g transform="translate(50.272814 170.222342)scale(0.08 -0.08)">
      <use xlink:href="#DejaVuSans-108"/>
      <use x="27.783203" xlink:href="#DejaVuSans-111"/>
      <use x="88.964844" xlink:href="#DejaVuSans-115"/>
      <use x="141.064453" xlink:href="#DejaVuSans-65"/>
      <use x="209.472656" xlink:href="#DejaVuSans-110"/>
      <use x="272.851562" xlink:href="#DejaVuSans-103"/>
      <use x="336.328125" xlink:href="#DejaVuSans-101"/>
      <use x="397.851562" xlink:href="#DejaVuSans-108"/>
      <use x="425.634766" xlink:href="#DejaVuSans-101"/>
      <use x="487.158203" xlink:href="#DejaVuSans-115"/>
      <use x="539.257812" xlink:href="#DejaVuSans-95"/>
      <use x="589.257812" xlink:href="#DejaVuSans-117"/>
      <use x="652.636719" xlink:href="#DejaVuSans-115"/>
      <use x="704.736328" xlink:href="#DejaVuSans-97"/>
     </g>
    </g>
   </g>
   <g id="text_15">
    <g clip-path="url(#p79ec185748)">
     <!-- oakland_usa -->
     <g transform="translate(78.297264 125.602344)scale(0.08 -0.08)">
      <use xlink:href="#DejaVuSans-111"/>
      <use x="61.181641" xlink:href="#DejaVuSans-97"/>
      <use x="122.460938" xlink:href="#DejaVuSans-107"/>
      <use x="180.371094" xlink:href="#DejaVuSans-108"/>
      <use x="208.154297" xlink:href="#DejaVuSans-97"/>
      <use x="269.433594" xlink:href="#DejaVuSans-110"/>
      <use x="332.8125" xlink:href="#DejaVuSans-100"/>
      <use x="396.289062" xlink:href="#DejaVuSans-95"/>
      <use x="446.289062" xlink:href="#DejaVuSans-117"/>
      <use x="509.667969" xlink:href="#DejaVuSans-115"/>
      <use x="561.767578" xlink:href="#DejaVuSans-97"/>
     </g>
    </g>
   </g>
   <g id="text_16">
    <g clip-path="url(#p79ec185748)">
     <!-- seattle_usa -->
     <g transform="translate(126.148909 194.76812)scale(0.08 -0.08)">
      <use xlink:href="#DejaVuSans-115"/>
      <use x="52.099609" xlink:href="#DejaVuSans-101"/>
      <use x="113.623047" xlink:href="#DejaVuSans-97"/>
      <use x="174.902344" xlink:href="#DejaVuSans-116"/>
      <use x="214.111328" xlink:href="#DejaVuSans-116"/>
      <use x="253.320312" xlink:href="#DejaVuSans-108"/>
      <use x="281.103516" xlink:href="#DejaVuSans-101"/>
      <use x="342.626953" xlink:href="#DejaVuSans-95"/>
      <use x="392.626953" xlink:href="#DejaVuSans-117"/>
      <use x="456.005859" xlink:href="#DejaVuSans-115"/>
      <use x="508.105469" xlink:href="#DejaVuSans-97"/>
     </g>
    </g>
   </g>
   <g id="text_17">
    <g clip-path="url(#p79ec185748)">
     <!-- vancouver_can -->
     <g transform="translate(156.385955 214.443667)scale(0.08 -0.08)">
      <use xlink:href="#DejaVuSans-118"/>
      <use x="59.179688" xlink:href="#DejaVuSans-97"/>
      <use x="120.458984" xlink:href="#DejaVuSans-110"/>
      <use x="183.837891" xlink:href="#DejaVuSans-99"/>
      <use x="238.818359" xlink:href="#DejaVuSans-111"/>
      <use x="300" xlink:href="#DejaVuSans-117"/>
      <use x="363.378906" xlink:href="#DejaVuSans-118"/>
      <use x="422.558594" xlink:href="#DejaVuSans-101"/>
      <use x="484.082031" xlink:href="#DejaVuSans-114"/>
      <use x="525.195312" xlink:href="#DejaVuSans-95"/>
      <use x="575.195312" xlink:href="#DejaVuSans-99"/>
      <use x="630.175781" xlink:href="#DejaVuSans-97"/>
      <use x="691.455078" xlink:href="#DejaVuSans-110"/>
     </g>
    </g>
   </g>
   <g id="text_18">
    <g clip-path="url(#p79ec185748)">
     <!-- durban_sau -->
     <g transform="translate(201.533814 184.074029)scale(0.08 -0.08)">
      <use xlink:href="#DejaVuSans-100"/>
      <use x="63.476562" xlink:href="#DejaVuSans-117"/>
      <use x="126.855469" xlink:href="#DejaVuSans-114"/>
      <use x="167.96875" xlink:href="#DejaVuSans-98"/>
      <use x="231.445312" xlink:href="#DejaVuSans-97"/>
      <use x="292.724609" xlink:href="#DejaVuSans-110"/>
      <use x="356.103516" xlink:href="#DejaVuSans-95"/>
      <use x="406.103516" xlink:href="#DejaVuSans-115"/>
      <use x="458.203125" xlink:href="#DejaVuSans-97"/>
      <use x="519.482422" xlink:href="#DejaVuSans-117"/>
     </g>
    </g>
   </g>
   <g id="text_19">
    <g clip-path="url(#p79ec185748)">
     <!-- itagual_bra -->
     <g transform="translate(196.00463 236.694101)scale(0.08 -0.08)">
      <use xlink:href="#DejaVuSans-105"/>
      <use x="27.783203" xlink:href="#DejaVuSans-116"/>
      <use x="66.992188" xlink:href="#DejaVuSans-97"/>
      <use x="128.271484" xlink:href="#DejaVuSans-103"/>
      <use x="191.748047" xlink:href="#DejaVuSans-117"/>
      <use x="255.126953" xlink:href="#DejaVuSans-97"/>
      <use x="316.40625" xlink:href="#DejaVuSans-108"/>
      <use x="344.189453" xlink:href="#DejaVuSans-95"/>
      <use x="394.189453" xlink:href="#DejaVuSans-98"/>
      <use x="457.666016" xlink:href="#DejaVuSans-114"/>
      <use x="498.779297" xlink:href="#DejaVuSans-97"/>
     </g>
    </g>
   </g>
   <g id="text_20">
    <g clip-path="url(#p79ec185748)">
     <!-- santos_bra -->
     <g transform="translate(171.605488 252.809471)scale(0.08 -0.08)">
      <use xlink:href="#DejaVuSans-115"/>
      <use x="52.099609" xlink:href="#DejaVuSans-97"/>
      <use x="113.378906" xlink:href="#DejaVuSans-110"/>
      <use x="176.757812" xlink:href="#DejaVuSans-116"/>
      <use x="215.966797" xlink:href="#DejaVuSans-111"/>
      <use x="277.148438" xlink:href="#DejaVuSans-115"/>
      <use x="329.248047" xlink:href="#DejaVuSans-95"/>
      <use x="379.248047" xlink:href="#DejaVuSans-98"/>
      <use x="442.724609" xlink:href="#DejaVuSans-114"/>
      <use x="483.837891" xlink:href="#DejaVuSans-97"/>
     </g>
    </g>
   </g>
   <g id="text_21">
    <g clip-path="url(#p79ec185748)">
     <!-- manzanillo_mex -->
     <defs>
      <path d="M 5.515625 54.6875 
L 48.1875 54.6875 
L 48.1875 46.484375 
L 14.40625 7.171875 
L 48.1875 7.171875 
L 48.1875 0 
L 4.296875 0 
L 4.296875 8.203125 
L 38.09375 47.515625 
L 5.515625 47.515625 
z
" id="DejaVuSans-122"/>
      <path d="M 54.890625 54.6875 
L 35.109375 28.078125 
L 55.90625 0 
L 45.3125 0 
L 29.390625 21.484375 
L 13.484375 0 
L 2.875 0 
L 24.125 28.609375 
L 4.6875 54.6875 
L 15.28125 54.6875 
L 29.78125 35.203125 
L 44.28125 54.6875 
z
" id="DejaVuSans-120"/>
     </defs>
     <g transform="translate(311.758707 191.353768)scale(0.08 -0.08)">
      <use xlink:href="#DejaVuSans-109"/>
      <use x="97.412109" xlink:href="#DejaVuSans-97"/>
      <use x="158.691406" xlink:href="#DejaVuSans-110"/>
      <use x="222.070312" xlink:href="#DejaVuSans-122"/>
      <use x="274.560547" xlink:href="#DejaVuSans-97"/>
      <use x="335.839844" xlink:href="#DejaVuSans-110"/>
      <use x="399.21875" xlink:href="#DejaVuSans-105"/>
      <use x="427.001953" xlink:href="#DejaVuSans-108"/>
      <use x="454.785156" xlink:href="#DejaVuSans-108"/>
      <use x="482.568359" xlink:href="#DejaVuSans-111"/>
      <use x="543.75" xlink:href="#DejaVuSans-95"/>
      <use x="593.75" xlink:href="#DejaVuSans-109"/>
      <use x="691.162109" xlink:href="#DejaVuSans-101"/>
      <use x="752.669922" xlink:href="#DejaVuSans-120"/>
     </g>
    </g>
   </g>
   <g id="text_22">
    <g clip-path="url(#p79ec185748)">
     <!-- sanAntonio_par -->
     <g transform="translate(285.358694 163.580827)scale(0.08 -0.08)">
      <use xlink:href="#DejaVuSans-115"/>
      <use x="52.099609" xlink:href="#DejaVuSans-97"/>
      <use x="113.378906" xlink:href="#DejaVuSans-110"/>
      <use x="176.757812" xlink:href="#DejaVuSans-65"/>
      <use x="245.166016" xlink:href="#DejaVuSans-110"/>
      <use x="308.544922" xlink:href="#DejaVuSans-116"/>
      <use x="347.753906" xlink:href="#DejaVuSans-111"/>
      <use x="408.935547" xlink:href="#DejaVuSans-110"/>
      <use x="472.314453" xlink:href="#DejaVuSans-105"/>
      <use x="500.097656" xlink:href="#DejaVuSans-111"/>
      <use x="561.279297" xlink:href="#DejaVuSans-95"/>
      <use x="611.279297" xlink:href="#DejaVuSans-112"/>
      <use x="674.755859" xlink:href="#DejaVuSans-97"/>
      <use x="736.035156" xlink:href="#DejaVuSans-114"/>
     </g>
    </g>
   </g>
  </g>
 </g>
 <defs>
  <clipPath id="p79ec185748">
   <rect height="266.112" width="357.12" x="57.6" y="41.472"/>
  </clipPath>
 </defs>
</svg>
