<?xml version="1.0" encoding="utf-8" standalone="no"?>
<!DOCTYPE svg PUBLIC "-//W3C//DTD SVG 1.1//EN"
  "http://www.w3.org/Graphics/SVG/1.1/DTD/svg11.dtd">
<!-- Created with matplotlib (https://matplotlib.org/) -->
<svg height="345.6pt" version="1.1" viewBox="0 0 460.8 345.6" width="460.8pt" xmlns="http://www.w3.org/2000/svg" xmlns:xlink="http://www.w3.org/1999/xlink">
 <defs>
  <style type="text/css">
*{stroke-linecap:butt;stroke-linejoin:round;}
  </style>
 </defs>
 <g id="figure_1">
  <g id="patch_1">
   <path d="M 0 345.6 
L 460.8 345.6 
L 460.8 0 
L 0 0 
z
" style="fill:#ffffff;"/>
  </g>
  <g id="axes_1">
   <g id="patch_2">
    <path clip-path="url(#pbee26f7bff)" d="M 205.972878 177.084475 
Q 147.371557 173.821884 92.119152 170.745742 
" style="fill:none;stroke:#feedb0;stroke-linecap:round;stroke-opacity:0.5;stroke-width:3;"/>
    <path clip-path="url(#pbee26f7bff)" d="M 96.00179 172.965003 
L 92.119152 170.745742 
L 96.224143 168.971188 
L 96.00179 172.965003 
z
" style="fill:#feedb0;fill-opacity:0.5;stroke:#feedb0;stroke-linecap:round;stroke-opacity:0.5;stroke-width:3;"/>
   </g>
   <g id="patch_3">
    <path clip-path="url(#pbee26f7bff)" d="M 80.125115 170.077982 
Q 80.478116 180.041032 80.712352 186.652083 
" style="fill:none;stroke:#feedb0;stroke-linecap:round;stroke-opacity:0.5;stroke-width:3;"/>
    <path clip-path="url(#pbee26f7bff)" d="M 82.569463 182.583774 
L 80.712352 186.652083 
L 78.571971 182.725409 
L 82.569463 182.583774 
z
" style="fill:#feedb0;fill-opacity:0.5;stroke:#feedb0;stroke-linecap:round;stroke-opacity:0.5;stroke-width:3;"/>
   </g>
   <g id="patch_4">
    <path clip-path="url(#pbee26f7bff)" d="M 81.137822 198.660473 
Q 139.286622 188.610264 194.130322 179.131296 
" style="fill:none;stroke:#feedb0;stroke-linecap:round;stroke-opacity:0.5;stroke-width:3;"/>
    <path clip-path="url(#pbee26f7bff)" d="M 189.848139 177.841759 
L 194.130322 179.131296 
L 190.529383 181.78332 
L 189.848139 177.841759 
z
" style="fill:#feedb0;fill-opacity:0.5;stroke:#feedb0;stroke-linecap:round;stroke-opacity:0.5;stroke-width:3;"/>
   </g>
   <g id="patch_5">
    <path clip-path="url(#pbee26f7bff)" d="M 169.032911 180.507781 
Q 128.880872 175.797534 92.060091 171.478078 
" style="fill:none;stroke:#fbd094;stroke-linecap:round;stroke-opacity:0.5;stroke-width:3;"/>
    <path clip-path="url(#pbee26f7bff)" d="M 95.799826 173.930502 
L 92.060091 171.478078 
L 96.265872 169.957744 
L 95.799826 173.930502 
z
" style="fill:#fbd094;fill-opacity:0.5;stroke:#fbd094;stroke-linecap:round;stroke-opacity:0.5;stroke-width:3;"/>
   </g>
   <g id="patch_6">
    <path clip-path="url(#pbee26f7bff)" d="M 80.125115 170.077982 
Q 80.478116 180.041032 80.712352 186.652083 
" style="fill:none;stroke:#fbd094;stroke-linecap:round;stroke-opacity:0.5;stroke-width:3;"/>
    <path clip-path="url(#pbee26f7bff)" d="M 82.569463 182.583774 
L 80.712352 186.652083 
L 78.571971 182.725409 
L 82.569463 182.583774 
z
" style="fill:#fbd094;fill-opacity:0.5;stroke:#fbd094;stroke-linecap:round;stroke-opacity:0.5;stroke-width:3;"/>
   </g>
   <g id="patch_7">
    <path clip-path="url(#pbee26f7bff)" d="M 81.137822 198.660473 
Q 120.84592 190.459686 157.269238 182.937295 
" style="fill:none;stroke:#fbd094;stroke-linecap:round;stroke-opacity:0.5;stroke-width:3;"/>
    <path clip-path="url(#pbee26f7bff)" d="M 152.947392 181.787664 
L 157.269238 182.937295 
L 153.756426 185.704993 
L 152.947392 181.787664 
z
" style="fill:#fbd094;fill-opacity:0.5;stroke:#fbd094;stroke-linecap:round;stroke-opacity:0.5;stroke-width:3;"/>
   </g>
   <g id="patch_8">
    <path clip-path="url(#pbee26f7bff)" d="M 128.648247 74.216858 
Q 157.718796 82.657152 183.568259 90.162243 
" style="fill:none;stroke:#f7b37c;stroke-linecap:round;stroke-opacity:0.5;stroke-width:3;"/>
    <path clip-path="url(#pbee26f7bff)" d="M 180.284538 87.126262 
L 183.568259 90.162243 
L 179.169242 90.96763 
L 180.284538 87.126262 
z
" style="fill:#f7b37c;fill-opacity:0.5;stroke:#f7b37c;stroke-linecap:round;stroke-opacity:0.5;stroke-width:3;"/>
   </g>
   <g id="patch_9">
    <path clip-path="url(#pbee26f7bff)" d="M 195.109123 93.512998 
Q 192.706826 103.601788 191.08147 110.427702 
" style="fill:none;stroke:#f7b37c;stroke-linecap:round;stroke-opacity:0.5;stroke-width:3;"/>
    <path clip-path="url(#pbee26f7bff)" d="M 193.95363 106.999774 
L 191.08147 110.427702 
L 190.062423 106.073217 
L 193.95363 106.999774 
z
" style="fill:#f7b37c;fill-opacity:0.5;stroke:#f7b37c;stroke-linecap:round;stroke-opacity:0.5;stroke-width:3;"/>
   </g>
   <g id="patch_10">
    <path clip-path="url(#pbee26f7bff)" d="M 188.298388 122.115653 
Q 161.850118 100.877811 138.017137 81.740034 
" style="fill:none;stroke:#f7b37c;stroke-linecap:round;stroke-opacity:0.5;stroke-width:3;"/>
    <path clip-path="url(#pbee26f7bff)" d="M 139.883813 85.803963 
L 138.017137 81.740034 
L 142.388286 82.68505 
L 139.883813 85.803963 
z
" style="fill:#f7b37c;fill-opacity:0.5;stroke:#f7b37c;stroke-linecap:round;stroke-opacity:0.5;stroke-width:3;"/>
   </g>
   <g id="patch_11">
    <path clip-path="url(#pbee26f7bff)" d="M 186.718794 57.41106 
Q 189.933277 71.242351 192.388481 81.80661 
" style="fill:none;stroke:#f29567;stroke-linecap:round;stroke-opacity:0.5;stroke-width:3;"/>
    <path clip-path="url(#pbee26f7bff)" d="M 193.431068 77.4577 
L 192.388481 81.80661 
L 189.534906 78.363194 
L 193.431068 77.4577 
z
" style="fill:#f29567;fill-opacity:0.5;stroke:#f29567;stroke-linecap:round;stroke-opacity:0.5;stroke-width:3;"/>
   </g>
   <g id="patch_12">
    <path clip-path="url(#pbee26f7bff)" d="M 195.109123 93.512998 
Q 192.706826 103.601788 191.08147 110.427702 
" style="fill:none;stroke:#f29567;stroke-linecap:round;stroke-opacity:0.5;stroke-width:3;"/>
    <path clip-path="url(#pbee26f7bff)" d="M 193.95363 106.999774 
L 191.08147 110.427702 
L 190.062423 106.073217 
L 193.95363 106.999774 
z
" style="fill:#f29567;fill-opacity:0.5;stroke:#f29567;stroke-linecap:round;stroke-opacity:0.5;stroke-width:3;"/>
   </g>
   <g id="patch_13">
    <path clip-path="url(#pbee26f7bff)" d="M 188.298388 122.115653 
Q 187.614305 94.093715 187.01208 69.424879 
" style="fill:none;stroke:#f29567;stroke-linecap:round;stroke-opacity:0.5;stroke-width:3;"/>
    <path clip-path="url(#pbee26f7bff)" d="M 185.110296 73.472498 
L 187.01208 69.424879 
L 189.109105 73.374878 
L 185.110296 73.472498 
z
" style="fill:#f29567;fill-opacity:0.5;stroke:#f29567;stroke-linecap:round;stroke-opacity:0.5;stroke-width:3;"/>
   </g>
   <g id="patch_14">
    <path clip-path="url(#pbee26f7bff)" d="M 169.032911 180.507781 
Q 183.189775 179.195834 194.006847 178.193393 
" style="fill:none;stroke:#eb7858;stroke-linecap:round;stroke-opacity:0.5;stroke-width:3;"/>
    <path clip-path="url(#pbee26f7bff)" d="M 189.83936 176.571033 
L 194.006847 178.193393 
L 190.208467 180.553967 
L 189.83936 176.571033 
z
" style="fill:#eb7858;fill-opacity:0.5;stroke:#eb7858;stroke-linecap:round;stroke-opacity:0.5;stroke-width:3;"/>
   </g>
   <g id="patch_15">
    <path clip-path="url(#pbee26f7bff)" d="M 205.972878 177.084475 
Q 209.114595 209.956768 211.937203 239.490172 
" style="fill:none;stroke:#eb7858;stroke-linecap:round;stroke-opacity:0.5;stroke-width:3;"/>
    <path clip-path="url(#pbee26f7bff)" d="M 213.547572 235.318037 
L 211.937203 239.490172 
L 209.565716 235.698597 
L 213.547572 235.318037 
z
" style="fill:#eb7858;fill-opacity:0.5;stroke:#eb7858;stroke-linecap:round;stroke-opacity:0.5;stroke-width:3;"/>
   </g>
   <g id="patch_16">
    <path clip-path="url(#pbee26f7bff)" d="M 213.080078 251.44825 
Q 193.340984 219.657316 175.371159 190.715889 
" style="fill:none;stroke:#eb7858;stroke-linecap:round;stroke-opacity:0.5;stroke-width:3;"/>
    <path clip-path="url(#pbee26f7bff)" d="M 175.782017 195.169112 
L 175.371159 190.715889 
L 179.180252 193.059137 
L 175.782017 195.169112 
z
" style="fill:#eb7858;fill-opacity:0.5;stroke:#eb7858;stroke-linecap:round;stroke-opacity:0.5;stroke-width:3;"/>
   </g>
   <g id="patch_17">
    <path clip-path="url(#pbee26f7bff)" d="M 318.569586 196.09591 
Q 266.540684 187.31107 217.819072 179.08465 
" style="fill:none;stroke:#e05d53;stroke-linecap:round;stroke-opacity:0.5;stroke-width:3;"/>
    <path clip-path="url(#pbee26f7bff)" d="M 221.430268 181.722693 
L 217.819072 179.08465 
L 222.096223 177.778519 
L 221.430268 181.722693 
z
" style="fill:#e05d53;fill-opacity:0.5;stroke:#e05d53;stroke-linecap:round;stroke-opacity:0.5;stroke-width:3;"/>
   </g>
   <g id="patch_18">
    <path clip-path="url(#pbee26f7bff)" d="M 205.972878 177.084475 
Q 191.816015 178.396422 180.998943 179.398863 
" style="fill:none;stroke:#e05d53;stroke-linecap:round;stroke-opacity:0.5;stroke-width:3;"/>
    <path clip-path="url(#pbee26f7bff)" d="M 185.16643 181.021223 
L 180.998943 179.398863 
L 184.797323 177.038289 
L 185.16643 181.021223 
z
" style="fill:#e05d53;fill-opacity:0.5;stroke:#e05d53;stroke-linecap:round;stroke-opacity:0.5;stroke-width:3;"/>
   </g>
   <g id="patch_19">
    <path clip-path="url(#pbee26f7bff)" d="M 169.032911 180.507781 
Q 177.309282 155.422759 184.534746 133.522953 
" style="fill:none;stroke:#e05d53;stroke-linecap:round;stroke-opacity:0.5;stroke-width:3;"/>
    <path clip-path="url(#pbee26f7bff)" d="M 181.382171 136.694904 
L 184.534746 133.522953 
L 185.180762 137.948183 
L 181.382171 136.694904 
z
" style="fill:#e05d53;fill-opacity:0.5;stroke:#e05d53;stroke-linecap:round;stroke-opacity:0.5;stroke-width:3;"/>
   </g>
   <g id="patch_20">
    <path clip-path="url(#pbee26f7bff)" d="M 188.298388 122.115653 
Q 190.700685 112.026862 192.326041 105.200948 
" style="fill:none;stroke:#e05d53;stroke-linecap:round;stroke-opacity:0.5;stroke-width:3;"/>
    <path clip-path="url(#pbee26f7bff)" d="M 189.453881 108.628877 
L 192.326041 105.200948 
L 193.345088 109.555434 
L 189.453881 108.628877 
z
" style="fill:#e05d53;fill-opacity:0.5;stroke:#e05d53;stroke-linecap:round;stroke-opacity:0.5;stroke-width:3;"/>
   </g>
   <g id="patch_21">
    <path clip-path="url(#pbee26f7bff)" d="M 195.109123 93.512998 
Q 183.314428 132.862155 172.482774 168.998439 
" style="fill:none;stroke:#e05d53;stroke-linecap:round;stroke-opacity:0.5;stroke-width:3;"/>
    <path clip-path="url(#pbee26f7bff)" d="M 175.547055 165.741111 
L 172.482774 168.998439 
L 171.71548 164.592618 
L 175.547055 165.741111 
z
" style="fill:#e05d53;fill-opacity:0.5;stroke:#e05d53;stroke-linecap:round;stroke-opacity:0.5;stroke-width:3;"/>
   </g>
   <g id="patch_22">
    <path clip-path="url(#pbee26f7bff)" d="M 169.032911 180.507781 
Q 221.374605 192.184126 270.442664 203.130191 
" style="fill:none;stroke:#e05d53;stroke-linecap:round;stroke-opacity:0.5;stroke-width:3;"/>
    <path clip-path="url(#pbee26f7bff)" d="M 266.97408 200.307261 
L 270.442664 203.130191 
L 266.10317 204.2113 
L 266.97408 200.307261 
z
" style="fill:#e05d53;fill-opacity:0.5;stroke:#e05d53;stroke-linecap:round;stroke-opacity:0.5;stroke-width:3;"/>
   </g>
   <g id="patch_23">
    <path clip-path="url(#pbee26f7bff)" d="M 282.172041 205.746771 
Q 268.660429 192.587832 257.551678 181.769035 
" style="fill:none;stroke:#e05d53;stroke-linecap:round;stroke-opacity:0.5;stroke-width:3;"/>
    <path clip-path="url(#pbee26f7bff)" d="M 259.021865 185.992606 
L 257.551678 181.769035 
L 261.812647 183.127028 
L 259.021865 185.992606 
z
" style="fill:#e05d53;fill-opacity:0.5;stroke:#e05d53;stroke-linecap:round;stroke-opacity:0.5;stroke-width:3;"/>
   </g>
   <g id="patch_24">
    <path clip-path="url(#pbee26f7bff)" d="M 248.945138 173.387138 
Q 279.641683 183.39915 307.149454 192.371109 
" style="fill:none;stroke:#e05d53;stroke-linecap:round;stroke-opacity:0.5;stroke-width:3;"/>
    <path clip-path="url(#pbee26f7bff)" d="M 303.966785 189.229354 
L 307.149454 192.371109 
L 302.726449 193.032191 
L 303.966785 189.229354 
z
" style="fill:#e05d53;fill-opacity:0.5;stroke:#e05d53;stroke-linecap:round;stroke-opacity:0.5;stroke-width:3;"/>
   </g>
   <g id="patch_25">
    <path clip-path="url(#pbee26f7bff)" d="M 282.172041 205.746771 
Q 296.183229 202.031684 306.952348 199.176237 
" style="fill:none;stroke:#ce4356;stroke-linecap:round;stroke-opacity:0.5;stroke-width:3;"/>
    <path clip-path="url(#pbee26f7bff)" d="M 302.573364 198.26822 
L 306.952348 199.176237 
L 303.598544 202.134614 
L 302.573364 198.26822 
z
" style="fill:#ce4356;fill-opacity:0.5;stroke:#ce4356;stroke-linecap:round;stroke-opacity:0.5;stroke-width:3;"/>
   </g>
   <g id="patch_26">
    <path clip-path="url(#pbee26f7bff)" d="M 318.569586 196.09591 
Q 337.698679 236.867307 355.403109 274.602203 
" style="fill:none;stroke:#ce4356;stroke-linecap:round;stroke-opacity:0.5;stroke-width:3;"/>
    <path clip-path="url(#pbee26f7bff)" d="M 355.514718 270.13146 
L 355.403109 274.602203 
L 351.89348 271.83047 
L 355.514718 270.13146 
z
" style="fill:#ce4356;fill-opacity:0.5;stroke:#ce4356;stroke-linecap:round;stroke-opacity:0.5;stroke-width:3;"/>
   </g>
   <g id="patch_27">
    <path clip-path="url(#pbee26f7bff)" d="M 360.507305 285.481193 
Q 371.997194 280.224007 380.43708 276.362345 
" style="fill:none;stroke:#ce4356;stroke-linecap:round;stroke-opacity:0.5;stroke-width:3;"/>
    <path clip-path="url(#pbee26f7bff)" d="M 375.967611 276.207937 
L 380.43708 276.362345 
L 377.631872 279.845276 
L 375.967611 276.207937 
z
" style="fill:#ce4356;fill-opacity:0.5;stroke:#ce4356;stroke-linecap:round;stroke-opacity:0.5;stroke-width:3;"/>
   </g>
   <g id="patch_28">
    <path clip-path="url(#pbee26f7bff)" d="M 391.362957 271.363222 
Q 361.280478 279.309585 334.440871 286.399335 
" style="fill:none;stroke:#ce4356;stroke-linecap:round;stroke-opacity:0.5;stroke-width:3;"/>
    <path clip-path="url(#pbee26f7bff)" d="M 338.819006 287.311439 
L 334.440871 286.399335 
L 337.797436 283.44409 
L 338.819006 287.311439 
z
" style="fill:#ce4356;fill-opacity:0.5;stroke:#ce4356;stroke-linecap:round;stroke-opacity:0.5;stroke-width:3;"/>
   </g>
   <g id="patch_29">
    <path clip-path="url(#pbee26f7bff)" d="M 322.827696 289.466984 
Q 304.391334 251.501881 287.420146 216.553939 
" style="fill:none;stroke:#ce4356;stroke-linecap:round;stroke-opacity:0.5;stroke-width:3;"/>
    <path clip-path="url(#pbee26f7bff)" d="M 287.36838 221.025775 
L 287.420146 216.553939 
L 290.966556 219.278453 
L 287.36838 221.025775 
z
" style="fill:#ce4356;fill-opacity:0.5;stroke:#ce4356;stroke-linecap:round;stroke-opacity:0.5;stroke-width:3;"/>
   </g>
   <g id="patch_30">
    <path clip-path="url(#pbee26f7bff)" d="M 318.569586 196.09591 
Q 351.955059 230.616015 383.008778 262.725119 
" style="fill:none;stroke:#b8315d;stroke-linecap:round;stroke-opacity:0.5;stroke-width:3;"/>
    <path clip-path="url(#pbee26f7bff)" d="M 381.665642 258.459444 
L 383.008778 262.725119 
L 378.790356 261.240223 
L 381.665642 258.459444 
z
" style="fill:#b8315d;fill-opacity:0.5;stroke:#b8315d;stroke-linecap:round;stroke-opacity:0.5;stroke-width:3;"/>
   </g>
   <g id="patch_31">
    <path clip-path="url(#pbee26f7bff)" d="M 391.362957 271.363222 
Q 352.426252 260.768067 316.725968 251.053581 
" style="fill:none;stroke:#b8315d;stroke-linecap:round;stroke-opacity:0.5;stroke-width:3;"/>
    <path clip-path="url(#pbee26f7bff)" d="M 320.060496 254.03367 
L 316.725968 251.053581 
L 321.110756 250.174013 
L 320.060496 254.03367 
z
" style="fill:#b8315d;fill-opacity:0.5;stroke:#b8315d;stroke-linecap:round;stroke-opacity:0.5;stroke-width:3;"/>
   </g>
   <g id="patch_32">
    <path clip-path="url(#pbee26f7bff)" d="M 305.134596 247.899427 
Q 295.724069 230.624402 287.918055 216.294803 
" style="fill:none;stroke:#b8315d;stroke-linecap:round;stroke-opacity:0.5;stroke-width:3;"/>
    <path clip-path="url(#pbee26f7bff)" d="M 288.075237 220.764176 
L 287.918055 216.294803 
L 291.587862 218.850682 
L 288.075237 220.764176 
z
" style="fill:#b8315d;fill-opacity:0.5;stroke:#b8315d;stroke-linecap:round;stroke-opacity:0.5;stroke-width:3;"/>
   </g>
   <g id="patch_33">
    <path clip-path="url(#pbee26f7bff)" d="M 282.172041 205.746771 
Q 296.183229 202.031684 306.952348 199.176237 
" style="fill:none;stroke:#b8315d;stroke-linecap:round;stroke-opacity:0.5;stroke-width:3;"/>
    <path clip-path="url(#pbee26f7bff)" d="M 302.573364 198.26822 
L 306.952348 199.176237 
L 303.598544 202.134614 
L 302.573364 198.26822 
z
" style="fill:#b8315d;fill-opacity:0.5;stroke:#b8315d;stroke-linecap:round;stroke-opacity:0.5;stroke-width:3;"/>
   </g>
   <g id="patch_34">
    <path clip-path="url(#pbee26f7bff)" d="M 205.972878 177.084475 
Q 225.601178 205.518598 243.324023 231.192424 
" style="fill:none;stroke:#9f2462;stroke-linecap:round;stroke-opacity:0.5;stroke-width:3;"/>
    <path clip-path="url(#pbee26f7bff)" d="M 242.697558 226.764384 
L 243.324023 231.192424 
L 239.405712 229.036771 
L 242.697558 226.764384 
z
" style="fill:#9f2462;fill-opacity:0.5;stroke:#9f2462;stroke-linecap:round;stroke-opacity:0.5;stroke-width:3;"/>
   </g>
   <g id="patch_35">
    <path clip-path="url(#pbee26f7bff)" d="M 250.150371 241.081271 
Q 273.345163 243.957472 293.211347 246.420919 
" style="fill:none;stroke:#9f2462;stroke-linecap:round;stroke-opacity:0.5;stroke-width:3;"/>
    <path clip-path="url(#pbee26f7bff)" d="M 289.487869 243.943883 
L 293.211347 246.420919 
L 288.99563 247.91348 
L 289.487869 243.943883 
z
" style="fill:#9f2462;fill-opacity:0.5;stroke:#9f2462;stroke-linecap:round;stroke-opacity:0.5;stroke-width:3;"/>
   </g>
   <g id="patch_36">
    <path clip-path="url(#pbee26f7bff)" d="M 305.134596 247.899427 
Q 279.647169 214.1008 256.179217 182.98018 
" style="fill:none;stroke:#9f2462;stroke-linecap:round;stroke-opacity:0.5;stroke-width:3;"/>
    <path clip-path="url(#pbee26f7bff)" d="M 256.990728 187.378071 
L 256.179217 182.98018 
L 260.184437 184.969706 
L 256.990728 187.378071 
z
" style="fill:#9f2462;fill-opacity:0.5;stroke:#9f2462;stroke-linecap:round;stroke-opacity:0.5;stroke-width:3;"/>
   </g>
   <g id="patch_37">
    <path clip-path="url(#pbee26f7bff)" d="M 248.945138 173.387138 
Q 231.772233 174.864696 217.941084 176.05473 
" style="fill:none;stroke:#9f2462;stroke-linecap:round;stroke-opacity:0.5;stroke-width:3;"/>
    <path clip-path="url(#pbee26f7bff)" d="M 222.097807 177.704474 
L 217.941084 176.05473 
L 221.754913 173.719198 
L 222.097807 177.704474 
z
" style="fill:#9f2462;fill-opacity:0.5;stroke:#9f2462;stroke-linecap:round;stroke-opacity:0.5;stroke-width:3;"/>
   </g>
   <g id="patch_38">
    <path clip-path="url(#pbee26f7bff)" d="M 169.032911 180.507781 
Q 183.189775 179.195834 194.006847 178.193393 
" style="fill:none;stroke:#841c63;stroke-linecap:round;stroke-opacity:0.5;stroke-width:3;"/>
    <path clip-path="url(#pbee26f7bff)" d="M 189.83936 176.571033 
L 194.006847 178.193393 
L 190.208467 180.553967 
L 189.83936 176.571033 
z
" style="fill:#841c63;fill-opacity:0.5;stroke:#841c63;stroke-linecap:round;stroke-opacity:0.5;stroke-width:3;"/>
   </g>
   <g id="patch_39">
    <path clip-path="url(#pbee26f7bff)" d="M 205.972878 177.084475 
Q 258.00178 185.869315 306.723392 194.095734 
" style="fill:none;stroke:#841c63;stroke-linecap:round;stroke-opacity:0.5;stroke-width:3;"/>
    <path clip-path="url(#pbee26f7bff)" d="M 303.112196 191.457692 
L 306.723392 194.095734 
L 302.446241 195.401866 
L 303.112196 191.457692 
z
" style="fill:#841c63;fill-opacity:0.5;stroke:#841c63;stroke-linecap:round;stroke-opacity:0.5;stroke-width:3;"/>
   </g>
   <g id="patch_40">
    <path clip-path="url(#pbee26f7bff)" d="M 318.569586 196.09591 
Q 287.873041 186.083897 260.36527 177.111939 
" style="fill:none;stroke:#841c63;stroke-linecap:round;stroke-opacity:0.5;stroke-width:3;"/>
    <path clip-path="url(#pbee26f7bff)" d="M 263.547939 180.253693 
L 260.36527 177.111939 
L 264.788275 176.450857 
L 263.547939 180.253693 
z
" style="fill:#841c63;fill-opacity:0.5;stroke:#841c63;stroke-linecap:round;stroke-opacity:0.5;stroke-width:3;"/>
   </g>
   <g id="patch_41">
    <path clip-path="url(#pbee26f7bff)" d="M 248.945138 173.387138 
Q 274.432565 207.185765 297.900517 238.306385 
" style="fill:none;stroke:#841c63;stroke-linecap:round;stroke-opacity:0.5;stroke-width:3;"/>
    <path clip-path="url(#pbee26f7bff)" d="M 297.089006 233.908493 
L 297.900517 238.306385 
L 293.895297 236.316858 
L 297.089006 233.908493 
z
" style="fill:#841c63;fill-opacity:0.5;stroke:#841c63;stroke-linecap:round;stroke-opacity:0.5;stroke-width:3;"/>
   </g>
   <g id="patch_42">
    <path clip-path="url(#pbee26f7bff)" d="M 305.134596 247.899427 
Q 281.939804 245.023225 262.073621 242.559778 
" style="fill:none;stroke:#841c63;stroke-linecap:round;stroke-opacity:0.5;stroke-width:3;"/>
    <path clip-path="url(#pbee26f7bff)" d="M 265.797099 245.036815 
L 262.073621 242.559778 
L 266.289337 241.067217 
L 265.797099 245.036815 
z
" style="fill:#841c63;fill-opacity:0.5;stroke:#841c63;stroke-linecap:round;stroke-opacity:0.5;stroke-width:3;"/>
   </g>
   <g id="patch_43">
    <path clip-path="url(#pbee26f7bff)" d="M 250.150371 241.081271 
Q 263.253965 226.622033 274.105223 214.648148 
" style="fill:none;stroke:#841c63;stroke-linecap:round;stroke-opacity:0.5;stroke-width:3;"/>
    <path clip-path="url(#pbee26f7bff)" d="M 269.937177 216.269072 
L 274.105223 214.648148 
L 272.901134 218.955139 
L 269.937177 216.269072 
z
" style="fill:#841c63;fill-opacity:0.5;stroke:#841c63;stroke-linecap:round;stroke-opacity:0.5;stroke-width:3;"/>
   </g>
   <g id="patch_44">
    <path clip-path="url(#pbee26f7bff)" d="M 282.172041 205.746771 
Q 296.183229 202.031684 306.952348 199.176237 
" style="fill:none;stroke:#841c63;stroke-linecap:round;stroke-opacity:0.5;stroke-width:3;"/>
    <path clip-path="url(#pbee26f7bff)" d="M 302.573364 198.26822 
L 306.952348 199.176237 
L 303.598544 202.134614 
L 302.573364 198.26822 
z
" style="fill:#841c63;fill-opacity:0.5;stroke:#841c63;stroke-linecap:round;stroke-opacity:0.5;stroke-width:3;"/>
   </g>
   <g id="patch_45">
    <path clip-path="url(#pbee26f7bff)" d="M 318.569586 196.09591 
Q 248.106908 188.750679 180.980256 181.753206 
" style="fill:none;stroke:#841c63;stroke-linecap:round;stroke-opacity:0.5;stroke-width:3;"/>
    <path clip-path="url(#pbee26f7bff)" d="M 184.751336 184.157151 
L 180.980256 181.753206 
L 185.16606 180.178709 
L 184.751336 184.157151 
z
" style="fill:#841c63;fill-opacity:0.5;stroke:#841c63;stroke-linecap:round;stroke-opacity:0.5;stroke-width:3;"/>
   </g>
   <g id="patch_46">
    <path clip-path="url(#pbee26f7bff)" d="M 282.172041 205.746771 
Q 296.183229 202.031684 306.952348 199.176237 
" style="fill:none;stroke:#67195d;stroke-linecap:round;stroke-opacity:0.5;stroke-width:3;"/>
    <path clip-path="url(#pbee26f7bff)" d="M 302.573364 198.26822 
L 306.952348 199.176237 
L 303.598544 202.134614 
L 302.573364 198.26822 
z
" style="fill:#67195d;fill-opacity:0.5;stroke:#67195d;stroke-linecap:round;stroke-opacity:0.5;stroke-width:3;"/>
   </g>
   <g id="patch_47">
    <path clip-path="url(#pbee26f7bff)" d="M 318.569586 196.09591 
Q 266.540684 187.31107 217.819072 179.08465 
" style="fill:none;stroke:#67195d;stroke-linecap:round;stroke-opacity:0.5;stroke-width:3;"/>
    <path clip-path="url(#pbee26f7bff)" d="M 221.430268 181.722693 
L 217.819072 179.08465 
L 222.096223 177.778519 
L 221.430268 181.722693 
z
" style="fill:#67195d;fill-opacity:0.5;stroke:#67195d;stroke-linecap:round;stroke-opacity:0.5;stroke-width:3;"/>
   </g>
   <g id="patch_48">
    <path clip-path="url(#pbee26f7bff)" d="M 205.972878 177.084475 
Q 191.816015 178.396422 180.998943 179.398863 
" style="fill:none;stroke:#67195d;stroke-linecap:round;stroke-opacity:0.5;stroke-width:3;"/>
    <path clip-path="url(#pbee26f7bff)" d="M 185.16643 181.021223 
L 180.998943 179.398863 
L 184.797323 177.038289 
L 185.16643 181.021223 
z
" style="fill:#67195d;fill-opacity:0.5;stroke:#67195d;stroke-linecap:round;stroke-opacity:0.5;stroke-width:3;"/>
   </g>
   <g id="patch_49">
    <path clip-path="url(#pbee26f7bff)" d="M 169.032911 180.507781 
Q 174.692673 195.472764 179.165933 207.300517 
" style="fill:none;stroke:#67195d;stroke-linecap:round;stroke-opacity:0.5;stroke-width:3;"/>
    <path clip-path="url(#pbee26f7bff)" d="M 179.62163 202.851659 
L 179.165933 207.300517 
L 175.880265 204.266644 
L 179.62163 202.851659 
z
" style="fill:#67195d;fill-opacity:0.5;stroke:#67195d;stroke-linecap:round;stroke-opacity:0.5;stroke-width:3;"/>
   </g>
   <g id="patch_50">
    <path clip-path="url(#pbee26f7bff)" d="M 183.416274 218.538847 
Q 192.624638 201.615778 200.229891 187.638898 
" style="fill:none;stroke:#67195d;stroke-linecap:round;stroke-opacity:0.5;stroke-width:3;"/>
    <path clip-path="url(#pbee26f7bff)" d="M 196.5613 190.196522 
L 200.229891 187.638898 
L 200.074835 192.108345 
L 196.5613 190.196522 
z
" style="fill:#67195d;fill-opacity:0.5;stroke:#67195d;stroke-linecap:round;stroke-opacity:0.5;stroke-width:3;"/>
   </g>
   <g id="patch_51">
    <path clip-path="url(#pbee26f7bff)" d="M 205.972878 177.084475 
Q 240.019263 189.891014 270.926292 201.516686 
" style="fill:none;stroke:#67195d;stroke-linecap:round;stroke-opacity:0.5;stroke-width:3;"/>
    <path clip-path="url(#pbee26f7bff)" d="M 267.886526 198.236469 
L 270.926292 201.516686 
L 266.478259 201.980369 
L 267.886526 198.236469 
z
" style="fill:#67195d;fill-opacity:0.5;stroke:#67195d;stroke-linecap:round;stroke-opacity:0.5;stroke-width:3;"/>
   </g>
   <g id="patch_52">
    <path clip-path="url(#pbee26f7bff)" d="M 282.172041 205.746771 
Q 296.183229 202.031684 306.952348 199.176237 
" style="fill:none;stroke:#4a154f;stroke-linecap:round;stroke-opacity:0.5;stroke-width:3;"/>
    <path clip-path="url(#pbee26f7bff)" d="M 302.573364 198.26822 
L 306.952348 199.176237 
L 303.598544 202.134614 
L 302.573364 198.26822 
z
" style="fill:#4a154f;fill-opacity:0.5;stroke:#4a154f;stroke-linecap:round;stroke-opacity:0.5;stroke-width:3;"/>
   </g>
   <g id="patch_53">
    <path clip-path="url(#pbee26f7bff)" d="M 318.569586 196.09591 
Q 266.540684 187.31107 217.819072 179.08465 
" style="fill:none;stroke:#4a154f;stroke-linecap:round;stroke-opacity:0.5;stroke-width:3;"/>
    <path clip-path="url(#pbee26f7bff)" d="M 221.430268 181.722693 
L 217.819072 179.08465 
L 222.096223 177.778519 
L 221.430268 181.722693 
z
" style="fill:#4a154f;fill-opacity:0.5;stroke:#4a154f;stroke-linecap:round;stroke-opacity:0.5;stroke-width:3;"/>
   </g>
   <g id="patch_54">
    <path clip-path="url(#pbee26f7bff)" d="M 205.972878 177.084475 
Q 191.816015 178.396422 180.998943 179.398863 
" style="fill:none;stroke:#4a154f;stroke-linecap:round;stroke-opacity:0.5;stroke-width:3;"/>
    <path clip-path="url(#pbee26f7bff)" d="M 185.16643 181.021223 
L 180.998943 179.398863 
L 184.797323 177.038289 
L 185.16643 181.021223 
z
" style="fill:#4a154f;fill-opacity:0.5;stroke:#4a154f;stroke-linecap:round;stroke-opacity:0.5;stroke-width:3;"/>
   </g>
   <g id="patch_55">
    <path clip-path="url(#pbee26f7bff)" d="M 169.032911 180.507781 
Q 218.023072 163.078881 263.853155 146.77422 
" style="fill:none;stroke:#4a154f;stroke-linecap:round;stroke-opacity:0.5;stroke-width:3;"/>
    <path clip-path="url(#pbee26f7bff)" d="M 259.414177 146.230648 
L 263.853155 146.77422 
L 260.75491 149.99926 
L 259.414177 146.230648 
z
" style="fill:#4a154f;fill-opacity:0.5;stroke:#4a154f;stroke-linecap:round;stroke-opacity:0.5;stroke-width:3;"/>
   </g>
   <g id="patch_56">
    <path clip-path="url(#pbee26f7bff)" d="M 275.17259 142.747181 
Q 289.470922 147.570217 300.59109 151.321212 
" style="fill:none;stroke:#4a154f;stroke-linecap:round;stroke-opacity:0.5;stroke-width:3;"/>
    <path clip-path="url(#pbee26f7bff)" d="M 297.44015 148.147638 
L 300.59109 151.321212 
L 296.161666 151.93782 
L 297.44015 148.147638 
z
" style="fill:#4a154f;fill-opacity:0.5;stroke:#4a154f;stroke-linecap:round;stroke-opacity:0.5;stroke-width:3;"/>
   </g>
   <g id="patch_57">
    <path clip-path="url(#pbee26f7bff)" d="M 311.977597 155.162048 
Q 244.769427 167.078828 180.863846 178.41002 
" style="fill:none;stroke:#4a154f;stroke-linecap:round;stroke-opacity:0.5;stroke-width:3;"/>
    <path clip-path="url(#pbee26f7bff)" d="M 185.151589 179.68095 
L 180.863846 178.41002 
L 184.453236 175.742384 
L 185.151589 179.68095 
z
" style="fill:#4a154f;fill-opacity:0.5;stroke:#4a154f;stroke-linecap:round;stroke-opacity:0.5;stroke-width:3;"/>
   </g>
   <g id="patch_58">
    <path clip-path="url(#pbee26f7bff)" d="M 169.032911 180.507781 
Q 183.189775 179.195834 194.006847 178.193393 
" style="fill:none;stroke:#4a154f;stroke-linecap:round;stroke-opacity:0.5;stroke-width:3;"/>
    <path clip-path="url(#pbee26f7bff)" d="M 189.83936 176.571033 
L 194.006847 178.193393 
L 190.208467 180.553967 
L 189.83936 176.571033 
z
" style="fill:#4a154f;fill-opacity:0.5;stroke:#4a154f;stroke-linecap:round;stroke-opacity:0.5;stroke-width:3;"/>
   </g>
   <g id="patch_59">
    <path clip-path="url(#pbee26f7bff)" d="M 205.972878 177.084475 
Q 258.00178 185.869315 306.723392 194.095734 
" style="fill:none;stroke:#4a154f;stroke-linecap:round;stroke-opacity:0.5;stroke-width:3;"/>
    <path clip-path="url(#pbee26f7bff)" d="M 303.112196 191.457692 
L 306.723392 194.095734 
L 302.446241 195.401866 
L 303.112196 191.457692 
z
" style="fill:#4a154f;fill-opacity:0.5;stroke:#4a154f;stroke-linecap:round;stroke-opacity:0.5;stroke-width:3;"/>
   </g>
   <g id="patch_60">
    <path clip-path="url(#pbee26f7bff)" d="M 318.569586 196.09591 
Q 304.558397 199.810996 293.789278 202.666444 
" style="fill:none;stroke:#4a154f;stroke-linecap:round;stroke-opacity:0.5;stroke-width:3;"/>
    <path clip-path="url(#pbee26f7bff)" d="M 298.168263 203.574461 
L 293.789278 202.666444 
L 297.143083 199.708066 
L 298.168263 203.574461 
z
" style="fill:#4a154f;fill-opacity:0.5;stroke:#4a154f;stroke-linecap:round;stroke-opacity:0.5;stroke-width:3;"/>
   </g>
   <g id="patch_61">
    <path clip-path="url(#pbee26f7bff)" d="M 205.972878 177.084475 
Q 258.00178 185.869315 306.723392 194.095734 
" style="fill:none;stroke:#2f0f3e;stroke-linecap:round;stroke-opacity:0.5;stroke-width:3;"/>
    <path clip-path="url(#pbee26f7bff)" d="M 303.112196 191.457692 
L 306.723392 194.095734 
L 302.446241 195.401866 
L 303.112196 191.457692 
z
" style="fill:#2f0f3e;fill-opacity:0.5;stroke:#2f0f3e;stroke-linecap:round;stroke-opacity:0.5;stroke-width:3;"/>
   </g>
   <g id="patch_62">
    <path clip-path="url(#pbee26f7bff)" d="M 318.569586 196.09591 
Q 304.558397 199.810996 293.789278 202.666444 
" style="fill:none;stroke:#2f0f3e;stroke-linecap:round;stroke-opacity:0.5;stroke-width:3;"/>
    <path clip-path="url(#pbee26f7bff)" d="M 298.168263 203.574461 
L 293.789278 202.666444 
L 297.143083 199.708066 
L 298.168263 203.574461 
z
" style="fill:#2f0f3e;fill-opacity:0.5;stroke:#2f0f3e;stroke-linecap:round;stroke-opacity:0.5;stroke-width:3;"/>
   </g>
   <g id="patch_63">
    <path clip-path="url(#pbee26f7bff)" d="M 282.172041 205.746771 
Q 268.660429 192.587832 257.551678 181.769035 
" style="fill:none;stroke:#2f0f3e;stroke-linecap:round;stroke-opacity:0.5;stroke-width:3;"/>
    <path clip-path="url(#pbee26f7bff)" d="M 259.021865 185.992606 
L 257.551678 181.769035 
L 261.812647 183.127028 
L 259.021865 185.992606 
z
" style="fill:#2f0f3e;fill-opacity:0.5;stroke:#2f0f3e;stroke-linecap:round;stroke-opacity:0.5;stroke-width:3;"/>
   </g>
   <g id="patch_64">
    <path clip-path="url(#pbee26f7bff)" d="M 248.945138 173.387138 
Q 283.640135 197.579648 315.583847 219.853711 
" style="fill:none;stroke:#2f0f3e;stroke-linecap:round;stroke-opacity:0.5;stroke-width:3;"/>
    <path clip-path="url(#pbee26f7bff)" d="M 313.44669 215.925282 
L 315.583847 219.853711 
L 311.158809 219.20638 
L 313.44669 215.925282 
z
" style="fill:#2f0f3e;fill-opacity:0.5;stroke:#2f0f3e;stroke-linecap:round;stroke-opacity:0.5;stroke-width:3;"/>
   </g>
   <g id="patch_65">
    <path clip-path="url(#pbee26f7bff)" d="M 325.438706 226.725416 
Q 282.620518 226.193786 243.156173 225.703798 
" style="fill:none;stroke:#2f0f3e;stroke-linecap:round;stroke-opacity:0.5;stroke-width:3;"/>
    <path clip-path="url(#pbee26f7bff)" d="M 247.131035 227.753304 
L 243.156173 225.703798 
L 247.180695 223.753612 
L 247.131035 227.753304 
z
" style="fill:#2f0f3e;fill-opacity:0.5;stroke:#2f0f3e;stroke-linecap:round;stroke-opacity:0.5;stroke-width:3;"/>
   </g>
   <g id="patch_66">
    <path clip-path="url(#pbee26f7bff)" d="M 231.143441 225.554648 
Q 273.96163 226.086278 313.425975 226.576266 
" style="fill:none;stroke:#2f0f3e;stroke-linecap:round;stroke-opacity:0.5;stroke-width:3;"/>
    <path clip-path="url(#pbee26f7bff)" d="M 309.451113 224.52676 
L 313.425975 226.576266 
L 309.401453 228.526452 
L 309.451113 224.52676 
z
" style="fill:#2f0f3e;fill-opacity:0.5;stroke:#2f0f3e;stroke-linecap:round;stroke-opacity:0.5;stroke-width:3;"/>
   </g>
   <g id="patch_67">
    <path clip-path="url(#pbee26f7bff)" d="M 325.438706 226.725416 
Q 273.488956 238.156181 224.814948 248.866167 
" style="fill:none;stroke:#2f0f3e;stroke-linecap:round;stroke-opacity:0.5;stroke-width:3;"/>
    <path clip-path="url(#pbee26f7bff)" d="M 229.151286 249.959864 
L 224.814948 248.866167 
L 228.291708 246.053315 
L 229.151286 249.959864 
z
" style="fill:#2f0f3e;fill-opacity:0.5;stroke:#2f0f3e;stroke-linecap:round;stroke-opacity:0.5;stroke-width:3;"/>
   </g>
   <g id="patch_68">
    <path clip-path="url(#pbee26f7bff)" d="M 213.080078 251.44825 
Q 261.989055 225.784785 307.927973 201.679765 
" style="fill:none;stroke:#2f0f3e;stroke-linecap:round;stroke-opacity:0.5;stroke-width:3;"/>
    <path clip-path="url(#pbee26f7bff)" d="M 303.456694 201.76732 
L 307.927973 201.679765 
L 305.315249 205.309321 
L 303.456694 201.76732 
z
" style="fill:#2f0f3e;fill-opacity:0.5;stroke:#2f0f3e;stroke-linecap:round;stroke-opacity:0.5;stroke-width:3;"/>
   </g>
   <g id="patch_69">
    <path clip-path="url(#pbee26f7bff)" d="M 318.569586 196.09591 
Q 266.540684 187.31107 217.819072 179.08465 
" style="fill:none;stroke:#2f0f3e;stroke-linecap:round;stroke-opacity:0.5;stroke-width:3;"/>
    <path clip-path="url(#pbee26f7bff)" d="M 221.430268 181.722693 
L 217.819072 179.08465 
L 222.096223 177.778519 
L 221.430268 181.722693 
z
" style="fill:#2f0f3e;fill-opacity:0.5;stroke:#2f0f3e;stroke-linecap:round;stroke-opacity:0.5;stroke-width:3;"/>
   </g>
   <g id="PathCollection_1">
    <defs>
     <path d="M 0 10 
C 2.652031 10 5.195799 8.946337 7.071068 7.071068 
C 8.946337 5.195799 10 2.652031 10 0 
C 10 -2.652031 8.946337 -5.195799 7.071068 -7.071068 
C 5.195799 -8.946337 2.652031 -10 0 -10 
C -2.652031 -10 -5.195799 -8.946337 -7.071068 -7.071068 
C -8.946337 -5.195799 -10 -2.652031 -10 0 
C -10 2.652031 -8.946337 5.195799 -7.071068 7.071068 
C -5.195799 8.946337 -2.652031 10 0 10 
z
" id="m66657b3f86" style="stroke:#feedb0;"/>
    </defs>
    <g clip-path="url(#pbee26f7bff)">
     <use style="fill:#feedb0;stroke:#feedb0;" x="205.972878" xlink:href="#m66657b3f86" y="177.084475"/>
     <use style="fill:#feedb0;stroke:#feedb0;" x="80.125115" xlink:href="#m66657b3f86" y="170.077982"/>
     <use style="fill:#feedb0;stroke:#feedb0;" x="81.137822" xlink:href="#m66657b3f86" y="198.660473"/>
    </g>
   </g>
   <g id="PathCollection_2">
    <defs>
     <path d="M 0 10 
C 2.652031 10 5.195799 8.946337 7.071068 7.071068 
C 8.946337 5.195799 10 2.652031 10 0 
C 10 -2.652031 8.946337 -5.195799 7.071068 -7.071068 
C 5.195799 -8.946337 2.652031 -10 0 -10 
C -2.652031 -10 -5.195799 -8.946337 -7.071068 -7.071068 
C -8.946337 -5.195799 -10 -2.652031 -10 0 
C -10 2.652031 -8.946337 5.195799 -7.071068 7.071068 
C -5.195799 8.946337 -2.652031 10 0 10 
z
" id="mc76eff0114" style="stroke:#fbd094;"/>
    </defs>
    <g clip-path="url(#pbee26f7bff)">
     <use style="fill:#fbd094;stroke:#fbd094;" x="169.032911" xlink:href="#mc76eff0114" y="180.507781"/>
     <use style="fill:#fbd094;stroke:#fbd094;" x="80.125115" xlink:href="#mc76eff0114" y="170.077982"/>
     <use style="fill:#fbd094;stroke:#fbd094;" x="81.137822" xlink:href="#mc76eff0114" y="198.660473"/>
    </g>
   </g>
   <g id="PathCollection_3">
    <defs>
     <path d="M 0 10 
C 2.652031 10 5.195799 8.946337 7.071068 7.071068 
C 8.946337 5.195799 10 2.652031 10 0 
C 10 -2.652031 8.946337 -5.195799 7.071068 -7.071068 
C 5.195799 -8.946337 2.652031 -10 0 -10 
C -2.652031 -10 -5.195799 -8.946337 -7.071068 -7.071068 
C -8.946337 -5.195799 -10 -2.652031 -10 0 
C -10 2.652031 -8.946337 5.195799 -7.071068 7.071068 
C -5.195799 8.946337 -2.652031 10 0 10 
z
" id="m66855c720e" style="stroke:#f7b37c;"/>
    </defs>
    <g clip-path="url(#pbee26f7bff)">
     <use style="fill:#f7b37c;stroke:#f7b37c;" x="128.648247" xlink:href="#m66855c720e" y="74.216858"/>
     <use style="fill:#f7b37c;stroke:#f7b37c;" x="195.109123" xlink:href="#m66855c720e" y="93.512998"/>
     <use style="fill:#f7b37c;stroke:#f7b37c;" x="188.298388" xlink:href="#m66855c720e" y="122.115653"/>
    </g>
   </g>
   <g id="PathCollection_4">
    <defs>
     <path d="M 0 10 
C 2.652031 10 5.195799 8.946337 7.071068 7.071068 
C 8.946337 5.195799 10 2.652031 10 0 
C 10 -2.652031 8.946337 -5.195799 7.071068 -7.071068 
C 5.195799 -8.946337 2.652031 -10 0 -10 
C -2.652031 -10 -5.195799 -8.946337 -7.071068 -7.071068 
C -8.946337 -5.195799 -10 -2.652031 -10 0 
C -10 2.652031 -8.946337 5.195799 -7.071068 7.071068 
C -5.195799 8.946337 -2.652031 10 0 10 
z
" id="m6df516602c" style="stroke:#f29567;"/>
    </defs>
    <g clip-path="url(#pbee26f7bff)">
     <use style="fill:#f29567;stroke:#f29567;" x="186.718794" xlink:href="#m6df516602c" y="57.41106"/>
     <use style="fill:#f29567;stroke:#f29567;" x="195.109123" xlink:href="#m6df516602c" y="93.512998"/>
     <use style="fill:#f29567;stroke:#f29567;" x="188.298388" xlink:href="#m6df516602c" y="122.115653"/>
    </g>
   </g>
   <g id="PathCollection_5">
    <defs>
     <path d="M 0 10 
C 2.652031 10 5.195799 8.946337 7.071068 7.071068 
C 8.946337 5.195799 10 2.652031 10 0 
C 10 -2.652031 8.946337 -5.195799 7.071068 -7.071068 
C 5.195799 -8.946337 2.652031 -10 0 -10 
C -2.652031 -10 -5.195799 -8.946337 -7.071068 -7.071068 
C -8.946337 -5.195799 -10 -2.652031 -10 0 
C -10 2.652031 -8.946337 5.195799 -7.071068 7.071068 
C -5.195799 8.946337 -2.652031 10 0 10 
z
" id="m29aafa0800" style="stroke:#eb7858;"/>
    </defs>
    <g clip-path="url(#pbee26f7bff)">
     <use style="fill:#eb7858;stroke:#eb7858;" x="169.032911" xlink:href="#m29aafa0800" y="180.507781"/>
     <use style="fill:#eb7858;stroke:#eb7858;" x="205.972878" xlink:href="#m29aafa0800" y="177.084475"/>
     <use style="fill:#eb7858;stroke:#eb7858;" x="213.080078" xlink:href="#m29aafa0800" y="251.44825"/>
    </g>
   </g>
   <g id="PathCollection_6">
    <defs>
     <path d="M 0 10 
C 2.652031 10 5.195799 8.946337 7.071068 7.071068 
C 8.946337 5.195799 10 2.652031 10 0 
C 10 -2.652031 8.946337 -5.195799 7.071068 -7.071068 
C 5.195799 -8.946337 2.652031 -10 0 -10 
C -2.652031 -10 -5.195799 -8.946337 -7.071068 -7.071068 
C -8.946337 -5.195799 -10 -2.652031 -10 0 
C -10 2.652031 -8.946337 5.195799 -7.071068 7.071068 
C -5.195799 8.946337 -2.652031 10 0 10 
z
" id="m48bfe2a7ac" style="stroke:#e05d53;"/>
    </defs>
    <g clip-path="url(#pbee26f7bff)">
     <use style="fill:#e05d53;stroke:#e05d53;" x="318.569586" xlink:href="#m48bfe2a7ac" y="196.09591"/>
     <use style="fill:#e05d53;stroke:#e05d53;" x="205.972878" xlink:href="#m48bfe2a7ac" y="177.084475"/>
     <use style="fill:#e05d53;stroke:#e05d53;" x="169.032911" xlink:href="#m48bfe2a7ac" y="180.507781"/>
     <use style="fill:#e05d53;stroke:#e05d53;" x="188.298388" xlink:href="#m48bfe2a7ac" y="122.115653"/>
     <use style="fill:#e05d53;stroke:#e05d53;" x="195.109123" xlink:href="#m48bfe2a7ac" y="93.512998"/>
     <use style="fill:#e05d53;stroke:#e05d53;" x="169.032911" xlink:href="#m48bfe2a7ac" y="180.507781"/>
     <use style="fill:#e05d53;stroke:#e05d53;" x="282.172041" xlink:href="#m48bfe2a7ac" y="205.746771"/>
     <use style="fill:#e05d53;stroke:#e05d53;" x="248.945138" xlink:href="#m48bfe2a7ac" y="173.387138"/>
    </g>
   </g>
   <g id="PathCollection_7">
    <defs>
     <path d="M 0 10 
C 2.652031 10 5.195799 8.946337 7.071068 7.071068 
C 8.946337 5.195799 10 2.652031 10 0 
C 10 -2.652031 8.946337 -5.195799 7.071068 -7.071068 
C 5.195799 -8.946337 2.652031 -10 0 -10 
C -2.652031 -10 -5.195799 -8.946337 -7.071068 -7.071068 
C -8.946337 -5.195799 -10 -2.652031 -10 0 
C -10 2.652031 -8.946337 5.195799 -7.071068 7.071068 
C -5.195799 8.946337 -2.652031 10 0 10 
z
" id="m02358dc78f" style="stroke:#ce4356;"/>
    </defs>
    <g clip-path="url(#pbee26f7bff)">
     <use style="fill:#ce4356;stroke:#ce4356;" x="282.172041" xlink:href="#m02358dc78f" y="205.746771"/>
     <use style="fill:#ce4356;stroke:#ce4356;" x="318.569586" xlink:href="#m02358dc78f" y="196.09591"/>
     <use style="fill:#ce4356;stroke:#ce4356;" x="360.507305" xlink:href="#m02358dc78f" y="285.481193"/>
     <use style="fill:#ce4356;stroke:#ce4356;" x="391.362957" xlink:href="#m02358dc78f" y="271.363222"/>
     <use style="fill:#ce4356;stroke:#ce4356;" x="322.827696" xlink:href="#m02358dc78f" y="289.466984"/>
    </g>
   </g>
   <g id="PathCollection_8">
    <defs>
     <path d="M 0 10 
C 2.652031 10 5.195799 8.946337 7.071068 7.071068 
C 8.946337 5.195799 10 2.652031 10 0 
C 10 -2.652031 8.946337 -5.195799 7.071068 -7.071068 
C 5.195799 -8.946337 2.652031 -10 0 -10 
C -2.652031 -10 -5.195799 -8.946337 -7.071068 -7.071068 
C -8.946337 -5.195799 -10 -2.652031 -10 0 
C -10 2.652031 -8.946337 5.195799 -7.071068 7.071068 
C -5.195799 8.946337 -2.652031 10 0 10 
z
" id="m76147a8a3d" style="stroke:#b8315d;"/>
    </defs>
    <g clip-path="url(#pbee26f7bff)">
     <use style="fill:#b8315d;stroke:#b8315d;" x="318.569586" xlink:href="#m76147a8a3d" y="196.09591"/>
     <use style="fill:#b8315d;stroke:#b8315d;" x="391.362957" xlink:href="#m76147a8a3d" y="271.363222"/>
     <use style="fill:#b8315d;stroke:#b8315d;" x="305.134596" xlink:href="#m76147a8a3d" y="247.899427"/>
     <use style="fill:#b8315d;stroke:#b8315d;" x="282.172041" xlink:href="#m76147a8a3d" y="205.746771"/>
    </g>
   </g>
   <g id="PathCollection_9">
    <defs>
     <path d="M 0 10 
C 2.652031 10 5.195799 8.946337 7.071068 7.071068 
C 8.946337 5.195799 10 2.652031 10 0 
C 10 -2.652031 8.946337 -5.195799 7.071068 -7.071068 
C 5.195799 -8.946337 2.652031 -10 0 -10 
C -2.652031 -10 -5.195799 -8.946337 -7.071068 -7.071068 
C -8.946337 -5.195799 -10 -2.652031 -10 0 
C -10 2.652031 -8.946337 5.195799 -7.071068 7.071068 
C -5.195799 8.946337 -2.652031 10 0 10 
z
" id="m593e6ab2f9" style="stroke:#9f2462;"/>
    </defs>
    <g clip-path="url(#pbee26f7bff)">
     <use style="fill:#9f2462;stroke:#9f2462;" x="205.972878" xlink:href="#m593e6ab2f9" y="177.084475"/>
     <use style="fill:#9f2462;stroke:#9f2462;" x="250.150371" xlink:href="#m593e6ab2f9" y="241.081271"/>
     <use style="fill:#9f2462;stroke:#9f2462;" x="305.134596" xlink:href="#m593e6ab2f9" y="247.899427"/>
     <use style="fill:#9f2462;stroke:#9f2462;" x="248.945138" xlink:href="#m593e6ab2f9" y="173.387138"/>
    </g>
   </g>
   <g id="PathCollection_10">
    <defs>
     <path d="M 0 10 
C 2.652031 10 5.195799 8.946337 7.071068 7.071068 
C 8.946337 5.195799 10 2.652031 10 0 
C 10 -2.652031 8.946337 -5.195799 7.071068 -7.071068 
C 5.195799 -8.946337 2.652031 -10 0 -10 
C -2.652031 -10 -5.195799 -8.946337 -7.071068 -7.071068 
C -8.946337 -5.195799 -10 -2.652031 -10 0 
C -10 2.652031 -8.946337 5.195799 -7.071068 7.071068 
C -5.195799 8.946337 -2.652031 10 0 10 
z
" id="m0caab86c82" style="stroke:#841c63;"/>
    </defs>
    <g clip-path="url(#pbee26f7bff)">
     <use style="fill:#841c63;stroke:#841c63;" x="169.032911" xlink:href="#m0caab86c82" y="180.507781"/>
     <use style="fill:#841c63;stroke:#841c63;" x="205.972878" xlink:href="#m0caab86c82" y="177.084475"/>
     <use style="fill:#841c63;stroke:#841c63;" x="318.569586" xlink:href="#m0caab86c82" y="196.09591"/>
     <use style="fill:#841c63;stroke:#841c63;" x="248.945138" xlink:href="#m0caab86c82" y="173.387138"/>
     <use style="fill:#841c63;stroke:#841c63;" x="305.134596" xlink:href="#m0caab86c82" y="247.899427"/>
     <use style="fill:#841c63;stroke:#841c63;" x="250.150371" xlink:href="#m0caab86c82" y="241.081271"/>
     <use style="fill:#841c63;stroke:#841c63;" x="282.172041" xlink:href="#m0caab86c82" y="205.746771"/>
     <use style="fill:#841c63;stroke:#841c63;" x="318.569586" xlink:href="#m0caab86c82" y="196.09591"/>
    </g>
   </g>
   <g id="PathCollection_11">
    <defs>
     <path d="M 0 10 
C 2.652031 10 5.195799 8.946337 7.071068 7.071068 
C 8.946337 5.195799 10 2.652031 10 0 
C 10 -2.652031 8.946337 -5.195799 7.071068 -7.071068 
C 5.195799 -8.946337 2.652031 -10 0 -10 
C -2.652031 -10 -5.195799 -8.946337 -7.071068 -7.071068 
C -8.946337 -5.195799 -10 -2.652031 -10 0 
C -10 2.652031 -8.946337 5.195799 -7.071068 7.071068 
C -5.195799 8.946337 -2.652031 10 0 10 
z
" id="m580355c746" style="stroke:#67195d;"/>
    </defs>
    <g clip-path="url(#pbee26f7bff)">
     <use style="fill:#67195d;stroke:#67195d;" x="282.172041" xlink:href="#m580355c746" y="205.746771"/>
     <use style="fill:#67195d;stroke:#67195d;" x="318.569586" xlink:href="#m580355c746" y="196.09591"/>
     <use style="fill:#67195d;stroke:#67195d;" x="205.972878" xlink:href="#m580355c746" y="177.084475"/>
     <use style="fill:#67195d;stroke:#67195d;" x="169.032911" xlink:href="#m580355c746" y="180.507781"/>
     <use style="fill:#67195d;stroke:#67195d;" x="183.416274" xlink:href="#m580355c746" y="218.538847"/>
     <use style="fill:#67195d;stroke:#67195d;" x="205.972878" xlink:href="#m580355c746" y="177.084475"/>
    </g>
   </g>
   <g id="PathCollection_12">
    <defs>
     <path d="M 0 10 
C 2.652031 10 5.195799 8.946337 7.071068 7.071068 
C 8.946337 5.195799 10 2.652031 10 0 
C 10 -2.652031 8.946337 -5.195799 7.071068 -7.071068 
C 5.195799 -8.946337 2.652031 -10 0 -10 
C -2.652031 -10 -5.195799 -8.946337 -7.071068 -7.071068 
C -8.946337 -5.195799 -10 -2.652031 -10 0 
C -10 2.652031 -8.946337 5.195799 -7.071068 7.071068 
C -5.195799 8.946337 -2.652031 10 0 10 
z
" id="mcca4fad253" style="stroke:#4a154f;"/>
    </defs>
    <g clip-path="url(#pbee26f7bff)">
     <use style="fill:#4a154f;stroke:#4a154f;" x="282.172041" xlink:href="#mcca4fad253" y="205.746771"/>
     <use style="fill:#4a154f;stroke:#4a154f;" x="318.569586" xlink:href="#mcca4fad253" y="196.09591"/>
     <use style="fill:#4a154f;stroke:#4a154f;" x="205.972878" xlink:href="#mcca4fad253" y="177.084475"/>
     <use style="fill:#4a154f;stroke:#4a154f;" x="169.032911" xlink:href="#mcca4fad253" y="180.507781"/>
     <use style="fill:#4a154f;stroke:#4a154f;" x="275.17259" xlink:href="#mcca4fad253" y="142.747181"/>
     <use style="fill:#4a154f;stroke:#4a154f;" x="311.977597" xlink:href="#mcca4fad253" y="155.162048"/>
     <use style="fill:#4a154f;stroke:#4a154f;" x="169.032911" xlink:href="#mcca4fad253" y="180.507781"/>
     <use style="fill:#4a154f;stroke:#4a154f;" x="205.972878" xlink:href="#mcca4fad253" y="177.084475"/>
     <use style="fill:#4a154f;stroke:#4a154f;" x="318.569586" xlink:href="#mcca4fad253" y="196.09591"/>
    </g>
   </g>
   <g id="PathCollection_13">
    <defs>
     <path d="M 0 10 
C 2.652031 10 5.195799 8.946337 7.071068 7.071068 
C 8.946337 5.195799 10 2.652031 10 0 
C 10 -2.652031 8.946337 -5.195799 7.071068 -7.071068 
C 5.195799 -8.946337 2.652031 -10 0 -10 
C -2.652031 -10 -5.195799 -8.946337 -7.071068 -7.071068 
C -8.946337 -5.195799 -10 -2.652031 -10 0 
C -10 2.652031 -8.946337 5.195799 -7.071068 7.071068 
C -5.195799 8.946337 -2.652031 10 0 10 
z
" id="m23f3ef2234" style="stroke:#2f0f3e;"/>
    </defs>
    <g clip-path="url(#pbee26f7bff)">
     <use style="fill:#2f0f3e;stroke:#2f0f3e;" x="205.972878" xlink:href="#m23f3ef2234" y="177.084475"/>
     <use style="fill:#2f0f3e;stroke:#2f0f3e;" x="318.569586" xlink:href="#m23f3ef2234" y="196.09591"/>
     <use style="fill:#2f0f3e;stroke:#2f0f3e;" x="282.172041" xlink:href="#m23f3ef2234" y="205.746771"/>
     <use style="fill:#2f0f3e;stroke:#2f0f3e;" x="248.945138" xlink:href="#m23f3ef2234" y="173.387138"/>
     <use style="fill:#2f0f3e;stroke:#2f0f3e;" x="325.438706" xlink:href="#m23f3ef2234" y="226.725416"/>
     <use style="fill:#2f0f3e;stroke:#2f0f3e;" x="231.143441" xlink:href="#m23f3ef2234" y="225.554648"/>
     <use style="fill:#2f0f3e;stroke:#2f0f3e;" x="325.438706" xlink:href="#m23f3ef2234" y="226.725416"/>
     <use style="fill:#2f0f3e;stroke:#2f0f3e;" x="213.080078" xlink:href="#m23f3ef2234" y="251.44825"/>
     <use style="fill:#2f0f3e;stroke:#2f0f3e;" x="318.569586" xlink:href="#m23f3ef2234" y="196.09591"/>
    </g>
   </g>
   <g id="text_1">
    <g clip-path="url(#pbee26f7bff)">
     <!-- yantian_chn -->
     <defs>
      <path d="M 32.171875 -5.078125 
Q 28.375 -14.84375 24.75 -17.8125 
Q 21.140625 -20.796875 15.09375 -20.796875 
L 7.90625 -20.796875 
L 7.90625 -13.28125 
L 13.1875 -13.28125 
Q 16.890625 -13.28125 18.9375 -11.515625 
Q 21 -9.765625 23.484375 -3.21875 
L 25.09375 0.875 
L 2.984375 54.6875 
L 12.5 54.6875 
L 29.59375 11.921875 
L 46.6875 54.6875 
L 56.203125 54.6875 
z
" id="DejaVuSans-121"/>
      <path d="M 34.28125 27.484375 
Q 23.390625 27.484375 19.1875 25 
Q 14.984375 22.515625 14.984375 16.5 
Q 14.984375 11.71875 18.140625 8.90625 
Q 21.296875 6.109375 26.703125 6.109375 
Q 34.1875 6.109375 38.703125 11.40625 
Q 43.21875 16.703125 43.21875 25.484375 
L 43.21875 27.484375 
z
M 52.203125 31.203125 
L 52.203125 0 
L 43.21875 0 
L 43.21875 8.296875 
Q 40.140625 3.328125 35.546875 0.953125 
Q 30.953125 -1.421875 24.3125 -1.421875 
Q 15.921875 -1.421875 10.953125 3.296875 
Q 6 8.015625 6 15.921875 
Q 6 25.140625 12.171875 29.828125 
Q 18.359375 34.515625 30.609375 34.515625 
L 43.21875 34.515625 
L 43.21875 35.40625 
Q 43.21875 41.609375 39.140625 45 
Q 35.0625 48.390625 27.6875 48.390625 
Q 23 48.390625 18.546875 47.265625 
Q 14.109375 46.140625 10.015625 43.890625 
L 10.015625 52.203125 
Q 14.9375 54.109375 19.578125 55.046875 
Q 24.21875 56 28.609375 56 
Q 40.484375 56 46.34375 49.84375 
Q 52.203125 43.703125 52.203125 31.203125 
z
" id="DejaVuSans-97"/>
      <path d="M 54.890625 33.015625 
L 54.890625 0 
L 45.90625 0 
L 45.90625 32.71875 
Q 45.90625 40.484375 42.875 44.328125 
Q 39.84375 48.1875 33.796875 48.1875 
Q 26.515625 48.1875 22.3125 43.546875 
Q 18.109375 38.921875 18.109375 30.90625 
L 18.109375 0 
L 9.078125 0 
L 9.078125 54.6875 
L 18.109375 54.6875 
L 18.109375 46.1875 
Q 21.34375 51.125 25.703125 53.5625 
Q 30.078125 56 35.796875 56 
Q 45.21875 56 50.046875 50.171875 
Q 54.890625 44.34375 54.890625 33.015625 
z
" id="DejaVuSans-110"/>
      <path d="M 18.3125 70.21875 
L 18.3125 54.6875 
L 36.8125 54.6875 
L 36.8125 47.703125 
L 18.3125 47.703125 
L 18.3125 18.015625 
Q 18.3125 11.328125 20.140625 9.421875 
Q 21.96875 7.515625 27.59375 7.515625 
L 36.8125 7.515625 
L 36.8125 0 
L 27.59375 0 
Q 17.1875 0 13.234375 3.875 
Q 9.28125 7.765625 9.28125 18.015625 
L 9.28125 47.703125 
L 2.6875 47.703125 
L 2.6875 54.6875 
L 9.28125 54.6875 
L 9.28125 70.21875 
z
" id="DejaVuSans-116"/>
      <path d="M 9.421875 54.6875 
L 18.40625 54.6875 
L 18.40625 0 
L 9.421875 0 
z
M 9.421875 75.984375 
L 18.40625 75.984375 
L 18.40625 64.59375 
L 9.421875 64.59375 
z
" id="DejaVuSans-105"/>
      <path d="M 50.984375 -16.609375 
L 50.984375 -23.578125 
L -0.984375 -23.578125 
L -0.984375 -16.609375 
z
" id="DejaVuSans-95"/>
      <path d="M 48.78125 52.59375 
L 48.78125 44.1875 
Q 44.96875 46.296875 41.140625 47.34375 
Q 37.3125 48.390625 33.40625 48.390625 
Q 24.65625 48.390625 19.8125 42.84375 
Q 14.984375 37.3125 14.984375 27.296875 
Q 14.984375 17.28125 19.8125 11.734375 
Q 24.65625 6.203125 33.40625 6.203125 
Q 37.3125 6.203125 41.140625 7.25 
Q 44.96875 8.296875 48.78125 10.40625 
L 48.78125 2.09375 
Q 45.015625 0.34375 40.984375 -0.53125 
Q 36.96875 -1.421875 32.421875 -1.421875 
Q 20.0625 -1.421875 12.78125 6.34375 
Q 5.515625 14.109375 5.515625 27.296875 
Q 5.515625 40.671875 12.859375 48.328125 
Q 20.21875 56 33.015625 56 
Q 37.15625 56 41.109375 55.140625 
Q 45.0625 54.296875 48.78125 52.59375 
z
" id="DejaVuSans-99"/>
      <path d="M 54.890625 33.015625 
L 54.890625 0 
L 45.90625 0 
L 45.90625 32.71875 
Q 45.90625 40.484375 42.875 44.328125 
Q 39.84375 48.1875 33.796875 48.1875 
Q 26.515625 48.1875 22.3125 43.546875 
Q 18.109375 38.921875 18.109375 30.90625 
L 18.109375 0 
L 9.078125 0 
L 9.078125 75.984375 
L 18.109375 75.984375 
L 18.109375 46.1875 
Q 21.34375 51.125 25.703125 53.5625 
Q 30.078125 56 35.796875 56 
Q 45.21875 56 50.046875 50.171875 
Q 54.890625 44.34375 54.890625 33.015625 
z
" id="DejaVuSans-104"/>
     </defs>
     <g transform="translate(181.684128 171.159155)scale(0.08 -0.08)">
      <use xlink:href="#DejaVuSans-121"/>
      <use x="59.179688" xlink:href="#DejaVuSans-97"/>
      <use x="120.458984" xlink:href="#DejaVuSans-110"/>
      <use x="183.837891" xlink:href="#DejaVuSans-116"/>
      <use x="223.046875" xlink:href="#DejaVuSans-105"/>
      <use x="250.830078" xlink:href="#DejaVuSans-97"/>
      <use x="312.109375" xlink:href="#DejaVuSans-110"/>
      <use x="375.488281" xlink:href="#DejaVuSans-95"/>
      <use x="425.488281" xlink:href="#DejaVuSans-99"/>
      <use x="480.46875" xlink:href="#DejaVuSans-104"/>
      <use x="543.847656" xlink:href="#DejaVuSans-110"/>
     </g>
    </g>
   </g>
   <g id="text_2">
    <g clip-path="url(#pbee26f7bff)">
     <!-- sydney_aus -->
     <defs>
      <path d="M 44.28125 53.078125 
L 44.28125 44.578125 
Q 40.484375 46.53125 36.375 47.5 
Q 32.28125 48.484375 27.875 48.484375 
Q 21.1875 48.484375 17.84375 46.4375 
Q 14.5 44.390625 14.5 40.28125 
Q 14.5 37.15625 16.890625 35.375 
Q 19.28125 33.59375 26.515625 31.984375 
L 29.59375 31.296875 
Q 39.15625 29.25 43.1875 25.515625 
Q 47.21875 21.78125 47.21875 15.09375 
Q 47.21875 7.46875 41.1875 3.015625 
Q 35.15625 -1.421875 24.609375 -1.421875 
Q 20.21875 -1.421875 15.453125 -0.5625 
Q 10.6875 0.296875 5.421875 2 
L 5.421875 11.28125 
Q 10.40625 8.6875 15.234375 7.390625 
Q 20.0625 6.109375 24.8125 6.109375 
Q 31.15625 6.109375 34.5625 8.28125 
Q 37.984375 10.453125 37.984375 14.40625 
Q 37.984375 18.0625 35.515625 20.015625 
Q 33.0625 21.96875 24.703125 23.78125 
L 21.578125 24.515625 
Q 13.234375 26.265625 9.515625 29.90625 
Q 5.8125 33.546875 5.8125 39.890625 
Q 5.8125 47.609375 11.28125 51.796875 
Q 16.75 56 26.8125 56 
Q 31.78125 56 36.171875 55.265625 
Q 40.578125 54.546875 44.28125 53.078125 
z
" id="DejaVuSans-115"/>
      <path d="M 45.40625 46.390625 
L 45.40625 75.984375 
L 54.390625 75.984375 
L 54.390625 0 
L 45.40625 0 
L 45.40625 8.203125 
Q 42.578125 3.328125 38.25 0.953125 
Q 33.9375 -1.421875 27.875 -1.421875 
Q 17.96875 -1.421875 11.734375 6.484375 
Q 5.515625 14.40625 5.515625 27.296875 
Q 5.515625 40.1875 11.734375 48.09375 
Q 17.96875 56 27.875 56 
Q 33.9375 56 38.25 53.625 
Q 42.578125 51.265625 45.40625 46.390625 
z
M 14.796875 27.296875 
Q 14.796875 17.390625 18.875 11.75 
Q 22.953125 6.109375 30.078125 6.109375 
Q 37.203125 6.109375 41.296875 11.75 
Q 45.40625 17.390625 45.40625 27.296875 
Q 45.40625 37.203125 41.296875 42.84375 
Q 37.203125 48.484375 30.078125 48.484375 
Q 22.953125 48.484375 18.875 42.84375 
Q 14.796875 37.203125 14.796875 27.296875 
z
" id="DejaVuSans-100"/>
      <path d="M 56.203125 29.59375 
L 56.203125 25.203125 
L 14.890625 25.203125 
Q 15.484375 15.921875 20.484375 11.0625 
Q 25.484375 6.203125 34.421875 6.203125 
Q 39.59375 6.203125 44.453125 7.46875 
Q 49.3125 8.734375 54.109375 11.28125 
L 54.109375 2.78125 
Q 49.265625 0.734375 44.1875 -0.34375 
Q 39.109375 -1.421875 33.890625 -1.421875 
Q 20.796875 -1.421875 13.15625 6.1875 
Q 5.515625 13.8125 5.515625 26.8125 
Q 5.515625 40.234375 12.765625 48.109375 
Q 20.015625 56 32.328125 56 
Q 43.359375 56 49.78125 48.890625 
Q 56.203125 41.796875 56.203125 29.59375 
z
M 47.21875 32.234375 
Q 47.125 39.59375 43.09375 43.984375 
Q 39.0625 48.390625 32.421875 48.390625 
Q 24.90625 48.390625 20.390625 44.140625 
Q 15.875 39.890625 15.1875 32.171875 
z
" id="DejaVuSans-101"/>
      <path d="M 8.5 21.578125 
L 8.5 54.6875 
L 17.484375 54.6875 
L 17.484375 21.921875 
Q 17.484375 14.15625 20.5 10.265625 
Q 23.53125 6.390625 29.59375 6.390625 
Q 36.859375 6.390625 41.078125 11.03125 
Q 45.3125 15.671875 45.3125 23.6875 
L 45.3125 54.6875 
L 54.296875 54.6875 
L 54.296875 0 
L 45.3125 0 
L 45.3125 8.40625 
Q 42.046875 3.421875 37.71875 1 
Q 33.40625 -1.421875 27.6875 -1.421875 
Q 18.265625 -1.421875 13.375 4.4375 
Q 8.5 10.296875 8.5 21.578125 
z
M 31.109375 56 
z
" id="DejaVuSans-117"/>
     </defs>
     <g transform="translate(56.70074 164.152662)scale(0.08 -0.08)">
      <use xlink:href="#DejaVuSans-115"/>
      <use x="52.099609" xlink:href="#DejaVuSans-121"/>
      <use x="111.279297" xlink:href="#DejaVuSans-100"/>
      <use x="174.755859" xlink:href="#DejaVuSans-110"/>
      <use x="238.134766" xlink:href="#DejaVuSans-101"/>
      <use x="299.658203" xlink:href="#DejaVuSans-121"/>
      <use x="358.837891" xlink:href="#DejaVuSans-95"/>
      <use x="408.837891" xlink:href="#DejaVuSans-97"/>
      <use x="470.117188" xlink:href="#DejaVuSans-117"/>
      <use x="533.496094" xlink:href="#DejaVuSans-115"/>
     </g>
    </g>
   </g>
   <g id="text_3">
    <g clip-path="url(#pbee26f7bff)">
     <!-- melbourne_aus -->
     <defs>
      <path d="M 52 44.1875 
Q 55.375 50.25 60.0625 53.125 
Q 64.75 56 71.09375 56 
Q 79.640625 56 84.28125 50.015625 
Q 88.921875 44.046875 88.921875 33.015625 
L 88.921875 0 
L 79.890625 0 
L 79.890625 32.71875 
Q 79.890625 40.578125 77.09375 44.375 
Q 74.3125 48.1875 68.609375 48.1875 
Q 61.625 48.1875 57.5625 43.546875 
Q 53.515625 38.921875 53.515625 30.90625 
L 53.515625 0 
L 44.484375 0 
L 44.484375 32.71875 
Q 44.484375 40.625 41.703125 44.40625 
Q 38.921875 48.1875 33.109375 48.1875 
Q 26.21875 48.1875 22.15625 43.53125 
Q 18.109375 38.875 18.109375 30.90625 
L 18.109375 0 
L 9.078125 0 
L 9.078125 54.6875 
L 18.109375 54.6875 
L 18.109375 46.1875 
Q 21.1875 51.21875 25.484375 53.609375 
Q 29.78125 56 35.6875 56 
Q 41.65625 56 45.828125 52.96875 
Q 50 49.953125 52 44.1875 
z
" id="DejaVuSans-109"/>
      <path d="M 9.421875 75.984375 
L 18.40625 75.984375 
L 18.40625 0 
L 9.421875 0 
z
" id="DejaVuSans-108"/>
      <path d="M 48.6875 27.296875 
Q 48.6875 37.203125 44.609375 42.84375 
Q 40.53125 48.484375 33.40625 48.484375 
Q 26.265625 48.484375 22.1875 42.84375 
Q 18.109375 37.203125 18.109375 27.296875 
Q 18.109375 17.390625 22.1875 11.75 
Q 26.265625 6.109375 33.40625 6.109375 
Q 40.53125 6.109375 44.609375 11.75 
Q 48.6875 17.390625 48.6875 27.296875 
z
M 18.109375 46.390625 
Q 20.953125 51.265625 25.265625 53.625 
Q 29.59375 56 35.59375 56 
Q 45.5625 56 51.78125 48.09375 
Q 58.015625 40.1875 58.015625 27.296875 
Q 58.015625 14.40625 51.78125 6.484375 
Q 45.5625 -1.421875 35.59375 -1.421875 
Q 29.59375 -1.421875 25.265625 0.953125 
Q 20.953125 3.328125 18.109375 8.203125 
L 18.109375 0 
L 9.078125 0 
L 9.078125 75.984375 
L 18.109375 75.984375 
z
" id="DejaVuSans-98"/>
      <path d="M 30.609375 48.390625 
Q 23.390625 48.390625 19.1875 42.75 
Q 14.984375 37.109375 14.984375 27.296875 
Q 14.984375 17.484375 19.15625 11.84375 
Q 23.34375 6.203125 30.609375 6.203125 
Q 37.796875 6.203125 41.984375 11.859375 
Q 46.1875 17.53125 46.1875 27.296875 
Q 46.1875 37.015625 41.984375 42.703125 
Q 37.796875 48.390625 30.609375 48.390625 
z
M 30.609375 56 
Q 42.328125 56 49.015625 48.375 
Q 55.71875 40.765625 55.71875 27.296875 
Q 55.71875 13.875 49.015625 6.21875 
Q 42.328125 -1.421875 30.609375 -1.421875 
Q 18.84375 -1.421875 12.171875 6.21875 
Q 5.515625 13.875 5.515625 27.296875 
Q 5.515625 40.765625 12.171875 48.375 
Q 18.84375 56 30.609375 56 
z
" id="DejaVuSans-111"/>
      <path d="M 41.109375 46.296875 
Q 39.59375 47.171875 37.8125 47.578125 
Q 36.03125 48 33.890625 48 
Q 26.265625 48 22.1875 43.046875 
Q 18.109375 38.09375 18.109375 28.8125 
L 18.109375 0 
L 9.078125 0 
L 9.078125 54.6875 
L 18.109375 54.6875 
L 18.109375 46.1875 
Q 20.953125 51.171875 25.484375 53.578125 
Q 30.03125 56 36.53125 56 
Q 37.453125 56 38.578125 55.875 
Q 39.703125 55.765625 41.0625 55.515625 
z
" id="DejaVuSans-114"/>
     </defs>
     <g transform="translate(50.437197 192.735153)scale(0.08 -0.08)">
      <use xlink:href="#DejaVuSans-109"/>
      <use x="97.412109" xlink:href="#DejaVuSans-101"/>
      <use x="158.935547" xlink:href="#DejaVuSans-108"/>
      <use x="186.71875" xlink:href="#DejaVuSans-98"/>
      <use x="250.195312" xlink:href="#DejaVuSans-111"/>
      <use x="311.376953" xlink:href="#DejaVuSans-117"/>
      <use x="374.755859" xlink:href="#DejaVuSans-114"/>
      <use x="415.853516" xlink:href="#DejaVuSans-110"/>
      <use x="479.232422" xlink:href="#DejaVuSans-101"/>
      <use x="540.755859" xlink:href="#DejaVuSans-95"/>
      <use x="590.755859" xlink:href="#DejaVuSans-97"/>
      <use x="652.035156" xlink:href="#DejaVuSans-117"/>
      <use x="715.414062" xlink:href="#DejaVuSans-115"/>
     </g>
    </g>
   </g>
   <g id="text_4">
    <g clip-path="url(#pbee26f7bff)">
     <!-- singapore_sgp -->
     <defs>
      <path d="M 45.40625 27.984375 
Q 45.40625 37.75 41.375 43.109375 
Q 37.359375 48.484375 30.078125 48.484375 
Q 22.859375 48.484375 18.828125 43.109375 
Q 14.796875 37.75 14.796875 27.984375 
Q 14.796875 18.265625 18.828125 12.890625 
Q 22.859375 7.515625 30.078125 7.515625 
Q 37.359375 7.515625 41.375 12.890625 
Q 45.40625 18.265625 45.40625 27.984375 
z
M 54.390625 6.78125 
Q 54.390625 -7.171875 48.1875 -13.984375 
Q 42 -20.796875 29.203125 -20.796875 
Q 24.46875 -20.796875 20.265625 -20.09375 
Q 16.0625 -19.390625 12.109375 -17.921875 
L 12.109375 -9.1875 
Q 16.0625 -11.328125 19.921875 -12.34375 
Q 23.78125 -13.375 27.78125 -13.375 
Q 36.625 -13.375 41.015625 -8.765625 
Q 45.40625 -4.15625 45.40625 5.171875 
L 45.40625 9.625 
Q 42.625 4.78125 38.28125 2.390625 
Q 33.9375 0 27.875 0 
Q 17.828125 0 11.671875 7.65625 
Q 5.515625 15.328125 5.515625 27.984375 
Q 5.515625 40.671875 11.671875 48.328125 
Q 17.828125 56 27.875 56 
Q 33.9375 56 38.28125 53.609375 
Q 42.625 51.21875 45.40625 46.390625 
L 45.40625 54.6875 
L 54.390625 54.6875 
z
" id="DejaVuSans-103"/>
      <path d="M 18.109375 8.203125 
L 18.109375 -20.796875 
L 9.078125 -20.796875 
L 9.078125 54.6875 
L 18.109375 54.6875 
L 18.109375 46.390625 
Q 20.953125 51.265625 25.265625 53.625 
Q 29.59375 56 35.59375 56 
Q 45.5625 56 51.78125 48.09375 
Q 58.015625 40.1875 58.015625 27.296875 
Q 58.015625 14.40625 51.78125 6.484375 
Q 45.5625 -1.421875 35.59375 -1.421875 
Q 29.59375 -1.421875 25.265625 0.953125 
Q 20.953125 3.328125 18.109375 8.203125 
z
M 48.6875 27.296875 
Q 48.6875 37.203125 44.609375 42.84375 
Q 40.53125 48.484375 33.40625 48.484375 
Q 26.265625 48.484375 22.1875 42.84375 
Q 18.109375 37.203125 18.109375 27.296875 
Q 18.109375 17.390625 22.1875 11.75 
Q 26.265625 6.109375 33.40625 6.109375 
Q 40.53125 6.109375 44.609375 11.75 
Q 48.6875 17.390625 48.6875 27.296875 
z
" id="DejaVuSans-112"/>
     </defs>
     <g transform="translate(140.058536 174.582461)scale(0.08 -0.08)">
      <use xlink:href="#DejaVuSans-115"/>
      <use x="52.099609" xlink:href="#DejaVuSans-105"/>
      <use x="79.882812" xlink:href="#DejaVuSans-110"/>
      <use x="143.261719" xlink:href="#DejaVuSans-103"/>
      <use x="206.738281" xlink:href="#DejaVuSans-97"/>
      <use x="268.017578" xlink:href="#DejaVuSans-112"/>
      <use x="331.494141" xlink:href="#DejaVuSans-111"/>
      <use x="392.675781" xlink:href="#DejaVuSans-114"/>
      <use x="433.757812" xlink:href="#DejaVuSans-101"/>
      <use x="495.28125" xlink:href="#DejaVuSans-95"/>
      <use x="545.28125" xlink:href="#DejaVuSans-115"/>
      <use x="597.380859" xlink:href="#DejaVuSans-103"/>
      <use x="660.857422" xlink:href="#DejaVuSans-112"/>
     </g>
    </g>
   </g>
   <g id="text_5">
    <g clip-path="url(#pbee26f7bff)">
     <!-- newYork_usa -->
     <defs>
      <path d="M 4.203125 54.6875 
L 13.1875 54.6875 
L 24.421875 12.015625 
L 35.59375 54.6875 
L 46.1875 54.6875 
L 57.421875 12.015625 
L 68.609375 54.6875 
L 77.59375 54.6875 
L 63.28125 0 
L 52.6875 0 
L 40.921875 44.828125 
L 29.109375 0 
L 18.5 0 
z
" id="DejaVuSans-119"/>
      <path d="M -0.203125 72.90625 
L 10.40625 72.90625 
L 30.609375 42.921875 
L 50.6875 72.90625 
L 61.28125 72.90625 
L 35.5 34.71875 
L 35.5 0 
L 25.59375 0 
L 25.59375 34.71875 
z
" id="DejaVuSans-89"/>
      <path d="M 9.078125 75.984375 
L 18.109375 75.984375 
L 18.109375 31.109375 
L 44.921875 54.6875 
L 56.390625 54.6875 
L 27.390625 29.109375 
L 57.625 0 
L 45.90625 0 
L 18.109375 26.703125 
L 18.109375 0 
L 9.078125 0 
z
" id="DejaVuSans-107"/>
     </defs>
     <g transform="translate(102.467622 68.291538)scale(0.08 -0.08)">
      <use xlink:href="#DejaVuSans-110"/>
      <use x="63.378906" xlink:href="#DejaVuSans-101"/>
      <use x="124.902344" xlink:href="#DejaVuSans-119"/>
      <use x="206.689453" xlink:href="#DejaVuSans-89"/>
      <use x="267.570312" xlink:href="#DejaVuSans-111"/>
      <use x="328.751953" xlink:href="#DejaVuSans-114"/>
      <use x="369.865234" xlink:href="#DejaVuSans-107"/>
      <use x="427.775391" xlink:href="#DejaVuSans-95"/>
      <use x="477.775391" xlink:href="#DejaVuSans-117"/>
      <use x="541.154297" xlink:href="#DejaVuSans-115"/>
      <use x="593.253906" xlink:href="#DejaVuSans-97"/>
     </g>
    </g>
   </g>
   <g id="text_6">
    <g clip-path="url(#pbee26f7bff)">
     <!-- bremerhaven_ger -->
     <defs>
      <path d="M 2.984375 54.6875 
L 12.5 54.6875 
L 29.59375 8.796875 
L 46.6875 54.6875 
L 56.203125 54.6875 
L 35.6875 0 
L 23.484375 0 
z
" id="DejaVuSans-118"/>
     </defs>
     <g transform="translate(159.469123 87.587678)scale(0.08 -0.08)">
      <use xlink:href="#DejaVuSans-98"/>
      <use x="63.476562" xlink:href="#DejaVuSans-114"/>
      <use x="104.558594" xlink:href="#DejaVuSans-101"/>
      <use x="166.082031" xlink:href="#DejaVuSans-109"/>
      <use x="263.494141" xlink:href="#DejaVuSans-101"/>
      <use x="325.017578" xlink:href="#DejaVuSans-114"/>
      <use x="366.115234" xlink:href="#DejaVuSans-104"/>
      <use x="429.494141" xlink:href="#DejaVuSans-97"/>
      <use x="490.773438" xlink:href="#DejaVuSans-118"/>
      <use x="549.953125" xlink:href="#DejaVuSans-101"/>
      <use x="611.476562" xlink:href="#DejaVuSans-110"/>
      <use x="674.855469" xlink:href="#DejaVuSans-95"/>
      <use x="724.855469" xlink:href="#DejaVuSans-103"/>
      <use x="788.332031" xlink:href="#DejaVuSans-101"/>
      <use x="849.855469" xlink:href="#DejaVuSans-114"/>
     </g>
    </g>
   </g>
   <g id="text_7">
    <g clip-path="url(#pbee26f7bff)">
     <!-- leHavre_fra -->
     <defs>
      <path d="M 9.8125 72.90625 
L 19.671875 72.90625 
L 19.671875 43.015625 
L 55.515625 43.015625 
L 55.515625 72.90625 
L 65.375 72.90625 
L 65.375 0 
L 55.515625 0 
L 55.515625 34.71875 
L 19.671875 34.71875 
L 19.671875 0 
L 9.8125 0 
z
" id="DejaVuSans-72"/>
      <path d="M 37.109375 75.984375 
L 37.109375 68.5 
L 28.515625 68.5 
Q 23.6875 68.5 21.796875 66.546875 
Q 19.921875 64.59375 19.921875 59.515625 
L 19.921875 54.6875 
L 34.71875 54.6875 
L 34.71875 47.703125 
L 19.921875 47.703125 
L 19.921875 0 
L 10.890625 0 
L 10.890625 47.703125 
L 2.296875 47.703125 
L 2.296875 54.6875 
L 10.890625 54.6875 
L 10.890625 58.5 
Q 10.890625 67.625 15.140625 71.796875 
Q 19.390625 75.984375 28.609375 75.984375 
z
" id="DejaVuSans-102"/>
     </defs>
     <g transform="translate(165.290888 116.190333)scale(0.08 -0.08)">
      <use xlink:href="#DejaVuSans-108"/>
      <use x="27.783203" xlink:href="#DejaVuSans-101"/>
      <use x="89.306641" xlink:href="#DejaVuSans-72"/>
      <use x="164.501953" xlink:href="#DejaVuSans-97"/>
      <use x="225.78125" xlink:href="#DejaVuSans-118"/>
      <use x="284.960938" xlink:href="#DejaVuSans-114"/>
      <use x="326.042969" xlink:href="#DejaVuSans-101"/>
      <use x="387.566406" xlink:href="#DejaVuSans-95"/>
      <use x="437.566406" xlink:href="#DejaVuSans-102"/>
      <use x="472.771484" xlink:href="#DejaVuSans-114"/>
      <use x="513.884766" xlink:href="#DejaVuSans-97"/>
     </g>
    </g>
   </g>
   <g id="text_8">
    <g clip-path="url(#pbee26f7bff)">
     <!-- montreal_can -->
     <g transform="translate(159.419419 51.485741)scale(0.08 -0.08)">
      <use xlink:href="#DejaVuSans-109"/>
      <use x="97.412109" xlink:href="#DejaVuSans-111"/>
      <use x="158.59375" xlink:href="#DejaVuSans-110"/>
      <use x="221.972656" xlink:href="#DejaVuSans-116"/>
      <use x="261.181641" xlink:href="#DejaVuSans-114"/>
      <use x="302.263672" xlink:href="#DejaVuSans-101"/>
      <use x="363.787109" xlink:href="#DejaVuSans-97"/>
      <use x="425.066406" xlink:href="#DejaVuSans-108"/>
      <use x="452.849609" xlink:href="#DejaVuSans-95"/>
      <use x="502.849609" xlink:href="#DejaVuSans-99"/>
      <use x="557.830078" xlink:href="#DejaVuSans-97"/>
      <use x="619.109375" xlink:href="#DejaVuSans-110"/>
     </g>
    </g>
   </g>
   <g id="text_9">
    <g clip-path="url(#pbee26f7bff)">
     <!-- yokohama_jpn -->
     <defs>
      <path d="M 9.421875 54.6875 
L 18.40625 54.6875 
L 18.40625 -0.984375 
Q 18.40625 -11.421875 14.421875 -16.109375 
Q 10.453125 -20.796875 1.609375 -20.796875 
L -1.8125 -20.796875 
L -1.8125 -13.1875 
L 0.59375 -13.1875 
Q 5.71875 -13.1875 7.5625 -10.8125 
Q 9.421875 -8.453125 9.421875 -0.984375 
z
M 9.421875 75.984375 
L 18.40625 75.984375 
L 18.40625 64.59375 
L 9.421875 64.59375 
z
" id="DejaVuSans-106"/>
     </defs>
     <g transform="translate(183.983828 245.52293)scale(0.08 -0.08)">
      <use xlink:href="#DejaVuSans-121"/>
      <use x="59.179688" xlink:href="#DejaVuSans-111"/>
      <use x="120.361328" xlink:href="#DejaVuSans-107"/>
      <use x="178.224609" xlink:href="#DejaVuSans-111"/>
      <use x="239.40625" xlink:href="#DejaVuSans-104"/>
      <use x="302.785156" xlink:href="#DejaVuSans-97"/>
      <use x="364.064453" xlink:href="#DejaVuSans-109"/>
      <use x="461.476562" xlink:href="#DejaVuSans-97"/>
      <use x="522.755859" xlink:href="#DejaVuSans-95"/>
      <use x="572.755859" xlink:href="#DejaVuSans-106"/>
      <use x="600.539062" xlink:href="#DejaVuSans-112"/>
      <use x="664.015625" xlink:href="#DejaVuSans-110"/>
     </g>
    </g>
   </g>
   <g id="text_10">
    <g clip-path="url(#pbee26f7bff)">
     <!-- shanghai_chn -->
     <g transform="translate(291.058336 190.17059)scale(0.08 -0.08)">
      <use xlink:href="#DejaVuSans-115"/>
      <use x="52.099609" xlink:href="#DejaVuSans-104"/>
      <use x="115.478516" xlink:href="#DejaVuSans-97"/>
      <use x="176.757812" xlink:href="#DejaVuSans-110"/>
      <use x="240.136719" xlink:href="#DejaVuSans-103"/>
      <use x="303.613281" xlink:href="#DejaVuSans-104"/>
      <use x="366.992188" xlink:href="#DejaVuSans-97"/>
      <use x="428.271484" xlink:href="#DejaVuSans-105"/>
      <use x="456.054688" xlink:href="#DejaVuSans-95"/>
      <use x="506.054688" xlink:href="#DejaVuSans-99"/>
      <use x="561.035156" xlink:href="#DejaVuSans-104"/>
      <use x="624.414062" xlink:href="#DejaVuSans-110"/>
     </g>
    </g>
   </g>
   <g id="text_11">
    <g clip-path="url(#pbee26f7bff)">
     <!-- qingdao_chn -->
     <defs>
      <path d="M 14.796875 27.296875 
Q 14.796875 17.390625 18.875 11.75 
Q 22.953125 6.109375 30.078125 6.109375 
Q 37.203125 6.109375 41.296875 11.75 
Q 45.40625 17.390625 45.40625 27.296875 
Q 45.40625 37.203125 41.296875 42.84375 
Q 37.203125 48.484375 30.078125 48.484375 
Q 22.953125 48.484375 18.875 42.84375 
Q 14.796875 37.203125 14.796875 27.296875 
z
M 45.40625 8.203125 
Q 42.578125 3.328125 38.25 0.953125 
Q 33.9375 -1.421875 27.875 -1.421875 
Q 17.96875 -1.421875 11.734375 6.484375 
Q 5.515625 14.40625 5.515625 27.296875 
Q 5.515625 40.1875 11.734375 48.09375 
Q 17.96875 56 27.875 56 
Q 33.9375 56 38.25 53.625 
Q 42.578125 51.265625 45.40625 46.390625 
L 45.40625 54.6875 
L 54.390625 54.6875 
L 54.390625 -20.796875 
L 45.40625 -20.796875 
z
" id="DejaVuSans-113"/>
     </defs>
     <g transform="translate(256.739541 199.821451)scale(0.08 -0.08)">
      <use xlink:href="#DejaVuSans-113"/>
      <use x="63.476562" xlink:href="#DejaVuSans-105"/>
      <use x="91.259766" xlink:href="#DejaVuSans-110"/>
      <use x="154.638672" xlink:href="#DejaVuSans-103"/>
      <use x="218.115234" xlink:href="#DejaVuSans-100"/>
      <use x="281.591797" xlink:href="#DejaVuSans-97"/>
      <use x="342.871094" xlink:href="#DejaVuSans-111"/>
      <use x="404.052734" xlink:href="#DejaVuSans-95"/>
      <use x="454.052734" xlink:href="#DejaVuSans-99"/>
      <use x="509.033203" xlink:href="#DejaVuSans-104"/>
      <use x="572.412109" xlink:href="#DejaVuSans-110"/>
     </g>
    </g>
   </g>
   <g id="text_12">
    <g clip-path="url(#pbee26f7bff)">
     <!-- pusan_kor -->
     <g transform="translate(228.394513 167.461818)scale(0.08 -0.08)">
      <use xlink:href="#DejaVuSans-112"/>
      <use x="63.476562" xlink:href="#DejaVuSans-117"/>
      <use x="126.855469" xlink:href="#DejaVuSans-115"/>
      <use x="178.955078" xlink:href="#DejaVuSans-97"/>
      <use x="240.234375" xlink:href="#DejaVuSans-110"/>
      <use x="303.613281" xlink:href="#DejaVuSans-95"/>
      <use x="353.613281" xlink:href="#DejaVuSans-107"/>
      <use x="411.476562" xlink:href="#DejaVuSans-111"/>
      <use x="472.658203" xlink:href="#DejaVuSans-114"/>
     </g>
    </g>
   </g>
   <g id="text_13">
    <g clip-path="url(#pbee26f7bff)">
     <!-- princeRupert_can -->
     <defs>
      <path d="M 44.390625 34.1875 
Q 47.5625 33.109375 50.5625 29.59375 
Q 53.5625 26.078125 56.59375 19.921875 
L 66.609375 0 
L 56 0 
L 46.6875 18.703125 
Q 43.0625 26.03125 39.671875 28.421875 
Q 36.28125 30.8125 30.421875 30.8125 
L 19.671875 30.8125 
L 19.671875 0 
L 9.8125 0 
L 9.8125 72.90625 
L 32.078125 72.90625 
Q 44.578125 72.90625 50.734375 67.671875 
Q 56.890625 62.453125 56.890625 51.90625 
Q 56.890625 45.015625 53.6875 40.46875 
Q 50.484375 35.9375 44.390625 34.1875 
z
M 19.671875 64.796875 
L 19.671875 38.921875 
L 32.078125 38.921875 
Q 39.203125 38.921875 42.84375 42.21875 
Q 46.484375 45.515625 46.484375 51.90625 
Q 46.484375 58.296875 42.84375 61.546875 
Q 39.203125 64.796875 32.078125 64.796875 
z
" id="DejaVuSans-82"/>
     </defs>
     <g transform="translate(325.306055 279.555873)scale(0.08 -0.08)">
      <use xlink:href="#DejaVuSans-112"/>
      <use x="63.476562" xlink:href="#DejaVuSans-114"/>
      <use x="104.589844" xlink:href="#DejaVuSans-105"/>
      <use x="132.373047" xlink:href="#DejaVuSans-110"/>
      <use x="195.751953" xlink:href="#DejaVuSans-99"/>
      <use x="250.732422" xlink:href="#DejaVuSans-101"/>
      <use x="312.255859" xlink:href="#DejaVuSans-82"/>
      <use x="381.675781" xlink:href="#DejaVuSans-117"/>
      <use x="445.054688" xlink:href="#DejaVuSans-112"/>
      <use x="508.53125" xlink:href="#DejaVuSans-101"/>
      <use x="570.054688" xlink:href="#DejaVuSans-114"/>
      <use x="611.167969" xlink:href="#DejaVuSans-116"/>
      <use x="650.376953" xlink:href="#DejaVuSans-95"/>
      <use x="700.376953" xlink:href="#DejaVuSans-99"/>
      <use x="755.357422" xlink:href="#DejaVuSans-97"/>
      <use x="816.636719" xlink:href="#DejaVuSans-110"/>
     </g>
    </g>
   </g>
   <g id="text_14">
    <g clip-path="url(#pbee26f7bff)">
     <!-- losAngeles_usa -->
     <defs>
      <path d="M 34.1875 63.1875 
L 20.796875 26.90625 
L 47.609375 26.90625 
z
M 28.609375 72.90625 
L 39.796875 72.90625 
L 67.578125 0 
L 57.328125 0 
L 50.6875 18.703125 
L 17.828125 18.703125 
L 11.1875 0 
L 0.78125 0 
z
" id="DejaVuSans-65"/>
     </defs>
     <g transform="translate(360.722332 265.437902)scale(0.08 -0.08)">
      <use xlink:href="#DejaVuSans-108"/>
      <use x="27.783203" xlink:href="#DejaVuSans-111"/>
      <use x="88.964844" xlink:href="#DejaVuSans-115"/>
      <use x="141.064453" xlink:href="#DejaVuSans-65"/>
      <use x="209.472656" xlink:href="#DejaVuSans-110"/>
      <use x="272.851562" xlink:href="#DejaVuSans-103"/>
      <use x="336.328125" xlink:href="#DejaVuSans-101"/>
      <use x="397.851562" xlink:href="#DejaVuSans-108"/>
      <use x="425.634766" xlink:href="#DejaVuSans-101"/>
      <use x="487.158203" xlink:href="#DejaVuSans-115"/>
      <use x="539.257812" xlink:href="#DejaVuSans-95"/>
      <use x="589.257812" xlink:href="#DejaVuSans-117"/>
      <use x="652.636719" xlink:href="#DejaVuSans-115"/>
      <use x="704.736328" xlink:href="#DejaVuSans-97"/>
     </g>
    </g>
   </g>
   <g id="text_15">
    <g clip-path="url(#pbee26f7bff)">
     <!-- oakland_usa -->
     <g transform="translate(297.905821 283.541664)scale(0.08 -0.08)">
      <use xlink:href="#DejaVuSans-111"/>
      <use x="61.181641" xlink:href="#DejaVuSans-97"/>
      <use x="122.460938" xlink:href="#DejaVuSans-107"/>
      <use x="180.371094" xlink:href="#DejaVuSans-108"/>
      <use x="208.154297" xlink:href="#DejaVuSans-97"/>
      <use x="269.433594" xlink:href="#DejaVuSans-110"/>
      <use x="332.8125" xlink:href="#DejaVuSans-100"/>
      <use x="396.289062" xlink:href="#DejaVuSans-95"/>
      <use x="446.289062" xlink:href="#DejaVuSans-117"/>
      <use x="509.667969" xlink:href="#DejaVuSans-115"/>
      <use x="561.767578" xlink:href="#DejaVuSans-97"/>
     </g>
    </g>
   </g>
   <g id="text_16">
    <g clip-path="url(#pbee26f7bff)">
     <!-- seattle_usa -->
     <g transform="translate(282.359596 241.974107)scale(0.08 -0.08)">
      <use xlink:href="#DejaVuSans-115"/>
      <use x="52.099609" xlink:href="#DejaVuSans-101"/>
      <use x="113.623047" xlink:href="#DejaVuSans-97"/>
      <use x="174.902344" xlink:href="#DejaVuSans-116"/>
      <use x="214.111328" xlink:href="#DejaVuSans-116"/>
      <use x="253.320312" xlink:href="#DejaVuSans-108"/>
      <use x="281.103516" xlink:href="#DejaVuSans-101"/>
      <use x="342.626953" xlink:href="#DejaVuSans-95"/>
      <use x="392.626953" xlink:href="#DejaVuSans-117"/>
      <use x="456.005859" xlink:href="#DejaVuSans-115"/>
      <use x="508.105469" xlink:href="#DejaVuSans-97"/>
     </g>
    </g>
   </g>
   <g id="text_17">
    <g clip-path="url(#pbee26f7bff)">
     <!-- vancouver_can -->
     <g transform="translate(219.955996 235.044701)scale(0.08 -0.08)">
      <use xlink:href="#DejaVuSans-118"/>
      <use x="59.179688" xlink:href="#DejaVuSans-97"/>
      <use x="120.458984" xlink:href="#DejaVuSans-110"/>
      <use x="183.837891" xlink:href="#DejaVuSans-99"/>
      <use x="238.818359" xlink:href="#DejaVuSans-111"/>
      <use x="300" xlink:href="#DejaVuSans-117"/>
      <use x="363.378906" xlink:href="#DejaVuSans-118"/>
      <use x="422.558594" xlink:href="#DejaVuSans-101"/>
      <use x="484.082031" xlink:href="#DejaVuSans-114"/>
      <use x="525.195312" xlink:href="#DejaVuSans-95"/>
      <use x="575.195312" xlink:href="#DejaVuSans-99"/>
      <use x="630.175781" xlink:href="#DejaVuSans-97"/>
      <use x="691.455078" xlink:href="#DejaVuSans-110"/>
     </g>
    </g>
   </g>
   <g id="text_18">
    <g clip-path="url(#pbee26f7bff)">
     <!-- durban_sau -->
     <g transform="translate(160.101899 212.613528)scale(0.08 -0.08)">
      <use xlink:href="#DejaVuSans-100"/>
      <use x="63.476562" xlink:href="#DejaVuSans-117"/>
      <use x="126.855469" xlink:href="#DejaVuSans-114"/>
      <use x="167.96875" xlink:href="#DejaVuSans-98"/>
      <use x="231.445312" xlink:href="#DejaVuSans-97"/>
      <use x="292.724609" xlink:href="#DejaVuSans-110"/>
      <use x="356.103516" xlink:href="#DejaVuSans-95"/>
      <use x="406.103516" xlink:href="#DejaVuSans-115"/>
      <use x="458.203125" xlink:href="#DejaVuSans-97"/>
      <use x="519.482422" xlink:href="#DejaVuSans-117"/>
     </g>
    </g>
   </g>
   <g id="text_19">
    <g clip-path="url(#pbee26f7bff)">
     <!-- itagual_bra -->
     <g transform="translate(252.77009 136.821861)scale(0.08 -0.08)">
      <use xlink:href="#DejaVuSans-105"/>
      <use x="27.783203" xlink:href="#DejaVuSans-116"/>
      <use x="66.992188" xlink:href="#DejaVuSans-97"/>
      <use x="128.271484" xlink:href="#DejaVuSans-103"/>
      <use x="191.748047" xlink:href="#DejaVuSans-117"/>
      <use x="255.126953" xlink:href="#DejaVuSans-97"/>
      <use x="316.40625" xlink:href="#DejaVuSans-108"/>
      <use x="344.189453" xlink:href="#DejaVuSans-95"/>
      <use x="394.189453" xlink:href="#DejaVuSans-98"/>
      <use x="457.666016" xlink:href="#DejaVuSans-114"/>
      <use x="498.779297" xlink:href="#DejaVuSans-97"/>
     </g>
    </g>
   </g>
   <g id="text_20">
    <g clip-path="url(#pbee26f7bff)">
     <!-- santos_bra -->
     <g transform="translate(290.173222 149.236728)scale(0.08 -0.08)">
      <use xlink:href="#DejaVuSans-115"/>
      <use x="52.099609" xlink:href="#DejaVuSans-97"/>
      <use x="113.378906" xlink:href="#DejaVuSans-110"/>
      <use x="176.757812" xlink:href="#DejaVuSans-116"/>
      <use x="215.966797" xlink:href="#DejaVuSans-111"/>
      <use x="277.148438" xlink:href="#DejaVuSans-115"/>
      <use x="329.248047" xlink:href="#DejaVuSans-95"/>
      <use x="379.248047" xlink:href="#DejaVuSans-98"/>
      <use x="442.724609" xlink:href="#DejaVuSans-114"/>
      <use x="483.837891" xlink:href="#DejaVuSans-97"/>
     </g>
    </g>
   </g>
   <g id="text_21">
    <g clip-path="url(#pbee26f7bff)">
     <!-- manzanillo_mex -->
     <defs>
      <path d="M 5.515625 54.6875 
L 48.1875 54.6875 
L 48.1875 46.484375 
L 14.40625 7.171875 
L 48.1875 7.171875 
L 48.1875 0 
L 4.296875 0 
L 4.296875 8.203125 
L 38.09375 47.515625 
L 5.515625 47.515625 
z
" id="DejaVuSans-122"/>
      <path d="M 54.890625 54.6875 
L 35.109375 28.078125 
L 55.90625 0 
L 45.3125 0 
L 29.390625 21.484375 
L 13.484375 0 
L 2.875 0 
L 24.125 28.609375 
L 4.6875 54.6875 
L 15.28125 54.6875 
L 29.78125 35.203125 
L 44.28125 54.6875 
z
" id="DejaVuSans-120"/>
     </defs>
     <g transform="translate(292.964956 220.800096)scale(0.08 -0.08)">
      <use xlink:href="#DejaVuSans-109"/>
      <use x="97.412109" xlink:href="#DejaVuSans-97"/>
      <use x="158.691406" xlink:href="#DejaVuSans-110"/>
      <use x="222.070312" xlink:href="#DejaVuSans-122"/>
      <use x="274.560547" xlink:href="#DejaVuSans-97"/>
      <use x="335.839844" xlink:href="#DejaVuSans-110"/>
      <use x="399.21875" xlink:href="#DejaVuSans-105"/>
      <use x="427.001953" xlink:href="#DejaVuSans-108"/>
      <use x="454.785156" xlink:href="#DejaVuSans-108"/>
      <use x="482.568359" xlink:href="#DejaVuSans-111"/>
      <use x="543.75" xlink:href="#DejaVuSans-95"/>
      <use x="593.75" xlink:href="#DejaVuSans-109"/>
      <use x="691.162109" xlink:href="#DejaVuSans-101"/>
      <use x="752.669922" xlink:href="#DejaVuSans-120"/>
     </g>
    </g>
   </g>
   <g id="text_22">
    <g clip-path="url(#pbee26f7bff)">
     <!-- sanAntonio_par -->
     <g transform="translate(200.057816 219.629329)scale(0.08 -0.08)">
      <use xlink:href="#DejaVuSans-115"/>
      <use x="52.099609" xlink:href="#DejaVuSans-97"/>
      <use x="113.378906" xlink:href="#DejaVuSans-110"/>
      <use x="176.757812" xlink:href="#DejaVuSans-65"/>
      <use x="245.166016" xlink:href="#DejaVuSans-110"/>
      <use x="308.544922" xlink:href="#DejaVuSans-116"/>
      <use x="347.753906" xlink:href="#DejaVuSans-111"/>
      <use x="408.935547" xlink:href="#DejaVuSans-110"/>
      <use x="472.314453" xlink:href="#DejaVuSans-105"/>
      <use x="500.097656" xlink:href="#DejaVuSans-111"/>
      <use x="561.279297" xlink:href="#DejaVuSans-95"/>
      <use x="611.279297" xlink:href="#DejaVuSans-112"/>
      <use x="674.755859" xlink:href="#DejaVuSans-97"/>
      <use x="736.035156" xlink:href="#DejaVuSans-114"/>
     </g>
    </g>
   </g>
  </g>
 </g>
 <defs>
  <clipPath id="pbee26f7bff">
   <rect height="266.112" width="357.12" x="57.6" y="41.472"/>
  </clipPath>
 </defs>
</svg>
