<?xml version="1.0" encoding="utf-8" standalone="no"?>
<!DOCTYPE svg PUBLIC "-//W3C//DTD SVG 1.1//EN"
  "http://www.w3.org/Graphics/SVG/1.1/DTD/svg11.dtd">
<!-- Created with matplotlib (https://matplotlib.org/) -->
<svg height="345.6pt" version="1.1" viewBox="0 0 460.8 345.6" width="460.8pt" xmlns="http://www.w3.org/2000/svg" xmlns:xlink="http://www.w3.org/1999/xlink">
 <defs>
  <style type="text/css">
*{stroke-linecap:butt;stroke-linejoin:round;}
  </style>
 </defs>
 <g id="figure_1">
  <g id="patch_1">
   <path d="M 0 345.6 
L 460.8 345.6 
L 460.8 0 
L 0 0 
z
" style="fill:#ffffff;"/>
  </g>
  <g id="axes_1">
   <g id="patch_2">
    <path clip-path="url(#pdba5097925)" d="M 232.457835 175.745129 
Q 176.961572 202.283206 124.491236 227.374297 
" style="fill:none;stroke:#feedb0;stroke-linecap:round;stroke-opacity:0.5;stroke-width:3;"/>
    <path clip-path="url(#pdba5097925)" d="M 128.96268 227.452981 
L 124.491236 227.374297 
L 127.237049 223.844352 
L 128.96268 227.452981 
z
" style="fill:#feedb0;fill-opacity:0.5;stroke:#feedb0;stroke-linecap:round;stroke-opacity:0.5;stroke-width:3;"/>
   </g>
   <g id="patch_3">
    <path clip-path="url(#pdba5097925)" d="M 113.651998 232.557575 
Q 101.660677 228.909673 92.878258 226.237957 
" style="fill:none;stroke:#feedb0;stroke-linecap:round;stroke-opacity:0.5;stroke-width:3;"/>
    <path clip-path="url(#pdba5097925)" d="M 96.123014 229.315547 
L 92.878258 226.237957 
L 97.287184 225.488707 
L 96.123014 229.315547 
z
" style="fill:#feedb0;fill-opacity:0.5;stroke:#feedb0;stroke-linecap:round;stroke-opacity:0.5;stroke-width:3;"/>
   </g>
   <g id="patch_4">
    <path clip-path="url(#pdba5097925)" d="M 81.386304 222.741968 
Q 152.788902 200.529335 220.988794 179.313032 
" style="fill:none;stroke:#feedb0;stroke-linecap:round;stroke-opacity:0.5;stroke-width:3;"/>
    <path clip-path="url(#pdba5097925)" d="M 216.575248 178.5915 
L 220.988794 179.313032 
L 217.76344 182.41095 
L 216.575248 178.5915 
z
" style="fill:#feedb0;fill-opacity:0.5;stroke:#feedb0;stroke-linecap:round;stroke-opacity:0.5;stroke-width:3;"/>
   </g>
   <g id="patch_5">
    <path clip-path="url(#pdba5097925)" d="M 200.334489 173.465561 
Q 160.571066 200.572544 123.579037 225.790248 
" style="fill:none;stroke:#fbd094;stroke-linecap:round;stroke-opacity:0.5;stroke-width:3;"/>
    <path clip-path="url(#pdba5097925)" d="M 128.010666 225.189694 
L 123.579037 225.790248 
L 125.757571 221.884613 
L 128.010666 225.189694 
z
" style="fill:#fbd094;fill-opacity:0.5;stroke:#fbd094;stroke-linecap:round;stroke-opacity:0.5;stroke-width:3;"/>
   </g>
   <g id="patch_6">
    <path clip-path="url(#pdba5097925)" d="M 113.651998 232.557575 
Q 101.660677 228.909673 92.878258 226.237957 
" style="fill:none;stroke:#fbd094;stroke-linecap:round;stroke-opacity:0.5;stroke-width:3;"/>
    <path clip-path="url(#pdba5097925)" d="M 96.123014 229.315547 
L 92.878258 226.237957 
L 97.287184 225.488707 
L 96.123014 229.315547 
z
" style="fill:#fbd094;fill-opacity:0.5;stroke:#fbd094;stroke-linecap:round;stroke-opacity:0.5;stroke-width:3;"/>
   </g>
   <g id="patch_7">
    <path clip-path="url(#pdba5097925)" d="M 81.386304 222.741968 
Q 136.85831 199.7617 189.231589 178.065135 
" style="fill:none;stroke:#fbd094;stroke-linecap:round;stroke-opacity:0.5;stroke-width:3;"/>
    <path clip-path="url(#pdba5097925)" d="M 184.770689 177.748317 
L 189.231589 178.065135 
L 186.301594 181.443764 
L 184.770689 177.748317 
z
" style="fill:#fbd094;fill-opacity:0.5;stroke:#fbd094;stroke-linecap:round;stroke-opacity:0.5;stroke-width:3;"/>
   </g>
   <g id="patch_8">
    <path clip-path="url(#pdba5097925)" d="M 320.647251 56.263266 
Q 328.575777 70.599817 334.881077 82.001212 
" style="fill:none;stroke:#f7b37c;stroke-linecap:round;stroke-opacity:0.5;stroke-width:3;"/>
    <path clip-path="url(#pdba5097925)" d="M 334.695456 77.53293 
L 334.881077 82.001212 
L 331.195079 79.468739 
L 334.695456 77.53293 
z
" style="fill:#f7b37c;fill-opacity:0.5;stroke:#f7b37c;stroke-linecap:round;stroke-opacity:0.5;stroke-width:3;"/>
   </g>
   <g id="patch_9">
    <path clip-path="url(#pdba5097925)" d="M 340.695244 92.514527 
Q 327.690843 99.331985 317.657082 104.592106 
" style="fill:none;stroke:#f7b37c;stroke-linecap:round;stroke-opacity:0.5;stroke-width:3;"/>
    <path clip-path="url(#pdba5097925)" d="M 322.128393 104.506223 
L 317.657082 104.592106 
L 320.271162 100.963527 
L 322.128393 104.506223 
z
" style="fill:#f7b37c;fill-opacity:0.5;stroke:#f7b37c;stroke-linecap:round;stroke-opacity:0.5;stroke-width:3;"/>
   </g>
   <g id="patch_10">
    <path clip-path="url(#pdba5097925)" d="M 307.019867 110.168585 
Q 312.772662 87.412473 317.703395 67.908162 
" style="fill:none;stroke:#f7b37c;stroke-linecap:round;stroke-opacity:0.5;stroke-width:3;"/>
    <path clip-path="url(#pdba5097925)" d="M 314.784028 71.295979 
L 317.703395 67.908162 
L 318.662028 72.276345 
L 314.784028 71.295979 
z
" style="fill:#f7b37c;fill-opacity:0.5;stroke:#f7b37c;stroke-linecap:round;stroke-opacity:0.5;stroke-width:3;"/>
   </g>
   <g id="patch_11">
    <path clip-path="url(#pdba5097925)" d="M 370.325161 130.348995 
Q 358.180404 114.841343 348.103687 101.974374 
" style="fill:none;stroke:#f29567;stroke-linecap:round;stroke-opacity:0.5;stroke-width:3;"/>
    <path clip-path="url(#pdba5097925)" d="M 348.99537 106.356714 
L 348.103687 101.974374 
L 352.144569 103.890431 
L 348.99537 106.356714 
z
" style="fill:#f29567;fill-opacity:0.5;stroke:#f29567;stroke-linecap:round;stroke-opacity:0.5;stroke-width:3;"/>
   </g>
   <g id="patch_12">
    <path clip-path="url(#pdba5097925)" d="M 340.695244 92.514527 
Q 327.690843 99.331985 317.657082 104.592106 
" style="fill:none;stroke:#f29567;stroke-linecap:round;stroke-opacity:0.5;stroke-width:3;"/>
    <path clip-path="url(#pdba5097925)" d="M 322.128393 104.506223 
L 317.657082 104.592106 
L 320.271162 100.963527 
L 322.128393 104.506223 
z
" style="fill:#f29567;fill-opacity:0.5;stroke:#f29567;stroke-linecap:round;stroke-opacity:0.5;stroke-width:3;"/>
   </g>
   <g id="patch_13">
    <path clip-path="url(#pdba5097925)" d="M 307.019867 110.168585 
Q 334.547856 118.943934 358.880186 126.700575 
" style="fill:none;stroke:#f29567;stroke-linecap:round;stroke-opacity:0.5;stroke-width:3;"/>
    <path clip-path="url(#pdba5097925)" d="M 355.676582 123.580171 
L 358.880186 126.700575 
L 354.461701 127.391215 
L 355.676582 123.580171 
z
" style="fill:#f29567;fill-opacity:0.5;stroke:#f29567;stroke-linecap:round;stroke-opacity:0.5;stroke-width:3;"/>
   </g>
   <g id="patch_14">
    <path clip-path="url(#pdba5097925)" d="M 200.334489 173.465561 
Q 212.076842 174.298833 220.473507 174.894685 
" style="fill:none;stroke:#eb7858;stroke-linecap:round;stroke-opacity:0.5;stroke-width:3;"/>
    <path clip-path="url(#pdba5097925)" d="M 216.625111 172.616562 
L 220.473507 174.894685 
L 216.341971 176.606529 
L 216.625111 172.616562 
z
" style="fill:#eb7858;fill-opacity:0.5;stroke:#eb7858;stroke-linecap:round;stroke-opacity:0.5;stroke-width:3;"/>
   </g>
   <g id="patch_15">
    <path clip-path="url(#pdba5097925)" d="M 232.457835 175.745129 
Q 201.920923 167.366038 174.618556 159.874481 
" style="fill:none;stroke:#eb7858;stroke-linecap:round;stroke-opacity:0.5;stroke-width:3;"/>
    <path clip-path="url(#pdba5097925)" d="M 177.946753 162.861638 
L 174.618556 159.874481 
L 179.005199 159.004217 
L 177.946753 162.861638 
z
" style="fill:#eb7858;fill-opacity:0.5;stroke:#eb7858;stroke-linecap:round;stroke-opacity:0.5;stroke-width:3;"/>
   </g>
   <g id="patch_16">
    <path clip-path="url(#pdba5097925)" d="M 163.032071 156.69524 
Q 177.733103 163.304491 189.374974 168.538412 
" style="fill:none;stroke:#eb7858;stroke-linecap:round;stroke-opacity:0.5;stroke-width:3;"/>
    <path clip-path="url(#pdba5097925)" d="M 186.546799 165.074104 
L 189.374974 168.538412 
L 184.906623 168.722367 
L 186.546799 165.074104 
z
" style="fill:#eb7858;fill-opacity:0.5;stroke:#eb7858;stroke-linecap:round;stroke-opacity:0.5;stroke-width:3;"/>
   </g>
   <g id="patch_17">
    <path clip-path="url(#pdba5097925)" d="M 321.962924 200.821627 
Q 281.379981 189.451569 244.026777 178.986381 
" style="fill:none;stroke:#e05d53;stroke-linecap:round;stroke-opacity:0.5;stroke-width:3;"/>
    <path clip-path="url(#pdba5097925)" d="M 247.338904 181.991346 
L 244.026777 178.986381 
L 248.418025 178.139658 
L 247.338904 181.991346 
z
" style="fill:#e05d53;fill-opacity:0.5;stroke:#e05d53;stroke-linecap:round;stroke-opacity:0.5;stroke-width:3;"/>
   </g>
   <g id="patch_18">
    <path clip-path="url(#pdba5097925)" d="M 232.457835 175.745129 
Q 220.715481 174.911856 212.318817 174.316004 
" style="fill:none;stroke:#e05d53;stroke-linecap:round;stroke-opacity:0.5;stroke-width:3;"/>
    <path clip-path="url(#pdba5097925)" d="M 216.167213 176.594127 
L 212.318817 174.316004 
L 216.450353 172.604161 
L 216.167213 176.594127 
z
" style="fill:#e05d53;fill-opacity:0.5;stroke:#e05d53;stroke-linecap:round;stroke-opacity:0.5;stroke-width:3;"/>
   </g>
   <g id="patch_19">
    <path clip-path="url(#pdba5097925)" d="M 200.334489 173.465561 
Q 249.954194 144.025938 296.689296 116.297765 
" style="fill:none;stroke:#e05d53;stroke-linecap:round;stroke-opacity:0.5;stroke-width:3;"/>
    <path clip-path="url(#pdba5097925)" d="M 292.228693 116.618743 
L 296.689296 116.297765 
L 294.269717 120.058833 
L 292.228693 116.618743 
z
" style="fill:#e05d53;fill-opacity:0.5;stroke:#e05d53;stroke-linecap:round;stroke-opacity:0.5;stroke-width:3;"/>
   </g>
   <g id="patch_20">
    <path clip-path="url(#pdba5097925)" d="M 307.019867 110.168585 
Q 320.024268 103.351127 330.058029 98.091005 
" style="fill:none;stroke:#e05d53;stroke-linecap:round;stroke-opacity:0.5;stroke-width:3;"/>
    <path clip-path="url(#pdba5097925)" d="M 325.586718 98.176889 
L 330.058029 98.091005 
L 327.443949 101.719584 
L 325.586718 98.176889 
z
" style="fill:#e05d53;fill-opacity:0.5;stroke:#e05d53;stroke-linecap:round;stroke-opacity:0.5;stroke-width:3;"/>
   </g>
   <g id="patch_21">
    <path clip-path="url(#pdba5097925)" d="M 340.695244 92.514527 
Q 274.265045 130.827183 210.740356 167.464128 
" style="fill:none;stroke:#e05d53;stroke-linecap:round;stroke-opacity:0.5;stroke-width:3;"/>
    <path clip-path="url(#pdba5097925)" d="M 215.204581 167.198237 
L 210.740356 167.464128 
L 213.206179 163.733214 
L 215.204581 167.198237 
z
" style="fill:#e05d53;fill-opacity:0.5;stroke:#e05d53;stroke-linecap:round;stroke-opacity:0.5;stroke-width:3;"/>
   </g>
   <g id="patch_22">
    <path clip-path="url(#pdba5097925)" d="M 200.334489 173.465561 
Q 244.1171 182.198468 284.610402 190.275287 
" style="fill:none;stroke:#e05d53;stroke-linecap:round;stroke-opacity:0.5;stroke-width:3;"/>
    <path clip-path="url(#pdba5097925)" d="M 281.078888 187.531493 
L 284.610402 190.275287 
L 280.296458 191.454222 
L 281.078888 187.531493 
z
" style="fill:#e05d53;fill-opacity:0.5;stroke:#e05d53;stroke-linecap:round;stroke-opacity:0.5;stroke-width:3;"/>
   </g>
   <g id="patch_23">
    <path clip-path="url(#pdba5097925)" d="M 296.392109 192.625274 
Q 280.366545 177.537527 266.783067 164.748955 
" style="fill:none;stroke:#e05d53;stroke-linecap:round;stroke-opacity:0.5;stroke-width:3;"/>
    <path clip-path="url(#pdba5097925)" d="M 268.324462 168.947062 
L 266.783067 164.748955 
L 271.066389 166.034703 
L 268.324462 168.947062 
z
" style="fill:#e05d53;fill-opacity:0.5;stroke:#e05d53;stroke-linecap:round;stroke-opacity:0.5;stroke-width:3;"/>
   </g>
   <g id="patch_24">
    <path clip-path="url(#pdba5097925)" d="M 258.036568 156.514303 
Q 286.439395 176.200287 312.085526 193.975608 
" style="fill:none;stroke:#e05d53;stroke-linecap:round;stroke-opacity:0.5;stroke-width:3;"/>
    <path clip-path="url(#pdba5097925)" d="M 309.937276 190.053234 
L 312.085526 193.975608 
L 307.658677 193.340784 
L 309.937276 190.053234 
z
" style="fill:#e05d53;fill-opacity:0.5;stroke:#e05d53;stroke-linecap:round;stroke-opacity:0.5;stroke-width:3;"/>
   </g>
   <g id="patch_25">
    <path clip-path="url(#pdba5097925)" d="M 296.392109 192.625274 
Q 305.052537 195.401248 310.518934 197.153422 
" style="fill:none;stroke:#ce4356;stroke-linecap:round;stroke-opacity:0.5;stroke-width:3;"/>
    <path clip-path="url(#pdba5097925)" d="M 307.320307 194.027917 
L 310.518934 197.153422 
L 306.099354 197.837021 
L 307.320307 194.027917 
z
" style="fill:#ce4356;fill-opacity:0.5;stroke:#ce4356;stroke-linecap:round;stroke-opacity:0.5;stroke-width:3;"/>
   </g>
   <g id="patch_26">
    <path clip-path="url(#pdba5097925)" d="M 321.962924 200.821627 
Q 342.018085 232.99713 360.299046 262.326195 
" style="fill:none;stroke:#ce4356;stroke-linecap:round;stroke-opacity:0.5;stroke-width:3;"/>
    <path clip-path="url(#pdba5097925)" d="M 359.880477 257.87369 
L 360.299046 262.326195 
L 356.4859 259.989548 
L 359.880477 257.87369 
z
" style="fill:#ce4356;fill-opacity:0.5;stroke:#ce4356;stroke-linecap:round;stroke-opacity:0.5;stroke-width:3;"/>
   </g>
   <g id="patch_27">
    <path clip-path="url(#pdba5097925)" d="M 366.654516 272.522596 
Q 348.819423 278.970437 334.138625 284.277919 
" style="fill:none;stroke:#ce4356;stroke-linecap:round;stroke-opacity:0.5;stroke-width:3;"/>
    <path clip-path="url(#pdba5097925)" d="M 338.580321 284.798821 
L 334.138625 284.277919 
L 337.220364 281.037104 
L 338.580321 284.798821 
z
" style="fill:#ce4356;fill-opacity:0.5;stroke:#ce4356;stroke-linecap:round;stroke-opacity:0.5;stroke-width:3;"/>
   </g>
   <g id="patch_28">
    <path clip-path="url(#pdba5097925)" d="M 322.841611 288.362078 
Q 353.482309 272.877448 381.129455 258.905645 
" style="fill:none;stroke:#ce4356;stroke-linecap:round;stroke-opacity:0.5;stroke-width:3;"/>
    <path clip-path="url(#pdba5097925)" d="M 376.65736 258.924786 
L 381.129455 258.905645 
L 378.461511 262.494806 
L 376.65736 258.924786 
z
" style="fill:#ce4356;fill-opacity:0.5;stroke:#ce4356;stroke-linecap:round;stroke-opacity:0.5;stroke-width:3;"/>
   </g>
   <g id="patch_29">
    <path clip-path="url(#pdba5097925)" d="M 391.852155 253.486806 
Q 347.77384 225.384224 306.523718 199.084785 
" style="fill:none;stroke:#ce4356;stroke-linecap:round;stroke-opacity:0.5;stroke-width:3;"/>
    <path clip-path="url(#pdba5097925)" d="M 308.821348 202.921567 
L 306.523718 199.084785 
L 310.971722 199.548751 
L 308.821348 202.921567 
z
" style="fill:#ce4356;fill-opacity:0.5;stroke:#ce4356;stroke-linecap:round;stroke-opacity:0.5;stroke-width:3;"/>
   </g>
   <g id="patch_30">
    <path clip-path="url(#pdba5097925)" d="M 321.962924 200.821627 
Q 322.358813 240.26265 322.721037 276.34974 
" style="fill:none;stroke:#b8315d;stroke-linecap:round;stroke-opacity:0.5;stroke-width:3;"/>
    <path clip-path="url(#pdba5097925)" d="M 324.680788 272.329868 
L 322.721037 276.34974 
L 320.68099 272.370016 
L 324.680788 272.329868 
z
" style="fill:#b8315d;fill-opacity:0.5;stroke:#b8315d;stroke-linecap:round;stroke-opacity:0.5;stroke-width:3;"/>
   </g>
   <g id="patch_31">
    <path clip-path="url(#pdba5097925)" d="M 322.841611 288.362078 
Q 284.821794 276.877207 250.012785 266.362244 
" style="fill:none;stroke:#b8315d;stroke-linecap:round;stroke-opacity:0.5;stroke-width:3;"/>
    <path clip-path="url(#pdba5097925)" d="M 253.263554 269.433481 
L 250.012785 266.362244 
L 254.420236 265.604371 
L 253.263554 269.433481 
z
" style="fill:#b8315d;fill-opacity:0.5;stroke:#b8315d;stroke-linecap:round;stroke-opacity:0.5;stroke-width:3;"/>
   </g>
   <g id="patch_32">
    <path clip-path="url(#pdba5097925)" d="M 238.512688 262.888342 
Q 264.699558 231.098635 288.753856 201.897777 
" style="fill:none;stroke:#b8315d;stroke-linecap:round;stroke-opacity:0.5;stroke-width:3;"/>
    <path clip-path="url(#pdba5097925)" d="M 284.666925 203.713538 
L 288.753856 201.897777 
L 287.754307 206.256779 
L 284.666925 203.713538 
z
" style="fill:#b8315d;fill-opacity:0.5;stroke:#b8315d;stroke-linecap:round;stroke-opacity:0.5;stroke-width:3;"/>
   </g>
   <g id="patch_33">
    <path clip-path="url(#pdba5097925)" d="M 296.392109 192.625274 
Q 305.052537 195.401248 310.518934 197.153422 
" style="fill:none;stroke:#b8315d;stroke-linecap:round;stroke-opacity:0.5;stroke-width:3;"/>
    <path clip-path="url(#pdba5097925)" d="M 307.320307 194.027917 
L 310.518934 197.153422 
L 306.099354 197.837021 
L 307.320307 194.027917 
z
" style="fill:#b8315d;fill-opacity:0.5;stroke:#b8315d;stroke-linecap:round;stroke-opacity:0.5;stroke-width:3;"/>
   </g>
   <g id="patch_34">
    <path clip-path="url(#pdba5097925)" d="M 232.457835 175.745129 
Q 212.086021 195.196904 194.140062 212.332383 
" style="fill:none;stroke:#9f2462;stroke-linecap:round;stroke-opacity:0.5;stroke-width:3;"/>
    <path clip-path="url(#pdba5097925)" d="M 198.414234 211.016538 
L 194.140062 212.332383 
L 195.651889 208.123538 
L 198.414234 211.016538 
z
" style="fill:#9f2462;fill-opacity:0.5;stroke:#9f2462;stroke-linecap:round;stroke-opacity:0.5;stroke-width:3;"/>
   </g>
   <g id="patch_35">
    <path clip-path="url(#pdba5097925)" d="M 185.451033 220.628995 
Q 208.595877 239.062004 229.117031 255.405455 
" style="fill:none;stroke:#9f2462;stroke-linecap:round;stroke-opacity:0.5;stroke-width:3;"/>
    <path clip-path="url(#pdba5097925)" d="M 227.23407 251.349045 
L 229.117031 255.405455 
L 224.742126 254.477978 
L 227.23407 251.349045 
z
" style="fill:#9f2462;fill-opacity:0.5;stroke:#9f2462;stroke-linecap:round;stroke-opacity:0.5;stroke-width:3;"/>
   </g>
   <g id="patch_36">
    <path clip-path="url(#pdba5097925)" d="M 238.512688 262.888342 
Q 247.493208 213.958816 255.868231 168.328286 
" style="fill:none;stroke:#9f2462;stroke-linecap:round;stroke-opacity:0.5;stroke-width:3;"/>
    <path clip-path="url(#pdba5097925)" d="M 253.178992 171.901519 
L 255.868231 168.328286 
L 257.113274 172.623617 
L 253.178992 171.901519 
z
" style="fill:#9f2462;fill-opacity:0.5;stroke:#9f2462;stroke-linecap:round;stroke-opacity:0.5;stroke-width:3;"/>
   </g>
   <g id="patch_37">
    <path clip-path="url(#pdba5097925)" d="M 258.036568 156.514303 
Q 248.708386 163.527498 242.061131 168.525095 
" style="fill:none;stroke:#9f2462;stroke-linecap:round;stroke-opacity:0.5;stroke-width:3;"/>
    <path clip-path="url(#pdba5097925)" d="M 246.460193 167.719951 
L 242.061131 168.525095 
L 244.056452 164.522759 
L 246.460193 167.719951 
z
" style="fill:#9f2462;fill-opacity:0.5;stroke:#9f2462;stroke-linecap:round;stroke-opacity:0.5;stroke-width:3;"/>
   </g>
   <g id="patch_38">
    <path clip-path="url(#pdba5097925)" d="M 200.334489 173.465561 
Q 212.076842 174.298833 220.473507 174.894685 
" style="fill:none;stroke:#841c63;stroke-linecap:round;stroke-opacity:0.5;stroke-width:3;"/>
    <path clip-path="url(#pdba5097925)" d="M 216.625111 172.616562 
L 220.473507 174.894685 
L 216.341971 176.606529 
L 216.625111 172.616562 
z
" style="fill:#841c63;fill-opacity:0.5;stroke:#841c63;stroke-linecap:round;stroke-opacity:0.5;stroke-width:3;"/>
   </g>
   <g id="patch_39">
    <path clip-path="url(#pdba5097925)" d="M 232.457835 175.745129 
Q 273.040777 187.115187 310.393982 197.580375 
" style="fill:none;stroke:#841c63;stroke-linecap:round;stroke-opacity:0.5;stroke-width:3;"/>
    <path clip-path="url(#pdba5097925)" d="M 307.081855 194.57541 
L 310.393982 197.580375 
L 306.002733 198.427097 
L 307.081855 194.57541 
z
" style="fill:#841c63;fill-opacity:0.5;stroke:#841c63;stroke-linecap:round;stroke-opacity:0.5;stroke-width:3;"/>
   </g>
   <g id="patch_40">
    <path clip-path="url(#pdba5097925)" d="M 321.962924 200.821627 
Q 293.560098 181.135643 267.913966 163.360322 
" style="fill:none;stroke:#841c63;stroke-linecap:round;stroke-opacity:0.5;stroke-width:3;"/>
    <path clip-path="url(#pdba5097925)" d="M 270.062216 167.282696 
L 267.913966 163.360322 
L 272.340816 163.995146 
L 270.062216 167.282696 
z
" style="fill:#841c63;fill-opacity:0.5;stroke:#841c63;stroke-linecap:round;stroke-opacity:0.5;stroke-width:3;"/>
   </g>
   <g id="patch_41">
    <path clip-path="url(#pdba5097925)" d="M 258.036568 156.514303 
Q 249.056048 205.443829 240.681025 251.074359 
" style="fill:none;stroke:#841c63;stroke-linecap:round;stroke-opacity:0.5;stroke-width:3;"/>
    <path clip-path="url(#pdba5097925)" d="M 243.370264 247.501125 
L 240.681025 251.074359 
L 239.435982 246.779028 
L 243.370264 247.501125 
z
" style="fill:#841c63;fill-opacity:0.5;stroke:#841c63;stroke-linecap:round;stroke-opacity:0.5;stroke-width:3;"/>
   </g>
   <g id="patch_42">
    <path clip-path="url(#pdba5097925)" d="M 238.512688 262.888342 
Q 215.367844 244.455333 194.84669 228.111882 
" style="fill:none;stroke:#841c63;stroke-linecap:round;stroke-opacity:0.5;stroke-width:3;"/>
    <path clip-path="url(#pdba5097925)" d="M 196.729651 232.168291 
L 194.84669 228.111882 
L 199.221595 229.039359 
L 196.729651 232.168291 
z
" style="fill:#841c63;fill-opacity:0.5;stroke:#841c63;stroke-linecap:round;stroke-opacity:0.5;stroke-width:3;"/>
   </g>
   <g id="patch_43">
    <path clip-path="url(#pdba5097925)" d="M 185.451033 220.628995 
Q 236.721669 207.687273 284.740208 195.566444 
" style="fill:none;stroke:#841c63;stroke-linecap:round;stroke-opacity:0.5;stroke-width:3;"/>
    <path clip-path="url(#pdba5097925)" d="M 280.37237 194.606241 
L 284.740208 195.566444 
L 281.351342 198.484593 
L 280.37237 194.606241 
z
" style="fill:#841c63;fill-opacity:0.5;stroke:#841c63;stroke-linecap:round;stroke-opacity:0.5;stroke-width:3;"/>
   </g>
   <g id="patch_44">
    <path clip-path="url(#pdba5097925)" d="M 296.392109 192.625274 
Q 305.052537 195.401248 310.518934 197.153422 
" style="fill:none;stroke:#841c63;stroke-linecap:round;stroke-opacity:0.5;stroke-width:3;"/>
    <path clip-path="url(#pdba5097925)" d="M 307.320307 194.027917 
L 310.518934 197.153422 
L 306.099354 197.837021 
L 307.320307 194.027917 
z
" style="fill:#841c63;fill-opacity:0.5;stroke:#841c63;stroke-linecap:round;stroke-opacity:0.5;stroke-width:3;"/>
   </g>
   <g id="patch_45">
    <path clip-path="url(#pdba5097925)" d="M 321.962924 200.821627 
Q 265.374597 188.09406 212.058624 176.102495 
" style="fill:none;stroke:#841c63;stroke-linecap:round;stroke-opacity:0.5;stroke-width:3;"/>
    <path clip-path="url(#pdba5097925)" d="M 215.522267 178.931484 
L 212.058624 176.102495 
L 216.4 175.028974 
L 215.522267 178.931484 
z
" style="fill:#841c63;fill-opacity:0.5;stroke:#841c63;stroke-linecap:round;stroke-opacity:0.5;stroke-width:3;"/>
   </g>
   <g id="patch_46">
    <path clip-path="url(#pdba5097925)" d="M 296.392109 192.625274 
Q 305.052537 195.401248 310.518934 197.153422 
" style="fill:none;stroke:#67195d;stroke-linecap:round;stroke-opacity:0.5;stroke-width:3;"/>
    <path clip-path="url(#pdba5097925)" d="M 307.320307 194.027917 
L 310.518934 197.153422 
L 306.099354 197.837021 
L 307.320307 194.027917 
z
" style="fill:#67195d;fill-opacity:0.5;stroke:#67195d;stroke-linecap:round;stroke-opacity:0.5;stroke-width:3;"/>
   </g>
   <g id="patch_47">
    <path clip-path="url(#pdba5097925)" d="M 321.962924 200.821627 
Q 281.379981 189.451569 244.026777 178.986381 
" style="fill:none;stroke:#67195d;stroke-linecap:round;stroke-opacity:0.5;stroke-width:3;"/>
    <path clip-path="url(#pdba5097925)" d="M 247.338904 181.991346 
L 244.026777 178.986381 
L 248.418025 178.139658 
L 247.338904 181.991346 
z
" style="fill:#67195d;fill-opacity:0.5;stroke:#67195d;stroke-linecap:round;stroke-opacity:0.5;stroke-width:3;"/>
   </g>
   <g id="patch_48">
    <path clip-path="url(#pdba5097925)" d="M 232.457835 175.745129 
Q 220.715481 174.911856 212.318817 174.316004 
" style="fill:none;stroke:#67195d;stroke-linecap:round;stroke-opacity:0.5;stroke-width:3;"/>
    <path clip-path="url(#pdba5097925)" d="M 216.167213 176.594127 
L 212.318817 174.316004 
L 216.450353 172.604161 
L 216.167213 176.594127 
z
" style="fill:#67195d;fill-opacity:0.5;stroke:#67195d;stroke-linecap:round;stroke-opacity:0.5;stroke-width:3;"/>
   </g>
   <g id="patch_49">
    <path clip-path="url(#pdba5097925)" d="M 200.334489 173.465561 
Q 208.204712 194.793232 214.913759 212.974211 
" style="fill:none;stroke:#67195d;stroke-linecap:round;stroke-opacity:0.5;stroke-width:3;"/>
    <path clip-path="url(#pdba5097925)" d="M 215.405301 208.529171 
L 214.913759 212.974211 
L 211.652652 209.913953 
L 215.405301 208.529171 
z
" style="fill:#67195d;fill-opacity:0.5;stroke:#67195d;stroke-linecap:round;stroke-opacity:0.5;stroke-width:3;"/>
   </g>
   <g id="patch_50">
    <path clip-path="url(#pdba5097925)" d="M 219.072516 224.244107 
Q 224.612832 204.169899 229.260806 187.328913 
" style="fill:none;stroke:#67195d;stroke-linecap:round;stroke-opacity:0.5;stroke-width:3;"/>
    <path clip-path="url(#pdba5097925)" d="M 226.268704 190.652665 
L 229.260806 187.328913 
L 230.124546 191.716846 
L 226.268704 190.652665 
z
" style="fill:#67195d;fill-opacity:0.5;stroke:#67195d;stroke-linecap:round;stroke-opacity:0.5;stroke-width:3;"/>
   </g>
   <g id="patch_51">
    <path clip-path="url(#pdba5097925)" d="M 232.457835 175.745129 
Q 260.239821 183.080223 284.778833 189.559097 
" style="fill:none;stroke:#67195d;stroke-linecap:round;stroke-opacity:0.5;stroke-width:3;"/>
    <path clip-path="url(#pdba5097925)" d="M 281.421912 186.604257 
L 284.778833 189.559097 
L 280.400809 190.47173 
L 281.421912 186.604257 
z
" style="fill:#67195d;fill-opacity:0.5;stroke:#67195d;stroke-linecap:round;stroke-opacity:0.5;stroke-width:3;"/>
   </g>
   <g id="patch_52">
    <path clip-path="url(#pdba5097925)" d="M 296.392109 192.625274 
Q 305.052537 195.401248 310.518934 197.153422 
" style="fill:none;stroke:#4a154f;stroke-linecap:round;stroke-opacity:0.5;stroke-width:3;"/>
    <path clip-path="url(#pdba5097925)" d="M 307.320307 194.027917 
L 310.518934 197.153422 
L 306.099354 197.837021 
L 307.320307 194.027917 
z
" style="fill:#4a154f;fill-opacity:0.5;stroke:#4a154f;stroke-linecap:round;stroke-opacity:0.5;stroke-width:3;"/>
   </g>
   <g id="patch_53">
    <path clip-path="url(#pdba5097925)" d="M 321.962924 200.821627 
Q 281.379981 189.451569 244.026777 178.986381 
" style="fill:none;stroke:#4a154f;stroke-linecap:round;stroke-opacity:0.5;stroke-width:3;"/>
    <path clip-path="url(#pdba5097925)" d="M 247.338904 181.991346 
L 244.026777 178.986381 
L 248.418025 178.139658 
L 247.338904 181.991346 
z
" style="fill:#4a154f;fill-opacity:0.5;stroke:#4a154f;stroke-linecap:round;stroke-opacity:0.5;stroke-width:3;"/>
   </g>
   <g id="patch_54">
    <path clip-path="url(#pdba5097925)" d="M 232.457835 175.745129 
Q 220.715481 174.911856 212.318817 174.316004 
" style="fill:none;stroke:#4a154f;stroke-linecap:round;stroke-opacity:0.5;stroke-width:3;"/>
    <path clip-path="url(#pdba5097925)" d="M 216.167213 176.594127 
L 212.318817 174.316004 
L 216.450353 172.604161 
L 216.167213 176.594127 
z
" style="fill:#4a154f;fill-opacity:0.5;stroke:#4a154f;stroke-linecap:round;stroke-opacity:0.5;stroke-width:3;"/>
   </g>
   <g id="patch_55">
    <path clip-path="url(#pdba5097925)" d="M 200.334489 173.465561 
Q 243.16885 199.669053 283.142017 224.122238 
" style="fill:none;stroke:#4a154f;stroke-linecap:round;stroke-opacity:0.5;stroke-width:3;"/>
    <path clip-path="url(#pdba5097925)" d="M 280.773526 220.328789 
L 283.142017 224.122238 
L 278.686164 223.740962 
L 280.773526 220.328789 
z
" style="fill:#4a154f;fill-opacity:0.5;stroke:#4a154f;stroke-linecap:round;stroke-opacity:0.5;stroke-width:3;"/>
   </g>
   <g id="patch_56">
    <path clip-path="url(#pdba5097925)" d="M 293.389571 230.391076 
Q 277.666941 232.771382 265.260623 234.649619 
" style="fill:none;stroke:#4a154f;stroke-linecap:round;stroke-opacity:0.5;stroke-width:3;"/>
    <path clip-path="url(#pdba5097925)" d="M 269.514932 236.028334 
L 265.260623 234.649619 
L 268.91618 232.073401 
L 269.514932 236.028334 
z
" style="fill:#4a154f;fill-opacity:0.5;stroke:#4a154f;stroke-linecap:round;stroke-opacity:0.5;stroke-width:3;"/>
   </g>
   <g id="patch_57">
    <path clip-path="url(#pdba5097925)" d="M 253.383425 236.447751 
Q 229.649174 208.269333 208.07569 182.656279 
" style="fill:none;stroke:#4a154f;stroke-linecap:round;stroke-opacity:0.5;stroke-width:3;"/>
    <path clip-path="url(#pdba5097925)" d="M 209.122867 187.004085 
L 208.07569 182.656279 
L 212.182241 184.427221 
L 209.122867 187.004085 
z
" style="fill:#4a154f;fill-opacity:0.5;stroke:#4a154f;stroke-linecap:round;stroke-opacity:0.5;stroke-width:3;"/>
   </g>
   <g id="patch_58">
    <path clip-path="url(#pdba5097925)" d="M 200.334489 173.465561 
Q 212.076842 174.298833 220.473507 174.894685 
" style="fill:none;stroke:#4a154f;stroke-linecap:round;stroke-opacity:0.5;stroke-width:3;"/>
    <path clip-path="url(#pdba5097925)" d="M 216.625111 172.616562 
L 220.473507 174.894685 
L 216.341971 176.606529 
L 216.625111 172.616562 
z
" style="fill:#4a154f;fill-opacity:0.5;stroke:#4a154f;stroke-linecap:round;stroke-opacity:0.5;stroke-width:3;"/>
   </g>
   <g id="patch_59">
    <path clip-path="url(#pdba5097925)" d="M 232.457835 175.745129 
Q 273.040777 187.115187 310.393982 197.580375 
" style="fill:none;stroke:#4a154f;stroke-linecap:round;stroke-opacity:0.5;stroke-width:3;"/>
    <path clip-path="url(#pdba5097925)" d="M 307.081855 194.57541 
L 310.393982 197.580375 
L 306.002733 198.427097 
L 307.081855 194.57541 
z
" style="fill:#4a154f;fill-opacity:0.5;stroke:#4a154f;stroke-linecap:round;stroke-opacity:0.5;stroke-width:3;"/>
   </g>
   <g id="patch_60">
    <path clip-path="url(#pdba5097925)" d="M 321.962924 200.821627 
Q 313.302496 198.045653 307.836099 196.293479 
" style="fill:none;stroke:#4a154f;stroke-linecap:round;stroke-opacity:0.5;stroke-width:3;"/>
    <path clip-path="url(#pdba5097925)" d="M 311.034727 199.418984 
L 307.836099 196.293479 
L 312.25568 195.609879 
L 311.034727 199.418984 
z
" style="fill:#4a154f;fill-opacity:0.5;stroke:#4a154f;stroke-linecap:round;stroke-opacity:0.5;stroke-width:3;"/>
   </g>
   <g id="patch_61">
    <path clip-path="url(#pdba5097925)" d="M 232.457835 175.745129 
Q 273.040777 187.115187 310.393982 197.580375 
" style="fill:none;stroke:#2f0f3e;stroke-linecap:round;stroke-opacity:0.5;stroke-width:3;"/>
    <path clip-path="url(#pdba5097925)" d="M 307.081855 194.57541 
L 310.393982 197.580375 
L 306.002733 198.427097 
L 307.081855 194.57541 
z
" style="fill:#2f0f3e;fill-opacity:0.5;stroke:#2f0f3e;stroke-linecap:round;stroke-opacity:0.5;stroke-width:3;"/>
   </g>
   <g id="patch_62">
    <path clip-path="url(#pdba5097925)" d="M 321.962924 200.821627 
Q 313.302496 198.045653 307.836099 196.293479 
" style="fill:none;stroke:#2f0f3e;stroke-linecap:round;stroke-opacity:0.5;stroke-width:3;"/>
    <path clip-path="url(#pdba5097925)" d="M 311.034727 199.418984 
L 307.836099 196.293479 
L 312.25568 195.609879 
L 311.034727 199.418984 
z
" style="fill:#2f0f3e;fill-opacity:0.5;stroke:#2f0f3e;stroke-linecap:round;stroke-opacity:0.5;stroke-width:3;"/>
   </g>
   <g id="patch_63">
    <path clip-path="url(#pdba5097925)" d="M 296.392109 192.625274 
Q 280.366545 177.537527 266.783067 164.748955 
" style="fill:none;stroke:#2f0f3e;stroke-linecap:round;stroke-opacity:0.5;stroke-width:3;"/>
    <path clip-path="url(#pdba5097925)" d="M 268.324462 168.947062 
L 266.783067 164.748955 
L 271.066389 166.034703 
L 268.324462 168.947062 
z
" style="fill:#2f0f3e;fill-opacity:0.5;stroke:#2f0f3e;stroke-linecap:round;stroke-opacity:0.5;stroke-width:3;"/>
   </g>
   <g id="patch_64">
    <path clip-path="url(#pdba5097925)" d="M 258.036568 156.514303 
Q 224.521008 143.691095 194.13809 132.06645 
" style="fill:none;stroke:#2f0f3e;stroke-linecap:round;stroke-opacity:0.5;stroke-width:3;"/>
    <path clip-path="url(#pdba5097925)" d="M 197.159298 135.363767 
L 194.13809 132.06645 
L 198.588669 131.627873 
L 197.159298 135.363767 
z
" style="fill:#2f0f3e;fill-opacity:0.5;stroke:#2f0f3e;stroke-linecap:round;stroke-opacity:0.5;stroke-width:3;"/>
   </g>
   <g id="patch_65">
    <path clip-path="url(#pdba5097925)" d="M 182.91256 127.77151 
Q 206.125547 127.564637 225.984564 127.387655 
" style="fill:none;stroke:#2f0f3e;stroke-linecap:round;stroke-opacity:0.5;stroke-width:3;"/>
    <path clip-path="url(#pdba5097925)" d="M 221.9669 125.423381 
L 225.984564 127.387655 
L 222.002546 129.423222 
L 221.9669 125.423381 
z
" style="fill:#2f0f3e;fill-opacity:0.5;stroke:#2f0f3e;stroke-linecap:round;stroke-opacity:0.5;stroke-width:3;"/>
   </g>
   <g id="patch_66">
    <path clip-path="url(#pdba5097925)" d="M 237.995704 127.280612 
Q 214.782718 127.487485 194.9237 127.664467 
" style="fill:none;stroke:#2f0f3e;stroke-linecap:round;stroke-opacity:0.5;stroke-width:3;"/>
    <path clip-path="url(#pdba5097925)" d="M 198.941365 129.628742 
L 194.9237 127.664467 
L 198.905718 125.6289 
L 198.941365 129.628742 
z
" style="fill:#2f0f3e;fill-opacity:0.5;stroke:#2f0f3e;stroke-linecap:round;stroke-opacity:0.5;stroke-width:3;"/>
   </g>
   <g id="patch_67">
    <path clip-path="url(#pdba5097925)" d="M 182.91256 127.77151 
Q 175.424615 138.665574 169.836567 146.795513 
" style="fill:none;stroke:#2f0f3e;stroke-linecap:round;stroke-opacity:0.5;stroke-width:3;"/>
    <path clip-path="url(#pdba5097925)" d="M 173.750534 144.631982 
L 169.836567 146.795513 
L 170.454123 142.366221 
L 173.750534 144.631982 
z
" style="fill:#2f0f3e;fill-opacity:0.5;stroke:#2f0f3e;stroke-linecap:round;stroke-opacity:0.5;stroke-width:3;"/>
   </g>
   <g id="patch_68">
    <path clip-path="url(#pdba5097925)" d="M 163.032071 156.69524 
Q 238.325126 177.599995 310.386333 197.607442 
" style="fill:none;stroke:#2f0f3e;stroke-linecap:round;stroke-opacity:0.5;stroke-width:3;"/>
    <path clip-path="url(#pdba5097925)" d="M 307.06718 194.61024 
L 310.386333 197.607442 
L 305.997079 198.464443 
L 307.06718 194.61024 
z
" style="fill:#2f0f3e;fill-opacity:0.5;stroke:#2f0f3e;stroke-linecap:round;stroke-opacity:0.5;stroke-width:3;"/>
   </g>
   <g id="patch_69">
    <path clip-path="url(#pdba5097925)" d="M 321.962924 200.821627 
Q 281.379981 189.451569 244.026777 178.986381 
" style="fill:none;stroke:#2f0f3e;stroke-linecap:round;stroke-opacity:0.5;stroke-width:3;"/>
    <path clip-path="url(#pdba5097925)" d="M 247.338904 181.991346 
L 244.026777 178.986381 
L 248.418025 178.139658 
L 247.338904 181.991346 
z
" style="fill:#2f0f3e;fill-opacity:0.5;stroke:#2f0f3e;stroke-linecap:round;stroke-opacity:0.5;stroke-width:3;"/>
   </g>
   <g id="PathCollection_1">
    <defs>
     <path d="M 0 10 
C 2.652031 10 5.195799 8.946337 7.071068 7.071068 
C 8.946337 5.195799 10 2.652031 10 0 
C 10 -2.652031 8.946337 -5.195799 7.071068 -7.071068 
C 5.195799 -8.946337 2.652031 -10 0 -10 
C -2.652031 -10 -5.195799 -8.946337 -7.071068 -7.071068 
C -8.946337 -5.195799 -10 -2.652031 -10 0 
C -10 2.652031 -8.946337 5.195799 -7.071068 7.071068 
C -5.195799 8.946337 -2.652031 10 0 10 
z
" id="m1ad6ab9358" style="stroke:#feedb0;"/>
    </defs>
    <g clip-path="url(#pdba5097925)">
     <use style="fill:#feedb0;stroke:#feedb0;" x="232.457835" xlink:href="#m1ad6ab9358" y="175.745129"/>
     <use style="fill:#feedb0;stroke:#feedb0;" x="113.651998" xlink:href="#m1ad6ab9358" y="232.557575"/>
     <use style="fill:#feedb0;stroke:#feedb0;" x="81.386304" xlink:href="#m1ad6ab9358" y="222.741968"/>
    </g>
   </g>
   <g id="PathCollection_2">
    <defs>
     <path d="M 0 10 
C 2.652031 10 5.195799 8.946337 7.071068 7.071068 
C 8.946337 5.195799 10 2.652031 10 0 
C 10 -2.652031 8.946337 -5.195799 7.071068 -7.071068 
C 5.195799 -8.946337 2.652031 -10 0 -10 
C -2.652031 -10 -5.195799 -8.946337 -7.071068 -7.071068 
C -8.946337 -5.195799 -10 -2.652031 -10 0 
C -10 2.652031 -8.946337 5.195799 -7.071068 7.071068 
C -5.195799 8.946337 -2.652031 10 0 10 
z
" id="m692afc2f3b" style="stroke:#fbd094;"/>
    </defs>
    <g clip-path="url(#pdba5097925)">
     <use style="fill:#fbd094;stroke:#fbd094;" x="200.334489" xlink:href="#m692afc2f3b" y="173.465561"/>
     <use style="fill:#fbd094;stroke:#fbd094;" x="113.651998" xlink:href="#m692afc2f3b" y="232.557575"/>
     <use style="fill:#fbd094;stroke:#fbd094;" x="81.386304" xlink:href="#m692afc2f3b" y="222.741968"/>
    </g>
   </g>
   <g id="PathCollection_3">
    <defs>
     <path d="M 0 10 
C 2.652031 10 5.195799 8.946337 7.071068 7.071068 
C 8.946337 5.195799 10 2.652031 10 0 
C 10 -2.652031 8.946337 -5.195799 7.071068 -7.071068 
C 5.195799 -8.946337 2.652031 -10 0 -10 
C -2.652031 -10 -5.195799 -8.946337 -7.071068 -7.071068 
C -8.946337 -5.195799 -10 -2.652031 -10 0 
C -10 2.652031 -8.946337 5.195799 -7.071068 7.071068 
C -5.195799 8.946337 -2.652031 10 0 10 
z
" id="m48135beef2" style="stroke:#f7b37c;"/>
    </defs>
    <g clip-path="url(#pdba5097925)">
     <use style="fill:#f7b37c;stroke:#f7b37c;" x="320.647251" xlink:href="#m48135beef2" y="56.263266"/>
     <use style="fill:#f7b37c;stroke:#f7b37c;" x="340.695244" xlink:href="#m48135beef2" y="92.514527"/>
     <use style="fill:#f7b37c;stroke:#f7b37c;" x="307.019867" xlink:href="#m48135beef2" y="110.168585"/>
    </g>
   </g>
   <g id="PathCollection_4">
    <defs>
     <path d="M 0 10 
C 2.652031 10 5.195799 8.946337 7.071068 7.071068 
C 8.946337 5.195799 10 2.652031 10 0 
C 10 -2.652031 8.946337 -5.195799 7.071068 -7.071068 
C 5.195799 -8.946337 2.652031 -10 0 -10 
C -2.652031 -10 -5.195799 -8.946337 -7.071068 -7.071068 
C -8.946337 -5.195799 -10 -2.652031 -10 0 
C -10 2.652031 -8.946337 5.195799 -7.071068 7.071068 
C -5.195799 8.946337 -2.652031 10 0 10 
z
" id="m74b682a0fe" style="stroke:#f29567;"/>
    </defs>
    <g clip-path="url(#pdba5097925)">
     <use style="fill:#f29567;stroke:#f29567;" x="370.325161" xlink:href="#m74b682a0fe" y="130.348995"/>
     <use style="fill:#f29567;stroke:#f29567;" x="340.695244" xlink:href="#m74b682a0fe" y="92.514527"/>
     <use style="fill:#f29567;stroke:#f29567;" x="307.019867" xlink:href="#m74b682a0fe" y="110.168585"/>
    </g>
   </g>
   <g id="PathCollection_5">
    <defs>
     <path d="M 0 10 
C 2.652031 10 5.195799 8.946337 7.071068 7.071068 
C 8.946337 5.195799 10 2.652031 10 0 
C 10 -2.652031 8.946337 -5.195799 7.071068 -7.071068 
C 5.195799 -8.946337 2.652031 -10 0 -10 
C -2.652031 -10 -5.195799 -8.946337 -7.071068 -7.071068 
C -8.946337 -5.195799 -10 -2.652031 -10 0 
C -10 2.652031 -8.946337 5.195799 -7.071068 7.071068 
C -5.195799 8.946337 -2.652031 10 0 10 
z
" id="m974618d248" style="stroke:#eb7858;"/>
    </defs>
    <g clip-path="url(#pdba5097925)">
     <use style="fill:#eb7858;stroke:#eb7858;" x="200.334489" xlink:href="#m974618d248" y="173.465561"/>
     <use style="fill:#eb7858;stroke:#eb7858;" x="232.457835" xlink:href="#m974618d248" y="175.745129"/>
     <use style="fill:#eb7858;stroke:#eb7858;" x="163.032071" xlink:href="#m974618d248" y="156.69524"/>
    </g>
   </g>
   <g id="PathCollection_6">
    <defs>
     <path d="M 0 10 
C 2.652031 10 5.195799 8.946337 7.071068 7.071068 
C 8.946337 5.195799 10 2.652031 10 0 
C 10 -2.652031 8.946337 -5.195799 7.071068 -7.071068 
C 5.195799 -8.946337 2.652031 -10 0 -10 
C -2.652031 -10 -5.195799 -8.946337 -7.071068 -7.071068 
C -8.946337 -5.195799 -10 -2.652031 -10 0 
C -10 2.652031 -8.946337 5.195799 -7.071068 7.071068 
C -5.195799 8.946337 -2.652031 10 0 10 
z
" id="me445e153c9" style="stroke:#e05d53;"/>
    </defs>
    <g clip-path="url(#pdba5097925)">
     <use style="fill:#e05d53;stroke:#e05d53;" x="321.962924" xlink:href="#me445e153c9" y="200.821627"/>
     <use style="fill:#e05d53;stroke:#e05d53;" x="232.457835" xlink:href="#me445e153c9" y="175.745129"/>
     <use style="fill:#e05d53;stroke:#e05d53;" x="200.334489" xlink:href="#me445e153c9" y="173.465561"/>
     <use style="fill:#e05d53;stroke:#e05d53;" x="307.019867" xlink:href="#me445e153c9" y="110.168585"/>
     <use style="fill:#e05d53;stroke:#e05d53;" x="340.695244" xlink:href="#me445e153c9" y="92.514527"/>
     <use style="fill:#e05d53;stroke:#e05d53;" x="200.334489" xlink:href="#me445e153c9" y="173.465561"/>
     <use style="fill:#e05d53;stroke:#e05d53;" x="296.392109" xlink:href="#me445e153c9" y="192.625274"/>
     <use style="fill:#e05d53;stroke:#e05d53;" x="258.036568" xlink:href="#me445e153c9" y="156.514303"/>
    </g>
   </g>
   <g id="PathCollection_7">
    <defs>
     <path d="M 0 10 
C 2.652031 10 5.195799 8.946337 7.071068 7.071068 
C 8.946337 5.195799 10 2.652031 10 0 
C 10 -2.652031 8.946337 -5.195799 7.071068 -7.071068 
C 5.195799 -8.946337 2.652031 -10 0 -10 
C -2.652031 -10 -5.195799 -8.946337 -7.071068 -7.071068 
C -8.946337 -5.195799 -10 -2.652031 -10 0 
C -10 2.652031 -8.946337 5.195799 -7.071068 7.071068 
C -5.195799 8.946337 -2.652031 10 0 10 
z
" id="m2d3d7cb2bf" style="stroke:#ce4356;"/>
    </defs>
    <g clip-path="url(#pdba5097925)">
     <use style="fill:#ce4356;stroke:#ce4356;" x="296.392109" xlink:href="#m2d3d7cb2bf" y="192.625274"/>
     <use style="fill:#ce4356;stroke:#ce4356;" x="321.962924" xlink:href="#m2d3d7cb2bf" y="200.821627"/>
     <use style="fill:#ce4356;stroke:#ce4356;" x="366.654516" xlink:href="#m2d3d7cb2bf" y="272.522596"/>
     <use style="fill:#ce4356;stroke:#ce4356;" x="322.841611" xlink:href="#m2d3d7cb2bf" y="288.362078"/>
     <use style="fill:#ce4356;stroke:#ce4356;" x="391.852155" xlink:href="#m2d3d7cb2bf" y="253.486806"/>
    </g>
   </g>
   <g id="PathCollection_8">
    <defs>
     <path d="M 0 10 
C 2.652031 10 5.195799 8.946337 7.071068 7.071068 
C 8.946337 5.195799 10 2.652031 10 0 
C 10 -2.652031 8.946337 -5.195799 7.071068 -7.071068 
C 5.195799 -8.946337 2.652031 -10 0 -10 
C -2.652031 -10 -5.195799 -8.946337 -7.071068 -7.071068 
C -8.946337 -5.195799 -10 -2.652031 -10 0 
C -10 2.652031 -8.946337 5.195799 -7.071068 7.071068 
C -5.195799 8.946337 -2.652031 10 0 10 
z
" id="me74fd32607" style="stroke:#b8315d;"/>
    </defs>
    <g clip-path="url(#pdba5097925)">
     <use style="fill:#b8315d;stroke:#b8315d;" x="321.962924" xlink:href="#me74fd32607" y="200.821627"/>
     <use style="fill:#b8315d;stroke:#b8315d;" x="322.841611" xlink:href="#me74fd32607" y="288.362078"/>
     <use style="fill:#b8315d;stroke:#b8315d;" x="238.512688" xlink:href="#me74fd32607" y="262.888342"/>
     <use style="fill:#b8315d;stroke:#b8315d;" x="296.392109" xlink:href="#me74fd32607" y="192.625274"/>
    </g>
   </g>
   <g id="PathCollection_9">
    <defs>
     <path d="M 0 10 
C 2.652031 10 5.195799 8.946337 7.071068 7.071068 
C 8.946337 5.195799 10 2.652031 10 0 
C 10 -2.652031 8.946337 -5.195799 7.071068 -7.071068 
C 5.195799 -8.946337 2.652031 -10 0 -10 
C -2.652031 -10 -5.195799 -8.946337 -7.071068 -7.071068 
C -8.946337 -5.195799 -10 -2.652031 -10 0 
C -10 2.652031 -8.946337 5.195799 -7.071068 7.071068 
C -5.195799 8.946337 -2.652031 10 0 10 
z
" id="md36dc2a093" style="stroke:#9f2462;"/>
    </defs>
    <g clip-path="url(#pdba5097925)">
     <use style="fill:#9f2462;stroke:#9f2462;" x="232.457835" xlink:href="#md36dc2a093" y="175.745129"/>
     <use style="fill:#9f2462;stroke:#9f2462;" x="185.451033" xlink:href="#md36dc2a093" y="220.628995"/>
     <use style="fill:#9f2462;stroke:#9f2462;" x="238.512688" xlink:href="#md36dc2a093" y="262.888342"/>
     <use style="fill:#9f2462;stroke:#9f2462;" x="258.036568" xlink:href="#md36dc2a093" y="156.514303"/>
    </g>
   </g>
   <g id="PathCollection_10">
    <defs>
     <path d="M 0 10 
C 2.652031 10 5.195799 8.946337 7.071068 7.071068 
C 8.946337 5.195799 10 2.652031 10 0 
C 10 -2.652031 8.946337 -5.195799 7.071068 -7.071068 
C 5.195799 -8.946337 2.652031 -10 0 -10 
C -2.652031 -10 -5.195799 -8.946337 -7.071068 -7.071068 
C -8.946337 -5.195799 -10 -2.652031 -10 0 
C -10 2.652031 -8.946337 5.195799 -7.071068 7.071068 
C -5.195799 8.946337 -2.652031 10 0 10 
z
" id="mfbdf6d1dd1" style="stroke:#841c63;"/>
    </defs>
    <g clip-path="url(#pdba5097925)">
     <use style="fill:#841c63;stroke:#841c63;" x="200.334489" xlink:href="#mfbdf6d1dd1" y="173.465561"/>
     <use style="fill:#841c63;stroke:#841c63;" x="232.457835" xlink:href="#mfbdf6d1dd1" y="175.745129"/>
     <use style="fill:#841c63;stroke:#841c63;" x="321.962924" xlink:href="#mfbdf6d1dd1" y="200.821627"/>
     <use style="fill:#841c63;stroke:#841c63;" x="258.036568" xlink:href="#mfbdf6d1dd1" y="156.514303"/>
     <use style="fill:#841c63;stroke:#841c63;" x="238.512688" xlink:href="#mfbdf6d1dd1" y="262.888342"/>
     <use style="fill:#841c63;stroke:#841c63;" x="185.451033" xlink:href="#mfbdf6d1dd1" y="220.628995"/>
     <use style="fill:#841c63;stroke:#841c63;" x="296.392109" xlink:href="#mfbdf6d1dd1" y="192.625274"/>
     <use style="fill:#841c63;stroke:#841c63;" x="321.962924" xlink:href="#mfbdf6d1dd1" y="200.821627"/>
    </g>
   </g>
   <g id="PathCollection_11">
    <defs>
     <path d="M 0 10 
C 2.652031 10 5.195799 8.946337 7.071068 7.071068 
C 8.946337 5.195799 10 2.652031 10 0 
C 10 -2.652031 8.946337 -5.195799 7.071068 -7.071068 
C 5.195799 -8.946337 2.652031 -10 0 -10 
C -2.652031 -10 -5.195799 -8.946337 -7.071068 -7.071068 
C -8.946337 -5.195799 -10 -2.652031 -10 0 
C -10 2.652031 -8.946337 5.195799 -7.071068 7.071068 
C -5.195799 8.946337 -2.652031 10 0 10 
z
" id="mf85eed187e" style="stroke:#67195d;"/>
    </defs>
    <g clip-path="url(#pdba5097925)">
     <use style="fill:#67195d;stroke:#67195d;" x="296.392109" xlink:href="#mf85eed187e" y="192.625274"/>
     <use style="fill:#67195d;stroke:#67195d;" x="321.962924" xlink:href="#mf85eed187e" y="200.821627"/>
     <use style="fill:#67195d;stroke:#67195d;" x="232.457835" xlink:href="#mf85eed187e" y="175.745129"/>
     <use style="fill:#67195d;stroke:#67195d;" x="200.334489" xlink:href="#mf85eed187e" y="173.465561"/>
     <use style="fill:#67195d;stroke:#67195d;" x="219.072516" xlink:href="#mf85eed187e" y="224.244107"/>
     <use style="fill:#67195d;stroke:#67195d;" x="232.457835" xlink:href="#mf85eed187e" y="175.745129"/>
    </g>
   </g>
   <g id="PathCollection_12">
    <defs>
     <path d="M 0 10 
C 2.652031 10 5.195799 8.946337 7.071068 7.071068 
C 8.946337 5.195799 10 2.652031 10 0 
C 10 -2.652031 8.946337 -5.195799 7.071068 -7.071068 
C 5.195799 -8.946337 2.652031 -10 0 -10 
C -2.652031 -10 -5.195799 -8.946337 -7.071068 -7.071068 
C -8.946337 -5.195799 -10 -2.652031 -10 0 
C -10 2.652031 -8.946337 5.195799 -7.071068 7.071068 
C -5.195799 8.946337 -2.652031 10 0 10 
z
" id="m6eb59a83df" style="stroke:#4a154f;"/>
    </defs>
    <g clip-path="url(#pdba5097925)">
     <use style="fill:#4a154f;stroke:#4a154f;" x="296.392109" xlink:href="#m6eb59a83df" y="192.625274"/>
     <use style="fill:#4a154f;stroke:#4a154f;" x="321.962924" xlink:href="#m6eb59a83df" y="200.821627"/>
     <use style="fill:#4a154f;stroke:#4a154f;" x="232.457835" xlink:href="#m6eb59a83df" y="175.745129"/>
     <use style="fill:#4a154f;stroke:#4a154f;" x="200.334489" xlink:href="#m6eb59a83df" y="173.465561"/>
     <use style="fill:#4a154f;stroke:#4a154f;" x="293.389571" xlink:href="#m6eb59a83df" y="230.391076"/>
     <use style="fill:#4a154f;stroke:#4a154f;" x="253.383425" xlink:href="#m6eb59a83df" y="236.447751"/>
     <use style="fill:#4a154f;stroke:#4a154f;" x="200.334489" xlink:href="#m6eb59a83df" y="173.465561"/>
     <use style="fill:#4a154f;stroke:#4a154f;" x="232.457835" xlink:href="#m6eb59a83df" y="175.745129"/>
     <use style="fill:#4a154f;stroke:#4a154f;" x="321.962924" xlink:href="#m6eb59a83df" y="200.821627"/>
    </g>
   </g>
   <g id="PathCollection_13">
    <defs>
     <path d="M 0 10 
C 2.652031 10 5.195799 8.946337 7.071068 7.071068 
C 8.946337 5.195799 10 2.652031 10 0 
C 10 -2.652031 8.946337 -5.195799 7.071068 -7.071068 
C 5.195799 -8.946337 2.652031 -10 0 -10 
C -2.652031 -10 -5.195799 -8.946337 -7.071068 -7.071068 
C -8.946337 -5.195799 -10 -2.652031 -10 0 
C -10 2.652031 -8.946337 5.195799 -7.071068 7.071068 
C -5.195799 8.946337 -2.652031 10 0 10 
z
" id="m7fd28960d5" style="stroke:#2f0f3e;"/>
    </defs>
    <g clip-path="url(#pdba5097925)">
     <use style="fill:#2f0f3e;stroke:#2f0f3e;" x="232.457835" xlink:href="#m7fd28960d5" y="175.745129"/>
     <use style="fill:#2f0f3e;stroke:#2f0f3e;" x="321.962924" xlink:href="#m7fd28960d5" y="200.821627"/>
     <use style="fill:#2f0f3e;stroke:#2f0f3e;" x="296.392109" xlink:href="#m7fd28960d5" y="192.625274"/>
     <use style="fill:#2f0f3e;stroke:#2f0f3e;" x="258.036568" xlink:href="#m7fd28960d5" y="156.514303"/>
     <use style="fill:#2f0f3e;stroke:#2f0f3e;" x="182.91256" xlink:href="#m7fd28960d5" y="127.77151"/>
     <use style="fill:#2f0f3e;stroke:#2f0f3e;" x="237.995704" xlink:href="#m7fd28960d5" y="127.280612"/>
     <use style="fill:#2f0f3e;stroke:#2f0f3e;" x="182.91256" xlink:href="#m7fd28960d5" y="127.77151"/>
     <use style="fill:#2f0f3e;stroke:#2f0f3e;" x="163.032071" xlink:href="#m7fd28960d5" y="156.69524"/>
     <use style="fill:#2f0f3e;stroke:#2f0f3e;" x="321.962924" xlink:href="#m7fd28960d5" y="200.821627"/>
    </g>
   </g>
   <g id="text_1">
    <g clip-path="url(#pdba5097925)">
     <!-- yantian_chn -->
     <defs>
      <path d="M 32.171875 -5.078125 
Q 28.375 -14.84375 24.75 -17.8125 
Q 21.140625 -20.796875 15.09375 -20.796875 
L 7.90625 -20.796875 
L 7.90625 -13.28125 
L 13.1875 -13.28125 
Q 16.890625 -13.28125 18.9375 -11.515625 
Q 21 -9.765625 23.484375 -3.21875 
L 25.09375 0.875 
L 2.984375 54.6875 
L 12.5 54.6875 
L 29.59375 11.921875 
L 46.6875 54.6875 
L 56.203125 54.6875 
z
" id="DejaVuSans-121"/>
      <path d="M 34.28125 27.484375 
Q 23.390625 27.484375 19.1875 25 
Q 14.984375 22.515625 14.984375 16.5 
Q 14.984375 11.71875 18.140625 8.90625 
Q 21.296875 6.109375 26.703125 6.109375 
Q 34.1875 6.109375 38.703125 11.40625 
Q 43.21875 16.703125 43.21875 25.484375 
L 43.21875 27.484375 
z
M 52.203125 31.203125 
L 52.203125 0 
L 43.21875 0 
L 43.21875 8.296875 
Q 40.140625 3.328125 35.546875 0.953125 
Q 30.953125 -1.421875 24.3125 -1.421875 
Q 15.921875 -1.421875 10.953125 3.296875 
Q 6 8.015625 6 15.921875 
Q 6 25.140625 12.171875 29.828125 
Q 18.359375 34.515625 30.609375 34.515625 
L 43.21875 34.515625 
L 43.21875 35.40625 
Q 43.21875 41.609375 39.140625 45 
Q 35.0625 48.390625 27.6875 48.390625 
Q 23 48.390625 18.546875 47.265625 
Q 14.109375 46.140625 10.015625 43.890625 
L 10.015625 52.203125 
Q 14.9375 54.109375 19.578125 55.046875 
Q 24.21875 56 28.609375 56 
Q 40.484375 56 46.34375 49.84375 
Q 52.203125 43.703125 52.203125 31.203125 
z
" id="DejaVuSans-97"/>
      <path d="M 54.890625 33.015625 
L 54.890625 0 
L 45.90625 0 
L 45.90625 32.71875 
Q 45.90625 40.484375 42.875 44.328125 
Q 39.84375 48.1875 33.796875 48.1875 
Q 26.515625 48.1875 22.3125 43.546875 
Q 18.109375 38.921875 18.109375 30.90625 
L 18.109375 0 
L 9.078125 0 
L 9.078125 54.6875 
L 18.109375 54.6875 
L 18.109375 46.1875 
Q 21.34375 51.125 25.703125 53.5625 
Q 30.078125 56 35.796875 56 
Q 45.21875 56 50.046875 50.171875 
Q 54.890625 44.34375 54.890625 33.015625 
z
" id="DejaVuSans-110"/>
      <path d="M 18.3125 70.21875 
L 18.3125 54.6875 
L 36.8125 54.6875 
L 36.8125 47.703125 
L 18.3125 47.703125 
L 18.3125 18.015625 
Q 18.3125 11.328125 20.140625 9.421875 
Q 21.96875 7.515625 27.59375 7.515625 
L 36.8125 7.515625 
L 36.8125 0 
L 27.59375 0 
Q 17.1875 0 13.234375 3.875 
Q 9.28125 7.765625 9.28125 18.015625 
L 9.28125 47.703125 
L 2.6875 47.703125 
L 2.6875 54.6875 
L 9.28125 54.6875 
L 9.28125 70.21875 
z
" id="DejaVuSans-116"/>
      <path d="M 9.421875 54.6875 
L 18.40625 54.6875 
L 18.40625 0 
L 9.421875 0 
z
M 9.421875 75.984375 
L 18.40625 75.984375 
L 18.40625 64.59375 
L 9.421875 64.59375 
z
" id="DejaVuSans-105"/>
      <path d="M 50.984375 -16.609375 
L 50.984375 -23.578125 
L -0.984375 -23.578125 
L -0.984375 -16.609375 
z
" id="DejaVuSans-95"/>
      <path d="M 48.78125 52.59375 
L 48.78125 44.1875 
Q 44.96875 46.296875 41.140625 47.34375 
Q 37.3125 48.390625 33.40625 48.390625 
Q 24.65625 48.390625 19.8125 42.84375 
Q 14.984375 37.3125 14.984375 27.296875 
Q 14.984375 17.28125 19.8125 11.734375 
Q 24.65625 6.203125 33.40625 6.203125 
Q 37.3125 6.203125 41.140625 7.25 
Q 44.96875 8.296875 48.78125 10.40625 
L 48.78125 2.09375 
Q 45.015625 0.34375 40.984375 -0.53125 
Q 36.96875 -1.421875 32.421875 -1.421875 
Q 20.0625 -1.421875 12.78125 6.34375 
Q 5.515625 14.109375 5.515625 27.296875 
Q 5.515625 40.671875 12.859375 48.328125 
Q 20.21875 56 33.015625 56 
Q 37.15625 56 41.109375 55.140625 
Q 45.0625 54.296875 48.78125 52.59375 
z
" id="DejaVuSans-99"/>
      <path d="M 54.890625 33.015625 
L 54.890625 0 
L 45.90625 0 
L 45.90625 32.71875 
Q 45.90625 40.484375 42.875 44.328125 
Q 39.84375 48.1875 33.796875 48.1875 
Q 26.515625 48.1875 22.3125 43.546875 
Q 18.109375 38.921875 18.109375 30.90625 
L 18.109375 0 
L 9.078125 0 
L 9.078125 75.984375 
L 18.109375 75.984375 
L 18.109375 46.1875 
Q 21.34375 51.125 25.703125 53.5625 
Q 30.078125 56 35.796875 56 
Q 45.21875 56 50.046875 50.171875 
Q 54.890625 44.34375 54.890625 33.015625 
z
" id="DejaVuSans-104"/>
     </defs>
     <g transform="translate(208.169085 169.914031)scale(0.08 -0.08)">
      <use xlink:href="#DejaVuSans-121"/>
      <use x="59.179688" xlink:href="#DejaVuSans-97"/>
      <use x="120.458984" xlink:href="#DejaVuSans-110"/>
      <use x="183.837891" xlink:href="#DejaVuSans-116"/>
      <use x="223.046875" xlink:href="#DejaVuSans-105"/>
      <use x="250.830078" xlink:href="#DejaVuSans-97"/>
      <use x="312.109375" xlink:href="#DejaVuSans-110"/>
      <use x="375.488281" xlink:href="#DejaVuSans-95"/>
      <use x="425.488281" xlink:href="#DejaVuSans-99"/>
      <use x="480.46875" xlink:href="#DejaVuSans-104"/>
      <use x="543.847656" xlink:href="#DejaVuSans-110"/>
     </g>
    </g>
   </g>
   <g id="text_2">
    <g clip-path="url(#pdba5097925)">
     <!-- sydney_aus -->
     <defs>
      <path d="M 44.28125 53.078125 
L 44.28125 44.578125 
Q 40.484375 46.53125 36.375 47.5 
Q 32.28125 48.484375 27.875 48.484375 
Q 21.1875 48.484375 17.84375 46.4375 
Q 14.5 44.390625 14.5 40.28125 
Q 14.5 37.15625 16.890625 35.375 
Q 19.28125 33.59375 26.515625 31.984375 
L 29.59375 31.296875 
Q 39.15625 29.25 43.1875 25.515625 
Q 47.21875 21.78125 47.21875 15.09375 
Q 47.21875 7.46875 41.1875 3.015625 
Q 35.15625 -1.421875 24.609375 -1.421875 
Q 20.21875 -1.421875 15.453125 -0.5625 
Q 10.6875 0.296875 5.421875 2 
L 5.421875 11.28125 
Q 10.40625 8.6875 15.234375 7.390625 
Q 20.0625 6.109375 24.8125 6.109375 
Q 31.15625 6.109375 34.5625 8.28125 
Q 37.984375 10.453125 37.984375 14.40625 
Q 37.984375 18.0625 35.515625 20.015625 
Q 33.0625 21.96875 24.703125 23.78125 
L 21.578125 24.515625 
Q 13.234375 26.265625 9.515625 29.90625 
Q 5.8125 33.546875 5.8125 39.890625 
Q 5.8125 47.609375 11.28125 51.796875 
Q 16.75 56 26.8125 56 
Q 31.78125 56 36.171875 55.265625 
Q 40.578125 54.546875 44.28125 53.078125 
z
" id="DejaVuSans-115"/>
      <path d="M 45.40625 46.390625 
L 45.40625 75.984375 
L 54.390625 75.984375 
L 54.390625 0 
L 45.40625 0 
L 45.40625 8.203125 
Q 42.578125 3.328125 38.25 0.953125 
Q 33.9375 -1.421875 27.875 -1.421875 
Q 17.96875 -1.421875 11.734375 6.484375 
Q 5.515625 14.40625 5.515625 27.296875 
Q 5.515625 40.1875 11.734375 48.09375 
Q 17.96875 56 27.875 56 
Q 33.9375 56 38.25 53.625 
Q 42.578125 51.265625 45.40625 46.390625 
z
M 14.796875 27.296875 
Q 14.796875 17.390625 18.875 11.75 
Q 22.953125 6.109375 30.078125 6.109375 
Q 37.203125 6.109375 41.296875 11.75 
Q 45.40625 17.390625 45.40625 27.296875 
Q 45.40625 37.203125 41.296875 42.84375 
Q 37.203125 48.484375 30.078125 48.484375 
Q 22.953125 48.484375 18.875 42.84375 
Q 14.796875 37.203125 14.796875 27.296875 
z
" id="DejaVuSans-100"/>
      <path d="M 56.203125 29.59375 
L 56.203125 25.203125 
L 14.890625 25.203125 
Q 15.484375 15.921875 20.484375 11.0625 
Q 25.484375 6.203125 34.421875 6.203125 
Q 39.59375 6.203125 44.453125 7.46875 
Q 49.3125 8.734375 54.109375 11.28125 
L 54.109375 2.78125 
Q 49.265625 0.734375 44.1875 -0.34375 
Q 39.109375 -1.421875 33.890625 -1.421875 
Q 20.796875 -1.421875 13.15625 6.1875 
Q 5.515625 13.8125 5.515625 26.8125 
Q 5.515625 40.234375 12.765625 48.109375 
Q 20.015625 56 32.328125 56 
Q 43.359375 56 49.78125 48.890625 
Q 56.203125 41.796875 56.203125 29.59375 
z
M 47.21875 32.234375 
Q 47.125 39.59375 43.09375 43.984375 
Q 39.0625 48.390625 32.421875 48.390625 
Q 24.90625 48.390625 20.390625 44.140625 
Q 15.875 39.890625 15.1875 32.171875 
z
" id="DejaVuSans-101"/>
      <path d="M 8.5 21.578125 
L 8.5 54.6875 
L 17.484375 54.6875 
L 17.484375 21.921875 
Q 17.484375 14.15625 20.5 10.265625 
Q 23.53125 6.390625 29.59375 6.390625 
Q 36.859375 6.390625 41.078125 11.03125 
Q 45.3125 15.671875 45.3125 23.6875 
L 45.3125 54.6875 
L 54.296875 54.6875 
L 54.296875 0 
L 45.3125 0 
L 45.3125 8.40625 
Q 42.046875 3.421875 37.71875 1 
Q 33.40625 -1.421875 27.6875 -1.421875 
Q 18.265625 -1.421875 13.375 4.4375 
Q 8.5 10.296875 8.5 21.578125 
z
M 31.109375 56 
z
" id="DejaVuSans-117"/>
     </defs>
     <g transform="translate(90.227623 226.726477)scale(0.08 -0.08)">
      <use xlink:href="#DejaVuSans-115"/>
      <use x="52.099609" xlink:href="#DejaVuSans-121"/>
      <use x="111.279297" xlink:href="#DejaVuSans-100"/>
      <use x="174.755859" xlink:href="#DejaVuSans-110"/>
      <use x="238.134766" xlink:href="#DejaVuSans-101"/>
      <use x="299.658203" xlink:href="#DejaVuSans-121"/>
      <use x="358.837891" xlink:href="#DejaVuSans-95"/>
      <use x="408.837891" xlink:href="#DejaVuSans-97"/>
      <use x="470.117188" xlink:href="#DejaVuSans-117"/>
      <use x="533.496094" xlink:href="#DejaVuSans-115"/>
     </g>
    </g>
   </g>
   <g id="text_3">
    <g clip-path="url(#pdba5097925)">
     <!-- melbourne_aus -->
     <defs>
      <path d="M 52 44.1875 
Q 55.375 50.25 60.0625 53.125 
Q 64.75 56 71.09375 56 
Q 79.640625 56 84.28125 50.015625 
Q 88.921875 44.046875 88.921875 33.015625 
L 88.921875 0 
L 79.890625 0 
L 79.890625 32.71875 
Q 79.890625 40.578125 77.09375 44.375 
Q 74.3125 48.1875 68.609375 48.1875 
Q 61.625 48.1875 57.5625 43.546875 
Q 53.515625 38.921875 53.515625 30.90625 
L 53.515625 0 
L 44.484375 0 
L 44.484375 32.71875 
Q 44.484375 40.625 41.703125 44.40625 
Q 38.921875 48.1875 33.109375 48.1875 
Q 26.21875 48.1875 22.15625 43.53125 
Q 18.109375 38.875 18.109375 30.90625 
L 18.109375 0 
L 9.078125 0 
L 9.078125 54.6875 
L 18.109375 54.6875 
L 18.109375 46.1875 
Q 21.1875 51.21875 25.484375 53.609375 
Q 29.78125 56 35.6875 56 
Q 41.65625 56 45.828125 52.96875 
Q 50 49.953125 52 44.1875 
z
" id="DejaVuSans-109"/>
      <path d="M 9.421875 75.984375 
L 18.40625 75.984375 
L 18.40625 0 
L 9.421875 0 
z
" id="DejaVuSans-108"/>
      <path d="M 48.6875 27.296875 
Q 48.6875 37.203125 44.609375 42.84375 
Q 40.53125 48.484375 33.40625 48.484375 
Q 26.265625 48.484375 22.1875 42.84375 
Q 18.109375 37.203125 18.109375 27.296875 
Q 18.109375 17.390625 22.1875 11.75 
Q 26.265625 6.109375 33.40625 6.109375 
Q 40.53125 6.109375 44.609375 11.75 
Q 48.6875 17.390625 48.6875 27.296875 
z
M 18.109375 46.390625 
Q 20.953125 51.265625 25.265625 53.625 
Q 29.59375 56 35.59375 56 
Q 45.5625 56 51.78125 48.09375 
Q 58.015625 40.1875 58.015625 27.296875 
Q 58.015625 14.40625 51.78125 6.484375 
Q 45.5625 -1.421875 35.59375 -1.421875 
Q 29.59375 -1.421875 25.265625 0.953125 
Q 20.953125 3.328125 18.109375 8.203125 
L 18.109375 0 
L 9.078125 0 
L 9.078125 75.984375 
L 18.109375 75.984375 
z
" id="DejaVuSans-98"/>
      <path d="M 30.609375 48.390625 
Q 23.390625 48.390625 19.1875 42.75 
Q 14.984375 37.109375 14.984375 27.296875 
Q 14.984375 17.484375 19.15625 11.84375 
Q 23.34375 6.203125 30.609375 6.203125 
Q 37.796875 6.203125 41.984375 11.859375 
Q 46.1875 17.53125 46.1875 27.296875 
Q 46.1875 37.015625 41.984375 42.703125 
Q 37.796875 48.390625 30.609375 48.390625 
z
M 30.609375 56 
Q 42.328125 56 49.015625 48.375 
Q 55.71875 40.765625 55.71875 27.296875 
Q 55.71875 13.875 49.015625 6.21875 
Q 42.328125 -1.421875 30.609375 -1.421875 
Q 18.84375 -1.421875 12.171875 6.21875 
Q 5.515625 13.875 5.515625 27.296875 
Q 5.515625 40.765625 12.171875 48.375 
Q 18.84375 56 30.609375 56 
z
" id="DejaVuSans-111"/>
      <path d="M 41.109375 46.296875 
Q 39.59375 47.171875 37.8125 47.578125 
Q 36.03125 48 33.890625 48 
Q 26.265625 48 22.1875 43.046875 
Q 18.109375 38.09375 18.109375 28.8125 
L 18.109375 0 
L 9.078125 0 
L 9.078125 54.6875 
L 18.109375 54.6875 
L 18.109375 46.1875 
Q 20.953125 51.171875 25.484375 53.578125 
Q 30.03125 56 36.53125 56 
Q 37.453125 56 38.578125 55.875 
Q 39.703125 55.765625 41.0625 55.515625 
z
" id="DejaVuSans-114"/>
     </defs>
     <g transform="translate(50.685679 216.910871)scale(0.08 -0.08)">
      <use xlink:href="#DejaVuSans-109"/>
      <use x="97.412109" xlink:href="#DejaVuSans-101"/>
      <use x="158.935547" xlink:href="#DejaVuSans-108"/>
      <use x="186.71875" xlink:href="#DejaVuSans-98"/>
      <use x="250.195312" xlink:href="#DejaVuSans-111"/>
      <use x="311.376953" xlink:href="#DejaVuSans-117"/>
      <use x="374.755859" xlink:href="#DejaVuSans-114"/>
      <use x="415.853516" xlink:href="#DejaVuSans-110"/>
      <use x="479.232422" xlink:href="#DejaVuSans-101"/>
      <use x="540.755859" xlink:href="#DejaVuSans-95"/>
      <use x="590.755859" xlink:href="#DejaVuSans-97"/>
      <use x="652.035156" xlink:href="#DejaVuSans-117"/>
      <use x="715.414062" xlink:href="#DejaVuSans-115"/>
     </g>
    </g>
   </g>
   <g id="text_4">
    <g clip-path="url(#pdba5097925)">
     <!-- singapore_sgp -->
     <defs>
      <path d="M 45.40625 27.984375 
Q 45.40625 37.75 41.375 43.109375 
Q 37.359375 48.484375 30.078125 48.484375 
Q 22.859375 48.484375 18.828125 43.109375 
Q 14.796875 37.75 14.796875 27.984375 
Q 14.796875 18.265625 18.828125 12.890625 
Q 22.859375 7.515625 30.078125 7.515625 
Q 37.359375 7.515625 41.375 12.890625 
Q 45.40625 18.265625 45.40625 27.984375 
z
M 54.390625 6.78125 
Q 54.390625 -7.171875 48.1875 -13.984375 
Q 42 -20.796875 29.203125 -20.796875 
Q 24.46875 -20.796875 20.265625 -20.09375 
Q 16.0625 -19.390625 12.109375 -17.921875 
L 12.109375 -9.1875 
Q 16.0625 -11.328125 19.921875 -12.34375 
Q 23.78125 -13.375 27.78125 -13.375 
Q 36.625 -13.375 41.015625 -8.765625 
Q 45.40625 -4.15625 45.40625 5.171875 
L 45.40625 9.625 
Q 42.625 4.78125 38.28125 2.390625 
Q 33.9375 0 27.875 0 
Q 17.828125 0 11.671875 7.65625 
Q 5.515625 15.328125 5.515625 27.984375 
Q 5.515625 40.671875 11.671875 48.328125 
Q 17.828125 56 27.875 56 
Q 33.9375 56 38.28125 53.609375 
Q 42.625 51.21875 45.40625 46.390625 
L 45.40625 54.6875 
L 54.390625 54.6875 
z
" id="DejaVuSans-103"/>
      <path d="M 18.109375 8.203125 
L 18.109375 -20.796875 
L 9.078125 -20.796875 
L 9.078125 54.6875 
L 18.109375 54.6875 
L 18.109375 46.390625 
Q 20.953125 51.265625 25.265625 53.625 
Q 29.59375 56 35.59375 56 
Q 45.5625 56 51.78125 48.09375 
Q 58.015625 40.1875 58.015625 27.296875 
Q 58.015625 14.40625 51.78125 6.484375 
Q 45.5625 -1.421875 35.59375 -1.421875 
Q 29.59375 -1.421875 25.265625 0.953125 
Q 20.953125 3.328125 18.109375 8.203125 
z
M 48.6875 27.296875 
Q 48.6875 37.203125 44.609375 42.84375 
Q 40.53125 48.484375 33.40625 48.484375 
Q 26.265625 48.484375 22.1875 42.84375 
Q 18.109375 37.203125 18.109375 27.296875 
Q 18.109375 17.390625 22.1875 11.75 
Q 26.265625 6.109375 33.40625 6.109375 
Q 40.53125 6.109375 44.609375 11.75 
Q 48.6875 17.390625 48.6875 27.296875 
z
" id="DejaVuSans-112"/>
     </defs>
     <g transform="translate(171.360114 167.634464)scale(0.08 -0.08)">
      <use xlink:href="#DejaVuSans-115"/>
      <use x="52.099609" xlink:href="#DejaVuSans-105"/>
      <use x="79.882812" xlink:href="#DejaVuSans-110"/>
      <use x="143.261719" xlink:href="#DejaVuSans-103"/>
      <use x="206.738281" xlink:href="#DejaVuSans-97"/>
      <use x="268.017578" xlink:href="#DejaVuSans-112"/>
      <use x="331.494141" xlink:href="#DejaVuSans-111"/>
      <use x="392.675781" xlink:href="#DejaVuSans-114"/>
      <use x="433.757812" xlink:href="#DejaVuSans-101"/>
      <use x="495.28125" xlink:href="#DejaVuSans-95"/>
      <use x="545.28125" xlink:href="#DejaVuSans-115"/>
      <use x="597.380859" xlink:href="#DejaVuSans-103"/>
      <use x="660.857422" xlink:href="#DejaVuSans-112"/>
     </g>
    </g>
   </g>
   <g id="text_5">
    <g clip-path="url(#pdba5097925)">
     <!-- newYork_usa -->
     <defs>
      <path d="M 4.203125 54.6875 
L 13.1875 54.6875 
L 24.421875 12.015625 
L 35.59375 54.6875 
L 46.1875 54.6875 
L 57.421875 12.015625 
L 68.609375 54.6875 
L 77.59375 54.6875 
L 63.28125 0 
L 52.6875 0 
L 40.921875 44.828125 
L 29.109375 0 
L 18.5 0 
z
" id="DejaVuSans-119"/>
      <path d="M -0.203125 72.90625 
L 10.40625 72.90625 
L 30.609375 42.921875 
L 50.6875 72.90625 
L 61.28125 72.90625 
L 35.5 34.71875 
L 35.5 0 
L 25.59375 0 
L 25.59375 34.71875 
z
" id="DejaVuSans-89"/>
      <path d="M 9.078125 75.984375 
L 18.109375 75.984375 
L 18.109375 31.109375 
L 44.921875 54.6875 
L 56.390625 54.6875 
L 27.390625 29.109375 
L 57.625 0 
L 45.90625 0 
L 18.109375 26.703125 
L 18.109375 0 
L 9.078125 0 
z
" id="DejaVuSans-107"/>
     </defs>
     <g transform="translate(294.466626 50.432168)scale(0.08 -0.08)">
      <use xlink:href="#DejaVuSans-110"/>
      <use x="63.378906" xlink:href="#DejaVuSans-101"/>
      <use x="124.902344" xlink:href="#DejaVuSans-119"/>
      <use x="206.689453" xlink:href="#DejaVuSans-89"/>
      <use x="267.570312" xlink:href="#DejaVuSans-111"/>
      <use x="328.751953" xlink:href="#DejaVuSans-114"/>
      <use x="369.865234" xlink:href="#DejaVuSans-107"/>
      <use x="427.775391" xlink:href="#DejaVuSans-95"/>
      <use x="477.775391" xlink:href="#DejaVuSans-117"/>
      <use x="541.154297" xlink:href="#DejaVuSans-115"/>
      <use x="593.253906" xlink:href="#DejaVuSans-97"/>
     </g>
    </g>
   </g>
   <g id="text_6">
    <g clip-path="url(#pdba5097925)">
     <!-- bremerhaven_ger -->
     <defs>
      <path d="M 2.984375 54.6875 
L 12.5 54.6875 
L 29.59375 8.796875 
L 46.6875 54.6875 
L 56.203125 54.6875 
L 35.6875 0 
L 23.484375 0 
z
" id="DejaVuSans-118"/>
     </defs>
     <g transform="translate(305.055244 86.68343)scale(0.08 -0.08)">
      <use xlink:href="#DejaVuSans-98"/>
      <use x="63.476562" xlink:href="#DejaVuSans-114"/>
      <use x="104.558594" xlink:href="#DejaVuSans-101"/>
      <use x="166.082031" xlink:href="#DejaVuSans-109"/>
      <use x="263.494141" xlink:href="#DejaVuSans-101"/>
      <use x="325.017578" xlink:href="#DejaVuSans-114"/>
      <use x="366.115234" xlink:href="#DejaVuSans-104"/>
      <use x="429.494141" xlink:href="#DejaVuSans-97"/>
      <use x="490.773438" xlink:href="#DejaVuSans-118"/>
      <use x="549.953125" xlink:href="#DejaVuSans-101"/>
      <use x="611.476562" xlink:href="#DejaVuSans-110"/>
      <use x="674.855469" xlink:href="#DejaVuSans-95"/>
      <use x="724.855469" xlink:href="#DejaVuSans-103"/>
      <use x="788.332031" xlink:href="#DejaVuSans-101"/>
      <use x="849.855469" xlink:href="#DejaVuSans-114"/>
     </g>
    </g>
   </g>
   <g id="text_7">
    <g clip-path="url(#pdba5097925)">
     <!-- leHavre_fra -->
     <defs>
      <path d="M 9.8125 72.90625 
L 19.671875 72.90625 
L 19.671875 43.015625 
L 55.515625 43.015625 
L 55.515625 72.90625 
L 65.375 72.90625 
L 65.375 0 
L 55.515625 0 
L 55.515625 34.71875 
L 19.671875 34.71875 
L 19.671875 0 
L 9.8125 0 
z
" id="DejaVuSans-72"/>
      <path d="M 37.109375 75.984375 
L 37.109375 68.5 
L 28.515625 68.5 
Q 23.6875 68.5 21.796875 66.546875 
Q 19.921875 64.59375 19.921875 59.515625 
L 19.921875 54.6875 
L 34.71875 54.6875 
L 34.71875 47.703125 
L 19.921875 47.703125 
L 19.921875 0 
L 10.890625 0 
L 10.890625 47.703125 
L 2.296875 47.703125 
L 2.296875 54.6875 
L 10.890625 54.6875 
L 10.890625 58.5 
Q 10.890625 67.625 15.140625 71.796875 
Q 19.390625 75.984375 28.609375 75.984375 
z
" id="DejaVuSans-102"/>
     </defs>
     <g transform="translate(284.012367 104.337487)scale(0.08 -0.08)">
      <use xlink:href="#DejaVuSans-108"/>
      <use x="27.783203" xlink:href="#DejaVuSans-101"/>
      <use x="89.306641" xlink:href="#DejaVuSans-72"/>
      <use x="164.501953" xlink:href="#DejaVuSans-97"/>
      <use x="225.78125" xlink:href="#DejaVuSans-118"/>
      <use x="284.960938" xlink:href="#DejaVuSans-114"/>
      <use x="326.042969" xlink:href="#DejaVuSans-101"/>
      <use x="387.566406" xlink:href="#DejaVuSans-95"/>
      <use x="437.566406" xlink:href="#DejaVuSans-102"/>
      <use x="472.771484" xlink:href="#DejaVuSans-114"/>
      <use x="513.884766" xlink:href="#DejaVuSans-97"/>
     </g>
    </g>
   </g>
   <g id="text_8">
    <g clip-path="url(#pdba5097925)">
     <!-- montreal_can -->
     <g transform="translate(343.025786 124.517897)scale(0.08 -0.08)">
      <use xlink:href="#DejaVuSans-109"/>
      <use x="97.412109" xlink:href="#DejaVuSans-111"/>
      <use x="158.59375" xlink:href="#DejaVuSans-110"/>
      <use x="221.972656" xlink:href="#DejaVuSans-116"/>
      <use x="261.181641" xlink:href="#DejaVuSans-114"/>
      <use x="302.263672" xlink:href="#DejaVuSans-101"/>
      <use x="363.787109" xlink:href="#DejaVuSans-97"/>
      <use x="425.066406" xlink:href="#DejaVuSans-108"/>
      <use x="452.849609" xlink:href="#DejaVuSans-95"/>
      <use x="502.849609" xlink:href="#DejaVuSans-99"/>
      <use x="557.830078" xlink:href="#DejaVuSans-97"/>
      <use x="619.109375" xlink:href="#DejaVuSans-110"/>
     </g>
    </g>
   </g>
   <g id="text_9">
    <g clip-path="url(#pdba5097925)">
     <!-- yokohama_jpn -->
     <defs>
      <path d="M 9.421875 54.6875 
L 18.40625 54.6875 
L 18.40625 -0.984375 
Q 18.40625 -11.421875 14.421875 -16.109375 
Q 10.453125 -20.796875 1.609375 -20.796875 
L -1.8125 -20.796875 
L -1.8125 -13.1875 
L 0.59375 -13.1875 
Q 5.71875 -13.1875 7.5625 -10.8125 
Q 9.421875 -8.453125 9.421875 -0.984375 
z
M 9.421875 75.984375 
L 18.40625 75.984375 
L 18.40625 64.59375 
L 9.421875 64.59375 
z
" id="DejaVuSans-106"/>
     </defs>
     <g transform="translate(133.935821 150.864143)scale(0.08 -0.08)">
      <use xlink:href="#DejaVuSans-121"/>
      <use x="59.179688" xlink:href="#DejaVuSans-111"/>
      <use x="120.361328" xlink:href="#DejaVuSans-107"/>
      <use x="178.224609" xlink:href="#DejaVuSans-111"/>
      <use x="239.40625" xlink:href="#DejaVuSans-104"/>
      <use x="302.785156" xlink:href="#DejaVuSans-97"/>
      <use x="364.064453" xlink:href="#DejaVuSans-109"/>
      <use x="461.476562" xlink:href="#DejaVuSans-97"/>
      <use x="522.755859" xlink:href="#DejaVuSans-95"/>
      <use x="572.755859" xlink:href="#DejaVuSans-106"/>
      <use x="600.539062" xlink:href="#DejaVuSans-112"/>
      <use x="664.015625" xlink:href="#DejaVuSans-110"/>
     </g>
    </g>
   </g>
   <g id="text_10">
    <g clip-path="url(#pdba5097925)">
     <!-- shanghai_chn -->
     <g transform="translate(294.451674 194.990529)scale(0.08 -0.08)">
      <use xlink:href="#DejaVuSans-115"/>
      <use x="52.099609" xlink:href="#DejaVuSans-104"/>
      <use x="115.478516" xlink:href="#DejaVuSans-97"/>
      <use x="176.757812" xlink:href="#DejaVuSans-110"/>
      <use x="240.136719" xlink:href="#DejaVuSans-103"/>
      <use x="303.613281" xlink:href="#DejaVuSans-104"/>
      <use x="366.992188" xlink:href="#DejaVuSans-97"/>
      <use x="428.271484" xlink:href="#DejaVuSans-105"/>
      <use x="456.054688" xlink:href="#DejaVuSans-95"/>
      <use x="506.054688" xlink:href="#DejaVuSans-99"/>
      <use x="561.035156" xlink:href="#DejaVuSans-104"/>
      <use x="624.414062" xlink:href="#DejaVuSans-110"/>
     </g>
    </g>
   </g>
   <g id="text_11">
    <g clip-path="url(#pdba5097925)">
     <!-- qingdao_chn -->
     <defs>
      <path d="M 14.796875 27.296875 
Q 14.796875 17.390625 18.875 11.75 
Q 22.953125 6.109375 30.078125 6.109375 
Q 37.203125 6.109375 41.296875 11.75 
Q 45.40625 17.390625 45.40625 27.296875 
Q 45.40625 37.203125 41.296875 42.84375 
Q 37.203125 48.484375 30.078125 48.484375 
Q 22.953125 48.484375 18.875 42.84375 
Q 14.796875 37.203125 14.796875 27.296875 
z
M 45.40625 8.203125 
Q 42.578125 3.328125 38.25 0.953125 
Q 33.9375 -1.421875 27.875 -1.421875 
Q 17.96875 -1.421875 11.734375 6.484375 
Q 5.515625 14.40625 5.515625 27.296875 
Q 5.515625 40.1875 11.734375 48.09375 
Q 17.96875 56 27.875 56 
Q 33.9375 56 38.25 53.625 
Q 42.578125 51.265625 45.40625 46.390625 
L 45.40625 54.6875 
L 54.390625 54.6875 
L 54.390625 -20.796875 
L 45.40625 -20.796875 
z
" id="DejaVuSans-113"/>
     </defs>
     <g transform="translate(270.959609 186.794176)scale(0.08 -0.08)">
      <use xlink:href="#DejaVuSans-113"/>
      <use x="63.476562" xlink:href="#DejaVuSans-105"/>
      <use x="91.259766" xlink:href="#DejaVuSans-110"/>
      <use x="154.638672" xlink:href="#DejaVuSans-103"/>
      <use x="218.115234" xlink:href="#DejaVuSans-100"/>
      <use x="281.591797" xlink:href="#DejaVuSans-97"/>
      <use x="342.871094" xlink:href="#DejaVuSans-111"/>
      <use x="404.052734" xlink:href="#DejaVuSans-95"/>
      <use x="454.052734" xlink:href="#DejaVuSans-99"/>
      <use x="509.033203" xlink:href="#DejaVuSans-104"/>
      <use x="572.412109" xlink:href="#DejaVuSans-110"/>
     </g>
    </g>
   </g>
   <g id="text_12">
    <g clip-path="url(#pdba5097925)">
     <!-- pusan_kor -->
     <g transform="translate(237.485943 150.683206)scale(0.08 -0.08)">
      <use xlink:href="#DejaVuSans-112"/>
      <use x="63.476562" xlink:href="#DejaVuSans-117"/>
      <use x="126.855469" xlink:href="#DejaVuSans-115"/>
      <use x="178.955078" xlink:href="#DejaVuSans-97"/>
      <use x="240.234375" xlink:href="#DejaVuSans-110"/>
      <use x="303.613281" xlink:href="#DejaVuSans-95"/>
      <use x="353.613281" xlink:href="#DejaVuSans-107"/>
      <use x="411.476562" xlink:href="#DejaVuSans-111"/>
      <use x="472.658203" xlink:href="#DejaVuSans-114"/>
     </g>
    </g>
   </g>
   <g id="text_13">
    <g clip-path="url(#pdba5097925)">
     <!-- princeRupert_can -->
     <defs>
      <path d="M 44.390625 34.1875 
Q 47.5625 33.109375 50.5625 29.59375 
Q 53.5625 26.078125 56.59375 19.921875 
L 66.609375 0 
L 56 0 
L 46.6875 18.703125 
Q 43.0625 26.03125 39.671875 28.421875 
Q 36.28125 30.8125 30.421875 30.8125 
L 19.671875 30.8125 
L 19.671875 0 
L 9.8125 0 
L 9.8125 72.90625 
L 32.078125 72.90625 
Q 44.578125 72.90625 50.734375 67.671875 
Q 56.890625 62.453125 56.890625 51.90625 
Q 56.890625 45.015625 53.6875 40.46875 
Q 50.484375 35.9375 44.390625 34.1875 
z
M 19.671875 64.796875 
L 19.671875 38.921875 
L 32.078125 38.921875 
Q 39.203125 38.921875 42.84375 42.21875 
Q 46.484375 45.515625 46.484375 51.90625 
Q 46.484375 58.296875 42.84375 61.546875 
Q 39.203125 64.796875 32.078125 64.796875 
z
" id="DejaVuSans-82"/>
     </defs>
     <g transform="translate(331.453266 266.691499)scale(0.08 -0.08)">
      <use xlink:href="#DejaVuSans-112"/>
      <use x="63.476562" xlink:href="#DejaVuSans-114"/>
      <use x="104.589844" xlink:href="#DejaVuSans-105"/>
      <use x="132.373047" xlink:href="#DejaVuSans-110"/>
      <use x="195.751953" xlink:href="#DejaVuSans-99"/>
      <use x="250.732422" xlink:href="#DejaVuSans-101"/>
      <use x="312.255859" xlink:href="#DejaVuSans-82"/>
      <use x="381.675781" xlink:href="#DejaVuSans-117"/>
      <use x="445.054688" xlink:href="#DejaVuSans-112"/>
      <use x="508.53125" xlink:href="#DejaVuSans-101"/>
      <use x="570.054688" xlink:href="#DejaVuSans-114"/>
      <use x="611.167969" xlink:href="#DejaVuSans-116"/>
      <use x="650.376953" xlink:href="#DejaVuSans-95"/>
      <use x="700.376953" xlink:href="#DejaVuSans-99"/>
      <use x="755.357422" xlink:href="#DejaVuSans-97"/>
      <use x="816.636719" xlink:href="#DejaVuSans-110"/>
     </g>
    </g>
   </g>
   <g id="text_14">
    <g clip-path="url(#pdba5097925)">
     <!-- losAngeles_usa -->
     <defs>
      <path d="M 34.1875 63.1875 
L 20.796875 26.90625 
L 47.609375 26.90625 
z
M 28.609375 72.90625 
L 39.796875 72.90625 
L 67.578125 0 
L 57.328125 0 
L 50.6875 18.703125 
L 17.828125 18.703125 
L 11.1875 0 
L 0.78125 0 
z
" id="DejaVuSans-65"/>
     </defs>
     <g transform="translate(292.200986 282.53098)scale(0.08 -0.08)">
      <use xlink:href="#DejaVuSans-108"/>
      <use x="27.783203" xlink:href="#DejaVuSans-111"/>
      <use x="88.964844" xlink:href="#DejaVuSans-115"/>
      <use x="141.064453" xlink:href="#DejaVuSans-65"/>
      <use x="209.472656" xlink:href="#DejaVuSans-110"/>
      <use x="272.851562" xlink:href="#DejaVuSans-103"/>
      <use x="336.328125" xlink:href="#DejaVuSans-101"/>
      <use x="397.851562" xlink:href="#DejaVuSans-108"/>
      <use x="425.634766" xlink:href="#DejaVuSans-101"/>
      <use x="487.158203" xlink:href="#DejaVuSans-115"/>
      <use x="539.257812" xlink:href="#DejaVuSans-95"/>
      <use x="589.257812" xlink:href="#DejaVuSans-117"/>
      <use x="652.636719" xlink:href="#DejaVuSans-115"/>
      <use x="704.736328" xlink:href="#DejaVuSans-97"/>
     </g>
    </g>
   </g>
   <g id="text_15">
    <g clip-path="url(#pdba5097925)">
     <!-- oakland_usa -->
     <g transform="translate(366.93028 247.655708)scale(0.08 -0.08)">
      <use xlink:href="#DejaVuSans-111"/>
      <use x="61.181641" xlink:href="#DejaVuSans-97"/>
      <use x="122.460938" xlink:href="#DejaVuSans-107"/>
      <use x="180.371094" xlink:href="#DejaVuSans-108"/>
      <use x="208.154297" xlink:href="#DejaVuSans-97"/>
      <use x="269.433594" xlink:href="#DejaVuSans-110"/>
      <use x="332.8125" xlink:href="#DejaVuSans-100"/>
      <use x="396.289062" xlink:href="#DejaVuSans-95"/>
      <use x="446.289062" xlink:href="#DejaVuSans-117"/>
      <use x="509.667969" xlink:href="#DejaVuSans-115"/>
      <use x="561.767578" xlink:href="#DejaVuSans-97"/>
     </g>
    </g>
   </g>
   <g id="text_16">
    <g clip-path="url(#pdba5097925)">
     <!-- seattle_usa -->
     <g transform="translate(215.737688 257.057244)scale(0.08 -0.08)">
      <use xlink:href="#DejaVuSans-115"/>
      <use x="52.099609" xlink:href="#DejaVuSans-101"/>
      <use x="113.623047" xlink:href="#DejaVuSans-97"/>
      <use x="174.902344" xlink:href="#DejaVuSans-116"/>
      <use x="214.111328" xlink:href="#DejaVuSans-116"/>
      <use x="253.320312" xlink:href="#DejaVuSans-108"/>
      <use x="281.103516" xlink:href="#DejaVuSans-101"/>
      <use x="342.626953" xlink:href="#DejaVuSans-95"/>
      <use x="392.626953" xlink:href="#DejaVuSans-117"/>
      <use x="456.005859" xlink:href="#DejaVuSans-115"/>
      <use x="508.105469" xlink:href="#DejaVuSans-97"/>
     </g>
    </g>
   </g>
   <g id="text_17">
    <g clip-path="url(#pdba5097925)">
     <!-- vancouver_can -->
     <g transform="translate(155.256658 214.686648)scale(0.08 -0.08)">
      <use xlink:href="#DejaVuSans-118"/>
      <use x="59.179688" xlink:href="#DejaVuSans-97"/>
      <use x="120.458984" xlink:href="#DejaVuSans-110"/>
      <use x="183.837891" xlink:href="#DejaVuSans-99"/>
      <use x="238.818359" xlink:href="#DejaVuSans-111"/>
      <use x="300" xlink:href="#DejaVuSans-117"/>
      <use x="363.378906" xlink:href="#DejaVuSans-118"/>
      <use x="422.558594" xlink:href="#DejaVuSans-101"/>
      <use x="484.082031" xlink:href="#DejaVuSans-114"/>
      <use x="525.195312" xlink:href="#DejaVuSans-95"/>
      <use x="575.195312" xlink:href="#DejaVuSans-99"/>
      <use x="630.175781" xlink:href="#DejaVuSans-97"/>
      <use x="691.455078" xlink:href="#DejaVuSans-110"/>
     </g>
    </g>
   </g>
   <g id="text_18">
    <g clip-path="url(#pdba5097925)">
     <!-- durban_sau -->
     <g transform="translate(195.758141 218.41301)scale(0.08 -0.08)">
      <use xlink:href="#DejaVuSans-100"/>
      <use x="63.476562" xlink:href="#DejaVuSans-117"/>
      <use x="126.855469" xlink:href="#DejaVuSans-114"/>
      <use x="167.96875" xlink:href="#DejaVuSans-98"/>
      <use x="231.445312" xlink:href="#DejaVuSans-97"/>
      <use x="292.724609" xlink:href="#DejaVuSans-110"/>
      <use x="356.103516" xlink:href="#DejaVuSans-95"/>
      <use x="406.103516" xlink:href="#DejaVuSans-115"/>
      <use x="458.203125" xlink:href="#DejaVuSans-97"/>
      <use x="519.482422" xlink:href="#DejaVuSans-117"/>
     </g>
    </g>
   </g>
   <g id="text_19">
    <g clip-path="url(#pdba5097925)">
     <!-- itagual_bra -->
     <g transform="translate(270.987071 224.559979)scale(0.08 -0.08)">
      <use xlink:href="#DejaVuSans-105"/>
      <use x="27.783203" xlink:href="#DejaVuSans-116"/>
      <use x="66.992188" xlink:href="#DejaVuSans-97"/>
      <use x="128.271484" xlink:href="#DejaVuSans-103"/>
      <use x="191.748047" xlink:href="#DejaVuSans-117"/>
      <use x="255.126953" xlink:href="#DejaVuSans-97"/>
      <use x="316.40625" xlink:href="#DejaVuSans-108"/>
      <use x="344.189453" xlink:href="#DejaVuSans-95"/>
      <use x="394.189453" xlink:href="#DejaVuSans-98"/>
      <use x="457.666016" xlink:href="#DejaVuSans-114"/>
      <use x="498.779297" xlink:href="#DejaVuSans-97"/>
     </g>
    </g>
   </g>
   <g id="text_20">
    <g clip-path="url(#pdba5097925)">
     <!-- santos_bra -->
     <g transform="translate(231.57905 230.616654)scale(0.08 -0.08)">
      <use xlink:href="#DejaVuSans-115"/>
      <use x="52.099609" xlink:href="#DejaVuSans-97"/>
      <use x="113.378906" xlink:href="#DejaVuSans-110"/>
      <use x="176.757812" xlink:href="#DejaVuSans-116"/>
      <use x="215.966797" xlink:href="#DejaVuSans-111"/>
      <use x="277.148438" xlink:href="#DejaVuSans-115"/>
      <use x="329.248047" xlink:href="#DejaVuSans-95"/>
      <use x="379.248047" xlink:href="#DejaVuSans-98"/>
      <use x="442.724609" xlink:href="#DejaVuSans-114"/>
      <use x="483.837891" xlink:href="#DejaVuSans-97"/>
     </g>
    </g>
   </g>
   <g id="text_21">
    <g clip-path="url(#pdba5097925)">
     <!-- manzanillo_mex -->
     <defs>
      <path d="M 5.515625 54.6875 
L 48.1875 54.6875 
L 48.1875 46.484375 
L 14.40625 7.171875 
L 48.1875 7.171875 
L 48.1875 0 
L 4.296875 0 
L 4.296875 8.203125 
L 38.09375 47.515625 
L 5.515625 47.515625 
z
" id="DejaVuSans-122"/>
      <path d="M 54.890625 54.6875 
L 35.109375 28.078125 
L 55.90625 0 
L 45.3125 0 
L 29.390625 21.484375 
L 13.484375 0 
L 2.875 0 
L 24.125 28.609375 
L 4.6875 54.6875 
L 15.28125 54.6875 
L 29.78125 35.203125 
L 44.28125 54.6875 
z
" id="DejaVuSans-120"/>
     </defs>
     <g transform="translate(150.43881 121.940413)scale(0.08 -0.08)">
      <use xlink:href="#DejaVuSans-109"/>
      <use x="97.412109" xlink:href="#DejaVuSans-97"/>
      <use x="158.691406" xlink:href="#DejaVuSans-110"/>
      <use x="222.070312" xlink:href="#DejaVuSans-122"/>
      <use x="274.560547" xlink:href="#DejaVuSans-97"/>
      <use x="335.839844" xlink:href="#DejaVuSans-110"/>
      <use x="399.21875" xlink:href="#DejaVuSans-105"/>
      <use x="427.001953" xlink:href="#DejaVuSans-108"/>
      <use x="454.785156" xlink:href="#DejaVuSans-108"/>
      <use x="482.568359" xlink:href="#DejaVuSans-111"/>
      <use x="543.75" xlink:href="#DejaVuSans-95"/>
      <use x="593.75" xlink:href="#DejaVuSans-109"/>
      <use x="691.162109" xlink:href="#DejaVuSans-101"/>
      <use x="752.669922" xlink:href="#DejaVuSans-120"/>
     </g>
    </g>
   </g>
   <g id="text_22">
    <g clip-path="url(#pdba5097925)">
     <!-- sanAntonio_par -->
     <g transform="translate(206.910079 121.449515)scale(0.08 -0.08)">
      <use xlink:href="#DejaVuSans-115"/>
      <use x="52.099609" xlink:href="#DejaVuSans-97"/>
      <use x="113.378906" xlink:href="#DejaVuSans-110"/>
      <use x="176.757812" xlink:href="#DejaVuSans-65"/>
      <use x="245.166016" xlink:href="#DejaVuSans-110"/>
      <use x="308.544922" xlink:href="#DejaVuSans-116"/>
      <use x="347.753906" xlink:href="#DejaVuSans-111"/>
      <use x="408.935547" xlink:href="#DejaVuSans-110"/>
      <use x="472.314453" xlink:href="#DejaVuSans-105"/>
      <use x="500.097656" xlink:href="#DejaVuSans-111"/>
      <use x="561.279297" xlink:href="#DejaVuSans-95"/>
      <use x="611.279297" xlink:href="#DejaVuSans-112"/>
      <use x="674.755859" xlink:href="#DejaVuSans-97"/>
      <use x="736.035156" xlink:href="#DejaVuSans-114"/>
     </g>
    </g>
   </g>
  </g>
 </g>
 <defs>
  <clipPath id="pdba5097925">
   <rect height="266.112" width="357.12" x="57.6" y="41.472"/>
  </clipPath>
 </defs>
</svg>
