<?xml version="1.0" encoding="utf-8"?>
<!-- Generator: Adobe Illustrator 22.0.0, SVG Export Plug-In . SVG Version: 6.00 Build 0)  -->
<svg version="1.1" id="图层_1" xmlns="http://www.w3.org/2000/svg" xmlns:xlink="http://www.w3.org/1999/xlink" x="0px" y="0px"
	 viewBox="0 0 654.5 230" style="enable-background:new 0 0 654.5 230;" xml:space="preserve">
<style type="text/css">
	.st0{fill:url(#SVGID_1_);}
	.st1{fill:url(#SVGID_2_);}
	.st2{fill:#383838;}
	.st3{fill:none;}
</style>
<g>
	<g>
		
			<linearGradient id="SVGID_1_" gradientUnits="userSpaceOnUse" x1="135.9286" y1="146.8675" x2="148.9588" y2="124.2985" gradientTransform="matrix(1 0 0 -1 0 230)">
			<stop  offset="0" style="stop-color:#7060FF"/>
			<stop  offset="1" style="stop-color:#0478FF"/>
		</linearGradient>
		<circle class="st0" cx="142.4" cy="94.4" r="13"/>
		
			<linearGradient id="SVGID_2_" gradientUnits="userSpaceOnUse" x1="153.4497" y1="156.8739" x2="201.8516" y2="73.0394" gradientTransform="matrix(1 0 0 -1 0 230)">
			<stop  offset="0" style="stop-color:#7060FF"/>
			<stop  offset="1" style="stop-color:#0478FF"/>
		</linearGradient>
		<path class="st1" d="M220.3,124.6c-0.9-0.9-1.7-1.9-2.4-3c-3.3-5.6-1.8-12.7,3.1-16.7l0,0c1.4-1.1,2.6-2.5,3.4-4
			c0-0.1,0.1-0.1,0.1-0.2c0.1-0.1,0.1-0.2,0.2-0.3c0.1-0.1,0.1-0.3,0.2-0.4c0,0,0,0,0-0.1c0.7-1.6,1.1-3.4,1.1-5.3
			c0-7.2-5.8-13-13-13c-1.6,0-3.1,0.3-4.5,0.8l0,0c-1.5,0.6-3.2,1-4.9,1c-6.5,0-11.9-4.8-12.9-11l0,0c-0.9-6.3-6.3-11.2-12.9-11.2
			c-7.2,0-13,5.8-13,13s5.8,13,13,13c1.7,0,3.3-0.3,4.8-0.9l0,0c1.4-0.6,3-0.9,4.7-0.9c6.4,0,11.8,4.6,12.8,10.8
			c0.2,1.7,0.7,3.4,1.7,5c0.8,1.5,1.9,2.7,3.2,3.7l0,0c1.2,1,2.3,2.2,3.1,3.6c3.3,5.7,1.8,13-3.4,16.9l0,0c-2.8,2.3-4.5,5.7-4.7,9.2
			c-1.4,5.7-6.5,10-12.7,10c-1.7,0-3.4-0.3-4.9-1l0,0c-1.4-0.5-2.9-0.8-4.5-0.8c-0.5,0-1,0-1.4,0.1c-1.1,0.1-2.2,0.4-3.3,0.7l0,0
			c-1.5,0.6-3.2,1-4.9,1c-5.9,0-10.8-3.9-12.5-9.2c1.7-5.3,6.6-9.1,12.4-9.1c1.6,0,3.2,0.3,4.7,0.9l0,0c1.5,0.6,3.1,0.9,4.8,0.9
			c7.2,0,13-5.8,13-13s-5.8-13-13-13c-6.6,0-12,4.9-12.9,11.2l0,0c-1,6.2-6.4,11-12.9,11c-1.3,0-2.6-0.2-3.8-0.6
			c-1.7-0.8-3.6-1.3-5.6-1.3c-5.4,0-10,3.3-12,8c-0.7,1.6-1,3.3-1,5.1c0,7.2,5.8,13,13,13c1.9,0,3.8-0.4,5.4-1.2
			c1.3-0.4,2.6-0.6,4.1-0.6c6.6,0,12.1,5,12.9,11.4l0,0c1,6.2,6.4,10.9,12.8,10.9c0.5,0,0.9,0,1.4-0.1c5.9-0.6,10.7-5,11.6-10.8l0,0
			c0.8-6.4,6.3-11.4,12.9-11.4c1.4,0,2.7,0.2,3.9,0.6c2.7,1.2,5.7,1.5,8.6,0.8c5.7-1.4,10-6.5,10-12.7
			C226,130.9,223.7,126.9,220.3,124.6z"/>
	</g>
	<path class="st2" d="M494.9,85.3c-16.8,0-30.3,13.6-30.3,30.3s13.6,30.3,30.3,30.3s30.3-13.6,30.3-30.3S511.7,85.3,494.9,85.3z
		 M494.9,132.3c-9.2,0-16.7-7.5-16.7-16.7s7.5-16.7,16.7-16.7s16.7,7.5,16.7,16.7S504.1,132.3,494.9,132.3z"/>
	<path class="st2" d="M456.5,105.4c0-8.3-3.6-12.9-7.2-15.4c-2.8-2-6.2-2.9-9.7-2.9H404V144h13.8v-20.3h10.8l11.9,20.5l15.8-0.2
		l-12.7-22C443.5,121.9,456.5,119.9,456.5,105.4z M441.5,108.4c-0.9,0.8-2.1,1.4-4,1.4c-4.6,0-19.8,0-19.8,0v-9h20.5
		C442.2,100.9,444.3,105.7,441.5,108.4z"/>
	<g>
		<g>
			<polygon class="st2" points="343.9,143.9 361.9,112.7 379.9,143.9 395.9,143.9 361.9,85.3 328,143.9 			"/>
		</g>
		<circle class="st2" cx="367.4" cy="141.8" r="5.5"/>
		<line class="st3" x1="361.2" y1="130.7" x2="380.6" y2="130.7"/>
		<rect x="361.2" y="128" class="st2" width="19.4" height="4.1"/>
		<rect x="340.2" y="139.7" class="st2" width="23.3" height="4.1"/>
		<circle class="st2" cx="360.5" cy="130" r="5.5"/>
	</g>
	<polygon class="st2" points="306.5,87.1 291.7,98.1 276.8,87.1 263.1,87.1 263.1,144 276.9,144 276.9,103.7 291.7,114.6 
		306.4,103.7 306.4,144 320.2,144 320.2,87.1 	"/>
</g>
</svg>
